<svg xmlns="http://www.w3.org/2000/svg" width="1084.826" height="154.756"><defs><clipPath><path d="M35.15 410.94H411.7V24.12H35.16v386.82z"/></clipPath><clipPath><path d="M0 0h436.54v496.06H0V0z"/></clipPath><clipPath id="a"><path d="M316.05 465.73H416.7v14.36H316.04v-14.37z"/></clipPath></defs><g fill="#808080"><g><path d="M82.88 141.85V129.2h53.47V97.44H82.88V84.78H149v57.07H82.88z"/></g><path d="M82.88 107h43.9v12.64H82.9V107z"/><g><path d="M91.94 11.82h12.63v50.76h31.78v-41.7h57.07V53h-12.65v-19.5H149v41.7H91.94v-63.4z"/></g><g><path d="M114.14 11.82h12.64v41.2h-12.63v-41.2z"/></g><g><path d="M224.67 141.85V129.2H171.2V97.44h53.47V84.78h-66.12v57.07h66.12z"/></g><path d="M224.67 107h-43.9v12.64h43.9V107z"/><g><path d="M158.56 43.1h12.64v19.47h31.78V11.83h12.64v63.4h-57.07V43.08z"/></g><g><g clip-path="url(#a)" transform="matrix(9.131 0 0 -9.131 -2803.195 4395.894)"><g><path fill-rule="evenodd" d="M338.82 468.45h-2.03l.65 1.86c.14.43.26.86.34 1.23.1-.4.2-.76.34-1.16l.68-1.92zm2.43-2.6l-2.6 7.3h-1.6l-2.54-7.3h1.42l.5 1.5h2.77l.5-1.5h1.55z"/></g><g><path fill-rule="evenodd" d="M345.13 471c0-.7-.52-1.12-1.36-1.12-.22 0-.4 0-.5.02v2.1c.13.03.33.04.54.04.9 0 1.33-.34 1.33-1.05m1.95-5.15l-1.75 2.45c-.18.25-.4.53-.6.8 1.1.18 1.87.95 1.87 2.03 0 1.5-1.04 2.06-2.65 2.06-.84 0-1.52-.02-2.1-.06v-7.3h1.4v3.02h.06l2.04-3h1.74z"/></g><g><path fill-rule="evenodd" d="M352.03 468.1c0 2.3-3.07 1.8-3.07 3.1 0 .53.4.9 1.22.9.44 0 .9-.08 1.3-.2l.08 1.23c-.43.08-.9.13-1.32.13-1.75 0-2.77-.9-2.77-2.2 0-2.4 3.05-1.75 3.05-3.15 0-.66-.55-.95-1.26-.95-.53 0-1.1.12-1.52.26l-.1-1.3c.46-.1.98-.17 1.5-.17 1.8 0 2.9 1 2.9 2.38"/></g><g><path fill-rule="evenodd" d="M359.22 465.85v1.2h-2.56v1.98h2.43v1.14h-2.44v1.8h2.56v1.17h-3.97v-7.3h3.97z"/></g><g><path fill-rule="evenodd" d="M364.2 465.85v1.23h-2.38v6.06h-1.4v-7.3h3.77z"/></g><g><path fill-rule="evenodd" d="M368.85 465.85v1.2h-2.56v1.98h2.42v1.14h-2.43v1.8h2.55v1.17h-3.97v-7.3h3.97z"/></g><g><path fill-rule="evenodd" d="M374.95 466.08l-.16 1.25c-.4-.17-.98-.3-1.43-.3-1.47 0-2.13.88-2.13 2.47 0 1.42.67 2.44 2.04 2.44.5 0 1-.07 1.47-.2l.15 1.26c-.48.13-1.03.2-1.55.2-2.44 0-3.65-1.62-3.65-3.94 0-1.8.82-3.5 3.37-3.5.68 0 1.34.12 1.88.32"/></g><g><path fill-rule="evenodd" d="M380.54 471.94v1.2h-5.18v-1.2h1.9v-6.1h1.4v6.1h1.88z"/></g><g><path fill-rule="evenodd" d="M384.46 471c0-.7-.52-1.12-1.36-1.12-.22 0-.4 0-.5.02v2.1c.13.03.34.04.54.04.9 0 1.32-.34 1.32-1.05m1.96-5.15l-1.75 2.45c-.2.25-.4.53-.6.8 1.1.18 1.86.95 1.86 2.03 0 1.5-1.04 2.06-2.65 2.06-.84 0-1.52-.02-2.1-.06v-7.3h1.4v3.02h.07l2.03-3h1.74z"/></g><g><path fill-rule="evenodd" d="M392.02 469.5c0-1.76-1.02-2.5-1.97-2.5-1.3 0-1.9 1-1.9 2.56 0 1.64.92 2.44 1.93 2.44 1.25 0 1.94-.9 1.94-2.5m1.5.1c0 2.5-1.37 3.66-3.3 3.66-1.97 0-3.58-1.45-3.58-3.85 0-2.25 1.1-3.67 3.32-3.67 1.97 0 3.56 1.46 3.56 3.87"/></g><g><path fill-rule="evenodd" d="M400.5 465.85v7.3h-1.35v-2.28c0-.9.02-2.2.07-2.92-.27.55-.56 1.15-.9 1.7l-2.02 3.5h-1.83v-7.3h1.36v2.6c0 .88-.02 2.02-.06 2.65.2-.47.47-1 .8-1.57l2.12-3.68h1.8z"/></g><path fill-rule="evenodd" d="M403.47 473.14h-1.4v-7.3h1.4v7.3z"/><g><path fill-rule="evenodd" d="M409.72 466.08l-.17 1.25c-.37-.17-.97-.3-1.4-.3-1.48 0-2.14.88-2.14 2.47 0 1.42.68 2.44 2.04 2.44.5 0 1-.07 1.47-.2l.16 1.26c-.47.13-1.02.2-1.54.2-2.44 0-3.65-1.62-3.65-3.94 0-1.8.82-3.5 3.37-3.5.68 0 1.34.12 1.88.32"/></g><g><path fill-rule="evenodd" d="M414.26 468.45h-2.03l.66 1.86c.13.43.25.86.34 1.23.1-.4.2-.76.34-1.16l.68-1.92zm2.43-2.6l-2.6 7.3h-1.6l-2.55-7.3h1.42l.5 1.5h2.76l.5-1.5h1.56z"/></g></g></g></g></svg>