<svg xmlns="http://www.w3.org/2000/svg" viewBox="0 0 1920 1080" enable-background="new 0 0 1920 1080"><style id="style3" type="text/css">.st0{fill:#FFFFFF;}</style><g id="g5"><path id="path7" fill="#808080" d="M590 169c247.7 0 495.3 0 743 0 0 247.7 0 495.3 0 743-247.7 0-495.3 0-743 0 0-247.7 0-495.3 0-743zm130.3 370.5c1.4-1 2.6-1.8 3.8-2.6 11.3-7.2 18.2-17.4 20.4-30.6.6-3.3.8-6.6 1.1-9.9 1.5-16.1.3-31.9-4.8-47.4s-15.4-26.2-30.5-32.3c-8.5-3.4-17.4-4-26.5-3.9-18.1.1-36.3 0-54.2 0-3.3 5.8-4.5 11.5-4.5 17.9.2 74.2.1 148.3.1 222.5 0 2.7-.1 5.3 0 8 .2 4.7 1.5 6.1 6 6.1 22 0 44 .1 66-.5 6.2-.2 12.7-1.7 18.3-4.2 16.5-7.6 25.6-21.7 29.3-38.8 4.1-19 3.4-38.1-1.6-56.9-2.6-9.8-8.2-17.3-16.4-23.1-2-1.5-4.2-2.8-6.5-4.3zm80.5 97.7c11 .5 21.2-.7 31.5.8 1.6 10.8 3 20.9 4.5 31.1 14.2-.2 27.4.5 40.8-1.5 0-3 .2-5.7 0-8.3-.4-4.5-1.1-8.9-1.6-13.4-2.1-19.4-4.3-38.7-6.4-58.1-3.6-33.3-7.1-66.6-10.6-99.8-2.4-22.4-4.6-44.7-6.9-67.1-.2-1.9-.9-3.7-1.4-5.7-2.7-.4-4.8-.9-6.9-.9-16-.1-32-.2-48-.2-2.7 0-5.4.7-8.2 1.1-.3 1.6-.5 2.6-.6 3.6-2.1 17.7-4.3 35.4-6.3 53.1-4 35.6-7.7 71.2-11.7 106.8-3.1 27.6-6.5 55.2-9.6 82.8-.3 2.5.3 5 .5 7.7 12.5 0 24.1 0 36.2 0 1.5-10.7 3-21 4.7-32zm497.1-137.9c1.5-16.1 1.7-31.2-1.1-46.2-3.2-17.8-13.1-30.5-30.5-36.3-10.3-3.4-21.1-4.6-32-3.8-24.2 1.8-41.1 16.5-45.4 40.4-1.4 7.7-1.7 15.6-1.8 23.4-.2 44.2-.2 88.3 0 132.5 0 10.9 1.7 21.6 6.5 31.6 6.6 14 17.1 23.1 32.5 26.2 9.9 2 19.8 2.3 29.8 1 23.9-3.1 41.4-21.6 42.3-45.7.5-14.1.4-28.3.5-42.5 0-1.6-.3-3.2-.5-4.8-13.1 0-25.8 0-39 0-.1 2.5-.3 4.3-.3 6 0 9.3.1 18.7.1 28 0 2.5-.3 5-.9 7.4-1.4 5.9-5.7 9.2-11.9 9.5-5.9.2-10.5-2.7-12.2-8.3-.8-2.6-1.1-5.6-1.1-8.4-.2-16.3-.4-32.7-.4-49 .1-31.2.3-62.3.6-93.5.1-9.4 8.5-15 17.4-12 5.7 1.9 7.4 6.4 7.5 11.7.2 9.2.1 18.3.2 27.5 0 1.7.3 3.5.5 5.1 13.2.2 26 .2 39.2.2zm-278.7-42.6c.2 3.2.5 5.5.5 7.8.2 43 .5 86 .6 129 .1 22.7-.2 45.3-.2 68 0 2.5.8 5 1.3 7.4 14.2 0 27.4 0 41.2 0 .5-2.3 1.1-4.4 1.2-6.4.2-3.1 0-6.3 0-9.5-.1-63.7-.2-127.3-.3-191 0-1.7.2-3.5.3-5.3 6.2 0 11.9 0 17.5 0 5.7 0 11.5-.1 17-.2 1.4-7.4 1-37.7-.5-41.6-2.2-.2-4.6-.7-7.1-.8-8.1-.1-16.3-.1-24.4 0-25.5.2-51 .4-76.5.6-4.6 0-6.2 1.3-6.3 5.8-.3 10.3-.4 20.7-.5 31 0 1.6.4 3.2.8 5.2 12 0 23.4 0 35.4 0zM897 414c-.2 2.3-.3 3.7-.3 5.2 0 20.2.2 40.3.1 60.5-.1 33.1-.3 66.3-.4 99.4-.1 26.6-.2 53.3-.2 79.9 0 3.1.5 6.1.7 9.2 32.4 0 64.1 0 96.4 0 0-14.4 0-28.1 0-42.5-17.3 0-34.5 0-52.2 0 0-2.3 0-4 0-5.6.1-9.7.2-19.3.2-29 .1-23.5 0-47 .1-70.4.2-32.1.7-64.3.9-96.4 0-3.3-.3-6.5-.5-10.3-15.1 0-29.6 0-44.8 0zm264.7 254.6c.4-85.2.9-170.1 1.3-255.3-15.1 0-29.8 0-44.7 0 0 85.2 0 170.1 0 255.3 14.4 0 28.5 0 43.4 0z"/><path id="path9" d="M720.3 539.5c2.3 1.5 4.4 2.8 6.5 4.2 8.2 5.8 13.9 13.3 16.4 23.1 5 18.8 5.7 37.9 1.6 56.9-3.7 17.2-12.7 31.3-29.3 38.8-5.6 2.6-12.1 4.1-18.3 4.2-22 .6-44 .5-66 .5-4.5 0-5.8-1.4-6-6.1-.1-2.7 0-5.3 0-8 0-74.2.1-148.3-.1-222.5 0-6.4 1.2-12.1 4.5-17.9 17.9 0 36.1.1 54.2 0 9.1 0 17.9.5 26.5 3.9 15.1 6.1 25.4 16.7 30.5 32.3 5.1 15.4 6.3 31.3 4.8 47.4-.3 3.3-.5 6.7-1.1 9.9-2.2 13.2-9.1 23.4-20.4 30.6-1.2.9-2.4 1.8-3.8 2.7zM671.4 626c5.3-.3 10.3-.1 15.1-.9 6.3-1.1 10.4-5.8 10.7-12.1.5-13.1.7-26.3.5-39.4-.1-6.5-2.7-12.4-10-13.9-5.1-1-10.4-.9-16.2-1.3-.1 22.7-.1 44.4-.1 67.6zm.3-107.2c3.3-.3 6.3-.5 9.3-.8 9.7-1 14.5-5.6 14.8-15.4.4-11.8.3-23.7.2-35.5 0-5.1-2.6-8.7-7.6-10.7-5.3-2.1-10.6-2-16.7-1.4 0 21.3 0 42.1 0 63.8z" class="st0"/><path id="path11" d="M800.8 637.2c-1.6 11-3.2 21.3-4.7 31.9-12 0-23.6 0-36.2 0-.2-2.7-.8-5.2-.5-7.7 3.1-27.6 6.5-55.2 9.6-82.8 4-35.6 7.7-71.2 11.7-106.8 2-17.7 4.2-35.4 6.3-53.1.1-1 .3-1.9.6-3.6 2.7-.4 5.4-1.1 8.2-1.1 16 0 32 .1 48 .2 2.1 0 4.2.6 6.9.9.5 1.9 1.2 3.8 1.4 5.7 2.4 22.4 4.6 44.7 6.9 67.1 3.5 33.3 7.1 66.6 10.6 99.8 2.1 19.4 4.2 38.7 6.4 58.1.5 4.5 1.2 8.9 1.6 13.4.2 2.6 0 5.3 0 8.3-13.3 2-26.6 1.3-40.8 1.5-1.5-10.2-3-20.3-4.5-31.1-10.3-1.4-20.5-.3-31.5-.7zm27.4-37.9c-3.4-28.3-7-55.9-10.8-83.4-.4 0-.8.1-1.1.1-3.7 27.6-7.4 55.2-11.2 83.3 7.8 0 15.1 0 23.1 0z" class="st0"/><path id="path13" d="M1297.9 499.3c-13.2 0-25.9 0-39.3 0-.2-1.7-.4-3.4-.5-5.1-.1-9.2 0-18.3-.2-27.5-.1-5.3-1.8-9.8-7.5-11.7-8.8-3-17.3 2.6-17.4 12-.3 31.2-.5 62.3-.6 93.5-.1 16.3.2 32.7.4 49 0 2.8.3 5.7 1.1 8.4 1.8 5.6 6.4 8.5 12.2 8.3 6.2-.2 10.5-3.6 11.9-9.5.6-2.4.8-4.9.9-7.4.1-9.3-.1-18.7-.1-28 0-1.8.2-3.6.3-6 13.1 0 25.8 0 39 0 .2 1.5.5 3.1.5 4.8-.1 14.2 0 28.3-.5 42.5-.9 24.1-18.4 42.7-42.3 45.7-10 1.3-19.9.9-29.8-1-15.4-3.1-25.9-12.3-32.5-26.2-4.7-10-6.4-20.7-6.5-31.6-.2-44.2-.1-88.3 0-132.5 0-7.8.4-15.7 1.8-23.4 4.3-23.9 21.2-38.6 45.4-40.4 11-.8 21.7.4 32 3.8 17.4 5.7 27.3 18.4 30.5 36.3 2.8 14.7 2.6 29.9 1.2 46z" class="st0"/><path id="path15" d="M1019.2 456.7c-12 0-23.4 0-35.3 0-.3-2.1-.8-3.6-.8-5.2.1-10.3.3-20.7.5-31 .1-4.4 1.7-5.8 6.3-5.8 25.5-.2 51-.4 76.5-.6 8.1-.1 16.3-.1 24.4 0 2.4 0 4.9.5 7.1.8 1.5 3.9 1.9 34.2.5 41.6-5.5.1-11.3.2-17 .2-5.6 0-11.3 0-17.5 0-.1 1.8-.3 3.5-.3 5.3.1 63.7.2 127.3.3 191 0 3.2.2 6.3 0 9.5-.1 2.1-.8 4.1-1.2 6.4-13.8 0-27 0-41.2 0-.4-2.4-1.3-4.9-1.3-7.4 0-22.7.3-45.3.2-68-.1-43-.4-86-.6-129-.1-2.3-.4-4.6-.6-7.8z" class="st0"/><path id="path17" d="M897 414c15.2 0 29.7 0 44.9 0 .2 3.7.5 7 .5 10.3-.3 32.1-.7 64.3-.9 96.4-.2 23.5-.1 47-.1 70.4 0 9.7-.1 19.3-.2 29 0 1.6 0 3.3 0 5.6 17.7 0 34.9 0 52.2 0 0 14.4 0 28.1 0 42.5-32.3 0-64 0-96.4 0-.3-3-.7-6.1-.7-9.2 0-26.6.1-53.3.2-79.9.1-33.1.4-66.3.4-99.4 0-20.2-.1-40.3-.1-60.5-.1-1.5.1-3 .2-5.2z" class="st0"/><path id="path19" d="M1161.7 668.6c-14.9 0-29 0-43.4 0 0-85.2 0-170.1 0-255.3 14.9 0 29.6 0 44.7 0-.4 85.3-.8 170.1-1.3 255.3z" class="st0"/><path id="path21" fill="#808080" d="M671.4 626c0-23.2 0-44.9 0-67.6 5.8.4 11.1.3 16.2 1.3 7.2 1.5 9.8 7.4 10 13.9.3 13.1 0 26.3-.5 39.4-.2 6.3-4.4 11-10.7 12.1-4.8.8-9.7.6-15 .9z"/><path id="path23" fill="#808080" d="M671.7 518.8c0-21.7 0-42.6 0-63.7 6-.6 11.4-.7 16.7 1.4 4.9 2 7.5 5.5 7.6 10.7.1 11.8.2 23.7-.2 35.5-.3 9.8-5.1 14.4-14.8 15.4-3 .3-6 .4-9.3.7z"/><path id="path25" fill="#808080" d="M828.2 599.3c-8 0-15.3 0-23.2 0 3.8-28.2 7.5-55.8 11.2-83.3.4 0 .8-.1 1.1-.1 3.9 27.5 7.5 55.1 10.9 83.4z"/></g></svg>