<svg xmlns="http://www.w3.org/2000/svg" width="300" height="86.219" version="1"><g fill="#808080"><path d="M162.5 55.57c0 9.26-11.52 8.7-11.52 8.7h-11.52V47.56h11.52c11.86-.07 11.52 8.02 11.52 8.02m-23.04-33.53h8.78c9.12.48 8.77 7.27 8.77 7.27 0 8.44-10.07 8.58-10.07 8.58h-7.47V22.04zm20.92 19.13s7.88-3.36 7.8-12.28c0 0 1.2-14.6-18.14-16.4h-21.5v61.25h24.63s20.58.07 20.58-17.3c0 0 .48-11.78-13.37-15.28M104.78.5h90.44v85.22H104.8V.5zM58.22 55.57c0 9.26-11.52 8.7-11.52 8.7H35.16V47.56H46.7c11.86-.07 11.52 8.02 11.52 8.02M35.17 22.04h8.78c9.12.48 8.78 7.27 8.78 7.27 0 8.44-10.08 8.58-10.08 8.58h-7.48V22.04zM56.1 41.17s7.88-3.36 7.8-12.28c0 0 1.2-14.6-18.15-16.4H24.27v61.25H48.9s20.56.07 20.56-17.3c0 0 .48-11.78-13.37-15.28M.5.5h90.43v85.22H.5V.5zM281.05 16.9v11.3S270 21.43 257.8 21.3c0 0-22.77-.44-23.8 21.83 0 0-.82 20.5 23.53 21.66 0 0 10.22 1.24 24.07-7.6v11.72s-18.6 11.04-40.12 2.54c0 0-18.1-6.62-18.8-28.3 0 0-.75-22.32 23.4-29.73 0 0 6.44-2.47 18.03-1.38 0 0 6.94.7 16.95 4.87M209.07 85.7h90.43V.5h-90.43v85.22z"/></g></svg>