<svg xmlns="http://www.w3.org/2000/svg" width="921.26" height="177.165" version="1"><g><g fill-rule="evenodd"><path fill="#808080" d="M141.63 163.43H17.73V39.53h123.9z"/><path fill="#fff" d="M27.1 155.86L79.52 87.4l53.62 69.97-53.62-43.02-52.42 41.5zm0-42.73l52.42-68.47 53.62 70-53.62-43.03-52.42 41.5z"/><path fill="#808080" d="M294.43 162.22h25.85V39.32h-25.85v122.9zm73.9 0h26.26v-98.9h36.87v-24H329.95v24h38.37v98.9zm246.14.4c34.95 0 62.72-27.9 62.72-62.38 0-33.5-28.27-60.9-62.23-60.9-34.8 0-63.06 27.23-63.06 61.9 0 34 28.1 61.4 62.57 61.4zm0-22.44c-22.08 0-39.14-17.83-39.14-39.6 0-21.64 17.73-38.8 39.47-38.8 21.4 0 38.97 17.5 38.97 38.62 0 21.8-17.06 39.78-39.3 39.78zm259.3 22.04l29.28.16.5-123.22-26.83-.1.02 80.56-47.78-80.46h-30.7l-.05 123.06h26.27l.34-82.47 48.96 82.47zM718 14.28c-6.24 0-11.4 5.17-11.4 11.4s5.16 11.4 11.4 11.4c6.22 0 11.4-5.17 11.4-11.4s-5.18-11.4-11.4-11.4zm37.2-.54c-6.22 0-11.4 5.16-11.4 11.4 0 6.23 5.18 11.4 11.4 11.4 6.24 0 11.4-5.17 11.4-11.4 0-6.24-5.16-11.4-11.4-11.4zM466.85 93.56s25.95.04 25.95.04c18.53 0 22.63-5.17 22.63-16.32 0-11.84-4.1-15.54-23.54-15.54 0 0-25.06.02-25.06.02v31.8zm51.86 68.66l-31.02-47.5-19.5-.06.02 47.56h-25.18s0-122.8 0-122.8 30.45-.08 51.07-.1c41.07 0 45.98 16.73 45.95 40.66 0 18-7.84 26.3-24.62 32.82 0 0 32.8 49.42 32.8 49.42H518.7zM280.02 68.27c-12.42-19.82-29.15-29.04-52.53-28.94-34.73.15-62.9 29.86-61.35 64.54 1.5 33.1 28.02 58.6 61.16 59 23.84.28 41.03-9.2 53.53-29.48 0 0-21.1-12.17-21.1-12.17-7.8 13.43-19.78 19.72-35.27 18.5-20.14-1.55-34.48-18.43-34.5-38.63 0-20.22 14.35-37.1 34.5-38.7 15.6-1.27 27.72 5.1 35.53 18.66 0 0 20.02-12.8 20.02-12.8zm411.64 93.95h89.6V136.5h-64.9v-24.13h58.36v-25h-58.37l-.06-23.94h64.9v-24.5h-89.6l.06 123.3z"/></g></g></svg>