<svg xmlns="http://www.w3.org/2000/svg" enable-background="new 3.7 128.1 487.1 318.4" viewBox="3.7 128.1 487.1 318.4"><path fill="#808080" d="M3.7 128.1h6.9v303.2H3.7z"/><g fill="#808080" enable-background="new"><path d="M64.9 273.9c9 0 15.9 2.3 20.8 6.9 4.9 4.6 7.3 11.6 7.3 20.9 0 4.9-.5 9.3-1.6 13-1.1 3.8-2.8 7-5.1 9.6-2.3 2.6-5.2 4.6-8.8 5.9-3.5 1.4-7.7 2-12.6 2h-20v-58.4h20zm.7 51.8c.9 0 2-.1 3.3-.2 1.3-.1 2.7-.5 4.2-1s2.9-1.3 4.4-2.2c1.4-1 2.7-2.3 3.9-4 1.1-1.7 2.1-3.8 2.8-6.3.7-2.5 1.1-5.6 1.1-9.2 0-3.5-.3-6.6-1-9.4-.7-2.8-1.8-5.1-3.4-7-1.6-1.9-3.6-3.4-6-4.4-2.5-1-5.5-1.5-9.1-1.5H52.6v45.3h13z"/><path d="M130.3 329.6c-3.2 2.4-7.1 3.6-11.9 3.6-3.4 0-6.3-.5-8.8-1.6-2.5-1.1-4.6-2.6-6.3-4.6-1.7-2-3-4.3-3.8-7-.8-2.7-1.3-5.7-1.4-8.9 0-3.2.5-6.2 1.5-8.8 1-2.7 2.4-5 4.1-7 1.8-2 3.9-3.5 6.3-4.6 2.4-1.1 5.1-1.6 8-1.6 3.8 0 6.9.8 9.4 2.3 2.5 1.6 4.5 3.5 6 5.9 1.5 2.4 2.5 5 3.1 7.9.6 2.8.8 5.5.7 8.1h-31.7c-.1 1.9.2 3.6.7 5.3.5 1.7 1.3 3.1 2.4 4.4 1.1 1.3 2.5 2.3 4.2 3.1 1.7.8 3.7 1.1 6 1.1 2.9 0 5.4-.7 7.2-2 1.9-1.4 3.1-3.4 3.7-6.2h6.9c-1.1 4.6-3.2 8.2-6.3 10.6zm-1.7-27.2c-.6-1.5-1.5-2.7-2.5-3.8-1.1-1.1-2.3-1.9-3.8-2.5-1.4-.6-3-.9-4.8-.9-1.8 0-3.4.3-4.9.9-1.4.6-2.7 1.5-3.7 2.6s-1.9 2.4-2.5 3.8c-.6 1.4-1 3-1.1 4.6h24.3c0-1.6-.4-3.2-1-4.7z"/><path d="M150.5 290v5.7h.2c1.1-2.3 2.9-4 5.4-5.1 2.5-1.1 5.2-1.6 8.1-1.6 3.3 0 6.1.6 8.5 1.8 2.4 1.2 4.4 2.8 6.1 4.9 1.6 2 2.8 4.4 3.6 7.1.8 2.7 1.2 5.5 1.2 8.5s-.4 5.8-1.2 8.5c-.8 2.7-2 5-3.6 7s-3.6 3.6-6.1 4.7c-2.4 1.1-5.2 1.7-8.5 1.7-1 0-2.2-.1-3.5-.3-1.3-.2-2.5-.6-3.8-1.1-1.3-.5-2.4-1.2-3.6-2-1.1-.8-2.1-1.9-2.8-3.1h-.2v21.8h-7V290h7.2zm24.9 15c-.5-1.9-1.3-3.6-2.4-5-1.1-1.5-2.4-2.6-4.1-3.5-1.7-.9-3.6-1.3-5.8-1.3-2.3 0-4.3.5-6 1.4-1.6.9-3 2.1-4 3.6s-1.8 3.2-2.2 5.1c-.5 1.9-.7 3.8-.7 5.8 0 2.1.2 4.1.7 6 .5 1.9 1.3 3.6 2.3 5.1 1.1 1.5 2.4 2.7 4.1 3.6 1.7.9 3.7 1.3 6.1 1.3 2.4 0 4.4-.5 6-1.4 1.6-.9 2.9-2.2 3.9-3.7s1.7-3.3 2.1-5.2c.4-2 .7-4 .7-6.1.1-1.9-.1-3.8-.7-5.7z"/><path d="M228.2 332.1c-1.2.7-2.9 1.1-5 1.1-1.8 0-3.2-.5-4.3-1.5-1.1-1-1.6-2.7-1.6-4.9-1.9 2.3-4.1 3.9-6.7 4.9-2.5 1-5.3 1.5-8.2 1.5-1.9 0-3.7-.2-5.4-.7s-3.2-1.1-4.5-2c-1.3-.9-2.2-2.1-3-3.6-.7-1.5-1.1-3.3-1.1-5.4 0-2.4.4-4.4 1.2-5.9.8-1.5 1.9-2.8 3.2-3.7 1.3-1 2.9-1.7 4.6-2.2 1.7-.5 3.5-.9 5.3-1.2 1.9-.4 3.7-.7 5.4-.9 1.7-.2 3.2-.5 4.5-.8 1.3-.4 2.3-.9 3.1-1.6.8-.7 1.1-1.7 1.1-3 0-1.5-.3-2.8-.9-3.7-.6-.9-1.3-1.6-2.2-2.1-.9-.5-1.9-.8-3-1-1.1-.2-2.2-.2-3.3-.2-2.9 0-5.4.6-7.4 1.7s-3 3.2-3.2 6.3h-7c.1-2.6.7-4.8 1.6-6.6 1-1.8 2.3-3.3 3.9-4.4 1.6-1.1 3.5-1.9 5.6-2.4 2.1-.5 4.3-.7 6.7-.7 1.9 0 3.8.1 5.7.4 1.9.3 3.6.8 5.1 1.7 1.5.8 2.8 2 3.7 3.6.9 1.5 1.4 3.5 1.4 6v21.7c0 1.6.1 2.8.3 3.6.2.8.8 1.1 1.9 1.1.6 0 1.3-.1 2.1-.3v5.2zM217 310.4c-.9.7-2 1.1-3.4 1.4-1.4.3-2.9.5-4.5.7-1.6.2-3.1.4-4.7.7-1.6.2-3 .6-4.3 1.2-1.3.5-2.3 1.3-3.1 2.3-.8 1-1.2 2.4-1.2 4.1 0 1.1.2 2.1.7 2.9.5.8 1.1 1.4 1.8 1.9s1.6.8 2.6 1.1c1 .2 2 .3 3.1.3 2.3 0 4.3-.3 5.9-.9s3-1.4 4-2.4c1-.9 1.8-2 2.3-3.1.5-1.1.7-2.2.7-3.1v-7.1z"/><path d="M240 290v8.9h.2c1.7-3.4 3.8-6 6.2-7.6s5.6-2.4 9.3-2.3v7.4c-2.8 0-5.2.4-7.1 1.1-2 .8-3.5 1.9-4.7 3.4-1.2 1.5-2.1 3.3-2.6 5.4-.5 2.1-.8 4.5-.8 7.2v18.8h-7V290h6.5z"/><path d="M278 290v6.1h-8.4v26.3c0 .8.1 1.5.2 2s.4.9.8 1.1c.4.3.9.4 1.6.5.7.1 1.6.1 2.7.1h3.2v6.1h-5.3c-1.8 0-3.3-.1-4.6-.4-1.3-.2-2.3-.7-3.1-1.3-.8-.7-1.4-1.6-1.8-2.8-.4-1.2-.6-2.8-.6-4.7v-26.9h-7.2V290h7.2v-12.7h7V290h8.3z"/><path d="M291.3 290v6.2h.2c3.2-4.8 7.7-7.2 13.7-7.2 2.6 0 5 .5 7.1 1.6 2.1 1.1 3.6 2.9 4.5 5.6 1.4-2.3 3.3-4.1 5.6-5.3 2.3-1.3 4.9-1.9 7.6-1.9 2.1 0 4 .2 5.8.7 1.7.5 3.2 1.2 4.4 2.2 1.2 1 2.2 2.2 2.9 3.8.7 1.6 1 3.4 1 5.6v31h-7v-27.7c0-1.3-.1-2.5-.3-3.7-.2-1.1-.6-2.1-1.2-3-.6-.8-1.4-1.5-2.5-2s-2.4-.7-4.1-.7c-3.4 0-6.1 1-8.1 2.9s-2.9 4.6-2.9 7.9v26.3h-7v-27.7c0-1.4-.1-2.6-.4-3.8-.2-1.1-.7-2.1-1.3-3-.6-.8-1.4-1.5-2.4-2s-2.3-.7-3.9-.7c-2 0-3.8.4-5.2 1.2-1.4.8-2.6 1.8-3.5 2.9-.9 1.1-1.6 2.3-2 3.6-.4 1.2-.6 2.2-.6 3.1v26.3h-7V290h6.6z"/><path d="M383.5 329.6c-3.2 2.4-7.1 3.6-11.9 3.6-3.4 0-6.3-.5-8.8-1.6-2.5-1.1-4.6-2.6-6.3-4.6-1.7-2-3-4.3-3.8-7-.8-2.7-1.3-5.7-1.4-8.9 0-3.2.5-6.2 1.5-8.8 1-2.7 2.4-5 4.1-7 1.8-2 3.9-3.5 6.3-4.6 2.4-1.1 5.1-1.6 8-1.6 3.8 0 6.9.8 9.4 2.3 2.5 1.6 4.5 3.5 6 5.9 1.5 2.4 2.5 5 3.1 7.9.6 2.8.8 5.5.7 8.1h-31.7c-.1 1.9.2 3.6.7 5.3.5 1.7 1.3 3.1 2.4 4.4s2.5 2.3 4.2 3.1c1.7.8 3.7 1.1 6 1.1 2.9 0 5.4-.7 7.2-2 1.9-1.4 3.1-3.4 3.7-6.2h6.9c-1.1 4.6-3.2 8.2-6.3 10.6zm-1.7-27.2c-.6-1.5-1.5-2.7-2.5-3.8-1.1-1.1-2.3-1.9-3.8-2.5-1.4-.6-3-.9-4.8-.9-1.8 0-3.4.3-4.9.9-1.4.6-2.7 1.5-3.7 2.6s-1.9 2.4-2.5 3.8c-.6 1.4-1 3-1.1 4.6h24.3c0-1.6-.4-3.2-1-4.7z"/><path d="M403 290v6.7h.2c2.9-5.1 7.5-7.7 13.7-7.7 2.8 0 5.1.4 7 1.1 1.9.8 3.4 1.8 4.5 3.2 1.1 1.4 1.9 3 2.4 4.9.5 1.9.7 4 .7 6.3v27.8h-7v-28.6c0-2.6-.8-4.7-2.3-6.2-1.5-1.5-3.6-2.3-6.3-2.3-2.1 0-4 .3-5.5 1-1.6.7-2.9 1.6-3.9 2.8-1 1.2-1.8 2.6-2.3 4.2-.5 1.6-.8 3.4-.8 5.3v23.9h-7V290h6.6z"/><path d="M459 290v6.1h-8.4v26.3c0 .8.1 1.5.2 2s.4.9.8 1.1c.4.3.9.4 1.6.5.7.1 1.6.1 2.7.1h3.2v6.1h-5.3c-1.8 0-3.3-.1-4.6-.4s-2.3-.7-3.1-1.3c-.8-.7-1.4-1.6-1.8-2.8-.4-1.2-.6-2.8-.6-4.7v-26.9h-7.2V290h7.2v-12.7h7V290h8.3z"/></g><g fill="#808080" enable-background="new"><path d="M39.5 394.2v-6.1h7.1v-6.3c0-3.4 1-6 3-7.8 2-1.8 4.9-2.7 8.7-2.7.7 0 1.4.1 2.2.2.8.1 1.6.3 2.2.5v6.1c-.6-.2-1.3-.4-2-.4-.7-.1-1.4-.1-2-.1-1.7 0-3 .3-3.9 1-.9.7-1.4 1.9-1.4 3.8v5.9h8.2v6.1h-8.2v36.2h-7v-36.2h-6.9z"/><path d="M66 400.6c.9-2.7 2.2-5 3.9-7 1.7-2 3.9-3.6 6.5-4.7s5.5-1.7 8.8-1.7c3.4 0 6.3.6 8.9 1.7 2.5 1.1 4.7 2.7 6.4 4.7 1.7 2 3.1 4.3 3.9 7 .9 2.7 1.3 5.6 1.3 8.7 0 3.1-.4 6-1.3 8.7-.9 2.7-2.2 5-3.9 7-1.7 2-3.9 3.5-6.4 4.7-2.5 1.1-5.5 1.7-8.9 1.7-3.3 0-6.3-.6-8.8-1.7-2.6-1.1-4.7-2.7-6.5-4.7-1.7-2-3.1-4.3-3.9-7-.9-2.7-1.3-5.6-1.3-8.7 0-3.1.4-6 1.3-8.7zm7 15.5c.7 2 1.6 3.7 2.8 5 1.2 1.3 2.6 2.4 4.2 3.1 1.6.7 3.3 1.1 5.1 1.1s3.5-.4 5.1-1.1c1.6-.7 3-1.7 4.2-3.1 1.2-1.3 2.1-3 2.8-5 .7-2 1-4.3 1-6.8 0-2.6-.3-4.8-1-6.8s-1.6-3.7-2.8-5c-1.2-1.4-2.6-2.4-4.2-3.1-1.6-.7-3.3-1.1-5.1-1.1s-3.5.4-5.1 1.1c-1.6.7-3 1.7-4.2 3.1-1.2 1.4-2.1 3-2.8 5-.7 2-1 4.3-1 6.8s.4 4.8 1 6.8z"/><path d="M119.2 388.1v8.9h.2c1.7-3.4 3.8-6 6.2-7.6s5.6-2.4 9.3-2.3v7.4c-2.8 0-5.2.4-7.1 1.1-2 .8-3.5 1.9-4.7 3.4-1.2 1.5-2.1 3.3-2.6 5.4-.5 2.1-.8 4.5-.8 7.2v18.8h-7v-42.3h6.5z"/><path d="M155.9 378.5V372h46.7v6.5h-19.5v51.9h-7.8v-51.9h-19.4z"/><path d="M205.7 388.1v8.9h.2c1.7-3.4 3.8-6 6.2-7.6s5.6-2.4 9.3-2.3v7.4c-2.8 0-5.2.4-7.1 1.1-2 .8-3.5 1.9-4.7 3.4-1.2 1.5-2.1 3.3-2.6 5.4-.5 2.1-.8 4.5-.8 7.2v18.8h-7v-42.3h6.5z"/><path d="M263.1 430.2c-1.2.7-2.9 1.1-5 1.1-1.8 0-3.2-.5-4.3-1.5-1.1-1-1.6-2.7-1.6-4.9-1.9 2.3-4.1 3.9-6.7 4.9-2.5 1-5.3 1.5-8.2 1.5-1.9 0-3.7-.2-5.4-.7s-3.2-1.1-4.5-2c-1.3-.9-2.2-2.1-3-3.6-.7-1.5-1.1-3.3-1.1-5.4 0-2.4.4-4.4 1.2-5.9.8-1.5 1.9-2.8 3.2-3.7 1.3-1 2.9-1.7 4.6-2.2 1.7-.5 3.5-.9 5.3-1.2 1.9-.4 3.7-.7 5.4-.9 1.7-.2 3.2-.5 4.5-.8 1.3-.4 2.3-.9 3.1-1.6s1.1-1.7 1.1-3c0-1.5-.3-2.8-.9-3.7-.6-.9-1.3-1.6-2.2-2.1-.9-.5-1.9-.8-3-1-1.1-.2-2.2-.2-3.3-.2-2.9 0-5.4.6-7.4 1.7s-3 3.2-3.2 6.3h-7c.1-2.6.7-4.8 1.6-6.6 1-1.8 2.3-3.3 3.9-4.4 1.6-1.1 3.5-1.9 5.6-2.4 2.1-.5 4.3-.7 6.7-.7 1.9 0 3.8.1 5.7.4 1.9.3 3.6.8 5.1 1.7 1.5.8 2.8 2 3.7 3.6.9 1.5 1.4 3.5 1.4 6v21.7c0 1.6.1 2.8.3 3.6.2.8.8 1.1 1.9 1.1.6 0 1.3-.1 2.1-.3v5.2zm-11.3-21.7c-.9.7-2 1.1-3.4 1.4-1.4.3-2.9.5-4.5.7-1.6.2-3.1.4-4.7.7-1.6.2-3 .6-4.3 1.2-1.3.5-2.3 1.3-3.1 2.3-.8 1-1.2 2.4-1.2 4.1 0 1.1.2 2.1.7 2.9.5.8 1.1 1.4 1.8 1.9s1.6.8 2.6 1.1c1 .2 2 .3 3.1.3 2.3 0 4.3-.3 5.9-.9s3-1.4 4-2.4c1-.9 1.8-2 2.3-3.1.5-1.1.7-2.2.7-3.1v-7.1z"/><path d="M275.1 388.1v6.7h.2c2.9-5.1 7.5-7.7 13.7-7.7 2.8 0 5.1.4 7 1.1 1.9.8 3.4 1.8 4.5 3.2 1.1 1.4 1.9 3 2.4 4.9.5 1.9.7 4 .7 6.3v27.8h-7v-28.6c0-2.6-.8-4.7-2.3-6.2-1.5-1.5-3.6-2.3-6.3-2.3-2.1 0-4 .3-5.5 1-1.6.7-2.8 1.6-3.9 2.8-1 1.2-1.8 2.6-2.3 4.2-.5 1.6-.8 3.4-.8 5.3v23.9h-7v-42.3h6.6z"/><path d="M318.4 420.9c.7 1.1 1.5 1.9 2.6 2.5 1.1.6 2.3 1.1 3.6 1.3 1.3.3 2.7.4 4.1.4 1.1 0 2.2-.1 3.4-.2 1.2-.2 2.3-.5 3.3-.9s1.8-1.1 2.5-1.9c.7-.8 1-1.9 1-3.2 0-1.8-.7-3.2-2-4.1-1.4-.9-3.1-1.7-5.1-2.2s-4.3-1.1-6.7-1.6c-2.4-.5-4.6-1.1-6.7-2-2-.8-3.8-2-5.1-3.6-1.4-1.5-2-3.7-2-6.4 0-2.1.5-4 1.4-5.5 1-1.5 2.2-2.8 3.7-3.7 1.5-1 3.2-1.7 5.1-2.1 1.9-.5 3.7-.7 5.6-.7 2.4 0 4.6.2 6.6.6 2 .4 3.8 1.1 5.4 2.1 1.6 1 2.8 2.4 3.7 4.1.9 1.7 1.5 3.9 1.6 6.4h-7c-.1-1.4-.5-2.5-1.1-3.4-.6-.9-1.4-1.6-2.3-2.2-.9-.5-2-.9-3.1-1.2-1.1-.2-2.2-.4-3.4-.4-1 0-2.1.1-3.1.2-1.1.2-2 .5-2.9.9-.9.4-1.6 1-2.1 1.6-.5.7-.8 1.6-.8 2.7 0 1.2.4 2.2 1.3 3 .8.8 1.9 1.4 3.2 2 1.3.5 2.8 1 4.4 1.3s3.3.7 4.9 1.1c1.7.4 3.4.8 5.1 1.4 1.7.5 3.1 1.3 4.4 2.2 1.3.9 2.3 2 3.1 3.4.8 1.4 1.2 3.1 1.2 5.1 0 2.6-.5 4.7-1.6 6.4-1.1 1.7-2.5 3.1-4.2 4.1-1.7 1-3.7 1.8-5.8 2.2-2.2.4-4.3.6-6.4.6-2.3 0-4.6-.2-6.7-.7-2.1-.5-4-1.3-5.6-2.4-1.6-1.1-2.9-2.6-3.9-4.4-1-1.8-1.5-4-1.6-6.7h7c0 1.6.3 2.9 1 3.9z"/><path d="M360.2 388.1v5.7h.2c1.1-2.3 2.9-4 5.4-5.1 2.5-1.1 5.2-1.6 8.1-1.6 3.3 0 6.1.6 8.5 1.8 2.4 1.2 4.4 2.8 6.1 4.9 1.6 2 2.8 4.4 3.6 7.1.8 2.7 1.2 5.5 1.2 8.5s-.4 5.8-1.2 8.5c-.8 2.7-2 5-3.6 7s-3.6 3.6-6.1 4.7c-2.4 1.1-5.2 1.7-8.5 1.7-1 0-2.2-.1-3.5-.3-1.3-.2-2.5-.6-3.8-1.1-1.3-.5-2.4-1.2-3.6-2-1.1-.8-2.1-1.9-2.8-3.1h-.2v21.8h-7v-58.4h7.2zm24.9 15c-.5-1.9-1.3-3.6-2.4-5-1.1-1.5-2.4-2.6-4.1-3.5-1.7-.9-3.6-1.3-5.8-1.3-2.3 0-4.3.5-6 1.4-1.6.9-3 2.1-4 3.6s-1.8 3.2-2.2 5.1c-.5 1.9-.7 3.8-.7 5.8 0 2.1.2 4.1.7 6 .5 1.9 1.3 3.6 2.3 5.1 1.1 1.5 2.4 2.7 4.1 3.6 1.7.9 3.7 1.3 6.1 1.3s4.4-.5 6-1.4c1.6-.9 2.9-2.2 3.9-3.7s1.7-3.3 2.1-5.2c.4-2 .7-4 .7-6.1.1-1.9-.1-3.8-.7-5.7z"/><path d="M399.5 400.6c.9-2.7 2.2-5 3.9-7 1.7-2 3.9-3.6 6.5-4.7s5.5-1.7 8.8-1.7c3.4 0 6.3.6 8.9 1.7 2.5 1.1 4.7 2.7 6.4 4.7 1.7 2 3.1 4.3 3.9 7 .9 2.7 1.3 5.6 1.3 8.7 0 3.1-.4 6-1.3 8.7-.9 2.7-2.2 5-3.9 7-1.7 2-3.9 3.5-6.4 4.7-2.5 1.1-5.5 1.7-8.9 1.7-3.3 0-6.3-.6-8.8-1.7-2.6-1.1-4.7-2.7-6.5-4.7-1.7-2-3.1-4.3-3.9-7-.9-2.7-1.3-5.6-1.3-8.7 0-3.1.4-6 1.3-8.7zm7.1 15.5c.7 2 1.6 3.7 2.8 5 1.2 1.3 2.6 2.4 4.2 3.1 1.6.7 3.3 1.1 5.1 1.1 1.8 0 3.5-.4 5.1-1.1 1.6-.7 3-1.7 4.2-3.1 1.2-1.3 2.1-3 2.8-5 .7-2 1-4.3 1-6.8 0-2.6-.3-4.8-1-6.8s-1.6-3.7-2.8-5c-1.2-1.4-2.6-2.4-4.2-3.1-1.6-.7-3.3-1.1-5.1-1.1-1.8 0-3.5.4-5.1 1.1-1.6.7-3 1.7-4.2 3.1-1.2 1.4-2.1 3-2.8 5-.7 2-1 4.3-1 6.8s.3 4.8 1 6.8z"/><path d="M452.7 388.1v8.9h.2c1.7-3.4 3.8-6 6.2-7.6 2.5-1.6 5.6-2.4 9.3-2.3v7.4c-2.8 0-5.2.4-7.1 1.1-2 .8-3.5 1.9-4.7 3.4-1.2 1.5-2.1 3.3-2.6 5.4-.5 2.1-.8 4.5-.8 7.2v18.8h-7v-42.3h6.5z"/><path d="M490.8 388.1v6.1h-8.4v26.3c0 .8.1 1.5.2 2s.4.9.8 1.1c.4.3.9.4 1.6.5.7.1 1.6.1 2.7.1h3.2v6.1h-5.3c-1.8 0-3.3-.1-4.6-.4s-2.3-.7-3.1-1.3c-.8-.7-1.4-1.6-1.8-2.8-.4-1.2-.6-2.8-.6-4.7v-26.9h-7.2v-6.1h7.2v-12.7h7v12.7h8.3z"/></g><g fill="#808080"><g><g><path d="M99.1 148c-.64 1.27-1.28 2.04-1.15 2.94.13 1.02 1.15 1.66 1.54 2.7.37-1.16 1.14-2.06 1-2.96.14-.9-1.14-2.05-1.4-2.7"/></g><g><path d="M116.03 148c.64 1.27 1.28 2.04 1.15 2.94-.13 1.02-1.15 1.66-1.53 2.7-.4-1.16-1.16-2.06-1.03-2.96 0-.9 1.15-2.05 1.4-2.7"/></g><g><path d="M89.37 147.23c.64 0 1.15-.5 1.15-1.15s-.5-1.15-1.15-1.15-1.15.5-1.15 1.15c0 .64.5 1.15 1.15 1.15"/></g><g><path d="M90.14 148.94c0-.64-.5-1.15-1.15-1.15s-1.16.5-1.16 1.14.5 1.15 1.15 1.15c.63-.13 1.14-.52 1.14-1.16"/></g><g><path d="M90.72 151.68c0-.64-.5-1.15-1.15-1.15s-1.16.5-1.16 1.15.53 1.15 1.17 1.15c.64 0 1.15-.5 1.15-1.15"/></g><g><path d="M95.76 141.78c.64 0 1.15-.5 1.15-1.15s-.5-1.15-1.14-1.15-1.15.5-1.15 1.15c0 .64.52 1.15 1.16 1.15"/></g><g><path d="M92.87 142.72c.64 0 1.15-.5 1.15-1.15s-.5-1.15-1.15-1.15-1.16.5-1.16 1.15c0 .64.53 1.15 1.17 1.15"/></g><g><path d="M90.7 144.67c.64 0 1.15-.5 1.15-1.15s-.5-1.15-1.15-1.15-1.16.5-1.16 1.15c0 .64.5 1.15 1.16 1.15"/></g><g><path d="M98.7 142.13c.64 0 1.15-.5 1.15-1.15s-.5-1.15-1.15-1.15c-.64 0-1.15.5-1.15 1.15 0 .64.5 1.15 1.15 1.15"/></g><g><path d="M101.6 142.92c.63 0 1.14-.5 1.14-1.15s-.5-1.15-1.15-1.15-1.16.5-1.16 1.15.5 1.15 1.15 1.15"/></g><g><path d="M104.17 144.12c.64 0 1.15-.5 1.15-1.15s-.5-1.16-1.15-1.16-1.15.53-1.15 1.17c0 .64.5 1.15 1.15 1.15"/></g><g><path d="M124.6 146.07c0 .64.5 1.15 1.14 1.15s1.16-.5 1.16-1.15-.52-1.15-1.16-1.15c-.64 0-1.15.5-1.15 1.15"/></g><g><path d="M126.14 147.78c-.64 0-1.16.5-1.16 1.16s.52 1.15 1.16 1.15 1.15-.52 1.15-1.16c0-.65-.52-1.16-1.16-1.16"/></g><g><path d="M125.56 150.52c-.64 0-1.15.5-1.15 1.15s.52 1.16 1.16 1.16 1.15-.52 1.15-1.16c0-.64-.5-1.15-1.14-1.15"/></g><g><path d="M119.5 141.78c.63 0 1.14-.5 1.14-1.15s-.5-1.15-1.15-1.15-1.16.5-1.16 1.15c0 .64.5 1.15 1.15 1.15"/></g><g><path d="M122.25 142.72c.64 0 1.16-.5 1.16-1.15s-.5-1.15-1.15-1.15-1.15.5-1.15 1.15c0 .64.5 1.15 1.15 1.15"/></g><g><path d="M124.55 144.67c.64 0 1.16-.5 1.16-1.15s-.5-1.15-1.15-1.15-1.15.5-1.15 1.15c0 .64.5 1.15 1.15 1.15"/></g><g><path d="M116.42 142.13c.64 0 1.15-.5 1.15-1.15s-.5-1.15-1.15-1.15-1.16.5-1.16 1.15c0 .64.52 1.15 1.16 1.15"/></g><g><path d="M113.66 142.92c.64 0 1.15-.5 1.15-1.15s-.5-1.15-1.14-1.15-1.16.5-1.16 1.15c0 .64.52 1.15 1.16 1.15"/></g><g><path d="M109.8 142.96c0 .64.5 1.15 1.15 1.15s1.15-.5 1.15-1.14-.5-1.15-1.15-1.15-1.16.52-1.16 1.16"/></g><g><path d="M105.68 149.17h1.28v-4.86c-.52-.12-.9-.25-1.28-.38v5.25z"/></g><g><path d="M109.57 143.9c-.38.13-.77.4-1.28.4v4.86h1.27v-5.25z"/></g><g><path d="M106.86 138.47v-2.94c-1.4.25-2.56 1.4-2.82 2.94h2.82z"/></g><g><path d="M108.27 138.47h2.8c-.24-1.4-1.4-2.56-2.8-2.94v2.94z"/></g><g><path d="M104.12 139.85c.38 1.66 1.8 2.82 3.46 2.82s3.2-1.16 3.46-2.82h-6.92z"/></g><g><path d="M109.58 135.15c-.77-.64-1.4-1.54-1.54-2.57.9.13 1.92.9 2.56 1.67v-3.97c-.64.77-1.66 1.54-2.56 1.66.13-.9.64-1.8 1.54-2.8h-3.84c.76 1 1.4 1.9 1.53 2.8-.9-.12-1.92-.9-2.56-1.66v3.97c.65-.77 1.68-1.54 2.57-1.67-.13 1.03-.77 1.93-1.53 2.57h3.84z"/></g><g><path d="M113.7 213.74c-3.58-.9-7.94-2.44-11.9-4.23.12-.76-.14-1.66-.78-2.43s-1.4-1.15-2.3-1.15c-.4 0-.77.13-1.16.26-.64-.52-1.15-1.03-1.66-1.67-1.54-1.78-2.7-3.83-3.6-6.14-.5-1.28-.76-2.7-1-4.1-.14 1.16-1.55 2.7-3.73 2.7 0-.26 0-.77-.25-.9-.64.64-1.54 1.4-3.46.64.25 1.54.77 3.2 1.28 4.6 1.15 3.2 2.95 6.16 5.12 8.72.77.77 1.54 1.54 2.3 2.3 0 .13 0 .26 0 .52 0 .9.78 2.18 1.93 2.82.9.5 2.04.38 2.94-.4 1.8.9 3.97 1.8 6.4 2.45 2.7.77 5.25 1.16 7.3 1.16 1.8 0 4.1-.77 6.4-2.3.9-.65 1.8-1.3 2.44-1.8.13-.13.13-.13.26-.26-1.67.26-4.23-.25-6.53-.76m-13.2-5.5l-.37-.27c-.64-.5-1.28-.5-1.92 0-.25.26-.5.5-.76.9l-.4.38.27.26c.78.65.9 1.3.65 1.67-.13.13-.26.26-.4.26-.37.13-.88 0-1.4-.38l-.25-.13-.13.25c0 .13-.13.13-.13.26s-.12.13-.25.26c-.27.5-.53 1-.53 1.27 0 .12 0 .12 0 .25.13.4.4.64.77.77l.13.12c.4.26.77.5 1.15.64-.64.38-1.28.38-1.92.13-1.02-.52-1.66-1.68-1.66-2.2 0-.9.38-1.9 1.02-3.06l.13-.13-.14-.12c-.25-.38-.38-.64-.5-1.03.37 0 .76.13 1.14.26h.13l.13-.12c.38-.5 1.92-2.05 3.33-2.05.63 0 1.27.4 1.78.9.4.38.64.9.64 1.4 0-.12-.25-.25-.5-.5m2.42 6.9c-.9 0-1.53-.63-1.53-1.52s.65-1.53 1.54-1.53 1.54.64 1.54 1.54-.77 1.54-1.54 1.54m6.67 2.05c-.76 0-1.4-.65-1.4-1.42s.64-1.4 1.4-1.4 1.42.64 1.42 1.4-.65 1.4-1.4 1.4"/></g><g><path d="M111.53 224.28c-.26 0-.5 0-.77.13v-4.34c-1.92 0-4.1-.4-6.28-.9v5.25c-.25-.12-.5-.12-.77-.12-1.52 0-2.42 1.28-2.42 2.44s.64 2.18 1.28 2.82c.26-.64.5-1.16.9-1.16.77 0 .38 3.72 2.56 3.85-.13.12-.13.38-.13.64 0 .9.76 1.66 1.66 1.66s1.66-.77 1.66-1.66c0-.26 0-.4-.12-.64 2.17-.13 1.8-3.85 2.56-3.85.38 0 .64.52.9 1.16.5-.64 1.15-1.67 1.15-2.82.26-1.16-.63-2.44-2.17-2.44m-3.97 9.48c-.5 0-.9-.38-.9-.9 0-.5.4-.9.9-.9s.9.4.9.9c.12.4-.26.9-.9.9m5.12-5.5c-.25-.52-.64-.77-1.02-.77-1.54 0-.9 3.83-2.7 3.83-.76 0-1.15-.5-1.15-1.03s.4-.76.4-1.15-.4-.64-.77-.64c-.38 0-.77.14-.77.65 0 .4.4.64.4 1.15s-.4 1.03-1.17 1.03c-1.8 0-1.16-3.84-2.7-3.84-.38 0-.77.24-1.02.75-.26-.5-.5-1.15-.5-1.53 0-.77.5-1.67 1.65-1.67 1.92 0 1.54 2.7 2.43 2.7.4 0 .77-.26.77-.65 0-.77-1.4-1.54-1.4-2.56s1.02-2.05 2.04-2.95c1.16.9 2.05 1.8 2.05 2.94s-1.4 1.8-1.4 2.56c0 .4.25.64.76.64.9 0 .52-2.7 2.44-2.7 1.15 0 1.66 1.04 1.66 1.68.5.38.4 1.02 0 1.53"/></g><g><path d="M162.1 229.5c-.12-.24-.37-.37-.5-.24-5 1.4-11.27-2.7-17.3-6.8-5.12-3.32-9.86-6.53-13.96-6.53-1.53 0-2.8.4-4.1.9-1.4.77-2.56 2.05-3.2 3.72s-1.4 2.8-2.05 3.7c-.65 1.16-1.16 1.93-1.16 2.96 0 .78.38 1.54 1.02 2.3.64.65 1.4 1.17 2.7 1.8.25.13.5.26.76.4 1.03.5 1.67.76 1.8 1.4-2.05.9-4.62 1.66-7.56 2.18-3.33.64-6.92.9-10.76.9s-7.43-.26-10.76-.9c-2.95-.52-5.5-1.28-7.56-2.18.13-.9.64-1.15 1.8-1.67.25-.12.5-.25.76-.38 1.03-.5 1.92-1.03 2.56-1.67.77-.64 1.03-1.28 1.03-2.17 0-1.02-.5-1.8-1.15-2.94-.65-.9-1.3-2.05-2.05-3.7-.64-1.68-1.8-2.96-3.2-3.73-1.16-.64-2.57-.9-3.98-.9-4.1 0-8.96 3.2-14.1 6.66-6 3.97-12.3 8.2-17.28 6.78-.26-.12-.5 0-.5.26-.14.26 0 .5.24.64 1.55.64 2.96 1.8 4.24 2.7 1.8 1.4 3.6 2.8 5.38 2.8 1.8 0 3.7-.5 6.02-1.78 2.05-1.03 4.1-2.44 6.15-3.85 3.96-2.7 8.06-5.5 12.03-5.9-.38.4-.77.78-1.15 1.16-1.16 1.04-2.18 1.93-2.18 3.73 0 1.4.5 2.43 1.15 3.84.26.4.4.9.64 1.4.38 1.03.63 1.8.9 2.83.12.5.25 1.02.37 1.54.26.9.77 2.7 3.6 4.1 3.32 1.66 9.1 2.56 17.03 2.56 7.94 0 13.7-.9 17.04-2.57 2.8-1.4 3.33-3.2 3.58-4.1.13-.64.26-1.15.4-1.53.24-1.03.37-1.8.88-2.82.26-.77.64-1.28.9-1.8.64-1.15 1.02-2.04 1.02-3.32 0-1.8-1.02-2.7-2.3-3.85-.4-.37-.77-.76-1.28-1.14 3.97.26 8.07 3.07 12.04 5.9 2.05 1.4 4.1 2.8 6.15 3.84 2.3 1.28 4.23 1.8 6.02 1.8 1.92 0 3.6-1.3 5.38-2.83 1.28-1.02 2.7-2.05 4.23-2.7.12-.25.25-.5.25-.76"/></g><g><path d="M131.78 189.08c-.5-.4-1.4-1.28-1.92-2.3-.64-1.3-3.08-6.16-3.46-6.8-.4-.5-.52-1.02-.52-1.4 0-.52.26-.9.52-1.3.25-.24.77-.76.9-1.14.12-.26.25-.38.38-.64-.9-1.54-1.8-2.82-3.08-4.1-1.4-1.67-3.07-3.07-4.86-4.23.9-.64 1.92-1.53 1.92-3.07 0-.9-.4-1.54-1.03-2.18 1.03-3.2 2.82-7.17 4.36-8.84l-3.2-1.4c.88 1.27.88 2.8.75 3.7-.9-.63-1.53-1.4-1.8-2.43-.12 1.03-.63 2.57-1.14 3.46.9-.37 1.67-.63 2.7-.24-.5.76-1.92 1.92-4.1 1.4-1.15-.25-2.3-.9-2.3-1.8 0-.5.38-1.14 1.15-1.14.76.13.76 1.15.5 1.66.9-.5 1.93-3.2.4-3.58-1.16-.26-2.2 1.28-2.57 2.43-.26-1.4-.77-2.82-1.92-2.82-1.54.14-1.03 2.83-.5 3.6.1-1.03.63-1.54 1-1.4.4 0 .9.25.78 1.14s-1.28 1.4-2.82 1.4c-1.4 0-3.7-.37-3.97-3.06.9.13 2.3.9 2.82 1.66-.13-1.53-.13-2.7 0-4.35-.77 1-1.92 1.53-2.82 1.65.26-1.15 1.28-2.3 2.3-3.07h-5.9c1.17.77 2.06 1.92 2.32 3.07-.9-.12-2.05-.64-2.82-1.66.13 1.65.13 2.8 0 4.34.64-.9 1.92-1.53 2.82-1.66-.26 2.7-2.7 3.07-3.97 3.07-1.4 0-2.7-.5-2.82-1.4-.13-.9.38-1.16.9-1.16.38 0 1.02.5 1.02 1.4.5-.64 1.03-3.46-.5-3.6-1.16-.12-1.8 1.3-1.93 2.83-.4-1.15-1.4-2.82-2.56-2.43-1.4.38-.5 3.07.4 3.58-.27-.5-.14-1.53.5-1.66.77-.13 1.16.5 1.16 1.15 0 .9-1.16 1.54-2.3 1.8-2.2.5-3.47-.65-4.1-1.4 1.02-.4 1.66-.27 2.68.24-.5-.88-1.02-2.55-1.15-3.45-.27 1.03-1.04 1.92-1.8 2.44-.13-.9-.13-2.45.76-3.73l-3.2 1.4c1.54 1.68 3.33 5.65 4.36 8.85-.64.5-1.03 1.28-1.03 2.05 0 1.54 1.02 2.43 1.9 3.07-1.78 1.16-3.45 2.57-4.86 4.23-2.17 2.44-3.97 5.38-5.12 8.58.5.52 2.43 2.57 2.82 3.2.77 1.03 1.28 2.06 1.28 2.82 0 1.4.38 2.05 1.15 3.08.26.26.64 1.4.64 2.18h16.15v17.67c-.64 0-1.28.26-1.8.9 1.93.77 3.6 1.4 5.4 1.92.12-1.15.38-1.8 1.02-2.56 0 0-2.3-.26-3.6-.26v-17.54h15.77c0 2.43-.52 4.73-1.3 6.9-.75 2.32-2.04 4.37-3.57 6.16-1.54 1.8-3.2 3.2-5.25 4.1-.26.13-.26.38-.65.5-.25.27-.5.78-.76 1.42-.25.5-.25.9-.38 1.54.77.26 1.15.38 1.8.5 5.5 1.42 6.9 1.04 7.17.78 1.27-.9 2.42-2.05 3.45-3.2 2.18-2.56 3.97-5.38 5.12-8.7 1.28-3.34 1.92-6.93 1.92-10.65.38-.63.38-.75.38-1.52m-24.47 1.28H91.18c0-2.44.5-4.87 1.28-7.18.77-2.3 2.05-4.35 3.6-6.14 1.52-1.8 3.32-3.2 5.24-4.1 1.9-.9 3.96-1.4 6-1.54 0 0 0 18.96 0 18.96zm.27-26.9c-5.38 0-9.1 1.53-11.28 3.07-1.3-.77-1.8-1.4-1.8-2.3 0-3.08 8.58-3.33 12.94-3.33 4.35 0 12.94.25 12.94 3.33 0 .9-.52 1.53-1.8 2.3-1.92-1.4-5.63-3.07-11-3.07m.76 26.9V171.4c1.92.13 3.84.5 5.63 1.4 1.92 1.03 3.72 2.3 5.25 4.1 1.54 1.8 2.7 3.85 3.6 6.16.76 2.3 1.27 4.74 1.27 7.17-.14.13-15.76.13-15.76.13z"/></g><g><path d="M121.48 187.28c.26.13.13.64-.13.5-.38-2.8-1.4-5.62-3.07-7.93.25-.13.64-.38.64-.77-.5 0-.77.13-1.03.4-.13-.14-.26-.27-.4-.4-1-1.28-2.17-2.3-3.45-3.2-1.15-.77-2.43-1.4-3.84-1.8 0-.25.4-.38.65-.12 0-.5-.4-.77-.64-.64-.12 0-.25.13-.25.38-.13-.13-.38-.38-.77-.38 0 .38.13.5.26.77-.26 0-.38.1-.38.24-.13.26 0 .64.5.77-.25-.25-.12-.63.14-.5v6.15c-.26-.13-.64 0-1.03.25.4.4.77.4 1.03.26v6.66c-.4 0-.4-.38-.13-.5-.5 0-.77.5-.64.63s.25.26.5.26c-.12.13-.25.4-.25.77.26 0 .52-.12.64-.25 0 .25.13.38.26.5.26.14.64-.12.64-.63-.13.25-.64.12-.64-.14h4.6c-.12.26 0 .64.27 1.03.25-.4.38-.78.25-1.04h5.13c0 .4-.4.4-.5.13 0 .5.5.63.63.63.12-.13.25-.26.25-.5.14.12.4.24.78.24 0-.25-.13-.5-.25-.64.25 0 .38-.12.5-.25.52-.52.26-.9-.25-.9m-4.35-8.2c-.13.13-.26.26-.13.4 0 .1.13.24.5.24-.12.13-.25.4-.37.64.25 0 .5 0 .76-.12 0 .25 0 .38.12.5s.26.14.4 0c1.14 1.93 2.04 4.1 2.3 6.4-.14-.12-.4-.12-.65-.12 0 .4.13.52.26.77h-3.97c0-.26-.13-.52-.26-.52s-.38 0-.5.13c0-.25-.14-.5-.27-.63-.25.25-.25.5-.25.64-.13-.25-.4-.25-.52-.12-.12 0-.25.26-.25.5H111c.13-.12.25-.37.25-.63-.25 0-.5.13-.64.26v-5.37c.25 0 .5-.13.5-.26s0-.38-.12-.5c.25 0 .5-.14.64-.27-.26-.25-.5-.25-.64-.25.25-.13.25-.4.13-.5 0-.14-.25-.27-.5-.27v-4.6c.12.12.38.24.63.24 0-.25 0-.5-.12-.64 1.03.4 2.05.9 3.08 1.54.9.5 1.92 1.4 2.95 2.56"/></g><g><path d="M118.75 185.55c.25-.13.38-.26.38-.4-.26.14-.38 0-.38 0 .12-.1.38 0 .12-.24-.12-.25-.25-.25-.5-.12-.14.26-1.42 0-1.42-1.02.13.12.26.25.4.38 0 0 .12 0 .12.13h.12c.12 0 .25 0 .38 0 0 0 0 0 .13 0 .26 0 .52-.26.52-.5 0-.53-.4-.78-1.03-1.17-.26-.13-.4-.38-.52-.5-.13-.4 0-.78-.5-1.42 0-.13 0-.38-.14-.64-.26.38-.38 1.28.26 1.92.5.64 1.66 1.15 1.53 1.67 0 .13-.12.25-.25.25h-.13s0 0-.13 0-.13 0-.25-.12-.26-.13-.4-.26c-.5-.4-.9-1.03-1.14-1.4-.5-.65-.26-1.3-.26-1.8.4-.52-.25-1.54-.5-1.8 0 0 .12-.25 0-.5-.14 0-.27 0-.27 0-.12-.14-.12-.27-.25-.27-.26 0-.26-.12-.26-.25-.14.13-.14.25-.26.25s-.26 0-.4 0c-.12.13-.12.13-.37.13-.26 0-.26.13-.13.26 0 .13 0 .26.13.26l.12.25.12-.25c.13-.13.4-.13.4.12 0 .13 0 .13-.14.26-.13 0-.26 0-.5 0-.14 0-.14.13-.14.26s.13.12.38.12c.26 0 .64-.12.64.13 0 .5-.64.5-.77 1.15-.13-.12-.26-.25-.4-.38-.12-.13-.25-.38-.5-.64-.13-.13-.26-.26-.5-.38-.27-.13-.27-.26-.27-.52 0-.25.13-.38.13-.5v-.14c0-.13-.26-.25-.26-.13 0 0 .13.13.13.26l-.13.12v.13s0 0 0 .12c0-.12-.13-.38-.25-.38 0 0 0 0-.13 0 0-.14-.13-.27-.4-.14h.14v.13c0 .12.13.25.26.25-.26-.13-.4 0-.4.12v.13c-.12 0-.12.26 0 .26v-.13s0 0 .14.13c0 0 0 0 .13 0 0 0 0 0 .12 0-.13.13-.13.26 0 .38-.13.13-.4.13-.4-.12-.24.38.14.64.4.5 0 .14 0 .4 0 .4s0-.14.13-.14c0 .13 0 .13.12.26v-.13c0 .14.13.14.13.27.13.25.4.9 1.15 1.15-.38.26-.5.5-.76.77-.14.12-.53.37-.65.25-.13 0-.13-.13-.26-.26-.14 0-.14-.14-.27 0h-.13c-.12 0-.25 0-.38.12.13 0 .13 0 .26 0v.13c0 .12 0 .12.38.12 0 0-.13.13-.13 0-.13 0-.25-.12-.38 0 0 0 0 0-.13.13-.13 0-.26.26-.13.4 0 0 0-.14.12-.27 0 0 0 .13.13.13.13.13.25.25.38-.13 0 .13-.13.38 0 .38 0 0 0 0 .13 0 0 .14.26.27.4.14-.14 0-.14-.13-.27-.25h.12c.13-.14 0-.27 0-.4 0 .13.13.26.38.13.13 0 .13-.13.13-.26.26-.12.38-.12.64-.12 0-.13.13-.26.38-.4.26-.12.4 0 .4.14 0-.14.12-.27.24-.4 0 1.03 1.28.9 1.66 1.54-.38-.13-.9-.25-1.02-.25-.4 0-.9.37-.9.76 0 .25.25.9.5 1.02-.37.13-.5 0-.9 0-.24 0-.37-.5-.63-.38 0 0-.1 0-.1.12-.14 0-.4.13-.27.26 0 0 .13-.13.26-.13v.13s0 .13.1.13.14 0 .14 0c0 .14-.38-.12-.38.26 0 0 0 .13.13.13 0 .12.1.25.24.12l-.13-.13h.14s0 0 0 .12v.13c0 .13.13.25.4.13 0 0-.14 0-.14-.13h.13v-.13h.12c0 .13.13.13.26.13s.14-.13.14-.13.13 0 .13.13c0-.13 0-.26.38 0l.26-.13s.26.13.4 0c.12-.13.12-.13.12-.38-.13-.26-.26-.26-.26-.52-.12-.5.64-.76 1.03-.64.12.26.5 1.16 1.27 1.4.5.14.64-.37.77-.24 0 0 0 0 .13.12 0 .26 0 .4 0 .52s-.26 0-.52 0c-.12 0-.12 0-.12.12-.13 0-.26.13-.26.26 0 0 .13-.13.26-.13 0 0 0 0 0 .13s.25.26.38.13c0 0 .14 0 0 0-.12.12-.25.25-.12.37 0 0 0 0 .13 0 0 .13.14.26.14.26s0-.13 0-.26h.13c.12 0 .12-.25.25-.25 0 .13-.13.25 0 .38 0 0 0 0 .13 0 0 .13.13.13.38.13 0 0-.12 0-.12-.13l.13-.13c.13-.25-.12-.25-.12-.38 0-.14.26 0 .26-.4.13-.12.26-.12.4-.25.24.13 0 0 0 0z"/></g><g><path d="M105.5 194.47h-.25v-.25c0-.9-.5-1.67-1.54-1.67-.88 0-2.68 1.15-5.1 1.15-1.04 0-2.32-.5-3.08-.9l-.26.77s0 0 0-.12c0-.4-.26-.64-.64-.64-.4 0-.64.26-.64.65s.25.64.64.64c.13 0 .38-.14.5-.27l-.25.77c.13 0 .26.13.26.13-.38 3.7 2.43 8.45 7.17 9.86.77-.14 1.4-.14 1.4.63 0 .5-.24.64-.63.64-.25 0-.5-.13-.5-.38 0-.4.5-.14.63-.4.13-.25-.13-.38-.5-.38s-.9.26-.9.77c0 .63.5 1 1.14 1 .52 0 1.67-.24 1.54-1.65.26 0 .5 0 .64-.26v-.78h-.25l.25-8.45h.13c.26 0 .64-.13.64-.5.12-.27-.14-.4-.4-.4m-8.7.64l5.9 8.47c-3.2-1.28-6.3-4.1-5.9-8.46m6.02 7.57l-5.38-7.7c.12 0 .38 0 .5 0 .27 0 .52 0 .78 0l4.35 6.16c-.12.64-.25 1.16-.25 1.54m.38-2.43l-3.84-5.38c.38-.13.77-.26 1.15-.4l2.83 4.1c0 .52 0 1.16-.13 1.68m.9-5.9h-.26c-.25 0-.5.13-.64.4 0 .37.26.5.5.5h.14c0 .13 0 .13 0 .26-.13.5-.25 1.28-.38 2.17l-2.44-3.46c1.16-.37 2.05-.88 2.57-.88s.63.25.5 1.02"/></g><g><path d="M104.52 177.36c1.15 0 1.66-.4 1.66-.77 0-1.3-3.2-.52-3.2-1.3 0-.12.13-.25.25-.38 1.54-.12 1.67-1.28 2.7-1.4-1.4-.26-1.54.9-2.18.9.25-.14.38-.52.38-.65-.25.38-.9.38-1.28.77 0 .13-.13.13 0 .26-.26.12-.38.25-.38.5 0 1.16 3.2.4 3.2 1.3 0 .25-.5.5-1.4.5-.65 0-1.16-.5-2.32-.13 0-.25.4-.64.26-.77.14 0 .27-.12.27-.25-.13-.13-.13-.13-.26-.13v-.13s0-.14-.12-.14c0 0-.13-.12-.25-.12-.13-.13-.26-.13-.26-.13h-.13c-.13 0-.13 0-.13.14 0 0-.12-.13-.24-.13 0 .14-.13.14 0 .4-.13 0-.26.25-.4.25 0 .13.14.13.14.13-.13.12-.13.38-.26.38 0 0 0 .13.13.13-.13.25-.13.5-.13.76-.12-.13-.12-.13-.25-.26s-.14-.25-.14-.38.13-.26.13-.4v-.12c0-.12-.14-.12-.27-.12l.13.12-.13.13s-.13.13 0 .13c0 0 0 0 0 .13 0-.14 0-.27-.13-.27h-.12c0-.13-.13-.25-.26-.13h.13v.13c0 .13 0 .13.25.13-.25-.13-.38 0-.38.13 0 0 0 0 0 .12-.13 0-.13.13 0 .25 0 0 0-.12.13-.12 0 0 0 0 .13 0-.13.12-.13.25 0 .25 0 .26-.4.26-.4 0-.24.26.14.5.4.4 0 0 0 .1.12.1 0 0 0 0 .13 0 0 0 0 .14.13.14v-.13s.13.27.26.4c-.26.13-.64.25-.77.25 0 0-.4 0-.5 0-.14.13-.66.26-.78.13 0 0 0-.13-.13-.25l-.13-.13H98c-.13-.13-.25-.13-.25 0 0 0 .12 0 .12.13v.12s0 .13.26.26H98c-.13-.12-.13-.25-.25-.12 0 0 0 0-.13 0s-.26.13-.26.26c0 0 0-.13.13-.13v.14c0 .13.13.25.38 0-.12.13-.25.25-.12.38 0 0 0 0 .12 0 0 .13.13.26.26.26 0 0-.12-.13-.12-.26h.13c.14 0 .14-.25.14-.25 0 .12 0 .25.25.25.12 0 .25-.13.25-.25l.13.12s.13 0 .13-.13c0 .12 0 .12 0 .25 0 0 .26-.13.26-.25 0 0 0 0 0 .12.13 0 .13 0 .4 0 0 .12 0 .12 0 .12v-.13s0 .12.12.25c0-.38.25-.26.5-.38 0 0 0 .12-.12.12.13 0 .38-.13.38-.26l.13-.13c.13 0 .26 0 .26-.12 0 0 0 .13 0 .26.25 0 .5-.26.64-.4.64-.1-.4-.5.9-.5.12 0 .25 0 .38-.13-.13.14-.13.53.13.65.13 0 .25.13.25.13-.12 0-.25 0-.25.13-.26.14-.26-.37-.64-.25 0 0 0 0-.13 0s-.25.13-.25.26c0 0 .13-.12.26-.12 0 0 0 .13.14.13h.13c0 .14-.4 0-.26.27v.12c0 .12.14.25.27.12 0 0-.13 0-.13-.13 0 0 0 0 .13 0 0 0 0 0 0 .12v.13c0 .13.12.26.38.13 0 0-.13 0-.13-.13h.13s0 0 0-.13c0 0 0 0 .13 0 0 .13.13.13.25.13.26-.13 0-.26.26-.26h.12c.13 0 .38 0 .38 0 0-.13 0-.4-.12-.52-.13 0 0-.13-.13-.38.12.13.38.13.64.13.37 0 0-.13.24-.13.26-.13.52-.13.52 0 0 0 .12 0 .12.13 0 .25 0 .25 0 .38 0 .14-.25 0-.38 0s-.13 0-.13 0c-.13 0-.25.14-.25.27 0 0 .12-.13.25-.13 0 .13.13.25.26.13-.13.12-.26.25-.13.25 0 0 0 0 .13 0 0 .13 0 .26.13.26v-.13h.12c.13 0 0-.13.13-.26 0 .12 0 .25 0 .25s0 0 .14 0c0 .13.13.13.26.13 0 0-.13 0-.13-.13l.13-.13c0-.25-.13-.25-.13-.38s.25 0 .25-.26c0 0 0-.13-.12-.13 0 0 .12 0 .12-.12-.12 0-.12-.13-.12-.26 0 0 .12-.13.12-.26 0 .14-.25.14-.25 0 0 0 0-.1-.13-.1-.38.1-.5-.14-1.02-.14-.13 0-.13 0 0 0m-2.7-1.54s.26.13.4.13c-.14 0-.14.13-.27.13-.12 0-.12-.13-.12-.26m-.26-.13c0 .12-.13.12-.26.12-.12-.13 0-.13-.12-.26.13 0 .4.13.4.13m-.4.76s.13-.13 0 0c.13-.13.13-.13.26-.26 0-.12 0-.12-.13-.12.14 0 .14 0 .14-.13h-.13s0 0 .14-.13c0 0 0 0 .13 0l.26.13s0 0 0 .13v.12s0-.12-.13-.12c0 0 0 0 0 .12-.13 0-.13 0-.13 0v.26c0 .13-.13.13-.4 0 0 .26 0 .13 0 0"/></g><g><path d="M106.08 181.64c0-.38-.38-.5-1.53-.5-1.16 0-3.72.37-3.72-.27 0-.25.5-.25 1.03-.25 0 0 .12.12.25.12 1.42.4 3.2-.38 4.1-.12-1-.77-1.9 0-2.93-.26.64 0 .9-.13.9-.38-.52.38-1.42-.13-2.06.25 0 0-.12 0-.12.13-.76 0-1.4 0-1.4.5 0 1.16 3.07.52 3.97.52s1.15.13 1.15.26c0 .26-.9.38-1.4.38-.78 0-3.34-.38-4.75-.12.13-.26.38-.52.26-.77.13 0 .26-.13.26-.26-.13-.13-.13-.13-.25-.13 0-.12 0-.12-.12-.25 0 0 0-.14-.13-.14 0 0-.13-.13-.38-.26-.13-.12-.26-.12-.4-.12 0 0-.12 0-.24 0s-.13 0-.13.12c-.13-.12-.13-.12-.26-.12 0 .12-.13.25 0 .38-.13 0-.26.38-.38.26 0 .12.12.12.12.12-.12.26-.12.4-.25.4.13.12.13.12.13.12 0 .12 0 .25 0 .38l-.26-.13s0 0-.13 0h.13-.13c-.13-.12-.25-.24-.5-.37-.27-.13-.27-.26-.27-.5 0-.27.13-.4.13-.53v-.12c0-.13-.13-.26-.25-.26 0 0 .12.13.12.26l-.12.12s0 .13 0 .26c0 0 0 0 0 .13 0-.14-.13-.4-.26-.4h-.13c0-.12-.14-.25-.4-.12h.14v.12c0 .13.12.26.25.26 0 0 0 0 0 .13-.26-.14-.4 0-.4.12v.12c-.12.13-.12.26 0 .26v-.13h.14s0 0 .12 0c-.12.13-.12.4 0 .4 0 .24-.5.24-.38 0-.26.37.13.63.5.5 0 0 0 .13.14.13 0 0 0-.13.13-.13 0 .13 0 .13.13.25v-.12s.25.25.5.38c.26.13.4.26.52.13 0 .27.13.52.13.52-.13 0-.64 0-.77 0-.26.13-.77.26-.9.13 0-.13 0-.13-.12-.26 0-.13-.13-.13-.13-.13h-.12c-.13-.13-.26-.13-.4 0 0 0 .14 0 .27.12v.12c0 .13 0 .13.26.26h-.12c-.13-.13-.13-.26-.26-.13 0 0 0 0-.13 0s-.4.13-.26.38l.13-.12v.13c0 .13.12.26.5.13-.12.13-.25.26-.12.4 0 0 0 0 .13 0 0 .24.13.37.26.37 0 0-.13-.13-.13-.26h.14c.12-.12.12-.25.12-.38 0 .12 0 .25.26.25.13 0 .26-.13.26-.26 0 0 .12.12.12.25 0 0 .13 0 .13-.13 0 .13 0 .25-.13.38.13 0 .26-.13.26-.38 0 0 0 .13.13.13 0 0 .24 0 .37 0 0 .12 0 .12 0 .12s0-.12.13-.12c0 0 0 .12.13.25 0-.5.25-.25.64-.5 0 0 0 .12-.13.12.4.13.9-.4 1.03-.64.12 0 .25 0 .38 0 1.03.13.26-.9 1.92-.64.13 0 .26-.13.4-.13-.14.27-.14.65.1.65.14 0 .27.13.4.13-.13 0-.26 0-.26.13-.37.26-.37-.5-.63-.38 0 0-.13 0-.13.13-.12 0-.38.13-.25.26 0 0 .12-.12.24-.12v.13s0 .13.13.13.13 0 .13 0c0 .13-.5-.12-.38.26v.12c0 .13.12.25.25.13l-.13-.13h.13s0 0 0 .13v.12c0 .13.13.26.4.13 0 0-.14 0-.27-.13h.13v-.12s0 0 .13 0c0 0 0 0 .12 0 0 .12.13.12.26.12.26-.12 0-.25.26-.38h.12c.13 0 .52 0 .52 0 0-.14 0-.4-.13-.52-.12 0 0-.26-.12-.4.26.14.4.14.64.14.5 0 .64-.13.9-.25s.5-.13.64 0c0 0 .13 0 .13.12 0 .25 0 .25 0 .38s-.27 0-.4 0-.13 0-.13.13c-.12 0-.25.13-.25.26 0 0 .13-.13.25-.13 0 .13.26.26.4.13-.14.13-.27.26-.14.26 0 0 0 0 .13 0 0 .13.13.25.13.25s0-.12 0-.25h.1c.14 0 0-.26.14-.26 0 .13-.13.26 0 .4 0 0 0 0 .13 0 0 .1.13.1.26.1 0 0-.13 0-.13-.1l.13-.14c.13-.26-.13-.26-.13-.4 0-.1.26 0 .26-.24 0 0 0-.13-.13-.13.13 0 .13 0 .25-.13-.25 0-.12-.13-.12-.25.12 0 .12-.13.12-.26-.12.14-.25.27-.25 0 0 0 0-.12-.26-.12-.38 0-.64 0-1.28-.13.63 0 1.78-.13 1.78-.5M99.04 180.6s.25.12.38.12c-.25 0-.13.13-.25.13-.13 0-.13-.13-.13-.25m-.26-.13c0 .12-.13.12-.25.12-.13-.13 0-.13-.13-.26.13 0 .38.13.38.13m-.38.88c0-.12.13-.12 0 0 .25-.12.25-.12.25-.25s0-.13-.12-.13c.12 0 .12 0 .12-.13h-.12s0-.13.12-.13c0 0 0 0 .13 0l.4.13s.1 0 .1.13v.13s0-.13-.1-.13c0 0 0 0 0 .13-.14 0-.14-.13-.27 0 0 .13 0 .13 0 .13v.12c0 .13-.12.26-.25.13-.38.14-.38 0-.25-.12m.9 2.05s0-.12 0 0"/></g><g><path d="M105.53 186.53c0-.4-.4-.52-1.4-.52-1.04 0-4.37.4-4.37-.24 0-.4 1.16-.26 1.92-.26 0 0 .13.13.26.13 1.4.38 2.82-.5 3.84-.26-.76-.76-1.8.13-2.8-.12.63 0 1.27-.13 1.27-.26-.52.25-1.8-.27-2.44.12 0 0-.1 0-.1.13-1.04 0-2.32-.13-2.32.5 0 1.03 3.7.4 4.6.4s1.16.12 1.16.25c0 .26-.9.26-1.4.26-.77 0-4.36-.52-5.77 0 .13-.26.38-.65.26-.77.12 0 .25-.14.25-.27-.13-.13-.13-.13-.25-.13v-.13s0-.12-.13-.12c0 0-.13-.13-.26-.26s-.25-.14-.25-.14-.14 0-.27 0-.13 0-.13.13c0 0-.13-.14-.25-.14 0 .13-.13.26 0 .4-.13 0-.26.37-.4.24 0 .13.14.13.14.13-.14.13-.14.38-.27.38l.13.14c0 .13 0 .26 0 .4h-.13c-.13 0-.13 0-.13 0h-.12c-.13 0-.26-.27-.64-.53-.26-.1-.26-.24-.26-.37s.13-.38.13-.5v-.14c0-.14-.25-.27-.25-.14l.13.13-.13.12v.13s0 0 0 .12c0-.12-.13-.38-.25-.38 0 0 0 0-.13 0 0-.14-.13-.27-.26-.14h.14v.13c0 .12.13.12.26.25-.26-.13-.4 0-.4.12v.13c-.12.13-.12.13 0 .26v-.13s0 0 .14 0c0 0 0 0 .13 0 0 0 0 0 .13 0-.13.13-.13.26.12.38 0 .27-.38.27-.38 0-.26.4.13.66.5.4 0 0 0 .13.14.13 0 0 0 0 .13 0 0 .13 0 .13.14.25v-.12s.25.38.76.64c.13 0 .26 0 .26-.13 0 0 0 .13.13.13 0 .25.12.38.12.38s-.77 0-.9 0c-.26.13-.64.26-.9.13 0-.12 0-.12-.12-.25 0-.13-.13-.13-.13-.13h-.13c-.13-.12-.26-.12-.38 0 0 0 .12 0 .25.13v.13c0 .13 0 .13.27.26h-.13c-.13-.13-.13-.26-.26-.13 0 0 0 0-.12 0-.13 0-.4.14-.26.4l.13-.14v.13c0 .12.13.25.38.12-.12.13-.24.26-.12.38 0 0 0 0 .13 0 0 .13.14.4.27.26 0 0-.13-.13-.13-.26h.13c.13 0 .13-.25.13-.25 0 .13 0 .25.25.25.13 0 .26-.12.26-.25 0 0 .14.13.14.25l.12-.12c0 .12 0 .25-.12.25.12 0 .25-.13.25-.25v.12s.12 0 .38 0c0 .13 0 .13 0 .13s0-.13.12-.13c0 0 0 .13.13.26 0-.5.64-.26.9-.38 0 0 0 .12-.13.12.13 0 .26 0 .4-.12l.5-.26v-.13h.13c.25 0 .25-.26.38-.26 1.8.25.78-.77 2.83-.52.13 0 .13 0 .26-.12-.14.25-.14.5.1.5.14 0 .27.14.4.14-.13 0-.26 0-.26.12-.38.26-.38-.5-.64-.38 0 0-.13 0-.13.13-.13 0-.38.14-.25.26 0 0 .12-.12.25-.12 0 0 0 0 0 .12 0 0 0 .13.13.13s.13 0 .13 0c0 .12-.4-.14-.4.25v.13c0 .12.14.25.27.12l-.13-.12h.13s0 0 0 .12v.13c0 .13.13.26.4.13 0 0-.14 0-.14-.13h.13v-.13s0 0 .1 0c0 0 0 0 .14 0 0 .13.13.13.26.13.25-.13 0-.25.25-.38h.13c.13 0 .5 0 .5 0 0-.13 0-.4-.1-.5-.14 0 0-.27-.14-.4.25.13.38.13.64.13.5 0 .64-.13.77-.26.25-.12.5-.12.64 0 0 0 .12 0 .12.13 0 .26 0 .26 0 .4 0 .1-.26 0-.4 0-.12 0-.12 0-.12.1-.12 0-.25.14-.25.27 0 0 .13-.13.25-.13 0 .12.26.25.26.12-.13.13-.26.26-.13.26 0 0 0 0 .13 0 0 .12.13.25.13.25s0-.13 0-.25h.12c.12 0 0-.26.12-.26 0 .13 0 .26 0 .26s0 0 .13 0c0 .12.13.12.26.12 0 0-.13 0-.13-.12l.13-.13c.13-.26-.13-.26-.13-.4 0-.1.26 0 .26-.24 0 0 0-.12-.13-.12.13 0 .13 0 .13-.13-.26 0-.13-.13-.13-.25 0 0 .13-.13.13-.26 0 .13-.26.26-.26 0 0 0 0-.13-.26-.13-.38 0-.5 0-1.15-.12.5.26 1.53.13 1.53-.25m-7.82-.9s.27.13.4.13c-.13 0-.13.13-.26.13s-.13-.14-.13-.27m-.24-.13c0 .13-.13.13-.26.13-.13-.13 0-.13-.13-.26.13 0 .4.13.4.13m-.4.9c0-.13 0-.13 0 0 .26-.13.26-.13.26-.26s0-.13-.13-.13c.13 0 .13 0 .13-.1h-.13s0 0 .13-.14c0 0 0 0 .13 0l.38.13s.13 0 .13.1v.14s0-.13-.13-.13c0 0 0 0 0 .14-.13 0-.13 0-.25 0v.26c0 .13-.14.13-.27.13-.26 0-.26-.13-.26-.13"/></g><g><path d="M120.85 194.73c.13-.13.13-.13.13-.4-.13.14-.25.27-.25 0 0 0 0-.12-.26-.12-.38 0-.64 0-1.28-.1 0 0-.14 0 0 0 .63 0 1.78-.14 1.78-.53s-.38-.5-1.4-.5c-1.03 0-4.36.38-4.36-.27 0-.38 1.15-.25 1.92-.25 0 0 .13.13.26.13 1.4.38 2.94-.64 3.84-.4-1.03-.37-1.8.27-2.82 0 .64 0 1.28-.12 1.28-.24-.5.25-1.8-.26-2.43.12 0 0-.13 0-.13.13-1.02 0-2.3-.14-2.3.5 0 1.03 3.7.4 4.6.4s1.16.12 1.16.25c0 .25-.9.38-1.4.38-.9 0-4.37-.5-5.77 0 .12-.26.38-.64.25-.77.13 0 .26-.13.26-.26-.13-.12-.13-.12-.26-.12v-.13s0-.13-.13-.13c0 0-.12-.13-.25-.26s-.26-.12-.26-.12h-.13c-.12 0-.12 0-.12.12-.12 0-.12-.12-.25-.12 0 .12-.13.25 0 .38-.13 0-.26.38-.4.26 0 .12.14.12.14.12-.13.13-.13.4-.25.4.12.12.12.12.12.12 0 .13 0 .25 0 .25h-.12c-.13 0-.13 0-.13 0h-.14c-.13 0-.26-.25-.64-.5-.26-.14-.26-.27-.26-.4 0-.12.13-.38.13-.5v-.13c0-.13-.14-.26-.27-.13l.13.14-.13.12v.13s0 0 0 .12c0-.13-.12-.26-.25-.38h-.13c0-.13-.13-.26-.26-.13h.12v.14c0 .12.13.25.26.25-.26-.14-.4 0-.4.12v.13c-.1 0-.1.13 0 .25v-.12s0 0 .14 0c0 0 0 0 .13 0 0 0 0 0 .13 0-.13.12-.13.38.13.38 0 .26-.38.26-.38 0-.25.4.13.64.5.4 0 0 0 .1.14.1 0 0 0 0 .13 0 0 .14 0 .14.12.27 0-.13 0-.13 0-.13s.26.4.64.64c0 0 .13-.13.26-.13 0 .14.12.14.12.27h.13c0 .26.26.38.13.38s-.5 0-.64 0c-.26.13-.64.26-.9.13 0-.13 0-.13-.12-.25 0-.13-.13-.13-.13-.13h-.12c-.13-.13-.26-.13-.4 0 0 0 .14 0 .14.13v.12c0 .13 0 .13.26.26h-.13c-.13-.12-.13-.25-.26-.12 0 0 0 0-.13 0s-.4.13-.26.4l.14-.14v.13c0 .12.13.25.38.12-.13.12-.25.25-.13.38 0 0 0 0 .12 0 0 .13.13.26.26.26 0 0-.13-.13-.13-.26h.13c.13 0 .13-.26.13-.26 0 .13 0 .26.26.26.13 0 .26-.13.26-.26 0 0 .13.13.13.26l.13-.13c0 .13 0 .26-.13.4.13 0 .25-.14.25-.4 0 0 0 .13.13.13 0 0 .13 0 .4 0 0 .13 0 .13 0 .13s0-.12.1-.12c0 0 0 .13.14.26 0-.52.26-.26.64-.52 0 0 0 .13-.12.13.13.13.52-.13.52-.38 0 0 .13 0 .25-.13.26 0 .26-.26.4-.26 1.78.26.76-.77 2.8-.5.13 0 .13-.14.26-.27-.12.27-.12.65.14.65.13 0 .26.13.38.13-.12 0-.25 0-.25.13-.26.27-.4-.5-.64-.37 0 0-.13 0-.13.12-.13 0-.26.13-.26.26 0 0 .13-.12.26-.12v.13s0 .14.13.14.13 0 .13 0c0 .13-.4-.13-.4.25 0 0 0 .12.14.12 0 .13.13.26.26.13l-.13-.13h.13s0 0 0 .13v.13c0 .13.12.26.38.13 0 0-.13 0-.13-.12h.14v-.13s0 0 .13 0c0 .13.13.13.25.13.26-.13 0-.26.26-.26h.13c.14 0 .4 0 .52 0 0-.13 0-.38-.13-.5-.14 0 0-.27-.14-.4.26.13.4.13.65.13.52 0 .65-.12.9-.25s.5-.13.64 0c0 0 .13 0 .13.13-.13.25 0 .25 0 .38 0 .14-.26 0-.38 0-.14 0-.14 0-.14.14-.13 0-.26.13-.26.25 0 0 .13-.13.26-.13 0 .12.13.25.25.12-.1.12-.24.25-.1.25 0 0 0 0 .1 0 0 .13 0 .26.14.26 0 0 0-.12 0-.25h.13c.13 0 .13-.26.26-.26 0 .12-.13.25 0 .25 0 0 0 0 .12 0 0 .13.13.13.26.13 0 0-.12 0-.12-.13l.13-.13c.14-.25-.12-.25-.12-.38s.26 0 .26-.26c0 0 0-.13-.13-.13.14 0 .14 0 .27-.12-.64.38-.52.12-.52 0m-7.8-1.93s.25.13.38.13c-.13.13-.13.13-.13.13-.13 0-.26-.13-.26-.26m-.26-.12c0 .12-.12.12-.25.12-.13-.12 0-.12-.13-.25.13 0 .38.13.38.13m-.38.9c0-.13.13-.13 0 0 .26-.13.26-.13.26-.26s0-.13-.13-.13c.13 0 .13 0 .13-.14h-.13v-.13s0 0 .13 0l.38.13s0 0 0 .13v.12s0-.13-.13-.13c0 0 0 0 0 .12-.12 0-.12-.13-.24 0v.25c0 .13-.13.13-.26 0 0 .13 0 0 0 0m-.26-.5zm1.67 2.04"/></g><g><path d="M116 197.44c0 .13.14.13.27.13 1.28.38 2.8-.64 3.58-.4-1.02-.37-1.66.27-2.7 0 .65 0 1.17-.1 1.3-.24-.52.25-1.67-.13-2.3.13 0 0 0 0-.14 0-.76 0-1.27 0-1.27.5 0 1.03 2.7.4 3.6.4.88 0 .75.12.75.25 0 .27-1.02.27-1.4.27-.77 0-2.95-.4-4.36-.13.13-.26.38-.5.26-.64.12 0 .25-.13.25-.26-.13-.13-.13-.13-.25-.13v-.12s0-.12-.13-.12c0 0-.13-.13-.26-.26s-.26-.13-.26-.13h-.13c-.12 0-.12 0-.12.13 0 0-.13-.13-.26-.13 0 .13-.13.26 0 .4-.13 0-.25.24-.38.24 0 .14.13.14.13.14-.13.13-.13.4-.26.4l.14.1c0 .14 0 .27-.13.4h-.12c-.13 0-.25 0-.5-.13-.27-.12-.27-.25-.27-.37 0-.13.14-.4.14-.52v-.12c0-.12-.13-.25-.25-.12l.1.12-.1.13v.14s0 0 0 .13c0-.13-.14-.26-.27-.26 0 0 0 0-.13 0 0-.12-.13-.24-.26-.12h.13v.13c0 .14.13.14.26.14-.26-.13-.4 0-.4.13v.13c-.1 0-.1.12 0 .25v-.13s0 0 .14 0c0 0 0 0 .13 0-.13.13-.13.26.13.4 0 .25-.4.25-.4 0-.24.37.14.63.53.37 0 0 0 .12.13.12 0 .13 0 .13.1.13v-.13s0-.13.4.13c0 0 0 .13.13.13h.25c0 .25 0 .5 0 .5s-.5 0-.64 0c-.13.14-.64.27-.77.14 0-.13 0-.13-.13-.26 0-.13-.12-.13-.12-.13H110c-.14-.12-.27-.12-.4 0 0 0 .13 0 .13.13v.13s0 .12.26.25h-.14c-.13-.13-.13-.26-.26-.13 0 0 0 0-.12 0-.13 0-.4.13-.26.25 0 0 0-.12.13-.12v.12c0 .13.13.26.38 0-.13.13-.25.26-.13.4 0 0 0 0 .13 0 0 .12.13.25.26.25 0 0-.14-.13-.14-.26h.13c.12 0 .12-.26.12-.26 0 .13 0 .26.25.26.13 0 .26-.13.26-.26 0 0 .13.13.13.26l.13-.13c0 .13 0 .26-.14.26.13 0 .25-.14.25-.27 0 0 0 .13.14.13 0 0 .13 0 .4 0 0 .13 0 .13 0 .13s0-.14.1-.14c0 0 0 .13.14.26 0-.52.4-.4.64-.52 0 0 0 .13-.13.13.25.13.64-.26.76-.5 0 0 0 0 .13-.14v.12c.25 0 .25-.26.38-.26.9.13.25-.77 1.66-.5.13 0 .26-.14.4-.14-.14.13-.14.64.1.64.14 0 .27.13.4.13-.13 0-.26 0-.26.12-.25.25-.25-.5-.64-.4h-.13c-.12 0-.24.14-.24.27 0 0 .12-.14.25-.14 0 0 0 0 0 .13 0 0 0 .12.14.12s.13 0 .13 0c0 .13-.4-.13-.4.25v.13c0 .13.14.26.27.13l-.13-.13h.14s0 0 0 .13v.13c0 .13.13.26.4.13 0 0-.14 0-.14-.14h.13v-.13s0 0 .12 0c0 .13.13.13.26.13.27-.13 0-.26.27-.26h.12c.12 0 .38 0 .5 0 0-.13 0-.38-.12-.5-.13 0 0-.14-.13-.4.13.13.38.13.64.13.5 0 .63 0 .9-.12s.5-.12.63 0c0 0 .13 0 0 .13-.13.26 0 .26-.13.4-.13.12-.26 0-.38 0-.13 0-.13 0-.13 0-.14 0-.27.12-.27.24 0 0 .13-.12.26-.12 0 .12.12.25.24.12-.12.13-.38.26-.25.26 0 0 0 0 .12 0 0 .13 0 .26.12.26 0 0 0-.14.13-.27h.13c.13 0 .13-.26.26-.26-.13.13-.13.26 0 .26 0 0 0 0 .12 0 0 .13.13.13.26.13 0 0-.13 0-.13-.13l.14-.13c.13-.25-.13-.25 0-.38 0-.13.26 0 .38-.26 0 0 0-.13-.12-.13.12 0 .12 0 .25-.12-.13 0-.13-.12-.13-.25.13 0 .13-.13.13-.26-.13.12-.25.12-.25 0 0 0 0-.13-.13-.13-.26 0-.77 0-1.28-.13.63 0 1.78-.13 1.78-.52 0-.25 0-.5-1.02-.5s-3.33.38-3.33-.26c-.65.38-.13.38.38.38m-3.32 0c0 .13-.13.13-.26.13-.13-.13 0-.13-.13-.26.12 0 .25.14.38.14m.26.64c-.13 0-.13-.13 0 0-.26-.13-.13-.13 0 0-.13 0-.26 0-.26 0 0 .13 0 .13 0 .13v.14s-.13.13-.26.13-.13-.13-.13-.26.12-.12.12-.12c.13 0 .13 0 .13-.13s0-.13-.13-.13c.13 0 .13 0 .13-.12h-.13s0 0 0-.13c0 0 0 0 .13 0l.4.13c0 .12 0 .12 0 .38 0-.13 0-.13 0 0m.1-.26c-.1 0-.1-.12-.1-.25 0 0 .24.13.37.13-.13 0-.13.12-.26.12"/></g><g><path d="M114.87 202.26c0 .13.13.13.26.13 1.28.37 2.82-.65 3.6-.4-1.04-.38-1.68.26-2.7 0 .64 0 1.15-.12 1.28-.25-.5.25-1.66-.26-2.3.13 0 0-.13 0-.13.12-.38.13-.77.26-.77.64 0 .9 3.33.13 3.33.52 0 .25-.64.5-1.53.5-.64 0-1.8-.37-3.33-.12.13-.25.38-.64.25-.77.13 0 .26-.13.26-.25-.13-.13-.13-.13-.26-.13 0-.14 0-.14 0-.14s0-.13-.12-.13c0 0-.13-.13-.26-.13-.13-.12-.26 0-.26-.12h-.13s-.12 0-.12.12c0 0-.13-.12-.26-.12 0 .12-.13.25 0 .38-.13 0-.26.26-.38.26 0 .12.1.12.1.12-.1.13-.1.4-.24.4l.13.12c0 .25-.14.64 0 .77-.27-.26-.53-.64-.78-.77s-.26-.26-.26-.4c0-.12.13-.24.13-.5v-.13c0-.13-.14-.13-.27-.13l.13.13-.13.13v.13s0 0 0 .12c0-.13-.13-.26-.25-.26 0 0 0 0-.13 0 0-.13-.13-.26-.26-.13h.12v.13c0 .13.13.13.26.13-.26-.14-.26 0-.4.12v.12c-.12 0-.12.13 0 .26v-.13s0 0 .14 0c0 0 0 0 .13 0-.13.13-.13.26.13.26 0 .26-.4.26-.4 0-.24.26.14.5.4.38 0 0 0 .14.12.14 0 .13 0 .13.13.13v-.13s0 .4.4.64c.12.26.24.4.5.4.13.1.13.24.13.24s-.5 0-.64 0-.26.13-.4.13c-.12 0-.24 0-.37-.13 0 0 0-.13-.13-.25 0-.13-.13-.13-.13-.13h-.14c-.12-.13-.25-.13-.25 0 0 0 .14 0 .14.13v.12s0 .12.25.25h-.14c-.12-.13-.12-.26-.25-.13 0 0 0 0-.12 0-.13 0-.26.13-.26.26 0 0 0-.13.13-.13v.13c0 .13.13.25.4 0-.14.13-.27.25-.14.38 0 .13.14.26.26.26 0 0-.12-.13-.12-.26h.12c.13 0 .13-.25.13-.25 0 .13 0 .26.25.26.13 0 .25-.13.25-.25l.13.13s.13 0 .13-.12c0 .13 0 .13-.13.26 0 0 .26-.13.26-.25 0 0 0 0 0 .13 0 0 .12 0 .37 0v.13s0-.13.13-.13c0 0 0 .13.13.26 0-.4.26-.27.5-.4 0 0 0 .13-.12.13.14 0 .4-.12.4-.25 0 0 .25-.26.25-.77h.13c.4 0 .52-.25.9-.25-.13.13-.13.4-.13.52s.26.38.4.5c-.14 0-.27 0-.27.14-.26.13-.26-.38-.64-.25 0 0 0 0-.13.13-.12 0-.25.13-.25.25 0 0 .13-.12.26-.12 0 0 0 .13.14.13h.13c0 .13-.4-.12-.26.26v.12c0 .13.14.26.27.13l-.13-.13h.13s0 0 0 .13v.13c0 .12.13.25.38.12 0 0-.13 0-.13-.12h.13v-.13s0 0 .13 0c0 0 .13.13.26.13.25-.13 0-.26.25-.26h.12c.13 0 .26.13.38 0 0-.13 0-.4-.12-.5-.13 0 .12-.65-.4-1.04.27 0 1.04.13 1.16 0 .26 0 .52.26.52.26v.13c-.26.12-.13.12-.26.25 0 0-.13-.13-.26-.25-.12 0-.12 0-.12 0-.13 0-.26 0-.26.12 0 0 .13 0 .26 0v.12c-.13 0-.4 0-.26.13 0 0 0 0 0 .13-.13 0-.13.13 0 .25 0 0 0-.12.13-.12 0 0 0 0 0 .13 0 0 .12-.12.24-.12-.12 0-.25.13-.12.26 0 0 0 0 0 .13s0 .25.12.25v-.13h.13c.26-.13.13-.26.13-.4.13-.1.13.14.4 0v-.1s.1.1.1 0c-.1-.14 0-.14.14-.27 0 0 .13 0 .26-.13-.13 0-.4-.13-.26-.13.26-.13.26-.26.13-.4-.13-.25-.5-.25-.5-.5.12 0 .24 0 .37 0 1.15 0 1.92-.26 1.8-.64 0-.77-3.46 0-3.46-.52.5-.25.64-.38.9-.38m-2.44 0s.26.13.38.13c-.12 0-.12.12-.25.12s-.13-.13-.13-.26m-.26 0c0 .13-.13.13-.25.13-.13-.14 0-.14-.13-.27.13 0 .38 0 .38.13m-.25.77c0-.13 0-.13 0 0 .12-.13.25-.13.25-.13 0-.13 0-.13-.13-.13.13 0 .13 0 .13-.13h-.13v-.12s0 0 .13 0l.26.12s0 0 0 .13v.13s0-.13-.13-.13c0 0 0 0 0 .13-.12 0-.12 0-.12 0v.26c0 .12-.13.12-.25.12-.13-.12-.13-.25 0-.25"/></g><g><path d="M59.97 143.1c0-.5-.38-.75-.77-.75-.5 0-.76.38-.76.76s.38.78.76.78c.4 0 .77-.38.77-.77"/></g><g><path d="M59.62 140.83c0-.5-.4-.77-.77-.77-.5 0-.77.4-.77.77s.4.77.77.77c.5.13.77-.26.77-.77"/></g><g><path d="M60.16 139.86c.52 0 .77-.4.77-.77s-.38-.78-.77-.78c-.5 0-.77.38-.77.77s.25.76.76.76"/></g><g><path d="M62.32 139.8c.5 0 .77-.38.77-.76 0-.5-.4-.77-.78-.77-.5 0-.77.38-.77.77 0 .38.4.77.77.77"/></g><g><path d="M71.66 138.26c.38.26.9.26 1.15 0 .27-.25.27-.9 0-1.15-.37-.37-.88-.37-1.14 0-.26.27-.26.78 0 1.16"/></g><g><path d="M71.47 136.5c.38-.24.38-.9 0-1.14s-.9-.4-1.15 0c-.4.25-.26.9 0 1.15.38.27.9.27 1.15 0"/></g><g><path d="M69.32 136.13c.25-.25.25-.9 0-1.15-.4-.38-.9-.38-1.16 0-.25.38-.25.9 0 1.15.26.4.77.4 1.16 0"/></g><g><path d="M67.4 137.5c.26-.25.26-.9 0-1.15-.38-.26-.9-.26-1.15 0-.26.38-.26.9 0 1.15.38.4.9.4 1.15 0"/></g><g><path d="M62.15 136.35l.64 1.4.76-1.02h.13c.1.5.1 1.28.1 1.8 0 .64.53 1.02 1.04 1.02s1.02-.5 1.02-1.03c0-.38-.25-.76-.5-.9-.4-.25-.9-.76-1.16-1.02v-.12l1.4.12-.5-1.53-1.03.9-.13-1.54-1.4.5.9 1.16v.12l-1.3.13z"/></g><g><path d="M71.68 139c.25.53.38.78.5 1.17-.25-.13-.5-.4-.9-.77l.14 1.92c.26-.38.4-.5.64-.64-.13 1.28-.5 1.8-1.02 1.8-.5.12-.9-.26-1.03-.65-.1-.5.4-.9.9-.38.14-1.15-.9-1.15-1.27-.64.5-1.14.26-1.8-.64-2.43-.65 1.03-.4 1.67.37 2.57-.77-.4-1.4.25-.77 1.15.13-.78.77-.52.9 0s-.38 1.14-1.15 1.4c-1.15.38-1.54-.4-1.8-1.03.26-.12.9-.12 1.54.4l-.52-1.93c-.26.64-.64.9-1.15 1.15 0-.52.38-1.68.38-1.68l-2.3.9s1.03.5 1.4.9c-.5.13-.88.25-1.52 0l.9 1.8c.12-.78.5-1.3.9-1.3.25.65.5 1.42-.65 2.06-.77.38-1.54.26-1.8-.13-.25-.5 0-1.15.65-.64-.13-1-1.03-1-1.28-.25 0-1.15-.26-1.8-1.4-2.05-.27 1.16.1 1.8 1.14 2.18-.64-.13-1.28.5-.38 1.28 0-.64.64-.77.9-.25.25.4.12.9-.26 1.16-.4.26-1.03.26-2.05-.64.25-.13.5-.13 1.02 0l-1.15-1.54c.13.5 0 .9-.13 1.16-.27-.26-.4-.52-.52-1.16l-.9.77c.9.5 1.92 1.4 3.08 3.08 1.28-.77 3.58-1.93 5-2.57s3.83-1.4 5.37-1.66c-.25-2.05-.13-3.33.13-4.36l-1.28-.13z"/></g><g><path d="M89.76 191.23c.38-.9-1.28-1.93-1.54-3.08s0-2.43-1.54-4.1c-1.4-1.66-6.27-6.92-7.8-8.58.37 0 1.27-.26 2.17.64.5.52 1.53 1.55 2.56 2.44 1.3-3.33 2.96-5.76 5.26-8.45.26-.4.64-.65.9-1.04-.9.26-2.18.52-2.95 1.03 0-1.42 0-2.57-.9-3.6.4-2.05 0-4.48-4.47-7.43 2.3.5 3.72 2.7 5.5 1.03-1.53 0-1.66-3.46-7.42-6.4 2.2 0 3.85 3.45 6.4 1.53-2.42-.26-3.2-4.48-7.54-5.9 1.53.13 3.07.9 4.35-.9-1.52.4-2.42-1-3.96-1.14.64-1.93.5-3.1-.13-4.37-1.14.13-2.3.4-3.06 1.15-.13-1.02-1.15-1.02-2.18-1.02 0 .38.26 1.02-.26 1.15-.76.14-3.33.9-5.38 1.68-1.92.77-4.22 2.18-4.86 2.7-.4.24-.77-.4-1.03-.65-.64.64-1.4 1.4-.9 2.18-1.15.13-2.3.4-3.33 1.16 0 1.28 1.03 2.56 2.7 3.2-2.7 2.7-.26 5.12-2.57 7.43 3.33.12 2.7-4.5 4.36-5.13-.14 3.2-1.93 3.84-1.93 7.3 0 1.92 1.15 3.84.12 5.12 2.8-.78 2.04-6.93 3.7-8.72.27 1.03.14 2.05-.25 3.08-1.02 2.8.13 6.8-1.4 7.94 2.8-.26 3.2-4.74 5.5-6.4-2.05 4.1-3.97 12.68-7.04 17.03-4.73 6.53-7.68 14.35-12.03 14.35-1.93 0-3.46-1.16-3.46-3.6 0-7.3 12.7-12.4 12.7-20.23 0-3.46-2.83-4.87-4.62-4.87-1.16 0-2.7.64-3.85 1.54-.5-.26-1.02-.38-1.53-.38-4.5 0-3.33 8.07-7.18 7.94 1.54.9 4.23-.77 5.77-3.08-.65 5.26-8.2 3.85-7.57 10.12 1.03-4.86 12.94-4.22 12.94-11.65 0-.9-.4-1.54-1.03-2.05.9-.52 1.8-.77 2.57-.77 1.4 0 2.7 1.02 2.7 3.2 0 6.53-12.56 12.17-12.56 20.24 0 1.4.4 2.55 1.03 3.32-.9.4-1.8.26-2.57-.64-.12 2.05 2.95 3.33 4.74 2.3.4.13.9.26 1.3.26-.53 1.54-2.45 2.05-3.47 1.92 3.07 2.44 8.45-.76 8.2-3.45 2.43-1.92 3.97-5.37 5.76-7.55-.13.5-.26 1.02-.26 1.54-1.8 3.32-3.46 6.13-3.97 10.5-.38 3.58-2.18 6.9-4.74 6.9-.5 0-1.4-.76-1.92-.38-.77.64 0 1.4 0 2.05 0 1.03-1.92 2.05-1.92 5.25 0 1.4.77 3.08.5 4.1.78-.38 1.93-1.8 2.32-3.46.9 4.23-1.8 3.98.13 7.7.25-1.3 1.4-1.8 2.17-1.3.77.52.4.9-.12 1.42s-1.03 3.33 1.4 3.2c-.5-.26-.5-1.02.77-1.28 1.8-.38 2.3.5 4.1.5 1.15 0 1.4-1.52 2.43-1.52.9 0 .9.76.64 1.28 1.4-.4 1.8-1.16 1.8-2.05 0-.76-.65-1.27-.14-1.66.5-.25 2.18 0 1.54 1.4.9-.12 1.4-.76 1.4-1.9 0-1.04-1.27-1.68-2.3-1.55-.25-.65-1.15-1.03-2.05-1.03-2.05 0-1.8 1.66-3.2 1.66-2.3 0-4.48-2.94-4.48-7.94 0-2.7 2.82-3.34 4.86-4.24 2.05-.9 5.5-3.07 7.7-6.66 1.66-2.82 1.66-5.9 1.53-9.48 2.82 1.67 3.2 3.97 3.2 5.64 0 2.18-1.15 3.07-2.05 3.46-.77.38-1.02.25-1.15.64-.13.5.25.9.64 1.02 1.02.52.77 1.54 1.15 2.56.26 1.03 1.28 2.7 2.82 3.98.13-.64.13-1.67 0-3.08 2.18 1.03.38 5.5 4.74 5.5-.77-.5-.5-1.53-.13-1.78s1.03.25 1.8 1.4.64 1.03 2.56 1.03c2.06 0 1.16-.65 2.18-.65 1.03 0 1.03 1.28.4 2.18 1.78-.52 2.3-1.92 1.65-3.33 1.54-.9 2.44.38 2.7 1.28 1.53-1.54 0-3.46-1.3-3.6 0-.5-.5-1.14-1.14-1.27-.65 0-1.3-.12-2.06 0-.77 0-1.15 1.16-2.05 1.16-2.7 0-7.95-4.86-7.95-6.9s5-3.35 5-6.55c0-4.2-4.1-5.62-7.7-8.3 1.3-1.42 4.88-1.8 6.93-.78.25-1.16 1.02-.9 1.28-2.95.77 1.8 0 3.33.77 4.1.64-.9 2.05-.77 2.05-2.95.5 1.4-.65 3.46.5 4.5.14-1.17.9-1.42 1.3-1.42s.76.25.76 1.02c0 1.67-2.05.9-2.05 2.82 0 .77 1 1.03 1 1.54 0 .5-.76 1.28-1.78.64.38.77 1.02 1.4 1.92 1.4s1.92-.76 2.3-1.66c.52 1.16.13 2.56-.76 2.7.9.5 3.07 0 2.82-2.83 1.28.26 1.92 1.03 1.15 2.57 1.02-.26 1.92-.77 1.92-1.8 0-.77-.9-1.02-.5-2.17m-23.84-38.05c-1.15.13-1.15-1.02-3.2-1.54 1.4-.25 3.2-1.02 4.87-1.66.38 1.4-.26 3.07-1.67 3.2m8.2 8.58c-1.54.64-2.7-.64-2.95-1.53-.25-.9-.5-1.67-.12-1.93.64-.64.9-1.15.5-1.92-.38-.9-1.4-.5-2.43-.25.52-.9.52-1.54-.12-1.4-.76.12-.76 1.4-1.28 1.14-.38-.13-.12-.9-.12-1.28 0-.52.38-.78.9-1.04l4.22-1.66c.5-.26.9-.26 1.28.13.26.25 1.03.64.77 1.02-.26.4-1.15-.5-1.8 0-.5.4-.12.77.9 1.15-.9.52-1.92.9-1.53 1.93.25.76.76 1.02 1.66 1.02.5 0 .77.64 1.28 1.54.26.88.4 2.42-1.15 3.06m.26-11.9c-1.17.9-2.7.12-3.34-1.16 1.53-.64 3.45-1.4 4.6-2.18-1.15 1.8-.38 2.56-1.27 3.33"/></g><g><path d="M170.28 211.6c0 1.93 1.54 3.6 3.6 3.6 1.9 0 3.57-1.54 3.57-3.6s-1.53-3.58-3.58-3.58-3.6 1.54-3.6 3.6m.9 0c0-1.42 1.16-2.7 2.7-2.7 1.4 0 2.7 1.15 2.7 2.7s-1.3 2.55-2.83 2.55c-1.4 0-2.56-1.15-2.56-2.56"/></g><g><path d="M157.04 214.77c-.5.4-.76.77-.9 1.28-.12.64.14 1.28.52 1.8.38.5 1.03.77 1.8.9.76.12 1.4 0 2.04-.26.64-.4 1.03-.9 1.16-1.55.25-1.28-.77-2.43-2.3-2.7-.9 0-1.8.14-2.32.52m1.54 3.2c-1.02-.12-1.66-.9-1.54-1.66.13-.37.26-.63.52-.76.38-.26 1.02-.38 1.53-.26.9.13 1.66.77 1.66 1.54v.13c-.26.77-1.15 1.28-2.18 1.03"/></g><g><path d="M137.43 165.1c-1.16.9-1.4 2.3-.77 3.2.77.9 2.18.9 3.33.13.63-.52 1-1.16 1-1.8 0-.5 0-1.02-.37-1.4-.26-.4-.77-.65-1.28-.65-.5-.25-1.28 0-1.92.52m-.13 2.05c0-.52.26-1.03.77-1.4.38-.27.9-.53 1.28-.4.26 0 .5.13.64.4.12.24.25.5.12.76 0 .4-.4.9-.77 1.16-.64.5-1.67.5-2.05 0 0-.13 0-.26 0-.5"/></g><g><path d="M152.8 208.9c-.5.53-.9 1.3-.9 2.2v.12c0 .77.26 1.54.77 2.05.4.38.9.64 1.4.64.53 0 1.04-.25 1.42-.63.5-.5.9-1.28.9-2.18 0-.78-.27-1.42-.65-1.93s-1.03-.9-1.67-.9c-.38 0-.9.26-1.28.64m1.4 4.1c-.37 0-.63-.24-.76-.37-.38-.38-.5-.9-.5-1.54s.25-1.16.63-1.54c.13-.13.5-.4.77-.4.77 0 1.4.9 1.28 1.93 0 .63-.26 1.15-.64 1.53-.13.13-.38.38-.77.38m0 .9z"/></g><g><path d="M135.47 180.3c-.52.12-1.03.5-1.16 1-.5 1.17.14 2.58 1.55 3.22.77.38 1.54.38 2.3.12.52-.12 1.03-.5 1.16-1.02.27-.5.27-1.03 0-1.54-.25-.64-.76-1.28-1.53-1.66-.77-.4-1.66-.4-2.3-.13m.64 3.45c-.9-.4-1.4-1.4-1.02-2.05.13-.4.52-.5.64-.5.52-.14 1.03-.14 1.54.1.5.27.9.65 1.15 1.17.14.25.14.5 0 .9-.1.38-.5.5-.63.5-.5.13-1.02.13-1.66-.12"/></g><g><path d="M172.8 176.6c1.16 3.2 3.46 4.36 5.26 3.47-3.97-.52-.77-7.18-5.77-7.18-.26 0-.52 0-.78.12-.9-.9-1.8-1.28-3.33-1.28-2.18 0-5.77 2.05-5.77 6.28 0 9.1 10.63 10 10.63 18.06 0 2.3-1.8 3.84-3.84 3.84-1.8 0-3.2-2.05-4.74-5.12-.77-1.54-2.3-3.6-3.84-5.64.5.4 1.02.5 1.53.5s1.16-.1 1.54-.5.65-.9.65-1.4v-.14c0-.76-.26-1.4-.9-2.04s-1.28-1.03-2.05-1.03c-.5 0-1.15.13-1.53.5s-.64.9-.64 1.42v.13c0 .26 0 .64.12.9-2.3-2.95-4.35-5.9-4.35-7.56 0-1.4 1.02-2.7 2.18-4.1l.38.26.26-.4c.38-.5 1.28-1.4 3.2-3.45l.13-.13.38-.5-1.15-.9c.26-.65.5-1.4.77-2.3.38 1.4 1.15 2.42 2.18 2.04-.65-1.54.64-3.6-.26-7.3.9 1.4 2.18 2.18 3.07 1.92-2.3-2.05.64-5-2.3-9.48 1.02.38 1.66.13 2.18-.38-2.82-.4-1.54-3.98-6.4-5.26 1.27-.25 1.9-.9 1.78-1.53-1.28.9-2.43-1.8-6.66-1.67-.25-1.54-1.8-3.33-3.46-4.1.26 1.28 0 2.3-.25 3.33l-13.84-13.6c-.4-.37-.65-.5-.78-.37-.12.13-.12.38.13.64l11.92 15c-.9.24-1.8.63-2.7 1-.64.27-1.02.78-1.02 1.55-2.18 1.15-4.1 2.43-5.12 3.33-.77.64-1.28.77-.64 2.3.24.52-.53 1.93 1.14.9 1.15-.64 3.7-2.05 4.1-1.15.25.5-1.03 1.02-1.92 1.4s-1.8 1.03-1.67 1.42.77 0 .9.38c0 .4.38.77.64.77.37 0 .76-.77 1-.5.27.24-.1 1.9-.37 2.3 1.4-.13 2.18-1.4 2.3-2.44 0-1.02.26-1.28.52-1.4.25-.14.5 1.02.13 1.78.76-.1 1.4-1.14 1.4-2.8.4-.26.77-.52 1.03-.52.52 0 1.42 1.28 2.7 1.28 2.3 0 3.7-1.92 3.84-2.8.13-.78 0-1.42-.38-1.93.9.64 1.15 1.8 1.15 2.56 0 3.32-5.88 4.86-8.32 7.16-.12.13-.12.13-.25.26l-2.82-1.03-.12.63s0 .13-.13.52c-.25.9-.9 2.94-1.28 4.1l-.13.5.26.13c-1.66 2.18-2.95 4.62-3.2 7.18-.64-.64-1.28-1.28-2.05-1.8.13-.25.13-.5.13-.76 0-.77-.13-1.4-.64-1.93-.4-.38-.77-.64-1.28-.64s-.9.13-1.4.52c-.14.12-.14.12-.27.25-.14-.13-.27-.13-.27-.25-.9-.77-2.05-1.54-2.7-2.3-.24-.4-.63-.52-1.14-.52-.27 0-.78 0-1.3 0-.37 0-.63.25-1.14.77-.26.25-.9.64-1.54 1.28.38.38.64.64 1.02 1.02.13.26.4.4.52.64.13-.12.38-.25.5-.38.27-.26.65-.26 1.03-.26s.9.26 1.15.77c.25.4 2.43 3.33 4.35 5.38-.25.13-.38.13-.64.26-.77.4-2.56.26-3.33.26-.77-.12-.9-.25-1.54.64-.26.4-.52.77-.77 1.03-.26.38-.52.64.12 1.66.77 1.4 2.82 5 3.6 6.66.63 1.66 1.4 1.92 2.8 2.43 1.3.5 3.47 1.78 3.72 2.04l.13-1.28c-.38-.4-1.66-.9-2.05-1.03-.5-.12-.64-.38 0-.38.5 0 2.05.5 3.2 1.02-.38-1.28-1.53-2.56-2.17-3.33-.9-.25-1.92-.25-2.3 0 0 .26-.14.64-.52.64s-.64-.25-.5-.64.63-.5.5-1.15c-.13-.78-1.03-.78-1.54-.9-.77-1.16-1.66-2.82-2.18-3.46-.38-.65-.12-1.03.13-1.3.64-.5 2.05.27 4.87.53 1.02 0 2.18.12 3.46.12.38 3.33 1.66 6.4 6.28 7.55 2.17.52 4.48 2.18 5.25 4.36-9.1-.12-10.5 3.34-10.5 6.8 0 3.84 3.2 3.58 3.2 6.4 0 2.44-7.7 3.46-10 3.85-1.92.25-3.07.76-3.97 1.66-.9.9-1.92 1.8-3.58 3.6 0 0 .76.13 1.4.13l1.3-1.67c.37-.5.63-1.02.88-1.02s.13.5-.25 1.02l-1.02 1.8c4.5.25 4.74-1.42 4.74-2.06s-1.15-1.15-.5-1.53c.63-.4 1.14-.13 1.65.5s.65 1.16 1.93.65c0 0 9.73-4.1 11-4.6 1.17-.52.78-1.04.14-1.55-.77-.64-.9-1.54-.9-2.56 0-2.94 1.8-3.83 5-3.83 0 .5-.13 1.02-.13 1.4 0 4.62 7.06 9.1 8.85 9.1.9 0 1.92-.64 2.05 2.18 0 2.05.5 3.46.13 5.9-.4 2.3-1.03 2.68-2.44 3.7-1.4 1.03-2.82 4.1-3.34 4.75.64.38 1.28.5 1.8-1.03.38-1.28.9-2.18 1.53-2.43-.52 1.4-.9 3.46-1.3 4.1 1.8.25 4.75-1.3 4.75-2.57s-1.02-1.15-1.02-2.05c0-.38.5-.76 1.02-.76.77 0 1.28.5 1.28.9.77-.4 1.3-1.16 1.3-3.08 0-.77 0-1.4-.14-2.18 0 .13.12.26.12.26.38.5.9.9 1.66.9.64 0 1.4-.14 1.92-.52.64-.5 1.15-1.15 1.28-1.92 0-.13 0-.26 0-.5 0-.4-.13-.78-.38-1.17s-.77-.76-1.28-.9c-.77-.12-1.54 0-2.3.52-.65.38-1.16 1.02-1.3 1.66-.12-2.56-.37-4.86-.25-5.9.13-1.4.13-2.04-.25-2.3-.5-.25-1.03.65-1.67.65s-2.7-1.92-2.7-3.85c0-2.05 2.2-4.6 2.06-7.3 0-.9.53-1.28.9-.5.4.9 1.03 2.17 1.93 3.2-.5 3.45 3.2 6.78 6.28 4.35-1.53.25-2.55-1.16-3.32-2.56.25 0 .5.12.9.12.12 0 .25 0 .5 0 1.16 1.4 4.62 1.28 5.5-2.17-.63.76-1.9 1.28-2.8 1.15 1.28-1.03 2.05-2.7 2.05-4.48 0-8.72-10.64-9.74-10.64-17.68 0-2.95 2.56-4.87 4.35-4.87.64 0 1.15.25 1.66.5-.63.64-1 1.8-1 3.08.25 6.27 10.5 6.02 10.62 8.96.9-5-6.66-3.58-6.92-9.73m-27.28-24.07c.5-.9 0-2.44 1.8-2.44.9 0 1.66.9 2.68 1.14-1.8.26-3.33.64-4.48 1.3m-9.35 19.2c0 .5-.26 1.03-.5 1.28-.14.13-.4.26-.65.26-.65 0-1.03-.77-1.03-1.54v-.13c0-.5.25-1 .5-1.27.13-.13.4-.26.64-.26s.52.26.64.4c.26.37.4.76.4 1.27m30.22 44.07c.13-.5.5-1.02.9-1.27.5-.4 1.02-.52 1.53-.4.26 0 .52.14.77.52.26.26.13.64.13.9-.13.5-.5 1.03-.9 1.28-.9.5-1.92.5-2.3-.13-.26-.38-.13-.64-.13-.9m-6.4-29.2c0-.26.12-.5.38-.77s.64-.25.77-.25c.5 0 1.02.25 1.4.76.4.4.65 1.03.65 1.54 0 .26-.13.5-.4.77-.24.26-.63.26-.76.26-.5 0-1.02-.25-1.4-.76s-.65-1.03-.65-1.54m-17.3-19.73c.5-1.53 1.4-4.6 1.4-4.6l1.68.63c-.52.13-1.03.64-1.54 1.15.38.13 1.02.13 1.4-.12l-.63 1.66c-.12-.26-.63-.9-1.02-.9-.38 1.28.5 1.8 1.03 2.04 1.03.52 1.67.64 1.93.13s-.4-1.28-1.15-1.02c-.13-.9.38-1.28.9-1.28.38 0 .76.38.9.9 0-1.42.5-2.44 1.78-2.82.5 1.28.13 2.17-.9 3.2.52-.26 1.16-.13 1.4.13.27.5.27 1.15-.5 1.53-.13-.88-1.15-.88-1.53-.37-.26.5.12 1.15 1.02 1.66 1.02.63 1.92.25 2.43-.65-.38-.12-.9 0-1.53.26l1.02-2.04c0 .26.26.77.64 1.15.14-.5.4-1.27 0-1.9l2.32 1.27c-.77.13-1.4.64-1.67 1.03.5.25 1.03.13 1.4 0l-1.14 1.92c0-.64-.25-1.15-.5-1.4-.52.9-.4 1.78.64 2.42.9.52 1.53.64 1.92.13s-.26-1.4-1.03-1.15c0-.9.52-1.28 1.03-1.28.5 0 .77.5.9 1.15.38-1.42.9-2.2 2.3-2.44.26 1.28-.38 2.3-1.54 2.94.52-.13 1.03-.13 1.28.26.26.5.13 1.15-.64 1.4-.12-.9-1.15-1.02-1.4-.5-.26.5.12 1.02 1.02 1.53.5.38 1.4.76 2.3-.13-.25-.4-1.02-.52-1.4-.52l1.02-1.4c0 .5.26 1.02.64 1.27.13-.64.26-1.4.13-1.92l1.4 1.03s-2.17 2.3-3.2 3.58l-14.47-7.93zM157.05 203c-.64.77-1.54 1.15-2.18.64s-.64-1.54-.13-2.3c.5-.78 1.54-1.16 2.18-.65.64.5.64 1.53.13 2.3m4.1-6.54c-.64.77-1.54 1.16-2.18.64s-.64-1.53-.13-2.3c.64-.77 1.54-1.15 2.18-.64.64.38.77 1.4.13 2.3"/></g></g></g></svg>