<svg xmlns="http://www.w3.org/2000/svg" width="300" height="68.679"><defs><clipPath><path d="M0 0h425.2v425.2H0V0z"/></clipPath><clipPath><path d="M0 0h425.2v425.2H0V0z"/></clipPath><clipPath><path d="M0 0h425.2v425.2H0V0z"/></clipPath><clipPath><path d="M0 0h425.2v425.2H0V0z"/></clipPath><clipPath><path d="M0 0h425.2v425.2H0V0z"/></clipPath><clipPath><path d="M32.35 288.83h90.8v20.8h-90.8v-20.8z"/></clipPath><clipPath><path d="M0 0h425.2v425.2H0V0z"/></clipPath><clipPath id="a"><path d="M32.35 215.13h90.8v20.8h-90.8v-20.8z"/></clipPath><clipPath><path d="M0 0h425.2v425.2H0V0z"/></clipPath><clipPath><path d="M32.35 141.66h90.27v20.56H32.35v-20.56z"/></clipPath><clipPath><path d="M0 0h425.2v425.2H0V0z"/></clipPath></defs><g><g><g clip-path="url(#a)" transform="matrix(3.304 0 0 -3.304 -106.85 779.338)"><g><path fill="#808080" d="M44.02 224.4c-.36-.25-2.2-1.66-5.14-1.66-3.75 0-6.53 2.7-6.53 6.55 0 3.42 2.28 6.62 6.68 6.62 2.26 0 3.74-.72 4.65-1.62l-1.25-1.63c-.58.47-1.76 1.2-3.43 1.2-2.64 0-4.33-2.02-4.33-4.55 0-3.1 2.1-4.6 4.28-4.6 1.74 0 2.8.7 2.97.82v2.38h-3.15v1.88h5.25v-5.4z"/></g><g><path fill="#808080" d="M53.13 227.56v.04c0 1.64-1.18 2.96-2.85 2.96-1.7 0-2.8-1.3-2.8-2.93v-.03c0-1.62 1.18-2.94 2.84-2.94 1.72 0 2.8 1.3 2.8 2.9m2.14.04c0-2.64-2.1-4.8-4.98-4.8-2.83 0-4.93 2.12-4.93 4.76v.04c0 2.66 2.1 4.82 4.97 4.82 2.85 0 4.94-2.13 4.94-4.8v-.02z"/></g><path fill="#808080" d="M58.73 222.95H56.6v12.85h2.13v-12.85z"/><g><path fill="#808080" d="M67.7 227.6c0 2.02-1.46 2.96-2.76 2.96-1.27 0-2.73-.88-2.73-2.94 0-1.6 1.03-2.98 2.78-2.98 1.68 0 2.7 1.22 2.7 2.96m2.1-4.65h-2.02v1.23c-.55-.84-1.8-1.42-3.1-1.42-2.45 0-4.6 1.74-4.6 4.82v.05c0 2.26 1.34 4.8 4.7 4.8 1.3 0 2.43-.54 2.9-1.24v4.6h2.12v-12.85z"/></g><g><path fill="#808080" d="M78.33 225.65c0-1.87-1.5-2.87-3.44-2.87-2.27 0-3.78 1.04-3.92 1.2l.9 1.5c.98-.66 2.05-.98 3-.98.9 0 1.3.4 1.3 1.02 0 .7-.82.9-1.9 1.3-1.45.54-2.88 1-2.88 2.73v.04c0 1.75 1.5 2.84 3.34 2.84 1.17 0 2.45-.32 3.44-.97l-.8-1.57c-.9.55-1.88.8-2.55.8-.8 0-1.3-.32-1.3-.92 0-.77 1.27-1.07 1.95-1.32 1.36-.5 2.85-1.07 2.85-2.8"/></g><path fill="#808080" d="M97.75 233.2h-2.13v2.07h2.13v-2.06z"/><path fill="#808080" d="M97.75 222.95h-2.13v9.3h2.13v-9.3z"/><g><path fill="#808080" d="M105.58 223.42c-.1-.06-.9-.63-2.36-.63-1.85 0-2.88.9-2.88 2.9v4.85h-1.36v1.7h1.37v3.02h2.12v-3.03h2.67v-1.7h-2.67v-4.5c0-.5.05-.84.3-1.1.22-.2.52-.32.9-.32.54 0 1.03.18 1.28.3l.63-1.5z"/></g><g><path fill="#808080" d="M114.77 222.95h-2.13v4.94c0 1.52-.27 2.63-1.8 2.63-1.86 0-2-1.7-2-2.9v-4.68h-2.13v12.85h2.14v-4.5c.4.53 1.23 1.13 2.46 1.13 1.27 0 2.04-.38 2.57-.9.9-.92.9-2.4.9-2.95v-5.63z"/></g><g><path fill="#808080" d="M123.16 225.64c0-1.87-1.5-2.87-3.45-2.87-2.24 0-3.75 1.04-3.9 1.2l.92 1.5c.97-.66 2.04-.97 3-.97.87 0 1.28.38 1.28 1.02 0 .68-.8.9-1.9 1.3-1.45.53-2.87 1-2.87 2.73v.03c0 1.76 1.5 2.85 3.34 2.85 1.16 0 2.45-.3 3.43-.96l-.8-1.57c-.9.55-1.87.8-2.54.8-.8 0-1.3-.33-1.3-.92 0-.78 1.27-1.08 1.95-1.32 1.37-.5 2.86-1.08 2.86-2.82"/></g><g><path fill="#808080" d="M93.77 222.95h-2.13v4.94c0 1.53-.27 2.63-1.8 2.63-1.86 0-2-1.7-2-2.9v-4.68H85.7v4.94c0 1.53-.3 2.63-1.86 2.63-1.67 0-1.93-1.5-1.93-2.64v-4.95H79.8v9.3h2.02v-1.13c.5.7 1.33 1.33 2.64 1.33 1.42 0 2.27-.56 2.78-1.55.47.64 1.43 1.54 3.08 1.54 1.27 0 2.04-.4 2.57-.92.9-.9.9-2.4.9-2.94v-5.63z"/></g><g><path fill="#808080" d="M59.42 216.66c0-.46-.04-1.52-1.42-1.52-1.37 0-1.4 1.15-1.4 1.44v1.83h.76v-1.84c0-.5.23-.76.65-.76.66 0 .66.56.66.74v1.87h.76v-1.74z"/></g><g><path fill="#808080" d="M63.3 215.2h-.6l-1.5 1.98v-2h-.72v3.23h.65l1.47-1.92v1.93h.7v-3.2z"/></g><path fill="#808080" d="M65.17 215.2h-.77v3.2h.77v-3.2z"/><g><path fill="#808080" d="M69.17 218.4l-1.27-3.2h-.68l-1.28 3.2h.83l.8-2.2.82 2.2h.77z"/></g><g><path fill="#808080" d="M72.3 215.2h-2.36v3.2h2.33v-.6H70.7v-.68h1.37v-.6H70.7v-.7h1.6v-.63z"/></g><g><path fill="#808080" d="M75.18 217.35c0 .43-.4.46-.68.46h-.4v-.9h.36c.3 0 .72 0 .72.45m.96-2.16h-.86l-.75 1.13h-.43v-1.14h-.76v3.2h1.24c.25 0 .74 0 1.03-.28.15-.15.3-.37.3-.76 0-.67-.5-.86-.63-.9l.87-1.27z"/></g><g><path fill="#808080" d="M79.2 216.14c0-.66-.5-1-1.18-1-.67 0-1.15.24-1.28.36l.3.53c.1-.05.5-.28.98-.28.34 0 .47.14.47.34 0 .27-.36.32-.62.4-.43.13-1.06.33-1.06 1.02 0 .58.47.95 1.18.95.55 0 1.02-.23 1.12-.3l-.25-.55c-.05.02-.46.23-.88.23-.32 0-.46-.1-.46-.3 0-.24.3-.32.67-.43.5-.14 1-.34 1-.98"/></g><path fill="#808080" d="M80.94 215.2h-.76v3.2h.76v-3.2z"/><g><path fill="#808080" d="M84.5 217.8h-1v-2.6h-.76v2.6h-1v.6h2.76v-.6z"/></g><g><path fill="#808080" d="M88.22 218.4l-1.2-1.93v-1.28h-.76v1.27l-1.2 1.94h.9l.7-1.2.77 1.2h.8z"/></g><g><path fill="#808080" d="M93.5 216.8c0 .58-.38 1-.92 1-.56 0-.93-.42-.93-1 0-.55.38-1 .94-1 .55 0 .9.43.9 1m.8 0c0-.9-.73-1.66-1.72-1.66-1 0-1.7.74-1.7 1.65 0 .92.7 1.67 1.7 1.67s1.7-.74 1.7-1.66z"/></g><g><path fill="#808080" d="M97.45 217.8h-1.5v-.74h1.3v-.6h-1.3v-1.27h-.77v3.2h2.27v-.6z"/></g><g><path fill="#808080" d="M102.6 215.2h-2.3v3.2h.75v-2.6h1.55v-.6z"/></g><g><path fill="#808080" d="M105.8 216.8c0 .58-.4 1-.94 1-.56 0-.93-.42-.93-1 0-.55.38-1 .94-1 .56 0 .92.43.92 1m.77 0c0-.9-.72-1.66-1.7-1.66-1 0-1.72.74-1.72 1.65 0 .92.72 1.67 1.72 1.67s1.7-.74 1.7-1.66z"/></g><g><path fill="#808080" d="M110.28 215.2h-.6l-1.5 1.98v-2h-.72v3.23h.65l1.48-1.92v1.93h.7v-3.2z"/></g><g><path fill="#808080" d="M113.62 216.8c0 .28-.1.56-.27.74-.26.26-.57.27-.76.27h-.46v-2h.4c.26 0 .57.02.8.27.18.16.28.4.28.72m.8 0c0-.44-.15-.84-.44-1.13-.4-.4-.9-.48-1.47-.48h-1.12v3.2h1.33c.5 0 .94-.13 1.26-.45.28-.28.46-.68.46-1.15"/></g><g><path fill="#808080" d="M117.77 216.8c0 .58-.38 1-.93 1-.56 0-.92-.42-.92-1 0-.55.37-1 .93-1s.92.43.92 1m.8 0c0-.9-.74-1.66-1.73-1.66-1 0-1.7.74-1.7 1.65 0 .92.72 1.67 1.7 1.67 1 0 1.72-.74 1.72-1.66z"/></g><g><path fill="#808080" d="M122.26 215.2h-.6l-1.5 1.98v-2h-.72v3.23h.65l1.46-1.92v1.93h.7v-3.2z"/></g></g></g></g></svg>