<svg xmlns="http://www.w3.org/2000/svg" width="200" height="72" enable-background="new 135.5 361.375 200 72" overflow="visible" viewBox="135.5 361.375 200 72"><path fill="#808080" d="M159.23 431.97c-5.84-.24-10.62-1.83-14.35-4.8-.72-.57-2.42-2.27-3-3-1.5-1.9-2.53-3.74-3.22-5.8-2.1-6.33-1.02-14.64 3.1-23.76 3.56-7.8 9.02-15.54 18.56-26.27 1.4-1.57 5.6-6.2 5.62-6.2 0 0-.22.4-.5.9-2.5 4.14-4.6 9.03-5.77 13.27-1.85 6.8-1.63 12.63.66 17.15 1.58 3.12 4.3 5.82 7.33 7.3 5.33 2.62 13.13 2.84 22.66.64.66-.16 33.16-8.8 72.24-19.18 39.07-10.4 71.04-18.9 71.05-18.9.02.02-90.77 38.87-137.9 59.02-7.46 3.2-9.46 4-12.97 5.23-8.97 3.15-17 4.65-23.5 4.4z"/></svg>