<svg xmlns="http://www.w3.org/2000/svg" width="91.017" height="100" xmlns:xlink="http://www.w3.org/1999/xlink"><defs><linearGradient id="a"><stop offset="0" stop-color="#2e363d"/><stop offset="1" stop-color="#3b484e"/></linearGradient><linearGradient x1="-393.078" x2="1868.545" y1="2019.996" y2="3603.132" xlink:href="#a" gradientUnits="userSpaceOnUse"/><linearGradient x1="-393.078" x2="1868.545" y1="2019.996" y2="3603.132" xlink:href="#a" gradientUnits="userSpaceOnUse" gradientTransform="translate(5300.479 -944.338)"/></defs><g><g><g><g><g><g><path fill="#fa9228" d="M25.32 48.28c0 2.26-.75 3-3 3H3.73c-1.36 0-1.76-.3-1.76-1 0-.4.26-.57 1-1.26l20.08-20.07c.75-.72.95-1 1.36-1 .6 0 .9.43.9 1.2z"/><path fill="#80c93a" d="M51.43 55.06c0-2.26.75-3 3-3h18.58c1.37 0 1.77.3 1.77 1 0 .2-.07.36-.25.56-.16.17.35 1.37 0 1.7L54.94 75.13c-.2.2-1.75-.26-1.75-.26-.38.36-.57.5-.86.5-.6 0-.9-.42-.9-1.2z"/><path fill="#0083bc" d="M76.03 73.63c0 2.26-.76 3-3.02 3H54.45c-1.36 0-1.76-.3-1.76-1 0-.4.26-.57 1-1.25l20.1-20.07c.73-.72.93-1 1.34-1 .6 0 .9.43.9 1.2z"/><path fill="#919583" d="M50.67 22.93c0 2.26-.75 3-3 3H29.08c-1.37 0-1.77-.3-1.77-1 0-.4.26-.57 1-1.26L48.43 3.6c.73-.72.93-1 1.34-1 .6 0 .9.43.9 1.2z"/><path fill="#f83237" d="M.73 55.06c0-2.26.75-3 3-3h18.58c1.37 0 1.77.3 1.77 1 0 .2-.07.36-.26.56-.14.17.36 1.37.02 1.7L4.24 75.13c-.2.2-1.76-.26-1.76-.26-.36.36-.55.5-.84.5-.6 0-.9-.42-.9-1.2z"/><path fill="#007db6" d="M26.08 55.06c0-2.26.75-3 3-3h18.58c1.36 0 1.76.3 1.76 1 0 .2-.07.36-.26.56-.15.17.35 1.37 0 1.7L29.6 75.13c-.2.2-1.76-.26-1.76-.26-.37.36-.56.5-.85.5-.62 0-.92-.42-.92-1.2z"/><path fill="#ff007f" d="M51.43 80.4c0-2.26.75-3 3-3h18.58c1.37 0 1.77.3 1.77 1 0 .4-.25.57-1 1.26L53.7 99.73c-.76.72-.96 1-1.36 1-.6 0-.9-.43-.9-1.2z"/><path fill="#331e61" d="M51.43 29.7c0-2.25.75-3 3-3h18.58c1.37 0 1.77.3 1.77 1 0 .22-.07.37-.25.57-.16.17.35 1.37 0 1.7L54.94 49.78c-.2.2-1.75-.27-1.75-.27-.38.36-.57.5-.86.5-.6 0-.9-.42-.9-1.2z"/><path fill="#00b538" d="M26.08 29.7c0-2.25.75-3 3-3h18.58c1.36 0 1.76.3 1.76 1 0 .22-.07.37-.26.57-.15.17.35 1.37 0 1.7L29.6 49.78c-.2.2-1.76-.27-1.76-.27-.37.36-.56.5-.85.5-.62 0-.92-.42-.92-1.2z"/><path fill="#ff7a7f" d="M51.43 4.36c0-2.26.75-3.02 3-3.02h18.58c1.37 0 1.77.32 1.77 1 0 .23-.07.38-.25.57-.16.2.35 1.4 0 1.7L54.94 24.45c-.2.2-1.75-.26-1.75-.26-.38.36-.57.5-.86.5-.6 0-.9-.42-.9-1.2z"/><path fill="#7db5e2" d="M50.67 48.28c0 2.26-.75 3-3 3H29.08c-1.37 0-1.77-.3-1.77-1 0-.4.26-.57 1-1.26l20.1-20.07c.73-.72.93-1 1.34-1 .6 0 .9.43.9 1.2z"/><path fill="#ffe100" d="M76.03 48.28c0 2.26-.76 3-3.02 3H54.45c-1.36 0-1.76-.3-1.76-1 0-.4.26-.57 1-1.26l20.1-20.07c.73-.72.93-1 1.34-1 .6 0 .9.43.9 1.2z"/><path fill="#b10562" d="M76.03 22.93c0 2.26-.76 3-3.02 3H54.45c-1.36 0-1.76-.3-1.76-1 0-.4.26-.57 1-1.26L73.78 3.6c.73-.72.93-1 1.34-1 .6 0 .9.43.9 1.2z"/><path fill="#87cfb4" d="M50.67 73.63c0 2.26-.75 3-3 3H29.08c-1.37 0-1.77-.3-1.77-1 0-.4.26-.57 1-1.25l20.1-20.07c.73-.72.93-1 1.34-1 .6 0 .9.43.9 1.2z"/><path fill="#f88eaf" d="M25.32 73.63c0 2.26-.75 3-3 3H3.73c-1.36 0-1.76-.3-1.76-1 0-.4.26-.57 1-1.25L23.06 54.3c.75-.72.95-1 1.36-1 .6 0 .9.43.9 1.2z"/><path fill="none" stroke="#fff" stroke-width="2.25.5" d="M7.5 70.37v-10.8h1.1l3.67 5.53h1l3.68-5.52h1.1v10.8"/><path fill="none" stroke="#fff" stroke-width="2.25.5" d="M33.6 64.6c0 6.7 9.58 6.58 9.58 0 0-7.24-9.57-7.3-9.57 0z"/><path fill="none" stroke="#fff" stroke-width="2.25.5" d="M59.96 70.37V59.33h4.52c4.15 0 4.2 5.27.15 5.27h-4.67"/><path fill="#fff" stroke="#fff" stroke-width="0.25" d="M63.77 65.52l1.66-1.54 2.95 4.47v1.92H67z"/><g stroke="#8f9289"><path fill="none" d="M91.1 69.28h-7.3v-9.95h7.3m-.38 4.96h-6.9"/></g></g></g></g></g></g></g></svg>