<svg xmlns="http://www.w3.org/2000/svg" width="91.017" height="100" xmlns:xlink="http://www.w3.org/1999/xlink"><defs><linearGradient id="a"><stop offset="0" stop-color="#2e363d"/><stop offset="1" stop-color="#3b484e"/></linearGradient><linearGradient x1="-393.078" x2="1868.545" y1="2019.996" y2="3603.132" gradientUnits="userSpaceOnUse" xlink:href="#a"/><linearGradient x1="-393.078" x2="1868.545" y1="2019.996" y2="3603.132" gradientTransform="translate(5300.479 -944.338)" gradientUnits="userSpaceOnUse" xlink:href="#a"/><filter id="t" color-interpolation-filters="sRGB"><feColorMatrix result="fbSourceGraphic" values="0.21 0.72 0.072 0 0 0.21 0.72 0.072 0 0 0.21 0.72 0.072 0 0 0 0 0 1 0"/><feColorMatrix values="0 0 0 -1 0 0 0 0 -1 0 0 0 0 -1 0 0 0 0 1 0" in="fbSourceGraphic" result="fbSourceGraphicAlpha"/><feColorMatrix in="fbSourceGraphic" values="0.21 0.72 0.072 0 0 0.21 0.72 0.072 0 0 0.21 0.72 0.072 0 0 0 0 0 1 0"/></filter><filter id="s" color-interpolation-filters="sRGB"><feColorMatrix result="fbSourceGraphic" values="0.21 0.72 0.072 0 0 0.21 0.72 0.072 0 0 0.21 0.72 0.072 0 0 0 0 0 1 0"/><feColorMatrix values="0 0 0 -1 0 0 0 0 -1 0 0 0 0 -1 0 0 0 0 1 0" in="fbSourceGraphic" result="fbSourceGraphicAlpha"/><feColorMatrix in="fbSourceGraphic" values="0.21 0.72 0.072 0 0 0.21 0.72 0.072 0 0 0.21 0.72 0.072 0 0 0 0 0 1 0"/></filter><filter id="r" color-interpolation-filters="sRGB"><feColorMatrix result="fbSourceGraphic" values="0.21 0.72 0.072 0 0 0.21 0.72 0.072 0 0 0.21 0.72 0.072 0 0 0 0 0 1 0"/><feColorMatrix values="0 0 0 -1 0 0 0 0 -1 0 0 0 0 -1 0 0 0 0 1 0" in="fbSourceGraphic" result="fbSourceGraphicAlpha"/><feColorMatrix in="fbSourceGraphic" values="0.21 0.72 0.072 0 0 0.21 0.72 0.072 0 0 0.21 0.72 0.072 0 0 0 0 0 1 0"/></filter><filter id="q" color-interpolation-filters="sRGB"><feColorMatrix result="fbSourceGraphic" values="0.21 0.72 0.072 0 0 0.21 0.72 0.072 0 0 0.21 0.72 0.072 0 0 0 0 0 1 0"/><feColorMatrix values="0 0 0 -1 0 0 0 0 -1 0 0 0 0 -1 0 0 0 0 1 0" in="fbSourceGraphic" result="fbSourceGraphicAlpha"/><feColorMatrix in="fbSourceGraphic" values="0.21 0.72 0.072 0 0 0.21 0.72 0.072 0 0 0.21 0.72 0.072 0 0 0 0 0 1 0"/></filter><filter id="p" color-interpolation-filters="sRGB"><feColorMatrix result="fbSourceGraphic" values="0.21 0.72 0.072 0 0 0.21 0.72 0.072 0 0 0.21 0.72 0.072 0 0 0 0 0 1 0"/><feColorMatrix values="0 0 0 -1 0 0 0 0 -1 0 0 0 0 -1 0 0 0 0 1 0" in="fbSourceGraphic" result="fbSourceGraphicAlpha"/><feColorMatrix in="fbSourceGraphic" values="0.21 0.72 0.072 0 0 0.21 0.72 0.072 0 0 0.21 0.72 0.072 0 0 0 0 0 1 0"/></filter><filter id="o" color-interpolation-filters="sRGB"><feColorMatrix result="fbSourceGraphic" values="0.21 0.72 0.072 0 0 0.21 0.72 0.072 0 0 0.21 0.72 0.072 0 0 0 0 0 1 0"/><feColorMatrix values="0 0 0 -1 0 0 0 0 -1 0 0 0 0 -1 0 0 0 0 1 0" in="fbSourceGraphic" result="fbSourceGraphicAlpha"/><feColorMatrix in="fbSourceGraphic" values="0.21 0.72 0.072 0 0 0.21 0.72 0.072 0 0 0.21 0.72 0.072 0 0 0 0 0 1 0"/></filter><filter id="n" color-interpolation-filters="sRGB"><feColorMatrix result="fbSourceGraphic" values="0.21 0.72 0.072 0 0 0.21 0.72 0.072 0 0 0.21 0.72 0.072 0 0 0 0 0 1 0"/><feColorMatrix values="0 0 0 -1 0 0 0 0 -1 0 0 0 0 -1 0 0 0 0 1 0" in="fbSourceGraphic" result="fbSourceGraphicAlpha"/><feColorMatrix in="fbSourceGraphic" values="0.21 0.72 0.072 0 0 0.21 0.72 0.072 0 0 0.21 0.72 0.072 0 0 0 0 0 1 0"/></filter><filter color-interpolation-filters="sRGB"><feColorMatrix result="fbSourceGraphic" values="0.21 0.72 0.072 0 0 0.21 0.72 0.072 0 0 0.21 0.72 0.072 0 0 0 0 0 1 0"/><feColorMatrix values="0 0 0 -1 0 0 0 0 -1 0 0 0 0 -1 0 0 0 0 1 0" in="fbSourceGraphic" result="fbSourceGraphicAlpha"/><feColorMatrix in="fbSourceGraphic" values="0.21 0.72 0.072 0 0 0.21 0.72 0.072 0 0 0.21 0.72 0.072 0 0 0 0 0 1 0"/></filter><filter id="m" color-interpolation-filters="sRGB"><feColorMatrix result="fbSourceGraphic" values="0.21 0.72 0.072 0 0 0.21 0.72 0.072 0 0 0.21 0.72 0.072 0 0 0 0 0 1 0"/><feColorMatrix values="0 0 0 -1 0 0 0 0 -1 0 0 0 0 -1 0 0 0 0 1 0" in="fbSourceGraphic" result="fbSourceGraphicAlpha"/><feColorMatrix in="fbSourceGraphic" values="0.21 0.72 0.072 0 0 0.21 0.72 0.072 0 0 0.21 0.72 0.072 0 0 0 0 0 1 0"/></filter><filter id="l" color-interpolation-filters="sRGB"><feColorMatrix result="fbSourceGraphic" values="0.21 0.72 0.072 0 0 0.21 0.72 0.072 0 0 0.21 0.72 0.072 0 0 0 0 0 1 0"/><feColorMatrix values="0 0 0 -1 0 0 0 0 -1 0 0 0 0 -1 0 0 0 0 1 0" in="fbSourceGraphic" result="fbSourceGraphicAlpha"/><feColorMatrix in="fbSourceGraphic" values="0.21 0.72 0.072 0 0 0.21 0.72 0.072 0 0 0.21 0.72 0.072 0 0 0 0 0 1 0"/></filter><filter id="k" color-interpolation-filters="sRGB"><feColorMatrix result="fbSourceGraphic" values="0.21 0.72 0.072 0 0 0.21 0.72 0.072 0 0 0.21 0.72 0.072 0 0 0 0 0 1 0"/><feColorMatrix values="0 0 0 -1 0 0 0 0 -1 0 0 0 0 -1 0 0 0 0 1 0" in="fbSourceGraphic" result="fbSourceGraphicAlpha"/><feColorMatrix in="fbSourceGraphic" values="0.21 0.72 0.072 0 0 0.21 0.72 0.072 0 0 0.21 0.72 0.072 0 0 0 0 0 1 0"/></filter><filter id="j" color-interpolation-filters="sRGB"><feColorMatrix result="fbSourceGraphic" values="0.21 0.72 0.072 0 0 0.21 0.72 0.072 0 0 0.21 0.72 0.072 0 0 0 0 0 1 0"/><feColorMatrix values="0 0 0 -1 0 0 0 0 -1 0 0 0 0 -1 0 0 0 0 1 0" in="fbSourceGraphic" result="fbSourceGraphicAlpha"/><feColorMatrix in="fbSourceGraphic" values="0.21 0.72 0.072 0 0 0.21 0.72 0.072 0 0 0.21 0.72 0.072 0 0 0 0 0 1 0"/></filter><filter id="i" color-interpolation-filters="sRGB"><feColorMatrix result="fbSourceGraphic" values="0.21 0.72 0.072 0 0 0.21 0.72 0.072 0 0 0.21 0.72 0.072 0 0 0 0 0 1 0"/><feColorMatrix values="0 0 0 -1 0 0 0 0 -1 0 0 0 0 -1 0 0 0 0 1 0" in="fbSourceGraphic" result="fbSourceGraphicAlpha"/><feColorMatrix in="fbSourceGraphic" values="0.21 0.72 0.072 0 0 0.21 0.72 0.072 0 0 0.21 0.72 0.072 0 0 0 0 0 1 0"/></filter><filter id="h" color-interpolation-filters="sRGB"><feColorMatrix result="fbSourceGraphic" values="0.21 0.72 0.072 0 0 0.21 0.72 0.072 0 0 0.21 0.72 0.072 0 0 0 0 0 1 0"/><feColorMatrix values="0 0 0 -1 0 0 0 0 -1 0 0 0 0 -1 0 0 0 0 1 0" in="fbSourceGraphic" result="fbSourceGraphicAlpha"/><feColorMatrix in="fbSourceGraphic" values="0.21 0.72 0.072 0 0 0.21 0.72 0.072 0 0 0.21 0.72 0.072 0 0 0 0 0 1 0"/></filter><filter id="g" color-interpolation-filters="sRGB"><feColorMatrix result="fbSourceGraphic" values="0.21 0.72 0.072 0 0 0.21 0.72 0.072 0 0 0.21 0.72 0.072 0 0 0 0 0 1 0"/><feColorMatrix values="0 0 0 -1 0 0 0 0 -1 0 0 0 0 -1 0 0 0 0 1 0" in="fbSourceGraphic" result="fbSourceGraphicAlpha"/><feColorMatrix in="fbSourceGraphic" values="0.21 0.72 0.072 0 0 0.21 0.72 0.072 0 0 0.21 0.72 0.072 0 0 0 0 0 1 0"/></filter><filter id="f" color-interpolation-filters="sRGB"><feColorMatrix result="fbSourceGraphic" values="0.21 0.72 0.072 0 0 0.21 0.72 0.072 0 0 0.21 0.72 0.072 0 0 0 0 0 1 0"/><feColorMatrix values="0 0 0 -1 0 0 0 0 -1 0 0 0 0 -1 0 0 0 0 1 0" in="fbSourceGraphic" result="fbSourceGraphicAlpha"/><feColorMatrix in="fbSourceGraphic" values="0.21 0.72 0.072 0 0 0.21 0.72 0.072 0 0 0.21 0.72 0.072 0 0 0 0 0 1 0"/></filter><filter id="e" color-interpolation-filters="sRGB"><feColorMatrix result="fbSourceGraphic" values="0.21 0.72 0.072 0 0 0.21 0.72 0.072 0 0 0.21 0.72 0.072 0 0 0 0 0 1 0"/><feColorMatrix values="0 0 0 -1 0 0 0 0 -1 0 0 0 0 -1 0 0 0 0 1 0" in="fbSourceGraphic" result="fbSourceGraphicAlpha"/><feColorMatrix in="fbSourceGraphic" values="0.21 0.72 0.072 0 0 0.21 0.72 0.072 0 0 0.21 0.72 0.072 0 0 0 0 0 1 0"/></filter><filter id="d" color-interpolation-filters="sRGB"><feColorMatrix result="fbSourceGraphic" values="0.21 0.72 0.072 0 0 0.21 0.72 0.072 0 0 0.21 0.72 0.072 0 0 0 0 0 1 0"/><feColorMatrix values="0 0 0 -1 0 0 0 0 -1 0 0 0 0 -1 0 0 0 0 1 0" in="fbSourceGraphic" result="fbSourceGraphicAlpha"/><feColorMatrix in="fbSourceGraphic" values="0.21 0.72 0.072 0 0 0.21 0.72 0.072 0 0 0.21 0.72 0.072 0 0 0 0 0 1 0"/></filter><filter id="c" color-interpolation-filters="sRGB"><feColorMatrix result="fbSourceGraphic" values="0.21 0.72 0.072 0 0 0.21 0.72 0.072 0 0 0.21 0.72 0.072 0 0 0 0 0 1 0"/><feColorMatrix values="0 0 0 -1 0 0 0 0 -1 0 0 0 0 -1 0 0 0 0 1 0" in="fbSourceGraphic" result="fbSourceGraphicAlpha"/><feColorMatrix in="fbSourceGraphic" values="0.21 0.72 0.072 0 0 0.21 0.72 0.072 0 0 0.21 0.72 0.072 0 0 0 0 0 1 0"/></filter><filter id="b" color-interpolation-filters="sRGB"><feColorMatrix result="fbSourceGraphic" values="0.21 0.72 0.072 0 0 0.21 0.72 0.072 0 0 0.21 0.72 0.072 0 0 0 0 0 1 0"/><feColorMatrix values="0 0 0 -1 0 0 0 0 -1 0 0 0 0 -1 0 0 0 0 1 0" in="fbSourceGraphic" result="fbSourceGraphicAlpha"/><feColorMatrix in="fbSourceGraphic" values="0.21 0.72 0.072 0 0 0.21 0.72 0.072 0 0 0.21 0.72 0.072 0 0 0 0 0 1 0"/></filter></defs><g><g><g><g><g><g transform="matrix(.251 0 0 .251 -245.755 -80.321)"><path fill="#fa9228" d="M1080 512.36c0 9-3 12-12 12h-74c-5.4 0-7-1.25-7-4 0-1.6 1.02-2.3 3.98-5.04l80.02-79.96c2.96-2.9 3.77-4 5.38-4 2.4 0 3.62 1.72 3.62 4.8z" filter="url(#b)"/><path fill="#80c93a" d="M1184 539.36c0-9 3-12 12-12h74c5.4 0 7 1.25 7 4 0 .86-.3 1.46-1.02 2.25-.63.7 1.4 5.5.02 6.76l-78 79c-.8.8-7-1.02-7-1.02-1.46 1.44-2.2 2.02-3.38 2.02-2.4 0-3.62-1.7-3.62-4.8z" filter="url(#c)"/><path fill="#0083bc" d="M1282 613.36c0 9-3 12-12 12h-74c-5.4 0-7-1.25-7-4 0-1.6 1.02-2.3 3.98-5.04l80.02-79.96c2.96-2.9 3.77-4 5.38-4 2.4 0 3.62 1.72 3.62 4.8z" filter="url(#d)"/><path fill="#919583" d="M1181 411.36c0 9-3 12-12 12h-74c-5.4 0-7-1.25-7-4 0-1.6 1.02-2.3 3.98-5.04l80.02-79.96c2.96-2.9 3.77-4 5.38-4 2.4 0 3.62 1.72 3.62 4.8z" filter="url(#e)"/><path fill="#f83237" d="M982 539.36c0-9 3-12 12-12h74c5.4 0 7 1.25 7 4 0 .86-.3 1.46-1.02 2.25-.63.7 1.4 5.5.02 6.76l-78 79c-.8.8-7-1.02-7-1.02-1.46 1.44-2.2 2.02-3.38 2.02-2.4 0-3.62-1.7-3.62-4.8z" filter="url(#f)"/><path fill="#007db6" d="M1083 539.36c0-9 3-12 12-12h74c5.4 0 7 1.25 7 4 0 .86-.3 1.46-1.02 2.25-.63.7 1.4 5.5.02 6.76l-78 79c-.8.8-7-1.02-7-1.02-1.46 1.44-2.2 2.02-3.38 2.02-2.4 0-3.62-1.7-3.62-4.8z" filter="url(#g)"/><path fill="#ff007f" d="M1184 640.32c0-9 3-12 12-12h74c5.4 0 7 1.25 7 4 0 1.6-1.02 2.3-3.98 5.04L1193 717.32c-2.96 2.9-3.77 4-5.38 4-2.4 0-3.62-1.7-3.62-4.8z" filter="url(#h)"/><path fill="#331e61" d="M1184 438.36c0-9 3-12 12-12h74c5.4 0 7 1.25 7 4 0 .86-.3 1.46-1.02 2.25-.63.7 1.4 5.5.02 6.76l-78 79c-.8.8-7-1.02-7-1.02-1.46 1.44-2.2 2.02-3.38 2.02-2.4 0-3.62-1.7-3.62-4.8z" filter="url(#i)"/><path fill="#00b538" d="M1083 438.36c0-9 3-12 12-12h74c5.4 0 7 1.25 7 4 0 .86-.3 1.46-1.02 2.25-.63.7 1.4 5.5.02 6.76l-78 79c-.8.8-7-1.02-7-1.02-1.46 1.44-2.2 2.02-3.38 2.02-2.4 0-3.62-1.7-3.62-4.8z" filter="url(#j)"/><path fill="#ff7a7f" d="M1184 337.36c0-9 3-12 12-12h74c5.4 0 7 1.25 7 4 0 .86-.3 1.46-1.02 2.25-.63.7 1.4 5.5.02 6.76l-78 79c-.8.8-7-1.02-7-1.02-1.46 1.44-2.2 2.02-3.38 2.02-2.4 0-3.62-1.7-3.62-4.8z" filter="url(#k)"/><path fill="#7db5e2" d="M1181 512.36c0 9-3 12-12 12h-74c-5.4 0-7-1.25-7-4 0-1.6 1.02-2.3 3.98-5.04l80.02-79.96c2.96-2.9 3.77-4 5.38-4 2.4 0 3.62 1.72 3.62 4.8z" filter="url(#l)"/><path fill="#ffe100" d="M1282 512.36c0 9-3 12-12 12h-74c-5.4 0-7-1.25-7-4 0-1.6 1.02-2.3 3.98-5.04l80.02-79.96c2.96-2.9 3.77-4 5.38-4 2.4 0 3.62 1.72 3.62 4.8z" filter="url(#m)"/>path sodipodi:nodetypes=&quot;ccccccscc&quot; inkscape:connector-curvature=&quot;0&quot; id=&quot;path3820&quot; d=&quot;m 1282,411.36218 c 0,9 -3,12 -12,12 l -74,0 c -5.4077,0 -7,-1.24804 -7,-4 0,-1.60732 1.0175,-2.29912 3.9797,-5.04283 L 1273,334.36218 c 2.9602,-2.89958 3.7748,-4 5.3789,-4 2.4037,0 3.6211,1.71336 3.6211,4.80044 z&quot; style=&quot;fill:#b10562;fill-opacity:1;stroke:none;filter:url(#filter3394)&quot; /&gt;<path fill="#87cfb4" d="M1181 613.36c0 9-3 12-12 12h-74c-5.4 0-7-1.25-7-4 0-1.6 1.02-2.3 3.98-5.04l80.02-79.96c2.96-2.9 3.77-4 5.38-4 2.4 0 3.62 1.72 3.62 4.8z" filter="url(#n)"/><path fill="#f88eaf" d="M1080 613.36c0 9-3 12-12 12h-74c-5.4 0-7-1.25-7-4 0-1.6 1.02-2.3 3.98-5.04l80.02-79.96c2.96-2.9 3.77-4 5.38-4 2.4 0 3.62 1.72 3.62 4.8z" filter="url(#o)"/><path fill="none" stroke="#fff" stroke-width="9.5" d="M1009 600.36v-43h4.3l14.7 22h4l14.62-22h4.38v43" filter="url(#p)"/><path fill="none" stroke="#fff" stroke-width="9.5" d="M1113 577.36c0 26.65 38.12 26.24 38.12 0 0-28.84-38.12-29.05-38.12 0z" filter="url(#q)"/><path fill="none" stroke="#fff" stroke-width="9.5" d="M1218 600.36v-44h18c16.52 0 16.8 21 .6 21H1218" filter="url(#r)"/><path fill="#fff" stroke="#fff" d="M1233.17 581.04l6.62-6.16 11.76 17.82-.02 7.66h-5.48z" filter="url(#s)"/><g stroke="#8f9289" transform="translate(309.926 -441.448)" filter="url(#t)"><path fill="none" d="M1032.1 1037.5h-29v-39.7h29m-1.5 19.8h-27.5"/></g></g></g></g></g></g></g></svg>