<svg xmlns="http://www.w3.org/2000/svg" width="49.072mm" height="6.46mm" viewBox="0 0 49.071957 6.4597545"><g><path fill="#808080" d="M3.68.66c0-.53-.5-.68-.9-.66v.08c.24 0 .43.1.43.26 0 .1-.07.26-.32.26C2.68.6 2.3.48 2 .38c-.34-.1-.65-.22-.92-.22-.52 0-.9.4-.9.86 0 .4.28.53.4.58l.04-.06c-.08-.05-.16-.1-.16-.26 0-.12.1-.3.37-.3.24 0 .56.1.98.23.37.1.77.2 1 .23v.83l-.42.33v.02l.4.36v1.14c-.2.12-.44.15-.65.15-.4 0-.76-.1-1.05-.43l1.1-.52V1.5l-1.35.6c.14-.36.42-.6.7-.77v-.06C.72 1.47 0 2.2 0 3.1 0 4.2.88 5 1.87 5c1.08 0 1.77-.85 1.76-1.75h-.07c-.16.34-.38.66-.68.83v-1.1l.43-.34V2.6l-.42-.34v-.83c.4 0 .8-.27.8-.77zM1.38 3.6l-.34.17c-.18-.24-.3-.56-.3-1 0-.2.02-.43.07-.58l.57-.26zm2.8.6l-.34.27.04.05.17-.12.6.55.8-.54-.04-.04-.2.13-.26-.27V2.4l.22-.16.45.37v1.63c0 1-.2 1.18-.67 1.34v.07c.76.03 1.44-.22 1.44-1.52V2.38l.24-.2-.03-.04-.2.16-.67-.57-.76.58V.1h-.06l-.94.64V.8c.1.06.25.1.25.4zm4.9-.28l-.67.5-.67-.53v-.32L9 2.73V2.7l-.63-.97L7 2.47v1.75l-.28.2.04.06.25-.2.9.66L9.13 4zm-1.35-.44v-1.3l.05-.04.58.92zM14.17.42c0-.08-.02-.15-.05-.25h-.06c-.08.23-.2.35-.45.35-.2 0-.4-.14-.5-.25 0 0-.75.9-.75.9l.06.04.23-.23c.16.12.3.24.65.25v2.22L11.72.74c-.12-.2-.32-.5-.7-.5-.42 0-.8.35-.75.96h.07c.02-.16.1-.34.3-.34.14 0 .27.14.34.27V2c-.48 0-.8.22-.8.6 0 .2.1.56.44.62v-.06c-.04-.04-.1-.1-.1-.18 0-.15.12-.24.32-.24.03 0 .12 0 .14 0V3.9c-.57 0-1 .32-1 .85 0 .5.43.75.9.73V5.4c-.3-.04-.44-.17-.44-.36 0-.23.16-.35.37-.35.23 0 .42.13.55.28l.77-.86-.06-.05-.2.22c-.3-.27-.46-.37-.8-.42V1.2l2.16 3.76h.15V1.22c.4-.02.8-.34.8-.8zm1.93 3.5l-.66.5-.68-.53v-.32l1.27-.85V2.7l-.63-.97-1.38.74v1.75l-.27.2.04.06.24-.2.9.66 1.2-.95-.04-.08zm-1.34-.44v-1.3l.05-.04.6.92zm5.7-1.46l-.2.15-.5-.43-.6.53.25.23v2l-.64-.4V2.46l.2-.15-.6-.57-.6.54.25.23v1.9l-.07.06-.56-.4v-1.6c0-.38-.18-.48-.42-.63-.2-.12-.28-.22-.28-.4 0-.16.15-.25.23-.3 0 0 0-.06 0-.06-.2 0-.78.22-.8.74 0 .27.13.4.26.5.14.14.26.26.26.48v1.55l-.3.22.06.06.26-.2.7.55.67-.45.75.45 1.4-.82v-1.8l.36-.25-.03-.06zM25.42.55l-.25.25-.6-.53-.87.65v-.6h-.1l.03 4.32c-.08-.02-.3-.07-.5-.1l-.02-3.6c0-.28-.2-.65-.67-.65-.48 0-.8.37-.8.74h.08c.02-.16.1-.3.27-.3.16 0 .3.1.3.46v1.04c-.5.02-.77.3-.77.63 0 .2.1.54.44.55v-.07c-.1-.05-.13-.12-.13-.18 0-.15.14-.22.34-.22h.1V4.6c-.4.14-.57.42-.57.75 0 .44.36.78.88.78.37 0 .68-.06 1.02-.14.27-.07.6-.13.76-.13.2 0 .3.1.3.24 0 .2-.1.26-.2.3l.02.06c.44-.08.7-.34.7-.74 0-.4-.4-.64-.83-.64-.22 0-.66.07-1 .14-.36.08-.73.12-.85.12-.18 0-.4-.1-.4-.33 0-.22.17-.4.63-.4.25 0 .53.04.83.1.33.08.6.17.9.17.38 0 .73-.14.73-.7V.87l.3-.26zM24.33 2.2c-.07.07-.18.15-.32.15s-.25-.1-.32-.15V1l.27-.17.37.33zm0 .8c-.06-.07-.18-.14-.32-.14s-.26.08-.32.13v-.7c.06.04.18.13.32.13s.26-.07.32-.14zm0 1.24c0 .2-.15.42-.43.42-.05 0-.18 0-.22 0V3.08c.06-.07.18-.16.32-.16s.24.08.32.15zm3.64-1.9l-.86-.6-1.3.73V4.2l-.26.23.04.05.2-.17.86.64 1.32-.8zm-1.4 1.7V2.1l.66.5v1.9zM30.5 1.8s-.04 0-.04 0c-.07.06-.16.1-.23.1-.1 0-.24-.06-.3-.14h-.05l-.45.5-.47-.5-.8.55.05.07.22-.14.28.3V4.2l-.36.27.04.05.18-.12.64.55.83-.55-.04-.06-.24.14-.32-.28V2.32c.14.15.3.28.48.28.36 0 .55-.4.6-.8zm3.22 2.56l-.9.6-1.24-1.87.87-1.36h.06c.1.1.28.2.45.2.18 0 .3-.1.4-.2 0 0 .04 0 .04 0-.04.54-.4.84-.68.84s-.4-.13-.56-.22l-.08.13 1.33 1.96.28-.17zm-2.94-.15l-.35.27.04.05.17-.12.6.55.8-.54-.04-.04-.2.13-.27-.27V.1h-.05l-.97.65V.8c.1.07.28.1.28.4zM38.14.67c0-.53-.5-.68-.9-.66v.08c.24 0 .43.1.43.26 0 .1-.08.26-.33.26-.2 0-.57-.12-.88-.22-.34-.1-.65-.22-.92-.22-.52 0-.9.4-.9.86 0 .4.28.53.4.58l.04-.06c-.08-.05-.16-.1-.16-.26 0-.12.1-.3.37-.3.23 0 .55.1.97.23.36.1.76.2.98.23v.83l-.4.33v.02l.4.36v1.14c-.2.12-.45.15-.66.15-.4 0-.77-.1-1.06-.43l1.1-.52V1.5l-1.35.6c.13-.36.4-.6.7-.77l-.02-.06c-.8.2-1.52.94-1.52 1.84 0 1.1.88 1.9 1.87 1.9 1.08 0 1.77-.85 1.76-1.75H38c-.16.34-.38.66-.68.83v-1.1l.43-.34V2.6l-.43-.34v-.83c.4 0 .8-.27.8-.77zm-2.3 2.95l-.34.17c-.18-.24-.3-.56-.3-1 0-.2.02-.43.07-.58l.56-.26V3.6zM39.05.4h-.04l-.53.46V.9l.44.5h.04l.54-.44V.93L39.05.4zm.8 3.96l-.2.13-.25-.27V2.4l.26-.2-.05-.06-.2.15-.45-.57-.76.54.03.07.2-.13.23.3v1.73l-.34.26.03.04.18-.13.6.55.8-.54zm4.46-.03l-.2.12-.28-.26V2.37l.27-.2-.03-.06-.24.18-.6-.57-.8.56-.6-.57-.77.56-.48-.57-.76.54.04.07.2-.13.25.3v1.72l-.2.2.6.53.6-.54-.24-.2V2.37l.23-.15.4.38v1.62l-.2.2.6.53.6-.54-.25-.2V2.36l.2-.13.44.37v1.6l-.2.18.63.57.82-.56zm2.3-.4l-.64.5-.68-.54v-.32l1.26-.85V2.7l-.62-.97-1.38.74v1.8l.92.67 1.2-.95zm-1.32-.45v-1.3l.04-.04.6.92zm3.77-.25l-.5-.38c.33-.3.46-.7.46-.98 0-.03 0-.1 0-.17h-.07c-.05.14-.15.26-.36.26-.2 0-.35-.1-.48-.25l-1.2.66v.97l.44.35c-.45.4-.53.68-.53.9 0 .25.12.44.35.53l.03-.05c-.05-.05-.1-.08-.1-.2 0-.1.1-.2.3-.2.27 0 .43.16.52.26 0 0 1.15-.68 1.15-.68zm-.28-.8c-.2.32-.6.63-.83.8l-.3-.22v-.94c.12.26.4.47.7.47.18 0 .28-.03.42-.1zm-.48 2.12c-.14-.3-.45-.5-.77-.5-.07 0-.3 0-.5.12.12-.2.48-.6.94-.86l.32.26z"/></g></svg>