<svg xmlns="http://www.w3.org/2000/svg" width="300" height="160"><path fill="#808080" d="M7.63 80.53C7.63 40.9 39.73 8.8 79.35 8.8s71.72 32.1 71.72 71.73c0 39.6-32.1 71.7-71.72 71.7s-71.72-32.1-71.72-71.7m112.84.5h7.76l-17.42-39.7H99.4l17.48 39.7h-7.96V91.6c.03 6.37-2.66 9.1-11.34 8.98v20.35h11.3v-20.35h3.74c3.3.1 7.8-2.58 7.85-7.8V81.03zM65.7 41.34c-17.48 0-31.86 12.18-31.86 30.28 0 15.22 9.17 26.08 22.84 28.16v21.17h28.44v-20.35h3.96c4.62-.43 7.74-3.48 7.8-7.77V81.05h7.74L86.98 41.32h-21.3zm15.7 34.45c4.05 0 7.33-3.28 7.33-7.34 0-4.05-3.28-7.33-7.33-7.33s-7.34 3.28-7.34 7.34c0 4.06 3.28 7.34 7.34 7.34"/><path fill="#808080" d="M175.8 62.72h-6.6v-8.14h21.77c11.8 0 18.55 6.08 18.55 15.65 0 9.74-7.06 15.68-18.25 15.68-.93.03-5.96 0-5.96 0v12.4h7.72v8.2h-23.9v-8.2h6.67V62.72zm9.5 15.02h6.36c5.4 0 8.35-3.35 8.35-7.5 0-4.3-3.1-7.53-8.34-7.53h-6.35v15.04z"/><path fill="#808080" d="M218.8 62.72h-5.96v-8.14h20.86c12.92 0 17.03 7.72 17.03 13.36 0 4.78-2.54 8.62-6.25 10.44 5.2 2.18 8.15 7.55 8.15 12.24 0 11.3-8.88 15.87-17.38 15.87h-23.1v-8.2h6.66V62.72zm9.53 35.58h6.06c4.98 0 8.37-2.75 8.37-7.4 0-3.93-2.63-7.36-8.38-7.36h-6.07V98.3zm0-22.94H234c4.3 0 7.2-2.54 7.2-6.34 0-3.75-2.88-6.3-7.18-6.3h-5.7v12.64z"/><path fill="#808080" d="M283.24 62.6c-1.7-.65-3.92-1.24-6.16-1.24-6.36 0-8.4 3.7-8.4 6.57 0 3.75 2.44 4.86 5.46 5.67l5.5 1.55c6.75 1.92 14.23 4.4 14.23 15.1 0 9.8-5.9 16.95-18.95 16.95-5.06 0-10.3-.6-16.46-2.87V90.7h9.57v6.76c2.42 1.12 5.06 1.35 7.74 1.35 5.64 0 8.13-3.03 8.13-6.94 0-2.64-1.32-4.56-7.47-6.32l-5.06-1.48c-9.44-2.72-12.65-6.85-12.65-14.8 0-8.2 5.12-15.4 18.1-15.4 5.58 0 11.14 1 15.08 2.7V68.9h-8.66v-6.3z"/></svg>