<svg xmlns="http://www.w3.org/2000/svg" width="1024pt" height="496pt" viewBox="0 0 1024.000000 496.000000" version="1"><g fill="#808080"><path d="M355.8 30.9l-9.8 9.5V80h78v20h-78v19h98V61l-39.2-.2-39.3-.3-.3-9.8-.3-9.7H444v-9.5c0-8.4-.2-9.5-1.7-9.5-1-.1-18.7-.2-39.3-.3l-37.5-.2-9.7 9.4z"/><path d="M473.8 30.8l-9.8 9.6V119h97v-19h-78V41h78V22l-36.2-.1c-20 0-37.4-.2-38.8-.3-2-.3-4.5 1.6-12.2 9.2z"/><path d="M581.4 21.9c-.2.2-.4 4.6-.4 9.8V41h19V21.5h-9.1c-5 0-9.3.2-9.5.4z"/><path d="M620.4 21.9c-.2.2-.4 4.6-.4 9.8V41h59v-9.5c0-8.4-.2-9.5-1.7-9.5-14.2-.4-56.6-.4-56.9-.1z"/><path d="M581 90v29h19V61h-19v29z"/><path d="M620 70.5V80h59V61h-59v9.5z"/><path d="M620.7 100.7c-.4.3-.7 4.6-.7 9.5v8.8h59v-19h-28.8c-15.9 0-29.2.3-29.5.7z"/><path d="M346 188v49h19v-78h59v78.1l9.8-.3 9.7-.3.3-38.5.2-38.4-10.2-10.3-10.3-10.3H346v49z"/><path d="M473.7 148.8l-9.7 9.7V237h97v-19h-78v-59h78v-20h-77.5l-9.8 9.8z"/><path d="M581.7 139.7c-.4.3-.7 18-.7 39.2v38.6l9.8 9.8 9.7 9.7H679v-19l-39.2-.2-39.3-.3-.3-29.2-.2-29.3 39.2-.2 39.3-.3v-19l-48.1-.3c-26.4-.1-48.4.1-48.7.5z"/><path d="M620.4 179.3c-.2.7-.4 5.2-.2 9.8l.3 8.4 29.3.3 29.3.2-.3-9.7-.3-9.8-28.8-.3c-23.8-.3-28.8-.1-29.3 1.1z"/><path d="M346 306v49h19v-78h59v78.1l9.8-.3 9.7-.3.2-38.5.3-38.5-9.8-10.3-9.8-10.2H346v49z"/><path d="M464 296.6v39.5l9.4 9.5 9.5 9.4H561v-98h-19l-.2 39.2-.3 39.3h-58l-.3-39.3-.2-39.2h-19v39.6z"/><path d="M590.7 266.8l-9.7 9.8.2 19.4.3 19.5 39 .5 39 .5v19l-39.2.3-39.3.2v19h98v-59h-79v-19h3.3c1.7 0 19.4-.1 39.2-.3l36-.2.3-9.8.3-9.7h-78.6l-9.8 9.8z"/><path d="M385 325.5V355h19v-59h-19v29.5z"/><path d="M346 414.3v39.2l9.8 9.8 9.8 9.7 38.9-.2 39-.3v-19l-39-.2-39-.2v-58.6l39.3-.3 39.3-.2-.3-9.3-.3-9.2-48.7-.3-48.8-.2v39.3z"/><path d="M463.6 375.7c-.3.4-.6 17.8-.6 38.7l.1 38.1 10.2 10.2 10.2 10.3H561v-98h-19l-.2 39.1-.3 39.1-28-.1c-15.4-.1-28.6-.1-29.2-.1-1 0-1.3-8.5-1.3-39v-39h-9.3c-5.2 0-9.7.3-10.1.7z"/><path d="M581 424v49h19l.2-39.3.3-39.2h59l.2 39 .2 39 9.5.3 9.6.3v-78.6l-9.8-9.8-9.7-9.7H581v49z"/><path d="M385.2 423.7l.3 9.8h58v-19l-29.3-.3-29.3-.2.3 9.7z"/><path d="M620.5 415.3c-.3.7-.4 13.8-.3 29.2l.3 28 9.8.3 9.7.3V414h-9.5c-6.8 0-9.7.4-10 1.3z"/></g></svg>