<svg xmlns="http://www.w3.org/2000/svg" width="207" height="60"><title>Combined Shape</title><desc>Created with Sketch.</desc><g fill="#808080" fill-rule="evenodd"><g><g><path d="M67.7.1v5.28h7.34V27.2h5.44V5.4h7.34V.1H67.7zm-8.97 17.77c0 2.3-1.77 3.98-4.07 3.98-2.28 0-4.1-1.68-4.1-3.98V.1H45.1v17.77c0 5.48 4.1 9.43 9.56 9.43 5.47 0 9.52-3.95 9.52-9.43V.1h-5.45v17.77zm72.18-4.24c1.3-.8 2.6-2.77 2.6-5.46 0-4.76-3.46-8.07-8.15-8.07h-10v27.1h10.1c4.87 0 8.16-3.26 8.16-8.14 0-2.43-1.38-4.6-2.7-5.43zM31.7 0c-5.46 0-9.52 3.96-9.52 9.43v8.44c0 5.48 4.06 9.43 9.52 9.43 5.48 0 9.53-3.95 9.53-9.43V9.43C41.2 3.96 37.17 0 31.7 0zm153.37 27.2h5.44V.1h-5.45v27.1zm11.54-13.6L206.02.1h-6.1l-9.43 13.5 9.48 13.6h6.12l-9.5-13.6zm-22.12 2.7L166.38.1h-5.52v27.1h5.45V10.87l8.2 16.35h5.43V.1h-5.45v16.2zM143.83.1l-8.13 27.1h5.45l1.55-5.45h7.77l1.57 5.46h5.45L149.35.1h-5.53zm-38.86 10.76H96.8V.1h-5.45v27.1h5.45V16.3h8.17v10.9h5.45V.1h-5.45v10.76zM58.73 49.04l-8.15-16.3H45.1v27.2h5.45V43.58l8.18 16.33h5.45v-27.2h-5.45v16.3zM23.3 59.86h16.76V54.4h-11.3v-5.43h8.14v-5.45h-8.15v-5.45h11.3v-5.33H23.32v27.12zM9.53 32.7C4.08 32.7 0 36.64 0 42.1v8.45C0 56.04 4.1 60 9.54 60c5.48 0 9.54-3.96 9.54-9.43v-1.6h-5.45v1.6c0 2.3-1.8 3.97-4.1 3.97-2.27 0-4.07-1.67-4.07-3.97v-8.45c0-2.3 1.8-3.97 4.08-3.97 2.3 0 4.1 1.67 4.1 3.97v1.42h5.44v-1.42c0-5.47-4.06-9.43-9.54-9.43zM9.57 0C4.32 0 0 2.75 0 7.78c0 10.04 13.62 6.98 13.62 11.73 0 1.9-1.36 2.3-3.98 2.3-2.7 0-4.2-.4-4.2-2.72H0v.36c0 5.2 4.1 7.84 9.5 7.84 5.25 0 9.57-2.74 9.57-7.74 0-10.38-13.62-6.9-13.62-11.77 0-1.87 1.6-2.35 3.98-2.35 2.4 0 4.22.48 4.22 2.78h5.42v-.36c0-5.2-4.1-7.84-9.5-7.84zM67.7 38.07h7.34v21.8h5.45v-21.8h7.33v-5.33H67.7v5.33zm34.55-5.33h-10.9V59.9h5.46V49h.9l6.56 10.88h6.12l-6.63-11.03c3.93-.67 6.64-3.86 6.64-8.02v.02c0-4.76-3.45-8.1-8.15-8.1zm13.1 27.1h16.76v-5.46h-11.3v-5.45h8.15v-5.45h-8.15v-5.45h11.3v-5.3h-16.74v27.1zm10.1-38.08h-4.65v-5.44h4.46c1.75 0 2.88.93 2.9 2.75 0 1.74-.95 2.7-2.7 2.7zM120.8 5.4h4.57c1.56 0 2.7 1.07 2.7 2.72 0 1.74-1.1 2.73-2.85 2.73h-4.42V5.4zM35.76 17.88c0 2.3-1.78 3.98-4.08 3.98-2.28 0-4.08-1.68-4.08-3.98V9.43c0-2.3 1.8-3.98 4.08-3.98 2.3 0 4.08 1.68 4.08 3.98v8.44zm108.48-1.56l2.34-8.18 2.35 8.2h-4.7zM102.1 43.56h-5.3V38.1h5.46c1.56 0 2.7 1.06 2.7 2.7 0 1.76-1.1 2.75-2.85 2.75z"/></g></g></g></svg>