<svg xmlns="http://www.w3.org/2000/svg" width="603.672" height="125"><defs><clipPath id="a"><path d="M56.47 543.07h205.1v47.95H56.47v-47.95z"/></clipPath><clipPath id="b"><path d="M64.02 585.9v-84.8H249.9v84.8"/></clipPath><filter id="G" color-interpolation-filters="sRGB"><feColorMatrix values="0.21 0.72 0.072 0.319149 0 0.21 0.72 0.072 0.319149 0 0.21 0.72 0.072 0.319149 0 0 0 0 1 0"/></filter><filter id="F" color-interpolation-filters="sRGB"><feColorMatrix values="0.21 0.72 0.072 0.319149 0 0.21 0.72 0.072 0.319149 0 0.21 0.72 0.072 0.319149 0 0 0 0 1 0"/></filter><filter id="E" color-interpolation-filters="sRGB"><feColorMatrix values="0.21 0.72 0.072 0.319149 0 0.21 0.72 0.072 0.319149 0 0.21 0.72 0.072 0.319149 0 0 0 0 1 0"/></filter><filter id="D" color-interpolation-filters="sRGB"><feColorMatrix values="0.21 0.72 0.072 0.319149 0 0.21 0.72 0.072 0.319149 0 0.21 0.72 0.072 0.319149 0 0 0 0 1 0"/></filter><filter id="C" color-interpolation-filters="sRGB"><feColorMatrix values="0.21 0.72 0.072 0.319149 0 0.21 0.72 0.072 0.319149 0 0.21 0.72 0.072 0.319149 0 0 0 0 1 0"/></filter><filter id="B" color-interpolation-filters="sRGB"><feColorMatrix values="0.21 0.72 0.072 0.319149 0 0.21 0.72 0.072 0.319149 0 0.21 0.72 0.072 0.319149 0 0 0 0 1 0"/></filter><filter id="A" color-interpolation-filters="sRGB"><feColorMatrix values="0.21 0.72 0.072 0.319149 0 0.21 0.72 0.072 0.319149 0 0.21 0.72 0.072 0.319149 0 0 0 0 1 0"/></filter><filter id="z" color-interpolation-filters="sRGB"><feColorMatrix values="0.21 0.72 0.072 0.319149 0 0.21 0.72 0.072 0.319149 0 0.21 0.72 0.072 0.319149 0 0 0 0 1 0"/></filter><filter id="y" color-interpolation-filters="sRGB"><feColorMatrix values="0.21 0.72 0.072 0.319149 0 0.21 0.72 0.072 0.319149 0 0.21 0.72 0.072 0.319149 0 0 0 0 1 0"/></filter><filter id="x" color-interpolation-filters="sRGB"><feColorMatrix values="0.21 0.72 0.072 0.319149 0 0.21 0.72 0.072 0.319149 0 0.21 0.72 0.072 0.319149 0 0 0 0 1 0"/></filter><filter id="w" color-interpolation-filters="sRGB"><feColorMatrix values="0.21 0.72 0.072 0.319149 0 0.21 0.72 0.072 0.319149 0 0.21 0.72 0.072 0.319149 0 0 0 0 1 0"/></filter><filter id="v" color-interpolation-filters="sRGB"><feColorMatrix values="0.21 0.72 0.072 0.319149 0 0.21 0.72 0.072 0.319149 0 0.21 0.72 0.072 0.319149 0 0 0 0 1 0"/></filter><filter id="u" color-interpolation-filters="sRGB"><feColorMatrix values="0.21 0.72 0.072 0.319149 0 0.21 0.72 0.072 0.319149 0 0.21 0.72 0.072 0.319149 0 0 0 0 1 0"/></filter><filter id="t" color-interpolation-filters="sRGB"><feColorMatrix values="0.21 0.72 0.072 0.319149 0 0.21 0.72 0.072 0.319149 0 0.21 0.72 0.072 0.319149 0 0 0 0 1 0"/></filter><filter id="s" color-interpolation-filters="sRGB"><feColorMatrix values="0.21 0.72 0.072 0.319149 0 0.21 0.72 0.072 0.319149 0 0.21 0.72 0.072 0.319149 0 0 0 0 1 0"/></filter><filter id="r" color-interpolation-filters="sRGB"><feColorMatrix values="0.21 0.72 0.072 0.319149 0 0.21 0.72 0.072 0.319149 0 0.21 0.72 0.072 0.319149 0 0 0 0 1 0"/></filter><filter id="q" color-interpolation-filters="sRGB"><feColorMatrix values="0.21 0.72 0.072 0.319149 0 0.21 0.72 0.072 0.319149 0 0.21 0.72 0.072 0.319149 0 0 0 0 1 0"/></filter><filter id="p" color-interpolation-filters="sRGB"><feColorMatrix values="0.21 0.72 0.072 0.319149 0 0.21 0.72 0.072 0.319149 0 0.21 0.72 0.072 0.319149 0 0 0 0 1 0"/></filter><filter id="o" color-interpolation-filters="sRGB"><feColorMatrix values="0.21 0.72 0.072 0.319149 0 0.21 0.72 0.072 0.319149 0 0.21 0.72 0.072 0.319149 0 0 0 0 1 0"/></filter><filter id="n" color-interpolation-filters="sRGB"><feColorMatrix values="0.21 0.72 0.072 0.319149 0 0.21 0.72 0.072 0.319149 0 0.21 0.72 0.072 0.319149 0 0 0 0 1 0"/></filter><filter id="m" color-interpolation-filters="sRGB"><feColorMatrix values="0.21 0.72 0.072 0.319149 0 0.21 0.72 0.072 0.319149 0 0.21 0.72 0.072 0.319149 0 0 0 0 1 0"/></filter><filter id="l" color-interpolation-filters="sRGB"><feColorMatrix values="0.21 0.72 0.072 0.319149 0 0.21 0.72 0.072 0.319149 0 0.21 0.72 0.072 0.319149 0 0 0 0 1 0"/></filter><filter id="k" color-interpolation-filters="sRGB"><feColorMatrix values="0.21 0.72 0.072 0.319149 0 0.21 0.72 0.072 0.319149 0 0.21 0.72 0.072 0.319149 0 0 0 0 1 0"/></filter><filter id="j" color-interpolation-filters="sRGB"><feColorMatrix values="0.21 0.72 0.072 0.319149 0 0.21 0.72 0.072 0.319149 0 0.21 0.72 0.072 0.319149 0 0 0 0 1 0"/></filter><filter id="i" color-interpolation-filters="sRGB"><feColorMatrix values="0.21 0.72 0.072 0.319149 0 0.21 0.72 0.072 0.319149 0 0.21 0.72 0.072 0.319149 0 0 0 0 1 0"/></filter><filter id="h" color-interpolation-filters="sRGB"><feColorMatrix values="0.21 0.72 0.072 0.319149 0 0.21 0.72 0.072 0.319149 0 0.21 0.72 0.072 0.319149 0 0 0 0 1 0"/></filter><filter id="g" color-interpolation-filters="sRGB"><feColorMatrix values="0.21 0.72 0.072 0.319149 0 0.21 0.72 0.072 0.319149 0 0.21 0.72 0.072 0.319149 0 0 0 0 1 0"/></filter><filter id="f" color-interpolation-filters="sRGB"><feColorMatrix values="0.21 0.72 0.072 0.319149 0 0.21 0.72 0.072 0.319149 0 0.21 0.72 0.072 0.319149 0 0 0 0 1 0"/></filter><filter id="e" color-interpolation-filters="sRGB"><feColorMatrix values="0.21 0.72 0.072 0.319149 0 0.21 0.72 0.072 0.319149 0 0.21 0.72 0.072 0.319149 0 0 0 0 1 0"/></filter><filter id="d" color-interpolation-filters="sRGB"><feColorMatrix values="0.21 0.72 0.072 0.319149 0 0.21 0.72 0.072 0.319149 0 0.21 0.72 0.072 0.319149 0 0 0 0 1 0"/></filter><filter id="c" color-interpolation-filters="sRGB"><feColorMatrix values="0.21 0.72 0.072 0.319149 0 0.21 0.72 0.072 0.319149 0 0.21 0.72 0.072 0.319149 0 0 0 0 1 0"/></filter></defs><g transform="matrix(3.248 0 0 -3.248 -207.902 1902.837)" clip-path="url(#a)"><g clip-path="url(#b)"><path fill="#231f20" d="M71.65 585.3h20.28c.86 0 2.27.05 4.27.13l.73.04c-.1-1.55-.13-2.16-.13-2.98v-2.4l-.02-2.24V565.3c0-7.92-1.8-10.6-10.33-14.82-.38-.2-4.73-2.36-5.18-2.6l-.43-.23-.43-.23-.43.23-.43.23c-1.8.94-3.62 1.76-5.03 2.46-7.8 3.83-10.32 6.56-10.32 14.96v12.56l-.02 2.25v2.4c-.02 1.42-.03 1.9-.14 2.97l.74-.04c1.97-.08 3.43-.12 4.28-.12h2.6" filter="url(#c)"/><path fill="#fff" d="M80.4 548.2l3.37 1.64.08.03-.02.07v15.47l-.03.1h12.28l.1-.05-.03.14v6.55l.03.1-.1-.03H83.9l-.1-.02.03.1v12.3l.02.12-.1-.03H77.1l-.1.02.02-.1v-12.3l.03-.12-.1.02H64.87l-.1.03.03-.1v-6.62l-.03-.08.1.04h12.18l-.03-.12v-15.4l-.03-.13.08-.02 3.33-1.64" filter="url(#d)"/><path fill="#ef2f51" d="M64.93 584.68l-.16.04.03-.12v-12.32l-.03-.1.15.04h12.02l.1-.03-.02.1v12.33l.03.1-.1-.05H64.92m19.03 0l-.15.04.03-.12v-12.32l-.02-.1.15.04h12.1l.13-.03-.03.1v12.33l.03.1-.12-.05h-12.1M77 565.48H64.83l-.07.04.03-.1v-.72c0-6.77 2.26-10.05 9.2-13.4l2.2-1.07.77-.36.06-.07V565.52l-.04-.04m6.9 0l-.1.04.03-.08v-15.5l-.02-.1.1.08.7.32c9.42 4.44 11.55 7.08 11.55 14.4v.77l.03.12-.1-.03-12.18-.02" filter="url(#e)"/><path fill="#231f20" d="M66.78 571.6c.03-.02.05-.05.07-.07.04-.05.07-.08.1-.1 0 0 .03-.04.08-.1l.08-.07c-.02-.03-.03-.04-.04-.05l-.1-.08-.1-.1-.02-.03v-.1c0-.86.22-1.44.7-1.82l.08-.07-.1-.05h-.08l-.2.04-.18.02-.1.02-.1-.76h-.16l-.1.76-.1-.02c-.1-.02-.15-.03-.17-.03l-.2-.04h-.1c-.05 0-.1 0-.1.03 0 0 .03.03.06.05l.15.12c.13.1.2.23.36.54.08.15.12.27.12.36 0 .22.03.4.07.4v.4l.03.13-.05.02-.08.1-.1.1-.05.04c.04.03.07.06.1.08.13.14.15.16.23.27m3.98 0c.08-.1.1-.12.24-.26l.1-.08-.06-.05-.1-.08-.1-.1-.04-.03.02-.15.02-.4c.03-.55.34-1.2.67-1.37.06-.03.1-.06.1-.07 0-.02-.03-.04-.05-.04h-.14l-.2.03-.17.02-.1.02-.1-.76h-.14l-.12.76-.1-.02-.18-.03-.2-.04H70c-.05 0-.08 0-.08.03 0 0 0 .03.04.05l.16.12c.14.1.17.16.37.54.06.16.1.28.1.36 0 .22.03.4.07.4l.02.4v.13c-.02 0-.03.02-.03.02-.06.06-.1.1-.1.1l-.1.1-.05.04.1.08c.04.05.07.08.08.1.02 0 .05.04.1.1 0 0 .03.04.06.07m-2-2.32l.1-.08.06-.1c.02-.02.05-.05.1-.1l.1-.08-.06-.04-.1-.1-.1-.08-.02-.04v-.1c0-.87.2-1.42.7-1.8l.08-.08-.1-.06h-.08l-.2.03-.18.03-.1.03-.1-.75h-.16l-.1.76-.1-.02-.2-.03-.2-.02h-.08c-.05 0-.1 0-.1.03 0 0 .03.04.07.06l.14.12c.34.26.57.96.57 1.72v.1l-.02.04-.1.1-.1.08-.04.04c.16.14.24.22.33.36m4 0c.1-.14.17-.22.33-.36l-.05-.04-.1-.1-.1-.08-.02-.04v-.1c0-.57.17-1.26.36-1.48l.2-.24c.02-.02.05-.05.1-.1l.1-.06-.08-.06h-.1l-.2.03-.17.03-.1.03-.1-.75h-.16l-.1.76-.12-.02-.18-.03-.2-.02H72c-.04 0-.07 0-.07.03 0 0 0 .04.04.06l.16.12c.33.26.57.97.57 1.72v.1l-.03.04-.1.1-.1.08-.04.04c.04.04.07.07.1.1.04.03.07.06.1.08l.06.1.07.08m2 2.33c.08-.1.1-.12.23-.26.02-.02.05-.05.1-.08l-.05-.05-.1-.08-.1-.1-.03-.03v-.15l.03-.4c.03-.54.35-1.2.66-1.37.06-.03.1-.06.1-.07 0-.02-.02-.04-.04-.04h-.13l-.2.03c-.06 0-.12 0-.2.02l-.1.02-.1-.76h-.14l-.1.76-.13-.03h-.17l-.2-.04H74c-.05 0-.08 0-.08.03 0 0 .02.03.05.05l.15.12c.14.12.2.18.37.54.07.16.1.28.1.36 0 .22.03.4.07.4l.02.4v.13l-.03.02-.1.1c-.04.05-.07.08-.1.1 0 0-.02.02-.04.04l.08.08c.06.05.1.08.1.1.02 0 .05.04.1.1 0 0 .03.04.06.07m11.34.03l.08-.1.07-.08c.05-.05.08-.1.1-.1 0-.02.05-.05.1-.08l-.06-.05-.1-.1-.1-.07-.03-.05v-.1c0-.83.28-1.57.7-1.8.05-.03.08-.06.08-.1l-.1-.03h-.1c-.1 0-.33.04-.47.1l-.1-.77h-.15l-.1.76c-.15-.05-.37-.1-.5-.1h-.08c-.07 0-.1.03-.1.05 0 .04.03.07.1.1.4.2.7.97.7 1.8v.1l-.04.05-.1.08-.08.1-.05.04c.04.03.07.06.1.08 0 0 .04.05.1.1l.06.1.07.08m4 0l.08-.1.08-.08.1-.1.08-.08-.05-.05-.1-.1-.1-.07-.03-.05v-.1c0-.82.3-1.58.7-1.8.06-.03.08-.06.08-.1l-.1-.03h-.08c-.12 0-.34.04-.48.1l-.12-.77h-.15l-.1.76c-.17-.06-.36-.1-.53-.1-.1 0-.14.02-.14.06 0 .03.03.05.1.08.08.04.24.2.33.34.15.26.25.5.25.63 0 .22.03.4.07.4l.02.4v.13c0 .02-.02.04-.03.05-.12.13-.13.14-.23.22l.1.08.1.1.07.1.07.08m-2-2.33c.04-.04.07-.06.08-.08.04-.05.07-.08.1-.1 0 0 .03-.05.08-.1.02-.02.05-.04.1-.08l-.07-.04-.1-.1-.1-.1-.03-.03v-.14l.03-.4c.04-.56.33-1.18.67-1.36.06-.04.1-.06.1-.1h-.02l-.08-.03h-.1c-.12 0-.34.04-.48.1l-.12-.77h-.14l-.1.76c-.15-.06-.36-.1-.54-.1-.1 0-.13.02-.13.06 0 .02.03.04.1.07.08.03.24.2.32.33.16.28.26.52.26.63 0 .23.03.4.07.4l.02.4v.14l-.03.04-.1.1-.1.1-.04.04.1.1c.13.13.15.15.23.26m4.05 0c.03-.04.05-.06.07-.08.04-.05.07-.08.08-.1.02 0 .05-.04.1-.1.02 0 .04-.04.08-.08-.02-.02-.03-.03-.04-.04-.06-.06-.1-.1-.1-.1-.06-.05-.1-.08-.1-.1 0 0-.02 0-.03-.03l.02-.14.02-.4c.03-.56.33-1.18.66-1.36.07-.04.1-.06.1-.1l-.1-.03h-.1c-.12 0-.33.04-.48.1l-.1-.77h-.14l-.1.76c-.15-.06-.36-.1-.54-.1-.1 0-.13.02-.13.06 0 .02.03.04.1.07.08.03.24.2.33.33.17.28.27.52.27.63 0 .23.03.4.06.4l.02.4v.14l-.03.04-.08.1-.1.1-.05.04.08.1c.15.13.16.15.25.26m2 2.33l.07-.1.08-.08.1-.1.08-.08-.05-.05-.1-.1-.1-.07-.03-.05v-.1c0-.82.3-1.58.7-1.8.06-.03.1-.06.1-.1h-.02l-.08-.03h-.1c-.12 0-.34.04-.48.1l-.1-.77h-.15l-.1.76c-.18-.06-.36-.1-.53-.1-.12 0-.14.02-.14.06 0 .03.03.05.1.08.08.04.23.2.32.34.17.26.26.5.26.63 0 .22.04.4.08.4l.02.4v.13c0 .02-.02.04-.03.05-.05.04-.08.07-.1.08l-.1.1-.03.04.08.08.1.1.08.1.06.08M78.6 560.78c.07-.1.1-.13.23-.28.02 0 .05-.04.1-.08l-.06-.04-.1-.1-.1-.1-.03-.03V560l.03-.38c.02-.34.17-.78.34-1.04.13-.17.25-.3.34-.33.07-.04.1-.06.1-.1 0-.02-.03-.03-.16-.03-.16 0-.38.03-.5.08l-.12-.75h-.14l-.1.75c-.15-.04-.37-.08-.5-.08h-.1c-.05 0-.08 0-.08.04 0 .03.03.05.1.1.1.04.24.2.32.32.18.3.27.5.27.63 0 .24.03.42.06.42l.02.4v.13l-.03.04-.1.08-.1.1-.05.04c.04.04.07.07.1.08.04.05.07.1.08.1.02.02.05.05.1.1 0 0 .03.04.06.08m3.74 0c.08-.1.1-.13.24-.28.02 0 .05-.04.1-.08l-.06-.04-.1-.1-.1-.1-.03-.03V560l.02-.38c.02-.34.17-.78.34-1.04.12-.17.24-.3.33-.33.06-.04.08-.06.08-.1 0-.02-.02-.03-.15-.03-.16 0-.37.03-.5.08l-.12-.75h-.13l-.1.75c-.15-.04-.37-.08-.5-.08h-.1c-.05 0-.07 0-.07.04 0 .03.02.05.08.1.1.04.25.2.33.32.2.3.28.5.28.63 0 .24.03.42.07.42l.02.4v.13l-.02.04-.1.08-.1.1-.05.04c.04.04.07.07.1.08.04.05.07.1.08.1.02.02.05.05.1.1 0 0 .03.04.06.08m-1.9-3.4l.04-.12.1-.07.1-.1.07-.1-.04-.04-.1-.1s-.03-.03-.08-.08c0 0-.02-.02-.04-.04v-.13l.03-.38c.04-.57.36-1.24.67-1.38.08-.03.1-.05.1-.08v-.02l-.08-.04h-.1l-.22.04c-.04 0-.1 0-.18.03l-.1.02-.1-.77h-.15l-.1.76-.1-.03-.18-.03-.2-.03h-.1c-.06 0-.1.02-.1.05 0 .03.04.06.1.1.1.05.25.2.33.33.18.3.27.5.27.63 0 .23.03.42.06.42l.02.4.02.12-.04.04-.1.1-.1.08-.04.05.08.1.1.1.07.08.08.1m-1.86-3.47l.07-.1.1-.07.08-.1.07-.1-.05-.03-.1-.1-.1-.08-.02-.04v-.14l.03-.4c.03-.56.33-1.2.67-1.37.06-.03.1-.06.1-.1h-.02l-.07-.02h-.1c-.08 0-.23.02-.48.07l-.1-.75h-.16l-.1.75c-.23-.05-.4-.07-.54-.07-.1 0-.13 0-.13.04 0 .02.02.04.1.07.08.04.23.2.32.34.17.3.27.52.27.64 0 .23.03.4.06.4l.03.4.02.14c-.02 0-.04.03-.05.04-.04.04-.07.07-.08.08l-.12.1-.04.04.1.08.08.1.1.1.05.08m3.77 0l.06-.1.1-.07.07-.12.1-.06-.05-.04-.1-.1s-.04-.04-.1-.08c0 0 0-.03-.03-.05v-.13l.02-.4c.02-.33.17-.78.34-1.03.12-.16.24-.3.33-.33.06-.03.08-.05.08-.08 0-.05-.02-.05-.14-.05-.13 0-.3.02-.52.07l-.1-.75h-.15l-.1.75c-.26-.05-.4-.07-.5-.07h-.1c-.05 0-.07 0-.07.03s.02.06.08.1c.1.04.25.2.33.33.2.32.28.52.28.64 0 .23.03.4.07.4l.02.4v.13l-.02.05-.1.08-.1.1-.05.04.1.08.08.1.1.1.06.08m-1.9 10.3l.05-.1.08-.08.1-.1.07-.08-.04-.05-.1-.1s-.03-.04-.08-.08c0 0-.02-.03-.04-.05v-.13l.03-.4c.04-.56.37-1.24.67-1.37.07-.03.1-.05.1-.08 0-.05-.03-.06-.14-.06-.13 0-.3.03-.52.08l-.1-.76h-.15l-.1.76c-.25-.05-.4-.07-.48-.07h-.1c-.06 0-.1 0-.1.03s.04.06.1.1c.1.04.25.2.33.33.18.32.27.52.27.64 0 .22.03.4.06.4l.02.4.02.13-.04.05-.1.08-.1.1-.04.04.08.08.1.1.07.1.08.08m-1.9 19.18c.04-.04.06-.06.08-.08.05-.05.08-.08.1-.1 0 0 .04-.04.1-.1 0 0 .04-.04.07-.08l-.04-.04-.1-.1s-.04-.03-.1-.1c0 0-.02 0-.03-.02v-.15l.03-.36c.02-.37.18-.88.34-1.05l.2-.26c.02 0 .06-.04.12-.1l.08-.06-.1-.06h-.08l-.2.03-.18.04h-.1l-.12-.72-.13-.03-.1.76h-.1l-.2-.05-.2-.02h-.1c-.03 0-.06 0-.06.03 0 .02.02.04.05.06 0 0 .06.05.16.12.14.1.18.16.37.54.08.15.12.27.12.35 0 .22.02.4.05.4l.02.38v.16l-.03.03-.08.1-.1.08-.05.04c.05.04.08.07.1.1.14.13.15.15.24.26m3.8 0c.08-.1.1-.13.24-.27.02 0 .05-.04.1-.08l-.06-.04-.1-.1-.1-.1-.03-.02v-.15l.02-.36c.04-.56.35-1.22.67-1.4.04-.02.08-.05.08-.06 0-.03-.02-.05-.05-.05H83l-.2.02c-.05 0-.1.02-.2.04h-.08l-.1-.75h-.15l-.1.76-.12.02-.17-.07-.2-.02h-.1c-.05 0-.08 0-.08.03 0 0 .02.04.05.06l.15.12c.14.1.18.18.37.54.07.15.1.27.1.35 0 .22.04.4.08.4l.02.38v.16l-.02.03-.1.1c-.05.04-.08.07-.1.08 0 0-.02.02-.05.04.04.04.07.07.1.1.04.04.07.07.08.08.02.02.05.05.1.1 0 .02.03.04.06.08m-1.93-3.3l.08-.07.08-.1c.06-.04.1-.08.1-.1.02 0 .05-.04.08-.08l-.05-.04-.1-.1-.1-.08-.03-.04v-.13l.02-.36c.02-.58.33-1.23.66-1.4.07-.04.1-.07.1-.1v-.02l-.1-.02h-.1c-.1 0-.33.04-.47.1l-.12-.77h-.15l-.1.76c-.14-.05-.35-.1-.53-.1-.1 0-.13.02-.13.05 0 .04.02.06.1.1.08.03.23.18.32.33.15.26.25.5.25.63 0 .22.03.4.07.4l.02.4v.13c0 .02-.02.03-.03.04-.03.05-.06.08-.07.1l-.1.08-.05.04.08.1.1.1c.05.05.08.08.08.1.02 0 .04.03.07.07m-1.87-3.3l.07-.07.07-.1c.02-.02.05-.05.1-.1l.1-.07c-.04-.03-.05-.04-.06-.04l-.08-.1-.1-.1-.03-.03v-.1c0-.56.15-1.25.34-1.45l.23-.27s.04-.04.1-.1l.1-.07-.1-.04h-.08l-.2.03-.2.02-.1.02-.1-.76h-.15l-.1.76-.1-.02-.2-.03-.2-.03h-.08c-.05 0-.1 0-.1.02 0 0 .03.03.06.06l.16.12c.34.27.56.95.56 1.72v.1l-.03.03-.1.1c-.04.04-.07.07-.1.1 0 0 0 0-.04.03.03.03.06.06.08.08.05.04.08.07.1.1l.07.1.08.07m3.8 0c.02-.02.05-.05.06-.07.03-.05.06-.08.08-.1 0 0 .04-.04.1-.1 0 0 .04-.04.08-.07-.03-.03-.05-.04-.06-.04l-.1-.1-.1-.1-.02-.03v-.15l.03-.4c.05-.57.27-1.04.68-1.37l.08-.07-.08-.04h-.1l-.2.03-.18.02-.1.02-.1-.76h-.15l-.12.8c-.2-.05-.2-.1-.26-.1h-.2l-.1-.02h-.02c-.04 0-.06 0-.06.03 0 0 0 .03.03.06l.16.12c.13.1.17.16.36.53.07.16.1.28.1.36 0 .22.04.4.08.4l.02.4v.13l-.03.03-.1.1-.1.1-.04.03.08.08c.14.15.16.16.24.27m-7.87 1.7l.04-.15c.03-.14.06-.26.07-.34.14-.6.25-.75.54-.75.18 0 .32.1.36.24l.06.2c0 .05.05.07.1.07.1 0 .17-.1.17-.38 0-.08.02-.26.07-.52.03-.16.04-.3.04-.46 0-.14 0-.2-.05-.33.03-.22.06-.5.06-.65 0-.26-.04-.5-.12-.63.05-.18.06-.25.06-.4 0-.1 0-.23-.04-.35-.04-.25-.05-.3-.05-.36 0-.04 0-.1.02-.13.02-.06.03-.1.03-.13s0-.05-.03-.05l-.2.07-.24.13c-.07.04-.13.08-.24.2-.2-.2-.28-.22-.8-.37-.12-.03-.2-.06-.24-.1-.07-.04-.12-.07-.14-.07-.1 0-.13.15-.13.45 0 .23 0 .44.05.6-.16.05-.3.1-.38.1 0 0-.07-.02-.16-.03h-.03c-.03 0-.05.04-.05.1 0 .03.03.14.06.22l.1.24c.05.1.13.2.26.3.1.1.2.15.27.17l.4.08c.22.04.35.16.35.32 0 .15-.1.25-.33.33l-.45.16c-.12.03-.25.1-.4.2-.26.14-.3.16-.36.16-.08 0-.13-.07-.13-.2 0-.18.12-.3.3-.3.03 0 .06 0 .1 0 .05.03.08.05.1.05.05 0 .08-.02.08-.07v-.05l-.03-.18c0-.15-.1-.34-.33-.63l-.1-.13c-.1-.33-.3-.64-.57-.83-.07-.03-.1-.06-.12-.07 0 0-.03-.06-.07-.15-.03-.04-.1-.12-.2-.25-.1-.1-.2-.18-.28-.24-.1-.1-.2-.16-.2-.2l-.1-.18c-.03-.03-.06-.05-.1-.05-.1 0-.18.1-.23.26-.04.12-.07.16-.15.16-.04 0-.1-.02-.18-.04l-.16-.02h-.38c-.2 0-.46-.05-.58-.1-.05-.03-.08-.04-.1-.04-.03 0-.05 0-.08.06 0 .04-.02.05-.02.1 0 .18.14.54.32.83.1.17.15.2.28.32-.04.18-.16.32-.3.36l-.17.05c-.02 0-.03.03-.03.05 0 .06.08.13.24.22.2.1.42.16.6.16.16 0 .33-.07.52-.22.3-.22.36-.26.5-.26.23 0 .44.2.44.42 0 .14-.08.3-.28.56-.3.38-.38.57-.38.85 0 .18.06.4.12.5l.1.16c.03.04.04.07.04.1 0 .07-.08.12-.2.12-.15 0-.47-.12-.73-.27-.12-.07-.2-.16-.2-.22 0-.03 0-.06.04-.08l.1-.07c.02 0 .03-.03.03-.04 0-.03 0-.06-.04-.1l-.2-.27c-.12-.14-.3-.32-.45-.46-.05-.05-.08-.1-.1-.1l-.08-.16c-.07-.14-.27-.34-.46-.47-.08-.05-.13-.1-.15-.1 0-.03-.03-.08-.07-.16-.03-.05-.08-.13-.14-.22-.1-.15-.2-.26-.26-.33l-.3-.3c-.1-.08-.17-.26-.3-.64-.07-.23-.13-.37-.17-.37-.02 0-.05.03-.08.07-.22.24-.4.38-.5.38-.02 0-.06-.02-.1-.05-.1-.05-.2-.1-.3-.1l-.4-.08c-.28-.06-.4-.12-.56-.32-.04-.04-.08-.07-.1-.07-.03 0-.05.05-.05.12v.1l.05.3c.06.3.13.5.2.67l.2.32c.03.07.04.13.04.18 0 .24-.26.46-.56.5-.08 0-.1 0-.1.05 0 .06.08.16.2.25.2.16.48.28.65.28.1 0 .26-.05.47-.13l.23-.1c.08-.03.16-.05.23-.05.25 0 .48.22.78.73.14.22.2.4.2.54 0 .25-.13.4-.34.4-.16 0-.33-.06-.45-.2-.1-.1-.15-.2-.15-.3v-.15c0-.1-.03-.16-.1-.16-.1 0-.23.13-.65.63-.3.38-.37.54-.4.9-.34.46-.43.66-.43.98v.23c-.23.3-.3.45-.3.73 0 .1 0 .15.07.27-.12.2-.16.27-.2.4l-.05.24c-.05.15-.1.28-.18.38-.1.14-.1.16-.1.2 0 .13.08.18.45.27-.02.1-.02.18-.02.23 0 .06 0 .12.03.25l.07.4c.03.15.05.26.05.33s0 .12-.08.33c-.04.12-.07.2-.1.24-.03.06-.06.12-.06.15s.03.06.08.06c.1 0 .38-.16.66-.4.6-.5.73-.7.8-1.3 0-.05.03-.12.04-.2.3-.22.44-.48.44-.75 0-.22-.08-.48-.2-.68l-.22-.32c-.06-.1-.1-.22-.1-.35 0-.2.06-.38.2-.63.17-.3.3-.4.47-.4.28 0 .52.48.52 1.03v.27c0 .1 0 .2.02.34.02.17.03.27.04.3l.02.27v.16c0 .06-.03.12-.1.2l-.24.26c-.33.35-.52.7-.52.95 0 .32.23.56.54.56.06 0 .12 0 .22-.03v.07c0 .46.1.8.22.8h.06l.18-.18.24-.15.06-.05c0 .13 0 .14.14.3.03.03.08.1.14.2.06.07.1.12.1.15.02.03.04.06.06.1.03.05.06.08.1.08.02 0 .04-.04.08-.16.02-.07.04-.1.22-.25.06-.06.1-.1.13-.14 0-.02.04-.1.08-.2 0-.02.02-.05.03-.1.08.1.12.14.2.2l.17.1c.06.03.1.05.12.05 0 0 .03-.03.05-.07 0-.02.04-.08.08-.14.1-.2.15-.3.15-.38v-.23c.34-.1.47-.3.47-.66 0-.28-.14-.6-.4-.9-.2-.22-.2-.27-.2-.42 0-.78.53-1.22 1.48-1.24h.7c.46-.02.73-.06 1.15-.2.5-.16.65-.2.8-.2.04 0 .1.02.13.04.04.03.06.07.06.1 0 .14-.26.26-1.1.5-1.73.5-2.47 1.2-2.47 2.34 0 .9.74 1.57 1.7 1.57.3 0 .77-.1 1.04-.2l.42-.14c.08-.03.16-.05.23-.05.14 0 .22.13.22.38 0 .13.04.18.12.18.1 0 .3-.15.47-.4.18-.23.3-.5.3-.68 0-.24-.12-.4-.38-.55-.25-.36-.54-.52-.93-.52-.3 0-.73.18-1.45.58-.24.15-.37.2-.5.2-.2 0-.3-.12-.3-.28 0-.15.1-.25.42-.36.45-.16.56-.22.74-.4.54-.1.77-.2 1.1-.45.93-.3 1.5-.93 1.5-1.65 0-.7-.47-1.2-1.13-1.2-.16 0-.26 0-.5.06m19.6 0l.05-.15c.04-.14.07-.26.08-.34.14-.6.25-.75.54-.75.17 0 .3.1.35.24l.06.2c0 .05.05.07.1.07.1 0 .18-.12.18-.38.02-.1.04-.28.08-.52.02-.18.04-.34.04-.5 0-.1 0-.16-.06-.3l.02-.12c.03-.2.04-.28.04-.38 0-.45-.02-.6-.13-.76.04-.17.05-.26.05-.38 0-.08 0-.2-.04-.37l-.03-.3v-.2c.04-.07.05-.1.05-.13s0-.05-.04-.05l-.2.07-.24.13c-.07.04-.13.08-.24.2-.2-.2-.23-.2-.47-.27-.35-.1-.48-.14-.55-.2-.07-.04-.12-.07-.15-.07-.08 0-.13.16-.13.4 0 .33.02.5.07.63-.2.06-.3.1-.38.1-.04 0-.06-.02-.17-.03h-.04c-.04 0-.06.03-.06.1 0 .1.07.3.17.47.14.24.36.43.52.47l.38.08c.23.04.36.16.36.32 0 .15-.1.25-.33.33l-.44.16c-.16.04-.3.1-.43.2-.1.06-.2.1-.23.13-.04.02-.08.03-.12.03-.1 0-.15-.07-.15-.18 0-.18.14-.33.3-.33.05 0 .08 0 .12.02.03.02.07.04.08.04.05 0 .1-.04.1-.1 0-.2-.13-.52-.26-.67l-.12-.16-.1-.13c-.03-.27-.3-.65-.57-.83-.06-.03-.1-.06-.1-.07-.02 0-.05-.06-.1-.15-.02-.04-.1-.12-.2-.25-.1-.1-.18-.18-.27-.24-.12-.1-.2-.16-.2-.2l-.1-.18c-.03-.04-.06-.05-.1-.05-.1 0-.18.1-.23.26-.04.12-.07.16-.15.16-.04 0-.1-.02-.18-.04l-.15-.02h-.37c-.2 0-.47-.05-.6-.1-.04-.03-.07-.04-.1-.04-.05 0-.08.05-.08.16 0 .33.26.84.6 1.16-.06.2-.16.33-.3.36-.1.03-.18.05-.18.05-.02 0-.03.03-.03.05 0 .07.06.14.23.22.3.14.38.16.55.16.2 0 .35-.06.55-.22.3-.22.37-.26.5-.26.23 0 .44.2.44.42 0 .15-.08.3-.28.56-.3.36-.4.6-.4.9 0 .2.06.3.24.6.02.05.04.1.04.1 0 .07-.1.12-.2.12s-.25-.04-.44-.12c-.32-.15-.5-.3-.5-.37 0-.04 0-.07.05-.1l.1-.07s0-.03 0-.04 0-.07-.03-.1c-.02-.02-.1-.1-.2-.27-.16-.2-.3-.34-.45-.46-.06-.05-.1-.08-.1-.1l-.1-.16c-.06-.13-.27-.34-.44-.47-.08-.05-.13-.1-.15-.1-.02-.04-.05-.1-.1-.16-.1-.2-.27-.43-.38-.55l-.3-.3c-.07-.08-.18-.32-.3-.64-.08-.26-.13-.37-.17-.37-.02 0-.05.03-.08.07-.2.24-.4.38-.48.38-.02 0-.07-.02-.12-.05-.08-.05-.18-.1-.3-.1l-.37-.08c-.3-.06-.44-.13-.58-.32-.04-.04-.07-.07-.1-.07s-.05.05-.05.13v.1s.03.1.06.28c.06.3.13.54.2.68l.2.32c.04.06.05.12.05.17 0 .26-.2.45-.55.5-.07.02-.1.04-.1.08 0 .05.07.14.2.24.22.17.47.27.64.27.1 0 .27-.05.48-.13l.23-.1c.1-.03.17-.05.24-.05.25 0 .48.22.78.73.13.22.18.4.18.54 0 .25-.12.4-.33.4-.16 0-.3-.06-.44-.2-.12-.1-.18-.22-.18-.32v-.16c0-.1-.02-.13-.08-.13-.08 0-.17.07-.35.3-.08.08-.18.2-.3.33-.32.38-.38.53-.4.9-.35.46-.44.72-.44.98v.23c-.24.3-.3.42-.3.72 0 .14.02.18.07.28-.12.2-.16.27-.2.4l-.05.24c-.04.15-.1.27-.17.38-.1.14-.1.16-.1.2 0 .1.1.18.36.25l.08.02c-.02.1-.02.18-.02.23 0 .06 0 .12.03.25l.06.4c.03.14.05.26.05.33 0 .1 0 .17-.06.33-.03.1-.07.2-.1.24-.04.06-.07.1-.07.14 0 .04.04.07.1.07 0 0 .06 0 .1-.03.35-.2.73-.5 1-.8.25-.27.32-.5.38-1.08.32-.25.44-.47.44-.8 0-.2-.07-.4-.22-.63-.13-.2-.2-.3-.2-.32-.07-.1-.1-.23-.1-.36 0-.2.05-.38.2-.63.15-.28.3-.4.46-.4.28 0 .53.47.53 1v.4l.02.24.02.3.02.27v.14c0 .1-.02.14-.34.5-.36.37-.53.7-.53 1 0 .27.25.5.54.5.07 0 .13 0 .23-.03v.32l.07.3c.06.2.08.24.15.24H88l.2-.18.23-.15.06-.05c0 .13 0 .16.12.3.06.06.1.13.15.2l.1.15.07.1c.04.06.06.08.1.08.02 0 .04-.04.07-.16.02-.05.05-.1.1-.13l.14-.13c.1-.1.18-.23.23-.43.08.1.12.14.2.2l.18.08c.06.04.1.06.1.06.02 0 .04-.03.06-.07.03-.04.06-.1.1-.14.13-.22.14-.25.14-.4v-.2c.34-.1.47-.3.47-.67 0-.3-.12-.58-.4-.9-.17-.23-.2-.3-.2-.45 0-.75.56-1.2 1.5-1.2l.7-.02c.45 0 .73-.05 1.14-.2.5-.15.65-.2.8-.2.1 0 .2.07.2.14 0 .15-.26.27-1.1.5-1.74.5-2.48 1.2-2.48 2.35 0 .9.74 1.57 1.7 1.57.3 0 .77-.1 1.04-.2l.43-.14c.08-.03.16-.05.23-.05.15 0 .2.1.22.38 0 .13.05.18.13.18.12 0 .34-.17.5-.4.15-.2.27-.5.27-.7 0-.22-.12-.4-.37-.53-.24-.36-.53-.52-.92-.52-.3 0-.8.2-1.45.58-.25.15-.36.2-.5.2-.2 0-.3-.1-.3-.28 0-.15.1-.25.4-.36.5-.17.62-.23.76-.4.53-.1.76-.2 1.1-.45.95-.32 1.5-.9 1.5-1.67 0-.7-.48-1.2-1.13-1.2-.18 0-.27.02-.5.08m-19.42-19.83c.1-.24.12-.35.13-.5l.03-.44c.02-.44.17-.66.45-.66.1 0 .18.02.23.07l.1.12h.06c.07 0 .1-.04.1-.13v-.17c0-.07 0-.24.04-.48.02-.14.04-.3.04-.42 0-.23-.02-.3-.1-.52.07-.2.12-.44.12-.63 0-.22-.04-.37-.13-.5.05-.18.06-.26.06-.36 0-.1 0-.24-.04-.4-.04-.22-.05-.4-.04-.5v-.03c0-.06-.02-.1-.06-.1-.04 0-.1.04-.13.1-.08.08-.12.1-.17.1-.07 0-.1-.03-.2-.35-.03-.1-.12-.22-.25-.4-.1-.1-.17-.2-.2-.3-.02-.12-.04-.2-.05-.2 0-.04-.04-.06-.07-.06-.18 0-.38.36-.58 1.06-.06.2-.13.28-.24.28-.08 0-.16-.05-.18-.1l-.07-.16c-.02-.03-.04-.04-.06-.04-.1 0-.2.15-.3.34-.06.16-.1.34-.1.5 0 .32.25.56.98.98.32.18.44.4.44.82 0 .32-.1.5-.38.72-.22.17-.35.23-.47.23-.1 0-.16-.06-.16-.15 0-.1.05-.16.2-.2.15-.06.22-.12.22-.2 0-.06-.07-.2-.18-.37-.12-.17-.17-.23-.33-.34-.05-.3-.2-.47-.5-.68-.07-.18-.1-.25-.22-.4l-.22-.28c-.06-.08-.14-.24-.15-.32-.02-.16-.04-.2-.1-.2-.08 0-.25.16-.42.38-.1.13-.13.2-.14.34-.12-.08-.15-.1-.37-.12-.12-.02-.22-.04-.28-.08-.16-.08-.2-.1-.24-.1-.04 0-.05.02-.06.1v.23c0 .3.12.68.3.93-.17.16-.36.26-.5.27-.07 0-.08.02-.08.04 0 .04.04.12.1.2.07.1.14.16.18.2.15.13.4.23.6.23.15 0 .35-.05.6-.15.1-.04.2-.05.26-.05.12 0 .18.07.18.2 0 .2-.1.5-.3.97-.14.33-.2.55-.2.7 0 .36.16.74.38.85-.1.05-.15.06-.24.06-.1 0-.18-.03-.32-.1-.16-.1-.24-.17-.24-.23 0-.02.03-.05.08-.1.1-.05.1-.07.1-.14 0-.25-.22-.6-.52-.83-.06-.37-.23-.6-.56-.74-.05-.2-.08-.26-.24-.5-.27-.37-.34-.5-.38-.7-.03-.12-.06-.17-.1-.17-.04 0-.13.07-.23.18-.08.1-.13.16-.16.2-.04.07-.07.14-.1.34-.1-.03-.1-.03-.16-.03h-.26c-.23 0-.48-.05-.6-.12-.05-.03-.08-.04-.1-.04-.06 0-.12.13-.12.3 0 .38.1.7.35 1.04-.1.08-.12.1-.2.2-.03.03-.06.05-.08.06l-.12.07c-.03.02-.06.05-.06.07 0 .05.14.2.33.32.2.13.36.2.5.2.18 0 .27-.06.5-.25.13-.12.24-.18.3-.18s.1.04.16.1c.02.05.04.1.04.16 0 .2-.24.54-.5.7-.2.14-.42.2-.63.2-.28 0-.53-.13-.65-.37l-.1-.23c-.04-.06-.07-.08-.1-.08-.08 0-.1.02-.35.3l-.28.3c-.08.1-.14.2-.16.28-.03.08-.05.12-.06.14 0 0-.04.04-.1.08-.2.15-.37.45-.45.87 0 .03-.02.08-.04.14-.24.33-.4.72-.4 1.05 0 .05 0 .07.03.15-.15.15-.17.18-.3.6-.07.27-.12.4-.23.53-.03.04-.04.07-.04.08 0 .07.1.12.24.14.14.03.15.03.2.03l.22-.02v.3c0 .16 0 .27.04.47.02.1.03.17.03.22 0 .02 0 .08-.03.18 0 .08-.02.13-.03.16 0 .04-.02.07-.02.1 0 .02.02.04.06.04.03 0 .08-.02.14-.05.18-.1.34-.18.45-.27.36-.28.65-.72.65-1v-.07c-.02-.1-.03-.15-.03-.16 0-.04.02-.1.07-.17l.1-.16c.1-.14.18-.3.18-.4 0-.1-.02-.15-.2-.4-.12-.18-.17-.32-.17-.47 0-.18.08-.42.2-.66.14-.2.28-.33.42-.33.23 0 .33.2.37.77.02.3.05.56.08.8v.14c0 .07 0 .1-.1.2l-.3.37c-.3.35-.4.54-.4.8 0 .28.2.48.47.48h.12v.07c0 .06.02.16.06.28.06.23.15.4.2.4 0 0 .04-.02.1-.05 0 0 .07-.04.18-.07.06-.02.1-.05.2-.1.06.17.1.26.18.36.13.17.3.3.34.3.03 0 .1-.03.17-.1l.2-.22c.04-.04.07-.1.12-.2l.03-.1c.06.04.1.06.13.08.08.05.13.08.16.1.13.05.2.08.2.1.06.02.1.04.1.04.05 0 .07-.06.15-.4.05-.25.06-.3.07-.47.33-.05.5-.24.5-.6 0-.34-.17-.68-.53-1.06-.1-.12-.1-.17-.1-.27 0-.93.3-1.22 1.47-1.34.72-.1.93-.13 1.8-.4.44-.12.7-.18.87-.18.2 0 .3.07.3.2 0 .2-.13.26-.97.43-1.95.4-2.7 1.08-2.7 2.36 0 .93.67 1.6 1.6 1.6.4 0 .75-.1 1.32-.44.52-.3.63-.36.75-.36.14 0 .2.1.2.32 0 .15.04.22.13.22.1 0 .22-.1.33-.22.18-.2.25-.3.25-.6 0-.38-.2-.63-.6-.73-.04-.06-.07-.1-.1-.12-.2-.24-.4-.33-.74-.33-.3 0-.67.13-.92.3l-.5.37c-.23.15-.38.22-.54.22-.2 0-.34-.13-.34-.35 0-.22.14-.4.37-.46l.47-.15c.17-.06.25-.1.45-.2.1.02.16.02.23.02.3 0 .6-.07.9-.22.08-.04.14-.07.18-.08l.27-.08c.6-.16 1.08-.83 1.08-1.48 0-.74-.48-1.2-1.26-1.2h-.25m18.28.16c.2-.24.44-.4.66-.4.05 0 .16.02.27.05.06 0 .1.02.14.02.06 0 .08-.03.08-.08 0-.04-.02-.13-.05-.2-.04-.08-.06-.14-.07-.18l-.04-.23-.1-.17-.15-.14-.04-.05v-.15c0-.25-.08-.4-.3-.54 0 0-.03-.03-.06-.05l-.02-.07c-.05-.2-.08-.32-.1-.37-.03-.06-.1-.15-.2-.3-.13-.16-.22-.3-.27-.43-.04-.1-.07-.13-.14-.13-.1 0-.2.13-.23.28 0-.03-.03-.05-.04-.06l-.12-.1-.2-.12c-.1-.06-.15-.1-.17-.13l-.12-.1c-.02-.03-.04-.05-.06-.05-.06 0-.12.1-.17.27l-.1.33c-.03.1-.05.2-.05.34 0 .18.02.24.08.38-.2-.02-.27-.04-.38-.08-.03 0-.07-.02-.1-.02s-.05.03-.05.07c0 .02.02.1.04.15l.14.36c.12.28.46.53.73.53.07 0 .15-.02.27-.06.07-.02.12-.03.16-.03.12 0 .22.1.22.2 0 .06-.04.12-.1.14 0 .02-.13.06-.37.13-.16.05-.25.1-.45.34-.14.17-.2.22-.25.22-.04 0-.06-.04-.06-.1v-.19c0-.28-.08-.56-.3-.95l-.28-.53c-.14-.26-.2-.45-.2-.64 0-.22.1-.4.2-.44l.17-.04c.02 0 .03 0 .05-.03.02-.02.03-.04.03-.06 0 0 0-.05-.04-.1-.02 0-.08-.1-.2-.23-.17-.23-.3-.32-.5-.4-.13-.3-.34-.47-.7-.6l-.05-.07c-.12-.22-.4-.42-.57-.42h-.04c-.04-.2-.17-.4-.38-.54-.14-.1-.22-.16-.24-.18 0 0-.03-.04-.05-.1-.05-.1-.1-.14-.15-.14-.12 0-.2.1-.27.3-.04-.02-.07-.04-.1-.06-.1-.08-.17-.12-.2-.13-.04-.02-.16-.06-.36-.1-.25-.07-.48-.18-.53-.27l-.1-.16-.03-.02c-.05 0-.1.08-.14.17-.05.22-.1.44-.1.6 0 .36.13.6.5 1v.08c0 .58.46.97 1.1.97h.1l.37-.02h.03c.2 0 .37.07.57.23.26.22.33.35.33.58 0 .08-.02.16-.1.43-.05.18-.08.34-.08.5 0 .43.32.97.75 1.27.1.08.2.18.2.24 0 .03-.02.05-.03.05-.03 0-.08-.02-.14-.08-.05-.04-.13-.1-.25-.16l-.17-.07-.18-.07c-.05-.03-.08-.06-.08-.1 0-.02 0-.05.02-.1.02-.03.02-.05.02-.07 0-.03-.02-.08-.05-.13l-.15-.24c-.14-.24-.24-.34-.43-.42-.12-.34-.3-.52-.53-.55-.2-.4-.38-.54-.73-.58-.06-.15-.14-.28-.32-.48-.08-.1-.12-.15-.14-.18-.08-.15-.1-.16-.13-.16-.04 0-.15.07-.23.16-.04.04-.07.08-.1.13l-.1.16c-.02.07-.05.1-.1.1h-.06l-.22-.04c-.14-.02-.35-.14-.42-.25l-.12-.18c-.02 0-.04-.03-.05-.03-.1 0-.17.2-.17.54 0 .3.05.5.15.65l.3.4c.04.06.06.1.06.16 0 .05-.02.1-.05.14-.07.07-.13.1-.18.12l-.22.03c-.04 0-.06.02-.06.04 0 0 .02.03.04.06.07.1.16.17.26.23.26.15.43.2.6.2.2 0 .38-.05.56-.17l.3-.2c.05-.03.1-.04.15-.04.14 0 .25.07.35.26.1.2.13.33.13.5 0 .38-.28.67-.67.67-.18 0-.37-.07-.55-.2-.04-.05-.08-.1-.1-.13l-.08-.2c-.02-.03-.05-.06-.07-.06-.05 0-.17.15-.27.35-.05.1-.1.22-.15.37-.06.2-.1.36-.1.52l.03.27c-.15.23-.2.4-.2.66 0 .1.02.16.08.36-.1.14-.1.25-.1.46v.13l.03.14.02.13c-.1.13-.14.22-.24.68-.06.26-.1.37-.14.44-.02.02-.03.04-.03.05 0 .07.14.12.3.12h.15c-.03.1-.04.12-.04.2 0 .13.03.28.08.42.06.15.07.2.07.25 0 .12-.02.25-.05.32l-.08.2c-.02.06-.03.1-.03.12 0 0 0 0 .05 0 .2 0 .6-.2.9-.5.3-.3.4-.52.4-.96v-.23c.28-.24.4-.45.4-.67 0-.17-.05-.28-.2-.43-.3-.28-.35-.43-.35-.8 0-.55.16-.85.47-.85.27 0 .48.3.52.72l.02.4c0 .1.02.23.05.38.02.1.03.22.03.28 0 .14-.1.3-.37.64-.3.34-.4.53-.4.8 0 .32.23.56.53.56.08 0 .12-.02.2-.06 0 .18.02.2.12.47.1.2.17.35.2.35s.05-.03.08-.05c.04-.05.1-.1.13-.12.06-.04.1-.07.1-.07.02-.02.05-.05.1-.1.06.24.13.35.32.54.15.14.2.2.23.2.02 0 .05-.03.07-.07l.13-.16.18-.2c.07-.08.1-.14.13-.33l.1.06.17.1c.03.02.07.04.13.08.02.02.05.04.06.04.02 0 .04-.03.05-.08l.06-.24.14-.27c.04-.1.05-.15.05-.27v-.07h.07c.2 0 .38-.25.38-.54 0-.37-.3-.85-.7-1.1-.02-.14-.03-.2-.03-.3 0-.82.22-1 1.5-1.2.32-.04.6-.1.86-.17.06-.02.33-.1.84-.28.3-.1.48-.14.63-.14.15 0 .24.05.24.13 0 .15-.2.28-.85.53l-.9.36c-.94.35-1.38.92-1.38 1.76 0 .97.73 1.7 1.7 1.7.37 0 .73-.08 1.25-.27.66-.25.7-.26.77-.26.1 0 .18.1.2.27.02.17.06.24.15.24.13 0 .27-.12.37-.32.1-.17.14-.37.14-.54 0-.35-.2-.58-.52-.65-.22-.3-.5-.43-.84-.43-.42 0-.63.08-1.34.53-.26.16-.37.2-.56.2-.25 0-.43-.16-.43-.37 0-.2.15-.32.5-.4.2-.07.24-.08.35-.2.08.03.12.04.17.04.33 0 .76-.2 1.1-.5.66-.2 1.23-.9 1.23-1.48 0-.65-.56-1.23-1.18-1.23-.17 0-.5.05-.82.12" filter="url(#f)"/><path fill="#fddd04" d="M75.5 573.9c-.04.13-.05.2-.05.26v.08l.04.17v.14c0 .15-.02.25-.07.32l-.13.17c-.04.05-.08.12-.1.2-.02.04-.03.07-.03.1s.03.06.08.06c.03 0 .04 0 .13-.07.04-.02.08-.03.1-.03.07 0 .1.1.1.28 0 .2 0 .3-.06.36l-.16.18-.13.12c-.04.02-.06.06-.06.1 0 .03.04.06.1.06.03 0 .13-.02.22-.05h.04c.04 0 .06.02.06.08v.04l-.04.22-.06.22c-.02.07-.03.1-.08.1l-.03-.02-.27-.05h-.04c-.35 0-.72.3-.83.65l-.2.7c-.07.2-.23.4-.5.63-.1.07-.17.1-.22.1l-.2.03c-.03 0-.05.03-.05.06 0 .04.04.06.13.06l.35-.03c.12 0 .3-.06.56-.15.32-.1.53-.15.7-.15.53 0 .85.28.85.76 0 .33-.18.7-.44.93-.15.14-.3.24-.35.24-.02 0-.04-.03-.04-.06V580.57c0-.05-.02-.1-.06-.1-.05 0-.1.08-.18.22-.2.4-.52.66-.84.66-.06 0-.1-.02-.1-.06 0-.02.02-.07.05-.15l.1-.2c0-.04.02-.07.02-.08 0 0-.02-.03-.04-.03-.04 0-.12.05-.17.1l-.16.17-.13.2c-.1.17-.2.25-.44.37-.13.07-.2.1-.25.14-.05.03-.1.05-.13.05-.04 0-.05-.02-.05-.06 0-.04 0-.08.04-.12.08-.12.1-.18.1-.2 0-.04 0-.07-.04-.07-.08 0-.25.17-.4.4-.12.18-.2.4-.2.6 0 .44.34.77.78.77.23 0 .53-.1.8-.26l.5-.3c.16-.1.4-.18.56-.18.07 0 .2.02.3.05.06 0 .1.03.14.05.03.02.05.04.05.06 0 .02-.02.04-.04.05l-.06.02-.24.04c-.06 0-.15.03-.28.1-.28.12-.45.2-.52.26-.18.1-.3.18-.35.2-.08.02-.13.06-.13.1 0 .03.02.04.05.04.03 0 .07 0 .1-.04.16-.1.3-.15.4-.15l.45-.14c.22-.08.55-.15.7-.15.2 0 .34.17.34.36 0 .12-.06.3-.17.46-.02.03-.05.05-.07.05-.04 0-.06-.03-.06-.08v-.1l.02-.12c0-.14-.1-.25-.2-.25-.05 0-.1 0-.17.04l-.68.22c-.58.17-.84.23-1.13.23-.82 0-1.44-.56-1.44-1.3 0-.84.6-1.38 2.04-1.87 1.43-.5 1.63-.6 1.63-.98 0-.2-.2-.4-.45-.4-.1 0-.18 0-.26.02-.04 0-.28.07-.7.17-.44.1-.83.15-1.32.15-1.03 0-1.6-.2-2.1-.67-.12-.12-.16-.14-.3-.14l-.07.02H69.9c-.12 0-.2-.05-.3-.18-.1-.18-.17-.27-.17-.3-.03-.03-.08-.05-.12-.05-.1 0-.15.06-.25.32-.05.12-.13.23-.22.3l-.2.2c-.05.03-.07.06-.07.08 0 .03.02.06.05.1.1.15.14.2.15.27.03.14.04.15.1.15.06 0 .08-.06.08-.3 0-.07.03-.17.1-.3l.1-.24c.02-.03.05-.05.1-.05.1 0 .24.25.28.52.04.23.06.3.1.3.03 0 .05 0 .06-.02 0-.02.04-.08.1-.2.02-.05.07-.1.13-.15.05-.05.1-.07.1-.08h.03c.08 0 .1.06.13.26v.25l-.02.1c0 .08.02.12.06.12.02 0 .05-.02.08-.04l.1-.1c.07-.08.14-.1.2-.1.1 0 .15.02.15.08 0 .05-.02.1-.1.24l-.07.14c-.08.16-.15.22-.23.22h-.1l-.13-.06c-.04-.02-.07-.03-.08-.03-.02 0-.04.02-.04.05 0 .1.06.24.18.42.1.14.14.42.17.83.04.55.1.9.2.9.04 0 .06-.04.06-.16l-.02-.13v-.1c0-.1.02-.18.05-.18.1 0 .2.12.28.34.04.1.06.17.06.22v.05l-.22.4-.2.06c-.05 0-.08.03-.08.04v.26l-.03.13-.04.1-.06.1c-.23-.12-.34-.2-.42-.3-.08-.12-.13-.16-.17-.16-.03 0-.05.03-.05.06 0 .02 0 .08.03.17v.06c0 .22-.13.44-.36.6l-.06-.1-.06-.1-.13-.15c-.03-.04-.06-.12-.1-.2 0-.05-.02-.1-.02-.13v-.05c0-.1 0-.1-.04-.1h-.03l-.06.1-.12.13-.18.12-.1.07c0-.04-.02-.07-.03-.1-.03-.07-.04-.13-.05-.16v-.17l-.02-.2v-.02c0-.1-.02-.13-.07-.13-.02 0-.08.02-.13.05-.04.03-.1.05-.15.05-.16 0-.27-.12-.27-.3 0-.2.07-.4.18-.54l.14-.17c.04-.05.1-.1.1-.07l.03.22-.03.18v.08c0 .07.02.1.06.1.06 0 .1-.05.13-.23l.1-.38.08-.5c.02-.13.06-.27.13-.4.1-.2.15-.33.18-.38.12-.15.13-.17.13-.2s0-.05-.03-.05c-.02 0-.06 0-.1.02-.03.02-.07.03-.12.04h-.08c-.17 0-.2-.13-.2-.83 0-.43.08-1 .2-1.3l.2-.55c.05-.1.07-.18.07-.26 0-.77-1.02-1.97-2.14-2.52-.4-.2-.54-.4-.57-.86v-.14c.15.1.22.1.34.15.32.08.38.12.42.27l.04.14c0 .05.04.07.28.2.08.04.14.1.17.13.04.08.08.13.1.13.04 0 .05-.02.05-.04v-.05l-.1-.3-.02-.07c0-.22.12-.4.35-.52.03.25.06.33.13.44l.2.3c.07.1.1.24.1.45 0 .1 0 .24-.02.32v.1c0 .04.02.07.06.07.04 0 .07 0 .07-.03l.05-.2c0-.03.06-.06.1-.06.1 0 .24.13.38.37.05.1.08.2.08.28v.15l-.04.15v.03c0 .08.03.13.1.13 0 0 .03 0 .04-.02l.06-.23c.02-.08.08-.14.13-.14.06 0 .2.12.26.26.06.12.1.26.1.42 0 .23.02.3.1.3.02 0 .05-.02.05-.03l.05-.15c.02-.05.05-.08.08-.08.04 0 .16.13.24.26.02.04.03.07.03.1 0 .04-.03.1-.1.14-.1.1-.1.1-.1.24 0 .15 0 .2.1.38.05.1.1.17.14.25.13.26.18.33.23.33.04 0 .08-.04.08-.1 0-.02 0-.05-.03-.08-.02-.06-.04-.1-.04-.12 0-.05.04-.08.08-.08.05 0 .1.02.2.06 0 .02.1.06.28.12l.35.13c.04 0 .1.02.2.02.06 0 .12 0 .2-.02.1-.03.2-.05.23-.05.1 0 .18.1.18.18 0 .07-.07.2-.16.32-.04.04-.06.07-.06.1l.02.03c0 .03.03.05.05.05.07 0 .24-.18.4-.4.9-1.44 1.22-1.78 1.83-1.97.6-.2.78-.33.78-.7 0-.2-.1-.43-.33-.75-.46-.63-.57-.9-.57-1.3v-.1c.05.04.1.05.12.07.08.04.14.07.16.07l.27.05c.1 0 .16.1.16.2v.03l-.04.24v.03c0 .08.04.17.1.22 0 0 .03.02.05.02.03 0 .07-.03.08-.06l.17-.36c.07-.15.15-.22.37-.32M67 581.52c-.08 0-.12-.06-.13-.2l-.03-.2c-.02-.2-.02-.2-.02-.26 0-.15.04-.26.1-.26.07 0 .17.12.23.27.03.1.04.17.04.25 0 .07 0 .15-.04.23-.04.1-.1.17-.16.17" filter="url(#g)"/><path fill="#fddd04" d="M66.05 583.16v-.1c0-.12-.03-.28-.13-.68-.02-.07-.04-.14-.04-.2s.03-.13.1-.23c.02-.05.06-.1.08-.1l.13-.06v-.16c0-.06.02-.14.04-.23.03-.1.04-.2.04-.3 0-.1 0-.13-.02-.13-.04 0-.1.1-.18.27-.1.25-.2.35-.33.35-.12 0-.2-.03-.33-.1.03-.04.06-.07.07-.08 0-.02.02-.08.08-.18l.15-.3c.1-.18.16-.3.18-.32.04-.06.1-.1.15-.15.02 0 .08-.04.17-.1.05-.02.1-.06.1-.1 0-.04-.05-.07-.1-.07l-.15.02H66c-.04 0-.06-.03-.06-.1 0-.3.22-.62.62-.9.04-.04.08-.1.08-.12 0-.04-.03-.07-.08-.07-.02 0-.08.02-.13.04-.03.02-.05.03-.07.03-.05 0-.1-.05-.1-.1 0-.1.07-.23.2-.48.1-.17.2-.3.36-.35l.47-.2c.02 0 .03-.04.03-.06 0-.03-.02-.06-.06-.07h-.1l-.08-.02-.14.02h-.02c-.07 0-.1 0-.1-.04 0-.06.06-.2.16-.35.1-.18.2-.3.27-.3.02 0 .05.03.06.06l.12.23c.02.05.1.12.27.2.1.08.2.1.3.13l.2.03c.04 0 .06.03.06.1v.02l-.03.2-.02.22-.02.2v.23c-.02.06-.03.1-.07.1-.02 0-.06-.05-.1-.1-.16-.24-.27-.33-.45-.33-.56 0-.98 1-.98 2.3 0 .1 0 .25.02.42.03.34.03.42.03.55 0 .57-.12.97-.36 1.2l-.15.16-.1.1m1.36-7.68c-.14.02-.2.04-.3.07-.02 0-.1.04-.2.1-.17.06-.3.1-.4.1-.16 0-.3-.06-.44-.2l.1-.06.2-.16.2-.15c.06-.06.12-.08.18-.08.2 0 .38.1.67.36m4.05-1.9c.06.12.1.15.2.26.3.25.44.44.44.6v.22c0 .13.02.18.1.18.02 0 .04 0 .05-.03l.05-.12c.02-.03.05-.05.1-.05.03 0 .1.05.15.12l.1.15c.05.07.08.14.08.2 0 .05 0 .1-.03.13 0 .02-.03.07-.07.17-.02.05-.04.12-.04.16 0 .07.02.1.08.1.03 0 .06 0 .08-.02l.08-.1c.02-.03.05-.04.08-.04.04 0 .08.03.1.08l.1.17c.02.05.03.08.03.1 0 .03-.04.06-.1.1l-.14.05c-.17.1-.3.38-.3.68 0 .04 0 .08.02.1l.07.2c0 .04.03.1.03.16 0 .1-.04.22-.1.33-.1.12-.14.2-.15.22-.06.15-.1.2-.14.2h-.06l-.07-.06-.1-.06-.14-.17-.15-.06c-.08-.04-.16-.23-.16-.4 0-.26.03-.33.4-.96.13-.24.2-.44.2-.6 0-.43-.38-.74-1.15-.92l-.5-.12c-.35-.08-.56-.33-.64-.74.15.07.2.1.47.1l.15-.02h.03c.15 0 .16 0 .25.14.1.14.2.23.35.3l.17.07.14.06h.05c.04 0 .06 0 .06-.03 0-.04-.03-.1-.1-.18-.12-.14-.16-.25-.16-.4 0-.1.02-.17.1-.28" filter="url(#h)"/><path fill="#fddd04" d="M70.13 575.2c.12-.08.24-.2.32-.3.1-.12.1-.14.2-.14.05 0 .1 0 .16.03h.1c.18.04.24.07.24.1s-.02.07-.05.1l-.13.1-.12.1c-.07.07-.22.12-.34.12-.12 0-.2-.02-.37-.12m3.4-.57h.07l.1.02h.13c.24 0 .46.18.46.4 0 .06-.08.1-.2.1-.28 0-.46-.16-.57-.52m21.57-.73c-.03.1-.03.15-.03.2v.14c.03.2.04.3.04.4 0 .1 0 .15-.06.22l-.13.17c-.07.1-.1.2-.1.28 0 .07 0 .1.05.1h.05c0-.02.04-.04.1-.07.04-.02.07-.03.1-.03.06 0 .1.1.1.3 0 .27-.06.4-.22.52l-.14.12c-.03.02-.05.05-.05.08 0 .05.02.1.07.1.03 0 .07-.02.12-.04l.1-.03h.05c.04 0 .06.02.06.08v.04l-.03.22c-.03.22-.07.3-.14.3H95l-.26-.05h-.04c-.33 0-.72.3-.82.65l-.2.7c-.06.2-.24.4-.5.63-.1.07-.17.1-.23.1l-.18.03c-.04 0-.06.03-.06.05 0 .06.04.08.12.08.27 0 .55-.06.93-.18.35-.1.54-.15.7-.15.53 0 .85.27.85.72 0 .23-.08.52-.2.7-.1.16-.28.32-.5.46-.03.03-.06.04-.08.04-.03 0-.05-.03-.05-.06V580.57c0-.05-.02-.1-.06-.1-.05 0-.1.08-.17.22-.2.4-.5.66-.83.66-.07 0-.1-.02-.1-.07 0-.03 0-.08.04-.14.04-.05.07-.1.1-.2 0-.03.02-.06.02-.08 0-.02 0-.03-.04-.03-.05 0-.13.05-.18.1-.1.1-.16.17-.16.17l-.14.2c-.1.16-.22.27-.42.37l-.26.14c-.05.03-.1.05-.13.05-.04 0-.05-.02-.05-.05 0-.03 0-.07.04-.12.06-.08.1-.17.1-.2 0-.05-.02-.07-.05-.07-.07 0-.2.14-.4.4-.12.18-.2.38-.2.6 0 .43.35.77.8.77.2 0 .5-.1.77-.26l.5-.3c.2-.1.43-.18.58-.18.1 0 .1 0 .3.05.06 0 .1.03.14.05.02 0 .04.04.04.06 0 .04-.03.06-.1.07-.23 0-.72.2-1.04.4-.18.12-.3.2-.34.2-.1.04-.15.08-.15.12 0 0 .02.02.05.02l.06-.02.46-.17.44-.14c.22-.08.55-.15.7-.15.2 0 .34.15.34.35 0 .1-.02.2-.06.3-.07.1-.15.22-.2.22-.03 0-.05-.04-.05-.1v-.07l.03-.13c0-.14-.08-.24-.2-.24-.05 0-.1 0-.17.04l-.7.22c-.58.18-.8.23-1.1.23-.83 0-1.45-.56-1.45-1.3 0-.84.58-1.36 2.06-1.87 1.43-.5 1.62-.6 1.62-1 0-.2-.2-.38-.46-.38-.1 0-.18 0-.25.02-.06 0-.3.07-.7.17-.45.1-.82.15-1.32.15-1.04 0-1.54-.16-2.1-.67-.1-.1-.16-.14-.3-.14l-.07.02h-.17c-.12 0-.2-.05-.3-.18l-.15-.3c-.03-.03-.07-.05-.13-.05-.1 0-.16.06-.26.32-.06.13-.13.24-.2.3l-.23.2c-.04.03-.06.06-.06.08 0 .02.02.06.06.1.03.04.06.1.1.15.02.06.04.1.04.12v.1c.02.03.05.05.1.05.06 0 .07-.05.07-.3 0-.07.03-.17.08-.3l.12-.24c.02-.03.05-.05.1-.05.1 0 .24.25.28.52.03.23.05.3.1.3.04 0 .06-.03.15-.2.03-.07.07-.12.13-.17.05-.04.1-.07.12-.08.1 0 .13.06.15.26v.25l-.02.1c0 .08.02.12.06.12.03 0 .06-.02.1-.04l.1-.1c.06-.08.13-.1.2-.1.1 0 .15.03.15.1 0 .04 0 .07-.1.22-.02.02-.04.06-.08.14-.1.18-.14.22-.22.22h-.1l-.14-.06c-.03-.02-.06-.03-.08-.03 0 0-.03.02-.03.05 0 .1.05.24.17.42.07.12.13.4.18.83l.05.5c.03.3.07.4.13.4.02 0 .04 0 .04-.02l.03-.16v-.13c0-.15.02-.28.04-.28.04 0 .1.04.17.13.06.07.1.14.12.2.03.12.05.22.05.3 0 .23-.1.34-.43.43-.03 0-.06.02-.06.03l-.02.08v.18l-.02.13-.04.1-.05.1-.08-.04c-.22-.14-.27-.18-.34-.27-.1-.13-.13-.16-.17-.16-.03 0-.05.02-.05.05l.05.17v.03c0 .23-.13.45-.36.62l-.08-.1-.07-.1-.13-.14c-.07-.08-.12-.2-.12-.3v-.08c0-.08 0-.1-.05-.1h-.02l-.08.1-.1.13-.2.12-.1.07c-.1-.22-.1-.25-.1-.53v-.1c0-.1-.03-.15-.08-.15-.02 0-.07.02-.13.05-.04.03-.1.05-.15.05-.17 0-.28-.13-.28-.3 0-.2.04-.33.17-.54.07-.13.18-.24.23-.24 0 0 .02.1.03.22l-.03.18v.08c0 .07.02.1.06.1.05 0 .08-.05.12-.23l.1-.38.07-.5c0-.13.05-.27.12-.4.08-.2.14-.33.17-.38.1-.15.12-.17.12-.2s-.02-.05-.04-.05-.06 0-.1.02c-.03.02-.08.03-.12.04h-.08c-.17 0-.2-.13-.2-.82 0-.44.08-1.02.2-1.3l.2-.56c.05-.1.07-.18.07-.26 0-.77-1.04-2-2.14-2.52-.4-.2-.54-.42-.58-1 .2.08.26.1.37.15.3.08.37.13.4.27l.05.14c.02.05.06.08.28.2.08.04.14.08.17.13.05.08.1.13.12.13.03 0 .05-.02.05-.06v-.02l-.12-.3v-.07c0-.22.1-.4.33-.52.02.06.03.1.04.13.03.15.07.25.1.3l.2.3c.07.1.1.17.1.44l-.03.33v.1c0 .04 0 .07.06.07.04 0 .07 0 .07-.03l.03-.2c0-.03.05-.06.1-.06.1 0 .24.13.38.37.05.1.07.17.07.26 0 .06 0 .2-.02.32v.06c0 .06.02.1.07.1.03 0 .05-.02.05-.03l.08-.23c.02-.08.08-.14.14-.14.16 0 .32.33.34.68 0 .24.04.3.1.3.03 0 .05 0 .06 0l.04-.15c.02-.05.05-.08.08-.08.02 0 .08.04.14.12.04.04.07.08.1.13.02.04.03.07.03.1 0 .06 0 .08-.1.14-.06.06-.1.13-.1.22 0 .14.06.3.25.63.17.3.2.33.24.33.03 0 .05-.04.05-.1 0-.02 0-.05-.02-.08-.03-.06-.04-.1-.04-.13 0-.04.03-.07.07-.07.05 0 .12.02.2.06.04.03.13.07.28.12.2.07.3.1.36.13.07 0 .15.02.22.02.06 0 .12 0 .18-.02.12-.03.2-.05.25-.05.1 0 .17.08.17.17 0 .04-.03.12-.07.18-.05.1-.08.14-.1.15-.04.05-.06.07-.06.1v.03c.02.03.04.05.06.05.1 0 .25-.17.4-.4.82-1.36 1.22-1.78 1.82-1.97.64-.2.78-.32.78-.7 0-.2-.1-.44-.32-.75-.42-.57-.57-.9-.57-1.3v-.1c.05.04.1.05.1.07.1.04.16.07.18.07l.27.05c.08 0 .14.1.14.2v.03l-.02.24v.03c0 .13.06.24.14.24.03 0 .07-.03.08-.06l.17-.36c.07-.15.15-.22.37-.32m-8.62 7.2v-.26c0-.17 0-.24.08-.24.07 0 .18.13.23.27.02.1.04.2.04.3 0 .04 0 .08-.05.18-.06.12-.1.17-.17.17-.1 0-.13-.1-.15-.4" filter="url(#i)"/><path fill="#fddd04" d="M85.66 583.16v-.1c0-.1-.03-.26-.07-.43-.05-.15-.07-.23-.08-.25 0-.06-.02-.12-.02-.2 0-.14.08-.27.18-.33l.12-.06.02-.16c0-.06 0-.14.03-.23.03-.1.04-.2.04-.3 0-.1 0-.13-.03-.13-.04 0-.1.1-.18.27-.1.25-.2.35-.34.35-.12 0-.2-.03-.33-.1.1-.14.18-.26.3-.55.17-.37.24-.44.5-.57.06-.03.1-.07.1-.1 0-.05-.04-.08-.1-.08-.02 0-.1 0-.15.02h-.08c-.04 0-.05-.03-.05-.1 0-.3.23-.63.63-.9.05-.05.08-.1.08-.12 0 0 0-.03-.03-.05-.02 0-.04-.02-.06-.02-.02 0-.07.02-.12.04-.03.02-.06.03-.08.03-.05 0-.08-.05-.08-.13 0-.1.06-.26.18-.45.1-.18.23-.3.35-.35l.47-.2c.03 0 .04-.03.04-.06s-.02-.06-.06-.07h-.08l-.1-.02-.12.02h-.03c-.06 0-.1 0-.1-.04 0-.05.06-.16.17-.35.1-.2.2-.3.26-.3.02 0 .05.03.06.06l.12.23c0 .04.1.1.27.2.1.08.2.12.3.13.25.03.27.05.27.15 0 .05 0 .12-.03.22 0 .05-.02.12-.03.22l-.02.2-.03.23c0 .06-.02.1-.06.1-.02 0-.05-.05-.08-.1-.13-.2-.3-.33-.45-.33-.58 0-.98.94-.98 2.3v.42l.04.5v.17c0 .43-.14.86-.36 1.08l-.14.16-.1.1m1.36-7.68c-.22.04-.26.05-.5.16-.18.07-.3.1-.4.1-.17 0-.3-.05-.45-.18l.1-.07.2-.16.2-.15c.06-.06.12-.08.18-.08.2 0 .38.1.67.36m4.04-1.9c.06.12.1.15.2.26.3.25.44.44.44.6v.22c0 .14.03.18.1.18.03 0 .05 0 .06-.03l.05-.12c.03-.03.06-.05.1-.05.08 0 .13.06.26.27.06.1.08.15.08.2 0 .05 0 .1-.03.13 0 .02-.02.07-.06.17-.02.05-.04.12-.04.16 0 .07.03.1.1.1.02 0 .05 0 .07-.02l.08-.1c.02-.03.02-.04.06-.04.04 0 .1.03.14.08l.08.17c.03.05.04.08.04.1 0 .03-.04.07-.1.1l-.14.05c-.17.08-.3.37-.3.66 0 .03 0 .07.02.13l.06.17c.02.06.04.12.04.18 0 .1-.04.2-.1.32-.08.1-.12.2-.14.22-.06.14-.1.2-.15.2-.03 0-.07-.02-.13-.06l-.1-.06-.15-.17-.15-.06c-.1-.05-.17-.24-.17-.4 0-.22.05-.34.4-.96.14-.26.2-.45.2-.6 0-.42-.43-.78-1.14-.92-.85-.17-1.03-.32-1.13-.86.15.07.2.1.47.1l.15-.02c.16 0 .18 0 .26.14.1.14.2.23.35.3l.18.07.13.06h.06c.03 0 .06 0 .06-.03 0-.04-.04-.1-.1-.18-.1-.12-.17-.25-.17-.35 0-.14.03-.2.1-.33" filter="url(#j)"/><path fill="#fddd04" d="M89.74 575.2c.12-.08.24-.2.3-.3.1-.12.13-.14.23-.14.04 0 .1 0 .15.03h.1c.17.04.23.07.23.12 0 .02-.02.05-.04.08l-.12.1-.12.1c-.07.07-.2.12-.33.12s-.23-.03-.4-.12m3.4-.57h.08l.1.02H93.46c.1 0 .16 0 .2.03.07.05.14.13.2.24.04.05.05.1.05.12 0 .07-.07.1-.18.1-.3 0-.47-.15-.58-.5M74.47 552.4l.06.13.15.16c.13.14.2.33.2.55 0 .1-.03.23-.06.34-.03.07-.05.15-.05.18 0 .06.05.13.1.13.02 0 .05 0 .08-.05l.16-.18c.1-.1.14-.13.26-.15v.14l.02.18c0 .25-.1.53-.23.7-.08.1-.12.18-.12.22 0 .03.03.07.06.07 0 0 0 0 .03-.02.1-.07.15-.1.18-.1.06 0 .1.13.1.27 0 .2-.07.43-.2.6-.07.07-.1.12-.13.14-.02.03-.02.05-.02.07 0 .05.03.08.1.08.03 0 .05 0 .12-.05.03-.02.06-.03.08-.03.08 0 .1.1.1.42v.32c-.02.2-.03.25-.13.25h-.08c-.52 0-.75.33-.9 1.2-.08.63-.32 1.08-.6 1.18-.18.06-.24.1-.24.14 0 .02.05.05.1.05.04 0 .13-.02.2-.05.42-.17.77-.26 1.08-.26.5 0 .9.37.9.84 0 .36-.17.73-.48 1.02-.08.1-.17.14-.26.16h-.08l.02-.17.05-.1v-.06c0-.02 0-.04-.04-.04s-.07.02-.1.05l-.18.28c-.15.22-.48.4-.72.4-.1 0-.14-.03-.14-.1 0-.02.03-.07.06-.1.06-.07.1-.14.1-.18V561c-.02 0-.04-.03-.06-.03-.06 0-.08.02-.3.28-.2.2-.58.42-.78.42-.03 0-.06 0-.08-.03 0 0-.02-.03-.02-.04 0-.03.02-.07.07-.12.07-.06.12-.13.12-.16 0-.02-.03-.04-.06-.04-.05 0-.2.1-.44.3-.4.3-.57.58-.57.92 0 .4.3.73.66.73.2 0 .5-.1.7-.26l.52-.38c.23-.2.52-.3.82-.3.07 0 .13.03.18.05.05.03.08.06.08.07 0 .02-.04.04-.1.05-.18.04-.33.1-.44.2l-.52.4c-.2.14-.33.23-.4.27-.3.15-.34.18-.34.2 0 .03.02.04.06.04.02 0 .06 0 .1-.02l.26-.1c.1-.05.24-.14.44-.28.57-.37.85-.5 1.18-.5.32 0 .55.23.55.53 0 .07-.02.14-.05.2l-.05.1c-.02.04-.05.07-.06.05l-.04-.04-.03-.2c0-.02-.02-.04-.04-.08-.03-.05-.05-.08-.08-.1-.06-.07-.1-.08-.2-.08-.15 0-.34.08-.83.4-.5.3-.96.48-1.3.48-.77 0-1.38-.6-1.38-1.36 0-1.06.64-1.53 2.66-1.97.77-.18 1.1-.4 1.1-.74 0-.32-.25-.5-.65-.5-.12 0-.2 0-.28 0-.07.02-.43.12-1.08.3-.45.13-.96.2-1.4.2-.8 0-1.33-.23-1.7-.74-.04-.06-.08-.1-.1-.1-.03 0-.06.02-.1.04l-.14.12c-.1.08-.27.14-.38.14-.08 0-.15-.03-.22-.1-.05-.03-.1-.06-.1-.06-.07 0-.17.13-.26.3-.1.25-.18.5-.18.72 0 .1.03.18.07.18.04 0 .07-.03.08-.1l.1-.3c.03-.16.13-.3.2-.3.03 0 .1.05.15.13.04.04.07.1.1.14.05.2.07.22.12.22.06 0 .1-.04.14-.23 0-.04.02-.1.06-.18.05-.08.1-.15.13-.2.03-.03.07-.05.1-.05.1 0 .2.16.2.33l-.02.04v.2c0 .07 0 .1.05.1.02 0 .04-.02.07-.05.05-.06.1-.1.18-.15.06-.04.1-.05.15-.05.03 0 .07.02.1.05.03.03.04.06.04.08 0 .03-.03.08-.14.2-.06.05-.14.2-.2.4-.04.1-.08.15-.1.15-.02 0-.05 0-.08-.02l-.14-.05-.1-.05h-.03c-.04 0-.08.03-.08.07 0 .04.1.15.2.25.1.07.14.17.15.28 0 .18.04.32.07.32l.03.37c.02.18.1.53.16.72 0 .03.03.05.04.05.03 0 .06-.07.06-.16v-.17c0-.14 0-.2.05-.2.06 0 .1.06.16.18l.1.25c.02.07.03.14.03.2 0 .2-.13.35-.3.35l-.08-.02c-.04 0-.06-.02-.07-.02-.06 0-.1.06-.1.14v.35l-.05.23v.1l-.1-.05-.12-.1-.17-.13-.12-.12c-.03-.02-.05-.03-.08-.03-.08 0-.1.02-.1.2v.03c0 .13-.05.23-.26.5 0 0-.03.02-.06.05l-.04-.07-.1-.2-.13-.3v-.18c-.02-.05-.04-.1-.06-.1-.02 0-.06.04-.1.08-.16.2-.2.22-.45.3l-.03-.07c-.04-.13-.06-.2-.06-.23V563.2c0-.05-.02-.1-.06-.1 0 0-.03.03-.07.06-.02.03-.07.04-.13.04-.2 0-.32-.1-.32-.28 0-.12.05-.22.24-.5.1-.14.18-.25.22-.25.03 0 .05.06.05.14l-.02.13c0 .06-.02.12-.02.16 0 .06.02.1.05.1.1 0 .2-.28.23-.66l.05-.4c.02-.13.06-.27.13-.4.1-.2.2-.34.28-.4.1-.07.17-.14.17-.18 0-.04-.03-.07-.06-.07 0 0-.06.03-.2.07l-.1.02c-.2 0-.27-.12-.27-.48 0-.44.3-1.07.62-1.33l.5-.38c.23-.2.42-.53.42-.76 0-.3-.34-.6-.92-.82l-.34-.12c-.26-.1-.37-.28-.48-.78.14.04.2.05.3.05h.2c.14 0 .24.07.24.2v.1s.04.05.1.08c.1.05.14.07.14.07l.12.1s.04.02.05.02c.04 0 .06-.03.06-.06 0-.02 0-.05-.02-.1-.03-.08-.04-.2-.04-.35 0-.26.04-.4.17-.58 0 .07.02.1.03.13.02.06.08.15.18.3.16.2.27.48.27.63v.04l-.02.24c0 .05.02.1.05.13.02.02.05.03.07.03.05 0 .07-.03.1-.1s.06-.1.08-.1c.04 0 .1.1.16.2.04.1.05.17.05.23 0 .03-.02.07-.04.13-.02.05-.03.1-.03.12 0 .02 0 .04.04.06.02.03.04.04.06.04.02 0 .04 0 .06-.03l.08-.05c.03-.02.06-.03.1-.03.03 0 .1.05.13.12.1.14.16.25.16.3 0 .02-.02.04-.07.08-.22.15-.36.38-.36.57 0 .03 0 .08.03.14l.1.28c.06.15.1.22.1.22l.02.02c.03 0 .05-.03.05-.1 0-.02 0-.06-.03-.1-.02-.07-.04-.16-.04-.2 0-.08.04-.12.1-.12.06 0 .12 0 .2.04.3.14.56.2.7.2.15 0 .24-.02.4-.12.03-.03.06-.05.1-.05 0 0 .03.03.05.06 0 0 .02.03.02.05 0 .05-.02.1-.07.14-.05.07-.07.1-.07.15 0 .03.03.05.07.05.16 0 .42-.53.67-1.35.2-.65.24-.72.87-1.07.54-.3.74-.6.74-1.08 0-.47-.13-1.07-.4-1.87-.1-.25-.13-.42-.13-.56 0-.1.03-.2.1-.5.05-.13.08-.2.1-.24 0-.03.03-.08.07-.16" filter="url(#k)"/><path fill="#fddd04" d="M72.03 553.9c.06.14.08.17.2.35.17.26.23.4.23.52v.16c0 .16.03.24.1.24.02 0 .04-.02.05-.04l.06-.08c.02-.03.05-.04.08-.04s.08.05.1.1c.1.1.14.26.14.37v.12l-.02.1c0 .07.02.1.08.1.04 0 .06-.02.1-.1.02-.05.05-.08.07-.08.04 0 .08.02.1.06l.1.13.05.1.02.05c0 .03-.03.06-.08.1-.2.14-.3.35-.3.75-.02.3-.04.48-.06.57 0 .02-.07.17-.2.46-.04.1-.08.23-.1.37-.04.1-.07.13-.15.13-.3 0-.5-.24-.5-.57 0-.2.07-.5.22-.85.2-.5.25-.68.25-.86 0-.4-.15-.56-.7-.75-.6-.22-.87-.53-.97-1.1.04.03.08.04.1.05.07.03.12.05.15.05l.17.05c.14.03.26.1.28.2l.04.14c0 .03.03.05.07.07l.1.04.1.05.02-.04-.05-.13c0-.04-.02-.13-.02-.24 0-.23.05-.37.18-.54m-5.64 9.72c0-.06 0-.1 0-.12 0-.04 0-.13-.03-.27l-.02-.22c0-.17.03-.37.1-.54.04-.15.06-.2.06-.24v-.04c0-.05-.02-.08-.04-.08s-.05.02-.1.07c-.12.1-.26.15-.4.15-.04 0-.1 0-.17-.02l.04-.1.16-.4.22-.34.23-.16c.02 0 .05-.03.06-.06.04-.03.05-.05.05-.07 0-.02-.02-.03-.05-.03h-.2c-.04-.02-.06-.04-.06-.06 0-.03.03-.14.1-.3l.1-.32.17-.17.2-.14c.05-.04.1-.1.1-.12 0-.03-.03-.06-.05-.06h-.1c-.04 0-.06-.04-.06-.1 0-.07.07-.22.2-.4.17-.23.28-.3.47-.3h.15c.08 0 .13-.04.13-.1 0-.04-.04-.07-.1-.1-.15-.02-.2-.05-.2-.12 0-.02.02-.06.06-.1l.1-.13c.06-.1.14-.15.2-.15.02 0 .1.02.14.1.1.1.2.2.35.22.35.1.43.13.43.22 0 .03-.02.07-.04.12-.13.2-.17.34-.17.5 0 .14-.04.24-.08.24-.02 0-.06-.04-.1-.1-.08-.12-.22-.2-.36-.2-.37 0-.8.56-1.03 1.3-.05.2-.08.4-.08.58 0 .2.02.42.07.64.07.3.1.48.12.52v.14c0 .26-.24.6-.6.86" filter="url(#l)"/><path fill="#fddd04" d="M67.15 562.15c-.08-.14-.15-.47-.15-.68 0-.12.04-.22.1-.22 0 0 .03.02.05.05l.1.2c.03.05.05.1.1.14.03.06.06.12.06.16 0 .12-.1.28-.25.35m1.15-4.73c.02-.03.04-.05.05-.06.05-.04.08-.07.1-.08.2-.2.22-.23.32-.23s.28.05.4.1c.04.03.07.05.07.07 0 .02-.04.06-.1.12l-.12.1c-.1.1-.22.16-.28.16-.12 0-.25-.05-.44-.18m2.44-1.9c.1-.05.15-.07.2-.1.1-.07.16-.1.18-.12.03 0 .1-.02.16-.02.05 0 .1 0 .13.02l.23.1.2.06c.07.02.1.05.1.08 0 .02-.04.04-.1.06-.06 0-.1.03-.17.05-.25.1-.3.12-.38.12-.2 0-.42-.1-.54-.26m2.66-2.1c.07.17.12.2.35.2.27.03.53.5.53.84 0 .03 0 .06-.02.06s-.04-.02-.07-.04c-.1-.05-.14-.08-.17-.1l-.3-.13c-.2-.1-.4-.36-.4-.57 0-.08.02-.14.07-.26m19.16 2.5l.04.13.04.15c0 .02.05.08.1.17.12.14.18.32.18.53 0 .06-.02.12-.06.2-.02.04-.03.07-.03.1 0 0 0 .03.02.05 0 0 .03.02.04.03.03 0 .07-.03.1-.08.05-.05.1-.08.1-.08.06 0 .1.08.14.2 0 .06.02.1.02.1 0 .05-.04.2-.1.3-.02.04-.03.08-.03.1 0 .04.03.07.06.07.02 0 .07-.03.13-.1.03 0 .06-.03.08-.03.08 0 .13.07.17.23.04.1.05.15.05.17 0 .03-.02.05-.04.05l-.04-.02h-.12c-.2 0-.46.12-.6.28l-.3.35c-.1.15-.26.36-.25.36l-.24.16c-.04.02-.06.06-.06.08 0 .04.04.07.1.07.05 0 .22-.06.54-.2.3-.12.8-.23 1.07-.23.5 0 .92.4.92.9 0 .27-.13.52-.43.87-.05.07-.15.14-.2.14-.02 0-.05-.03-.05-.06s0-.07.03-.12c.02-.04.02-.07.02-.1 0-.05 0-.07-.05-.07-.06 0-.13.1-.2.28-.06.24-.2.38-.5.54-.14.06-.3.12-.35.12-.02 0-.03-.02-.03-.05 0-.05 0-.1.04-.13.05-.07.08-.14.1-.2 0-.05-.04-.08-.07-.08-.06 0-.08 0-.23.25-.08.12-.3.28-.47.35-.06.03-.12.04-.18.04-.04 0-.07 0-.07-.04 0 0 0-.04.04-.1v-.05c0-.03 0-.06-.04-.06-.06 0-.26.15-.4.33-.18.2-.3.44-.3.63 0 .4.4.76.83.76.1 0 .2-.02.26-.06l.36-.2.43-.27c.25-.17.6-.3.8-.3.07 0 .13.02.33.07.1.03.17.07.17.1v.02h-.04l-.23.03c-.12 0-.42.14-.65.3l-.48.3-.43.2c-.02 0-.04.02-.04.04s.02.04.04.04c0 0 .04 0 .12 0l.4-.13c.1-.03.26-.1.5-.22.43-.23.7-.33.92-.33.24 0 .42.16.42.4 0 .07-.02.2-.04.3 0 .04-.03.1-.06.13-.02.02-.04.04-.06.04-.02 0-.04-.04-.04-.1v-.13c0-.2-.07-.26-.28-.26-.18 0-.4.08-.95.3-.5.2-.8.26-1.12.26-.78 0-1.48-.64-1.48-1.38 0-.64.43-1.12 1.3-1.48l.88-.36c.74-.3 1-.53 1-.8 0-.25-.2-.4-.56-.4-.15 0-.34.04-.68.15-.84.25-1.38.36-1.86.36-.78 0-1.33-.2-1.78-.68-.05-.06-.1-.08-.14-.08-.04 0-.07 0-.15.06-.08.05-.17.08-.23.08-.08 0-.2-.07-.25-.14l-.1-.14c-.04-.04-.07-.06-.1-.06-.08 0-.2.13-.3.28-.05.1-.08.2-.1.27-.02.07-.02.18-.02.3v.2l.04.2c0 .1.02.16.03.18 0 .02.03.04.05.04.06 0 .08-.05.08-.17v-.11c0-.3.1-.58.24-.58.1 0 .2.18.27.54.02.08.05.12.08.12.04 0 .07-.05.1-.2.02-.1.1-.25.16-.35.04-.05.08-.08.12-.08.08 0 .14.13.18.43.02.12.05.2.1.2 0 0 .03-.02.04-.03 0 0 .03-.05.07-.12.02-.04.06-.08.1-.1.06-.03.1-.05.13-.05s.07.02.1.05c.05.04.07.07.07.08 0 .03-.02.06-.06.1-.07.08-.12.18-.2.35-.03.12-.07.2-.08.24-.02.03-.04.06-.06.07h-.09s-.08-.03-.2-.07H89c-.03 0-.05 0-.05.04 0 .03.04.08.1.12.25.2.4.57.47 1.08.04.32.08.44.2.62.04.04.06.07.08.07.04 0 .06-.04.06-.1 0-.04 0-.1-.04-.14 0-.05-.02-.1-.02-.14v-.04l.02-.07.12.05.13.14c.06.1.12.3.12.43 0 .1-.02.17-.08.25-.07.07-.1.1-.16.1h-.14c-.07 0-.1.02-.1.06l.02.08v.1l-.05.28-.06.12-.03.1-.06-.05-.16-.08c-.04-.02-.08-.06-.12-.12-.15-.18-.16-.2-.22-.2-.04 0-.06.03-.06.06v.04c.02.1.03.17.03.22 0 .18-.12.46-.28.6-.22-.2-.34-.43-.34-.65v-.13c0-.05 0-.07-.04-.07-.03 0-.06.02-.08.05l-.13.17s-.06.05-.17.13c-.02 0-.04.03-.08.07l-.04-.1c-.1-.2-.14-.32-.15-.5-.02-.13-.03-.17-.06-.17-.02 0-.04 0-.07.02-.16.1-.17.1-.24.1-.2 0-.32-.14-.32-.34 0-.06.06-.18.14-.34.1-.17.24-.32.3-.32.03 0 .03 0 .03.06V562.5l-.03.14v.02c0 .04 0 .05.04.05.1 0 .18-.26.25-.82.06-.5.2-.82.4-1.02.07-.05.1-.1.1-.1 0-.03-.02-.05-.04-.05-.05 0-.1.03-.15.07-.04.02-.08.03-.12.03-.1 0-.22-.12-.24-.25l-.1-.6-.08-.84c0-.15 0-.37.06-.62.05-.23.08-.4.08-.5 0-.63-.4-1.13-1.04-1.32l-.67-.2c-.42-.13-.63-.4-.7-.92.12.1.15.1.32.13l.2.03c.08.02.14.03.18.05 0 .02.05.06.1.12l.2.2c.06.08.12.12.16.12.03 0 .05-.04.05-.07 0-.04-.03-.1-.07-.18-.05-.07-.08-.17-.08-.27 0-.13.04-.22.17-.4.02.05.03.1.04.12.03.03.08.1.17.22.15.2.25.38.25.47 0 .15.02.2.06.2.04 0 .04 0 .06-.1 0-.02 0-.04.03-.06.02-.02.05-.04.06-.04.02 0 .05.02.1.04.06.05.12.1.16.15.03.04.06.1.1.18.03.1.04.16.04.2v.13c0 .05.02.08.04.08s.08-.06.1-.12c.03-.04.05-.05.08-.05.04 0 .07.03.1.05.13.13.2.28.2.4v.2l-.04.15c0 .05.02.07.04.07.05 0 .1-.06.18-.22.03-.07.06-.1.1-.1.04 0 .08.03.18.18l.1.13c.02.03.03.07.03.1 0 .04 0 .08-.04.1l-.07.14c0 .02-.02.06-.02.1 0 .15.06.3.17.5.07.13.12.22.13.26.02.04.04.06.06.06.02 0 .04-.02.04-.05v-.28c0-.05.03-.07.08-.07.03 0 .07 0 .1.03l.27.1c.06 0 .14.05.24.1.4.23.53.28.73.28.13 0 .28-.05.5-.15.05-.03.08-.04.1-.04.04 0 .07.02.1.05.02.04.03.07.03.1s0 .08-.04.12c-.03.06-.06.13-.06.16s.02.05.05.05c.03 0 .07-.03.08-.06.04-.05.12-.2.25-.42.2-.35.45-.6.67-.64l.46-.1c.14-.03.18-.08.18-.26 0-.33-.15-.62-.42-.8l-.38-.23c-.14-.08-.25-.32-.25-.52 0-.13.02-.36.06-.54l.08.07.17.12.17.16.1.23.07.22c.04.1.1.17.12.17.04 0 .06-.07.06-.17v-.07c0-.15.02-.22.14-.45" filter="url(#m)"/><path fill="#fddd04" d="M86.34 552.73c.13.12.15.13.5.2.3.06.43.2.5.47.04.2.07.25.25.36.06.03.1.07.13.1.02.03.04.05.05.05.02 0 .04-.02.04-.04 0-.04-.02-.1-.07-.18-.03-.05-.04-.1-.04-.2 0-.16.04-.28.14-.42.06.14.1.18.26.3.2.15.3.3.33.7 0 .15.04.24.1.24 0 0 .02-.02.03-.04l.08-.15c0-.02.03-.03.06-.03s.1.03.13.08l.15.13c.06.06.1.2.13.45.02.08.05.14.08.14.02 0 .04-.02.05-.05l.07-.2c0-.06.04-.1.07-.1.02 0 .05.02.1.06.04.05.1.1.13.16.05.06.08.14.08.2v.18c0 .04 0 .08.04.12.02.03.04.04.04.04.03 0 .05-.02.06-.05l.04-.12c.02-.04.06-.07.1-.07.06 0 .1.05.2.17.02.03.04.06.06.08.05.06.08.1.08.14 0 0-.02.04-.05.07-.15.2-.23.43-.23.7 0 .35.13.65.54 1.2.24.32.38.63.38.84 0 .06-.03.1-.1.1-.02 0-.06-.03-.1-.05-.05-.03-.08-.04-.1-.04 0 0-.04 0-.06.04l-.07.08-.05.1c-.02.02-.05.04-.08.04 0 0-.04 0-.08-.02h-.1c-.12-.02-.16-.06-.16-.16v-.11c0-.1-.08-.23-.2-.33l-.2-.18c-.23-.22-.42-.57-.42-.8 0-.1.03-.27.1-.46.08-.32.12-.46.12-.57 0-.5-.78-1.17-2.2-1.9-.73-.37-.9-.6-.9-1.08v-.2m-.7 11.03v-.26c0-.07 0-.1 0-.18-.04-.15-.05-.2-.05-.24 0-.2.02-.3.14-.5.06-.12.1-.26.1-.36 0-.04 0-.07-.04-.07-.02 0-.04.02-.05.04l-.1.1c-.05.1-.12.12-.3.12h-.17c.07-.2.1-.26.12-.38.1-.34.1-.37.3-.54.18-.17.2-.2.2-.25 0-.05-.04-.08-.08-.08H85.6c-.05 0-.1-.1-.1-.2 0-.08.03-.2.07-.28.02-.07.05-.1.07-.13l.1-.1c.03-.03.05-.07.05-.1 0-.07-.04-.1-.08-.1-.02 0-.05 0-.1.02-.02 0-.04.02-.06.02-.05 0-.07-.03-.07-.1v-.15l.07-.27c0-.06.05-.13.1-.2.07-.06.12-.1.17-.13.13-.05.2-.1.2-.1.03 0 .04-.04.04-.07 0-.04-.03-.08-.07-.08 0 0-.04 0-.1.02h-.1c-.1 0-.12 0-.12-.07 0-.06 0-.1.02-.17l.05-.17c.04-.17.1-.27.16-.27.03 0 .05.02.1.04.14.12.45.22.64.22.2 0 .42-.02.5-.05.05-.02.1-.02.1-.02.03 0 .04.02.04.1l.02.2.04.33.03.24v.14c-.03-.03-.06-.06-.08-.08-.2-.16-.3-.22-.5-.22-.47 0-.75.55-.75 1.5 0 .4.06.94.17 1.57.02.14.03.23.03.3 0 .34-.22.68-.6.92" filter="url(#n)"/><path fill="#fddd04" d="M86.37 561.4l.1.1.08.08c.08.07.15.2.15.32 0 .05-.02.1-.04.15-.04.08-.1.15-.15.15-.03 0-.06-.1-.07-.22l-.02-.16-.02-.16v-.26m-.94-4.3c.1-.04.13-.06.24-.2.15-.16.23-.2.42-.2.05 0 .1 0 .15.02l.14.04.1.04c.04 0 .08.03.08.05 0 .02-.1.1-.2.18-.1.05-.18.1-.27.14-.08.05-.15.07-.23.07-.14 0-.3-.05-.43-.14m1.43-3.08c.2.08.25.1.46.23.2.1.3.16.3.17.2.1.3.17.3.23 0 .07-.13.1-.33.1-.4 0-.74-.27-.74-.6V554m4.28 2.67c.15.02.2.06.27.06h.2c.02 0 .06.03.12.08.04.02.1.06.15.1.2.15.22.15.22.2 0 .06-.1.1-.27.1-.33 0-.53-.17-.7-.55" filter="url(#o)"/><path fill="#231f20" d="M69.6 582.02l-.06.14v.1c0 .07.03.12.15.17.2.07.26.1.35.2l.1.1h.02c.03 0 .05-.04.05-.08 0-.14-.14-.38-.3-.64-.1-.17-.15-.3-.2-.3-.04 0-.1.1-.1.2l-.03.12m-.63.42l.18-.1c.05-.02.08-.06.08-.1v-.07c-.04-.08-.02-.18-.02-.22 0-.2-.14-.2-.2-.2-.04 0-.02.04-.1.13l-.23.26c-.07.08-.13.27-.16.47v.04c0 .06.03.08.07.08.03 0 .08-.02.12-.05l.27-.23m.63-1.1l.17.1h.1c.12 0 .15-.05.15-.18 0-.18-.12-.26-.33-.8-.1-.22-.12-.36-.26-.36-.16 0-.27.13-.4.42l-.13.34c-.1.24-.13.38-.13.47 0 .08.06.13.16.13.05 0 .1 0 .15-.04.08-.05.12-.08.13-.08h.4m19.64.64l-.1.18v.1c0 .08.03.12.17.17.14.04.3.12.35.2l.12.1c.04 0 .06-.04.06-.08 0-.14-.12-.35-.27-.6-.1-.2-.18-.34-.22-.34-.05 0-.1.1-.12.2l.02.08m-.66.46l.18-.1c.05-.03.08-.07.08-.12v-.05l-.06-.2-.03-.2c0-.02-.03-.04-.05-.04-.06.02-.17.06-.24.15l-.16.26c-.02.03-.1.13-.14.3-.02.06-.03.12-.04.17v.04c0 .06.02.08.06.08.03 0 .08-.02.12-.05l.28-.23m.64-1.1l.16.1.06.02c.12 0 .25-.1.25-.23 0-.1-.15-.17-.2-.32l-.12-.46c-.08-.22-.2-.34-.33-.34-.16 0-.28.13-.4.42-.05.14-.1.25-.13.34-.1.2-.13.36-.13.44 0 .1.04.16.14.16.05 0 .1 0 .15-.04.07-.05.1-.07.1-.08H89.22m-20.5-18.54l-.06.15v.05c0 .02 0 .03.03.03.02 0 .07-.03.12-.07.04-.03.07-.03.14-.05.3-.06.35-.12.35-.25v-.18l-.04-.16c-.02-.05-.04-.08-.07-.08-.03 0-.2.13-.24.17l-.1.13-.15.27m1.28-.27l-.13-.24c-.04-.05-.06-.07-.06-.07h-.02c-.05 0-.1.13-.1.26l-.03.2c0 .1.06.13.2.15.1.02.17.04.2.06.1.08.16.12.17.13h.02c.03 0 .05-.02.05-.05v-.02l-.1-.17-.22-.27m-.27-.7l.18.07c.03.02.05.02.08.02.08 0 .14-.06.14-.17 0-.12-.1-.28-.22-.5-.14-.26-.25-.43-.35-.43-.15 0-.37.24-.58.64-.05.1-.08.2-.08.3 0 .13.06.2.17.2.05 0 .1 0 .12-.04l.1-.06c.08-.05.17-.08.27-.08.06 0 .12 0 .18.04m18.26 1.27l.15-.1c.1-.06.16-.1.22-.12.16-.07.22-.1.22-.15 0-.03 0-.08-.02-.12-.02-.04-.03-.1-.03-.14-.03-.14-.1-.18-.17-.18s-.15.1-.26.32c-.05.1-.13.28-.17.42v.04c0 .02 0 .04.04.04h.02m1.42-.38l-.24-.24c-.1-.1-.1-.2-.1-.23-.02-.02-.05-.03-.08-.03-.08 0-.12.04-.12.1l-.02.18v.18c0 .08.03.12.1.13l.2.07.24.12c.07.02.1.03.1.03.03 0 .05-.03.05-.06 0-.02 0-.04 0-.07l-.12-.18m-1.06-.7l.16-.13c.04-.03.1-.04.14-.04.06 0 .16.02.25.06l.13.07c.03 0 .06 0 .1 0 .07 0 .14-.08.14-.2 0-.15-.12-.3-.28-.54l-.1-.24c-.1-.13-.17-.18-.24-.18-.13 0-.2.07-.37.44-.14.27-.2.43-.2.56 0 .1.06.2.15.2.03 0 .07 0 .12-.03" filter="url(#p)"/><path fill="#fddd04" d="M69.37 581.04h-.13c-.02 0-.04 0-.06-.03l-.02-.05.06-.25.04-.22c.02-.12.07-.17.16-.17.1 0 .16.08.17.2l.02.24c0 .16.02.24.02.24 0 .03-.02.05-.04.07 0 0-.03.02-.05.02l-.18-.03m19.6 0h-.1c-.03 0-.05 0-.07-.03-.02-.02-.03-.04-.03-.05l.05-.25.05-.22c.02-.12.04-.17.13-.17.1 0 .2.08.2.2l.02.24c.02.16.03.24.03.24 0 .03-.02.05-.04.07 0 0-.02.02-.04.02l-.18-.03m-19.5-19.47l-.13.02h-.02c-.06 0-.1-.05-.1-.13 0-.1.1-.3.2-.45.02-.03.05-.04.08-.04.07 0 .12.12.16.33l.03.17v.03c0 .07-.03.1-.08.1h-.03l-.13-.03m19-.14v-.2c0-.1.08-.18.15-.18.1 0 .17.15.2.37.02.1.03.12.03.14 0 .08-.03.1-.13.1h-.18c-.07 0-.1-.05-.1-.18v-.05" filter="url(#q)"/><path fill="#231f20" d="M76.62 571.6h1.12c.12.28.3.4.56.4.26 0 .43-.12.58-.4h.9c.12.26.34.4.6.4.26 0 .5-.17.58-.4h.85c.13.26.33.4.56.4.24 0 .43-.1.57-.32l.04-.07h1.18v-5.43h-1.03v-2.1h-1.2v2.1h-3.06v-2.1h-1.2v2.12H76.6v5.4" filter="url(#r)"/><path fill="#ef2f51" d="M77.06 566.6h6.7v4.57h-6.7v-4.58z" filter="url(#s)"/><path fill="#fddd04" d="M77.76 570.12c-.18 0-.32-.14-.32-.32 0-.17.14-.32.32-.32.17 0 .32.15.32.32 0 .18-.15.32-.32.32" filter="url(#t)"/><path fill="none" stroke="#231f20" stroke-width=".086" d="M77.76 570.12c-.18 0-.32-.14-.32-.32 0-.17.14-.32.32-.32.17 0 .32.15.32.32 0 .18-.15.32-.32.32z" filter="url(#u)"/><path fill="#fddd04" d="M83 570.12c-.17 0-.3-.14-.3-.32 0-.17.13-.32.3-.32.18 0 .32.15.32.32 0 .18-.14.32-.32.32" filter="url(#v)"/><path fill="none" stroke="#231f20" stroke-width=".086" d="M83 570.12c-.17 0-.3-.14-.3-.32 0-.17.13-.32.3-.32.18 0 .32.15.32.32 0 .18-.14.32-.32.32z" filter="url(#w)"/><path fill="#fddd04" d="M77.76 567.63c-.18 0-.32-.15-.32-.32s.15-.3.33-.3c.17 0 .3.13.3.3 0 .18-.14.33-.3.33" filter="url(#x)"/><path fill="none" stroke="#231f20" stroke-width=".086" d="M77.76 567.63c-.18 0-.32-.15-.32-.32s.15-.3.33-.3c.17 0 .3.13.3.3 0 .18-.14.33-.3.33z" filter="url(#y)"/><path fill="#fddd04" d="M83 567.63c-.17 0-.3-.15-.3-.32s.13-.3.3-.3c.18 0 .32.13.32.3 0 .18-.14.33-.32.33" filter="url(#z)"/><path fill="none" stroke="#231f20" stroke-width=".086" d="M83 567.63c-.17 0-.3-.15-.3-.32s.13-.3.3-.3c.18 0 .32.13.32.3 0 .18-.14.33-.32.33z" filter="url(#A)"/><path fill="#fddd04" d="M78.75 568.6c.44-.55.98-.8 1.65-.8.62 0 1.05.2 1.55.8-.5.5-.97.72-1.58.72-.65 0-1.23-.26-1.62-.73" filter="url(#B)"/><path fill="#231f20" d="M79.07 568.6c.45.34.82.48 1.28.48.47 0 .82-.14 1.28-.5-.4-.4-.75-.54-1.28-.54-.48 0-.9.2-1.28.55" filter="url(#C)"/><path fill="#fddd04" d="M79.6 568.7c.28-.17.5-.24.74-.24.3 0 .53.08.77.24-.24.12-.5.18-.75.18-.27 0-.5-.06-.74-.18" filter="url(#D)"/><path fill="#231f20" d="M76.97 570.7h6.87v.23h-6.87v-.23z" filter="url(#E)"/><path fill="none" stroke="#231f20" stroke-width=".029" d="M76.97 570.7h6.87v.23h-6.87v-.23z" filter="url(#F)"/><path fill="#fddd04" d="M78.02 571.23v-.66c0-.15.13-.27.3-.27.17 0 .28.1.28.27v.65c0 .25-.1.4-.27.4-.03 0-.08 0-.13-.03-.03-.03-.06-.04-.07-.05-.03-.02-.05-.05-.06-.1-.03-.04-.05-.08-.05-.1v-.12m2.07-.54v-.13c0-.15.1-.27.27-.27.2 0 .3.1.3.27v.65c0 .25-.1.4-.27.4-.2 0-.3-.15-.3-.4v-.53m2 .53v-.66c0-.15.12-.27.28-.27.18 0 .28.1.28.27v.65c0 .25-.1.4-.26.4-.03 0-.08 0-.13-.03-.03-.03-.06-.04-.07-.05-.03-.02-.05-.05-.07-.1-.02-.04-.04-.08-.04-.1v-.12m-4.22-6.35h.62v.8h-.62v-.8zm0-.43h.62v.25h-.62v-.25zm4.26.43h.62v.8h-.62v-.8zm0-.43h.62v.25h-.62v-.25z" filter="url(#G)"/><path fill="#808080" d="M116.47 585.23v-.48h-.32c-.47 0-1.25 0-1.25-1.47v-6c0-3.67-1.6-5.46-4.9-5.46-3.7 0-5.43 1.48-5.43 4.66v6.8c0 1.47-.8 1.47-1.5 1.47h-.14v.48h5.55v-.48h-.15c-.7 0-1.55 0-1.55-1.47v-6.5c0-2.8 1.17-4.16 3.58-4.16 2.34 0 3.58 1.47 3.58 4.24v6.42c0 1.47-.8 1.47-1.4 1.47h-.3v.48h4.23m6-12.64v-.5h-4.7v.5h.2c1.53 0 1.73 1.16 1.73 2.48v7.88c0 1.26-.73 1.8-1.75 1.8h-.17v.47h3.7l7.96-9.78v7.43c0 1.7-1.17 1.87-1.67 1.87h-.34v.48h4.74v-.48h-.2c-.84 0-1.72-.2-1.72-2.5v-10.2h-.7l-9.04 10.93v-7.9c0-1.3.2-2.5 1.8-2.5h.17m25.13 2.3l2.9 8.07c.5 1.38.17 1.8-1.02 1.8h-.24v.48h3.73v-.48h-.08c-.42 0-.9-.12-1.25-1.03l-4.37-11.66h-.83l-4.75 11.56c-.38.96-.82 1.13-1.62 1.13h-.1v.48h5.42v-.48h-.36c-.92 0-1.1-.58-.84-1.3l3.4-8.56m21.9 9.7v-5.8h1.12c2.04 0 2.95.9 2.95 3.04 0 1.73-1.12 2.85-2.8 2.85-.4 0-.93-.04-1.27-.1zm2.02.63c2.9 0 4.34-1.07 4.34-3.27 0-1.87-1.45-2.82-2.6-3.28l-.1-.03 3.23-4.9c.5-.8.93-1.1 1.8-1.15v-.5h-3.35l-3.9 6.17h-1.45v-4.1c0-1.47.66-1.58 1.6-1.58h.25v-.5h-5.7v.5h.25c.64 0 1.38.27 1.38 1.1v9.53c0 1.52-.9 1.52-1.38 1.52h-.26v.48h5.88m13.63-10.63c0 1.6-1.37 2.22-2.65 2.9-1.5.77-3.22 1.58-3.22 4 0 2.34 1.78 3.86 4.33 3.86 1.05 0 2.24-.2 2.76-.32l.17-2.55-.5-.08c-.22 1.34-.9 2.37-2.42 2.37-1.4 0-2.46-.88-2.46-2.45 0-1.48 1.36-2.08 2.64-2.72 1.55-.8 3.34-1.6 3.34-4.05 0-2.7-2.4-3.9-4.64-3.9-.9 0-2.12.17-3.1.73l-.32 2.85.48.08c.36-1.88 1.56-2.98 3.13-2.98 1.52 0 2.48.92 2.48 2.25m9.36 10.63v-.48h-.18c-.74 0-1.43-.14-1.43-1.16v-9.85c0-1.02.68-1.16 1.42-1.16h.2v-.5H189v.5h.2c.74 0 1.43.13 1.43 1.15v9.84c0 1-.7 1.15-1.44 1.15h-.17v.48h5.48m-55.3 0v-.48h-.18c-.74 0-1.43-.14-1.43-1.16v-9.85c0-1.02.68-1.16 1.42-1.16h.2v-.5h-5.5v.5h.2c.74 0 1.43.13 1.43 1.15v9.84c0 1-.7 1.15-1.43 1.15h-.2v.48h5.5m109.2-18.95l.06-3.48s-.43-.1-.56-.15c-.13 1.52-.47 2.77-2.9 2.77h-3.28v-6.44h2.8c1.4 0 1.76.77 1.92 2.1h.56v-5.38h-.56c-.1 1.28-.4 2.28-1.9 2.28h-2.82v-5.66c0-1.64 1.42-1.64 2.92-1.64 2.7 0 3.93.17 4.68 2.9.1-.04.56-.13.56-.13l-.76-3.63h-12.2v.6h.22c.94 0 1.8.18 1.8 1.46v12.34c0 1.28-.86 1.46-1.8 1.46h-.23v.6h11.5m-69.1-.78v-7.28h1.4c2.56 0 3.7 1.14 3.7 3.8 0 2.18-1.4 3.6-3.52 3.6-.48 0-1.1-.04-1.58-.12zm2.52.78c3.64 0 5.45-1.34 5.45-4.1 0-2.34-1.82-3.53-3.26-4.1l-.1-.06 4.03-6.14c.64-1 1.17-1.4 2.28-1.45v-.6h-4.2l-4.9 7.72h-1.83v-5.13c0-1.85.83-2 2-2h.32v-.6h-7.16v.6h.33c.8 0 1.74.36 1.74 1.38v11.97c0 1.9-1.13 1.9-1.73 1.9h-.32v.6h7.37m16.28 0v-.6h-.23c-.94 0-1.8-.17-1.8-1.44v-12.35c0-1.28.86-1.46 1.8-1.46h.23v-.6h-6.88v.6h.24c.92 0 1.8.18 1.8 1.46v12.35c0 1.27-.88 1.45-1.8 1.45h-.25v.6h6.88m-.77 18.95h8.68c.44 0 1 .1 1.08.68h.43l-.34-3.4h-.45c-.03.78-.15 1.93-1.4 1.93h-2.66V574.3c0-1.58.75-1.7 1.6-1.7h.27v-.5h-5.98v.5h.27c1 0 1.6.07 1.6 1.66v10.17h-2.68c-1.37 0-1.5-.6-1.77-1.93h-.47l.3 3.38h.4c.16-.55.64-.65 1.1-.65m23.6 0v-.5c-.75-.03-1.2-.55-1.54-1.03l-3.33-5.13v-4.2c0-1.66.6-1.78 1.6-1.78h.27v-.5H212v.5h.27c1.04 0 1.6.25 1.6 1.62v4.03l-3.62 5.17c-.55.8-.96 1.33-1.84 1.33h-.1v.48h5.42v-.48h-.17c-1.04 0-1.1-.56-.67-1.18l2.8-4.35 2.48 3.92c.57.86.73 1.6-.67 1.6h-.23v.5h3.7m6.42-6c0-3.24 1.42-6.73 4.56-6.73 2.88 0 4.28 2 4.28 6.1 0 3.02-1.6 6.23-4.6 6.23-3.95 0-4.25-4.28-4.25-5.6zm-2.45-.67c0 3.9 2.96 6.94 6.73 6.94 4.12 0 7-2.65 7-6.47 0-4.18-2.9-7.2-6.9-7.2-3.96 0-6.83 2.83-6.83 6.74m15.22-6.46v.5h.2c.73 0 1.42.13 1.42 1.14v9.85c0 1-.7 1.15-1.44 1.15h-.2v.48h9.18l.03-2.78c-.07-.02-.33-.08-.44-.1-.1 1.1-.36 2.2-1.93 2.2h-3v-5.14h2.64c1.08 0 1.24.87 1.25 1.55h.42v-4.2h-.43c-.02.82-.2 1.86-1.56 1.86H244v-4.86c0-1.15 1-1.15 1.85-1.15h.17v-.5h-5.85m-136.2-14.04c0 2.45 1 4.85 2.7 6.38 1.6 1.43 3.67 2.22 6.02 2.22 2.1 0 3.85-.38 5.56-1.18l.18-3.8-.54-.08c-.63 2.2-1.66 4.23-5.15 4.23-3.58 0-5.8-2.83-5.8-7.4 0-4.07 1.8-7.9 6.16-7.9 2.45 0 4.2.9 5.52 2.6l.43-.8c-1.48-1.92-3.78-2.95-6.4-2.95-5.3 0-8.68 3.14-8.68 8.68m35.5 5.04l-.56-10.17c-.1-2.25.6-2.45 2.12-2.5h.15v-.6h-5.55v.6h.2c1.88.07 2 1.1 2.08 2.63l.64 10.4c.1 1.42-.7 2.23-2 2.23h-.2v.6h4.67c.07-.14 5.6-12.5 5.6-12.5s5.23 12.36 5.3 12.5h4.56v-.62h-.1c-1.84 0-2.17-.57-2.03-2.9l.63-10.9c.1-1.3.77-1.4 2.03-1.45v-.6h-6.84v.6c.02 0 .05 0 .05 0 1.12.07 1.92.1 1.92 1.23l-.02 1.18s-.5 10.52-.5 10.52-5.64-13.52-5.7-13.65h-.5c-.05.14-5.94 13.4-5.94 13.4m66.1 2.4v-12.93c0-1.74.73-2.02 2.5-2.02 4.15 0 6.05 3.58 6.05 7.1 0 5.44-2.25 7.92-6.87 7.92-.4 0-1.28-.03-1.68-.07zm-4.84-15.68v.6h.23c.94 0 1.8.18 1.8 1.46v12.35c0 1.27-.86 1.45-1.8 1.45h-.23v.6h7.36c2.73 0 5.02-.68 6.62-2.17 1.58-1.46 2.42-3.54 2.42-6 0-2.3-.92-4.54-2.52-6.13-1.6-1.6-3.87-2.14-6.15-2.14h-7.73m30.4.84v4.03c0 .9-.64 1.35-1.85 1.35h-.2v.6h6.33v-.6h-.2c-.88 0-1.34-.46-1.34-1.35v-4.5c-1.52-.47-3.54-.86-5.8-.86-5.43 0-8.94 3.52-8.94 8.97 0 5.8 4.63 8.45 9 8.45 1.94 0 3.95-.4 5.22-.8l.26-3.94-.55-.03c-.68 2.83-1.94 3.94-4.78 3.94-3.82 0-6.14-2.8-6.14-7.34 0-4.17 1.96-8.3 6.33-8.3 1-.03 2.05.13 2.66.4m-63.58 8.12c2.07-.15 3.17-.6 4.1-1.55.72-.74 1.1-1.67 1.1-2.75 0-2.58-2.37-4.65-5.45-4.65h-8.07v.6h.32c.8 0 1.74.38 1.74 1.4v11.94c0 1.9-1.14 1.9-1.75 1.9h-.32v.6h7.3c3.43 0 5.32-1.23 5.32-3.6 0-2.6-2.3-3.56-4.3-3.9m-3.38 6.9v-6.6h1.23c2.27 0 3.52 1.1 3.52 3.2 0 2.32-1.1 3.4-3.26 3.4h-1.5zm0-7.32v-5.8c0-1.6.5-2.06 2.18-2.06 2 0 3.52 1.64 3.52 3.88 0 2.53-1.54 3.97-4.12 3.97h-1.58m-38.1 4.58l2.3-6.42h-4.6l2.3 6.43zm.28 3.35s-5.22-14.2-5.22-14.2c-.4-1-1.08-1.64-2.1-1.64H119l-.02-.6h5v.6h-.2c-1.2 0-2.03.4-1.5 1.95l1.2 3.3h5.17l1.3-3.6c.37-1.15-.1-1.67-1.35-1.67h-.15v-.6h6.38v.6h-.05c-.85 0-1.43.44-1.83 1.57l-5.36 14.28h-1.25m36.68 18.95l.03-2.78s-.33-.08-.44-.1c-.1 1.2-.37 2.2-2.3 2.2h-2.62v-5.14h2.24c1.1 0 1.4.63 1.52 1.7h.44v-4.3h-.44c-.07 1.02-.3 1.8-1.5 1.8h-2.26v-4.5c0-1.3 1.13-1.3 2.32-1.3 2.14 0 3.14.13 3.74 2.3.08-.02.43-.1.43-.1l-.6-2.9h-9.74v.5h.18c.75 0 1.44.13 1.44 1.15v9.84c0 1-.7 1.15-1.44 1.15h-.18v.48h9.17"/></g></g></svg>