<svg xmlns="http://www.w3.org/2000/svg" width="300" height="88.109"><desc>Logo of University College London</desc><g><path fill="#808080" d="M0 0v88.12h109c-.84-.6-1.63-1.23-2.32-1.9-6.23-6-6.32-13-6.5-19.56V29.5h19.92V68.5c0 2.66.1 5.4 2.3 7.53 1.6 1.68 4 2.3 6.32 2.3 3.12 0 5.16-1.15 6.32-2.2 2.3-2.23 2.4-4.97 2.4-7.63V29.5h20v33.27c0 7.17 0 16.46-7.38 23.46-.7.66-1.48 1.3-2.32 1.9h29.82c-8.78-6.3-12.9-16.83-12.9-27.04 0-16.83 11.3-33.9 32.53-33.9 9.5 0 18.57 3.35 25.15 10.08 2.67 2.74 3.92 4.87 5.25 7.34l-16.62 8.24c-1.6-3.72-4.63-10.36-13-10.36-4.34 0-7.1 2.04-8.43 3.36-4.7 4.52-4.7 11.6-4.7 14.08 0 9.3 3.46 18.06 13.23 18.06 9.25 0 12-8.15 12.72-10.27l16.9 8.14c-1.6 3-3.12 5.84-6.14 8.85-1.3 1.27-2.7 2.4-4.2 3.4h18.27V29.4h19.83v46.15h25.72v12.57H300V0H0"/><path fill="#fff" d="M90.1 43.5c-.04 0-10.73-2.3-10.73-2.3s-10.7 2.3-10.72 2.3c-.06.03-.04.08-.04.08l.16.54h.03s.15-.02.25.14l.16.88s0 .06.07.06.4 0 .4 0h19.42s.32 0 .38 0c.05 0 .06-.05.06-.05l.16-.88c.1-.17.27-.15.27-.15h.02l.14-.54s.02-.05-.04-.07"/><path fill="#fff" d="M88.98 45.48s.02 0 .02-.02v-.27c0-.03 0-.02-.02-.02h-1.63s-.03 0-.03 0v.28s.02.02.03.02h.07c.03 0 .03.04.03.07 0 .04.02.25.17.38.02.02.02.07-.03.07 0 0-.06 0-.06 0-.04 0-.04.02-.03.04.02.03.03.1.03.14 0 .03 0 .1 0 .1 0 .04 0 .05.02.05 0 0 .03 0 .03 0s0 0 0 .02 0 .02 0 .02v6c0 .02-.07.08-.07.1v.1c0 .02 0 .03 0 .03-.02 0-.02 0-.03 0h-.08c-.02 0-.04.02-.04.03 0 0 0 .17 0 .18h1.6s0-.17 0-.17 0-.02-.02-.02h-.08s0 0-.02 0c0 0 0 0 0-.02v-.1s0-.02-.02-.02c0 0-.06-.07-.08-.1v-6c0-.03 0-.03 0-.03s.03 0 .04 0c.02 0 .02 0 .02-.04 0-.03 0-.1 0-.12 0-.04 0-.1.02-.14 0-.02 0-.04-.03-.04 0 0-.06 0-.06 0-.05 0-.05-.05-.03-.07.16-.12.17-.34.17-.38 0-.03 0-.07.04-.07H89"/><path fill="#fff" d="M85.47 45.48s.02 0 .02-.02v-.27c0-.03-.02-.02-.03-.02h-1.64s-.02 0-.02 0v.28s.02.02.03.02h.07c.04 0 .04.04.04.07 0 .04.02.25.16.38.02.02.02.07-.03.07 0 0-.04 0-.05 0-.03 0-.04.02-.03.04 0 .03 0 .1 0 .14 0 .03 0 .1 0 .1 0 .04 0 .05.04.05h.02s.02 0 .02.02 0 .02 0 .02v6c-.02.02-.1.08-.1.1v.1c0 .02 0 .03 0 .03s-.02 0-.03 0h-.08s-.02.02-.02.03c0 0 0 .17 0 .18h1.6s0-.17 0-.17-.02-.02-.03-.02h-.07s-.02 0-.03 0c0 0 0 0 0-.02v-.1s0-.02 0-.02c-.02 0-.07-.07-.1-.1v-6c0-.03.02-.03.02-.03s.02 0 .02 0c.02 0 .02 0 .02-.04 0-.03 0-.1 0-.12 0-.04 0-.1.02-.14 0-.02 0-.04-.03-.04 0 0-.04 0-.05 0-.04 0-.05-.05-.03-.07.14-.12.16-.34.16-.38 0-.03 0-.07.04-.07h.07"/><path fill="#fff" d="M81.95 45.48s.02 0 .02-.02v-.27c0-.03 0-.02-.02-.02h-1.63c-.02 0-.03 0-.03 0v.28s0 .02.02.02h.07c.02 0 .02.04.02.07 0 .04.02.25.17.38 0 .02 0 .07-.04.07 0 0-.05 0-.05 0-.03 0-.03.02-.02.04 0 .03.02.1.02.14 0 .03 0 .1 0 .1 0 .04 0 .05.02.05 0 0 .02 0 .02 0s.02 0 .02.02 0 .02 0 .02v6c-.02.02-.08.08-.1.1v.1c0 .02 0 .03 0 .03s-.02 0-.03 0h-.07s-.02.02-.02.03c0 0 0 .17 0 .18h1.6s0-.17 0-.17-.02-.02-.03-.02h-.07s-.02 0-.02 0 0 0 0-.02v-.1s0-.02 0-.02c-.02 0-.07-.07-.1-.1v-6c0-.03.02-.03.02-.03s.02 0 .02 0c.03 0 .03 0 .03-.04 0-.03 0-.1 0-.12 0-.04 0-.1.02-.14 0-.02 0-.04-.04-.04 0 0-.05 0-.05 0-.04 0-.04-.05-.02-.07.15-.12.16-.34.16-.38 0-.03 0-.07.04-.07h.07"/><path fill="#fff" d="M78.43 45.48c.02 0 .03 0 .03-.02v-.27c0-.03 0-.02-.03-.02H76.8s-.02 0-.02 0v.28s0 .02.02.02h.07c.03 0 .04.04.04.07 0 .04.02.25.17.38.02.02 0 .07-.03.07 0 0-.05 0-.05 0-.05 0-.05.02-.04.04.02.03.02.1.02.14 0 .03 0 .1 0 .1 0 .04 0 .05.02.05 0 0 .03 0 .03 0s.02 0 .02.02 0 .02 0 .02v6c-.02.02-.1.08-.1.1v.1c0 .02 0 .03 0 .03s-.02 0-.03 0h-.08s-.02.02-.02.03c0 0 0 .17 0 .18h1.6s0-.17 0-.17-.02-.02-.03-.02h-.08s-.02 0-.03 0c0 0 0 0 0-.02v-.1s-.02-.02-.02-.02-.06-.07-.1-.1v-6c0-.03.03-.03.03-.03s.03 0 .03 0c.02 0 .02 0 .02-.04 0-.03 0-.1 0-.12 0-.04 0-.1.02-.14 0-.02 0-.04-.03-.04 0 0-.04 0-.05 0-.05 0-.06-.05-.04-.07.15-.12.17-.34.17-.38 0-.03 0-.07.03-.07h.07"/><path fill="#fff" d="M74.92 45.48s.02 0 .02-.02v-.27c0-.03 0-.02-.02-.02H73.3c-.03 0-.04 0-.04 0v.28s0 .02.03.02h.05c.04 0 .04.04.04.07 0 .04 0 .25.16.38.02.02 0 .07-.03.07 0 0-.05 0-.05 0-.04 0-.05.02-.03.04 0 .03 0 .1 0 .14 0 .03 0 .1 0 .1 0 .04.02.05.04.05 0 0 .03 0 .03.02s0 .02 0 .02v6c-.02.02-.08.08-.1.1v.1c0 .02 0 .03 0 .03s-.02 0-.03 0h-.07s-.03.02-.03.03c0 0 0 .17 0 .18h1.6s0-.17 0-.17 0-.02-.02-.02h-.08s-.02 0-.02 0 0 0 0-.02v-.1s0-.02-.02-.02c0 0-.06-.07-.1-.1v-6c0-.03.03-.03.03-.03.03 0 .04 0 .04-.04 0-.03 0-.1 0-.12 0-.04 0-.1 0-.14.03-.02.02-.04 0-.04s-.06 0-.06 0c-.05 0-.06-.05-.03-.07.15-.12.16-.34.16-.38 0-.03 0-.07.05-.07h.07"/><path fill="#fff" d="M71.4 45.48s.03 0 .03-.02v-.27c0-.03-.02-.02-.03-.02h-1.63s-.02 0-.02 0v.28s0 .02.02.02h.07c.03 0 .03.04.03.07 0 .04.02.25.17.38.02.02 0 .07-.03.07 0 0-.04 0-.04 0-.04 0-.04.02-.03.04.02.03.02.1.02.14 0 .03 0 .1 0 .1 0 .04 0 .05.02.05H70s0 0 0 .02 0 .02 0 .02v6c0 .02-.07.08-.07.1v.1c0 .02 0 .03-.02.03h-.1s0 .02 0 .03c0 0 0 .17 0 .18h1.58s0-.17 0-.17 0-.02-.02-.02h-.08s0 0-.02 0c0 0 0 0 0-.02v-.1s0-.02 0-.02c-.02 0-.08-.07-.1-.1v-6c0-.03 0-.03 0-.03s.03 0 .03 0c.02 0 .02 0 .02-.04 0-.03 0-.1 0-.12 0-.04 0-.1.02-.14 0-.02 0-.04-.03-.04 0 0-.03 0-.04 0-.05 0-.05-.05-.03-.07.15-.12.16-.34.16-.38 0-.03 0-.07.03-.07h.07"/><path fill="#fff" d="M84.37 39.13s-.14 0-.17 0c-.05 0-.04-.03-.04-.03s0-.15 0-.18c0-.05-.05-.05-.05-.05s-.1 0-.16 0c-.04 0-.04-.04-.04-.04v-.17s0-.03-.04-.03c-.02 0-.07 0-.1 0s-.07-.03-.07-.08c-.02-.23.06-1.84-.8-3-.66-1-1.58-1.5-2.1-1.74 0-.2-.3-.3-.44-.34-.07-.02-.13-.05-.13-.12 0 0 0-.07 0-.07 0-.07.06-.1.15-.1.03 0 .05-.02.05-.03v-.2c0-.03-.03-.06-.07-.06-.06 0-.14 0-.18 0-.04 0-.06-.04-.06-.06 0-.04 0-.03 0-.1 0-.06-.05-.1-.08-.1v-1.2c0-.05.03-.04.05-.04.03 0 .04-.02.04-.03v-.12c0-.02 0-.03-.03-.03h-.04c-.02 0-.04-.03-.04-.08 0-.06.02-.1.05-.1h.04c.03 0 .04 0 .04-.02v-.12s0-.02-.03-.02h-.05c-.03 0-.05-.02-.07-.04-.2-.16-.4-.4-.4-.43 0-.03 0-.03 0-.05 0-.03-.04-.08-.1-.08-.05 0-.04-.05 0-.05 0 0 0 0 0-.04 0 0 0-.04 0-.07 0-.03-.1-.17-.1-.17s-.1.14-.1.18c0 .04 0 .07 0 .08 0 .03 0 .04.02.04.03 0 .04.05-.02.05-.05 0-.08.05-.08.08 0 .02 0 .02 0 .04s-.2.26-.4.42c-.04.02-.06.03-.08.04h-.07s-.02 0-.02.02V31c0 .02 0 .03.02.03h.05c.02 0 .04.03.04.1 0 .04 0 .06-.03.07h-.05s-.02 0-.02.03v.12s0 .02.02.02c0 0 .02 0 .02 0 .03 0 .06 0 .06.04v1.2c-.03.03-.08.06-.08.12 0 .07 0 .06 0 .1 0 .02-.02.06-.06.06-.05 0-.13 0-.2 0-.04 0-.07.03-.07.06v.2s.03.04.06.04c.08 0 .14.02.14.1 0 0 0 .06 0 .06 0 .07-.06.1-.13.12-.13.05-.44.13-.44.35-.5.24-1.44.75-2.1 1.75-.85 1.16-.77 2.77-.78 3 0 .05-.04.08-.07.08-.02 0-.08 0-.1 0-.04 0-.04.03-.04.03v.17s0 .04-.04.04-.16 0-.16 0-.05 0-.05.05c0 .03 0 .18 0 .18s0 .03-.03.03c-.04 0-.17 0-.17 0s-.05 0-.05.05c0 .03 0 .14 0 .2 0 .02.02.02.03.02.05 0 .15.06.15.17 0 .2.12.2.17.2v.7c0 .17-.13.23-.2.25-.02 0-.04.02-.04.04s0 .72 0 .72l4.92-1.08 4.92 1.08s0-.7 0-.72c0-.02-.02-.04-.03-.04-.07-.02-.2-.08-.2-.24v-.7c.05 0 .16-.02.16-.2 0-.12.1-.17.15-.18.02 0 .03 0 .03-.02 0-.06 0-.17 0-.2 0-.05-.03-.05-.03-.05"/><path fill="#fff" d="M89.8 54.85V53.4h-.84v-.6H69.8v.6h-.85v1.45h-.85v1.45h22.55v-1.45h-.85"/></g></svg>