<svg xmlns="http://www.w3.org/2000/svg" width="312" height="210"><g><path fill="#808080" d="M44.57 23.8h222V147.5h-222z"/><g fill="#808080"><path d="M44.57 159.94H55.5c1.78 0 3.27.27 4.43.8 2.22 1.03 3.33 2.92 3.33 5.68 0 1.44-.3 2.6-.9 3.53-.6.92-1.42 1.65-2.5 2.2.95.4 1.65.9 2.13 1.5.46.63.73 1.64.78 3.03l.1 3.22c.05.92.12 1.6.24 2.05.2.76.55 1.25 1.05 1.47v.54h-4c-.1-.2-.2-.48-.25-.8-.07-.33-.12-.96-.17-1.9l-.2-4c-.07-1.57-.63-2.62-1.7-3.16-.6-.3-1.54-.44-2.83-.44h-7.2v10.3h-3.25v-24.02zm10.57 11c1.48 0 2.65-.3 3.52-.9.86-.62 1.3-1.72 1.3-3.3 0-1.72-.6-2.9-1.82-3.5-.65-.34-1.5-.5-2.6-.5h-7.72v8.2h7.32zM68.67 159.94H86.1v2.95H71.83v7.28H85v2.78H71.85v8.14h14.5v2.86H68.67v-24.02zM107.67 161.7c1.66 1.6 2.58 3.42 2.77 5.45h-3.18c-.35-1.54-1.05-2.77-2.1-3.67-1.06-.9-2.54-1.36-4.45-1.36-2.3 0-4.18.83-5.6 2.5-1.44 1.66-2.16 4.2-2.16 7.64 0 2.82.65 5.1 1.94 6.85 1.3 1.76 3.2 2.64 5.77 2.64 2.36 0 4.15-.92 5.38-2.77.66-.97 1.14-2.24 1.46-3.82h3.16c-.28 2.53-1.2 4.65-2.78 6.36-1.88 2.07-4.42 3.1-7.62 3.1-2.76 0-5.08-.85-6.95-2.54-2.46-2.23-3.7-5.7-3.7-10.35 0-3.54.93-6.44 2.8-8.7 2-2.48 4.75-3.7 8.28-3.7 3 0 5.33.8 7 2.4zM134.65 163.38c1.6 2.12 2.38 4.84 2.38 8.15 0 3.6-.9 6.57-2.73 8.95-2.13 2.8-5.18 4.18-9.13 4.18-3.7 0-6.6-1.22-8.72-3.66-1.88-2.35-2.83-5.33-2.83-8.93 0-3.24.8-6.02 2.42-8.33 2.08-2.97 5.14-4.45 9.2-4.45 4.23 0 7.37 1.35 9.4 4.08zm-2.87 15.3c1.28-2.05 1.92-4.42 1.92-7.1 0-2.8-.74-5.1-2.22-6.8-1.47-1.73-3.5-2.6-6.05-2.6-2.5 0-4.5.86-6.08 2.56-1.57 1.7-2.36 4.23-2.36 7.56 0 2.66.66 4.9 2 6.73 1.36 1.83 3.54 2.74 6.56 2.74 2.86 0 4.94-1.03 6.22-3.1zM141.3 159.94h10.92c1.8 0 3.28.27 4.44.8 2.22 1.03 3.32 2.92 3.32 5.68 0 1.44-.3 2.6-.9 3.53-.58.92-1.4 1.65-2.48 2.2.94.4 1.65.9 2.12 1.5.47.63.74 1.64.8 3.03l.1 3.22c.04.92.12 1.6.24 2.05.2.76.54 1.25 1.04 1.47v.54h-4c-.1-.2-.18-.48-.25-.8-.06-.33-.12-.96-.16-1.9l-.2-4c-.08-1.57-.65-2.62-1.7-3.16-.6-.3-1.56-.44-2.85-.44h-7.2v10.3h-3.25v-24.02zm10.57 11c1.48 0 2.65-.3 3.52-.9.85-.62 1.28-1.72 1.28-3.3 0-1.72-.6-2.9-1.8-3.5-.66-.34-1.52-.5-2.6-.5h-7.73v8.2h7.32zM165.23 159.94h9.6c3.26 0 5.8 1.17 7.6 3.52 1.6 2.1 2.4 4.82 2.4 8.12 0 2.55-.5 4.86-1.43 6.92-1.67 3.64-4.53 5.46-8.6 5.46h-9.57v-24.02zm8.97 21.24c1.07 0 1.96-.1 2.65-.34 1.23-.43 2.25-1.25 3.03-2.45.63-.98 1.1-2.23 1.36-3.74.16-.9.24-1.75.24-2.52 0-2.98-.58-5.3-1.73-6.93-1.16-1.64-3.02-2.46-5.6-2.46h-5.63v18.44h5.68zM190 159.94h3.3v24.02H190v-24.02zM198.57 159.94h3.83l11.98 19.4v-19.4h3.1v24.02h-3.65l-12.16-19.38v19.38h-3.1v-24.02zM238.73 160.63c2.36 1.25 3.8 3.45 4.32 6.6h-3.22c-.38-1.76-1.18-3.04-2.4-3.84-1.2-.82-2.7-1.22-4.55-1.22-2.18 0-4 .84-5.5 2.5-1.48 1.67-2.23 4.16-2.23 7.46 0 2.86.6 5.18 1.84 6.97 1.22 1.8 3.22 2.7 6 2.7 2.13 0 3.9-.63 5.28-1.9 1.4-1.25 2.1-3.28 2.14-6.1h-7.52v-2.7h10.54v12.86h-2.1l-.77-3.1c-1.1 1.22-2.05 2.06-2.88 2.53-1.42.8-3.2 1.2-5.37 1.2-2.8 0-5.2-.92-7.22-2.77-2.2-2.3-3.28-5.48-3.28-9.5 0-4.03 1.07-7.23 3.22-9.6 2.04-2.27 4.68-3.4 7.93-3.4 2.22 0 4.14.43 5.76 1.3zM250.9 176.2c.1 1.37.4 2.48.94 3.33 1.04 1.6 2.87 2.4 5.5 2.4 1.18 0 2.25-.2 3.2-.54 1.88-.68 2.8-1.9 2.8-3.64 0-1.3-.38-2.24-1.17-2.8-.8-.54-2.06-1-3.77-1.4l-3.15-.75c-2.06-.47-3.52-1-4.37-1.58-1.48-1-2.22-2.5-2.22-4.5 0-2.15.73-3.92 2.18-5.3 1.45-1.4 3.5-2.08 6.17-2.08 2.46 0 4.54.6 6.25 1.82 1.72 1.22 2.57 3.16 2.57 5.83h-3.05c-.16-1.3-.5-2.28-1-2.97-.96-1.25-2.57-1.88-4.85-1.88-1.84 0-3.16.4-3.97 1.2-.8.82-1.2 1.76-1.2 2.82 0 1.18.47 2.04 1.42 2.6.63.34 2.04.77 4.23 1.3l3.27.76c1.57.38 2.78.88 3.64 1.52 1.5 1.13 2.23 2.76 2.23 4.9 0 2.65-.95 4.55-2.83 5.7-1.9 1.14-4.08 1.72-6.58 1.72-2.9 0-5.2-.77-6.84-2.3-1.65-1.5-2.46-3.56-2.42-6.16h3.05z"/></g><path fill="#fff" stroke="#808080" d="M65.63 42.73h35.56l13.9 21.4 13.4-21.4h36.2l-32.5 40.47 32.46 44-35.16.1-15.9-23.22-15.43 23.23H62.5l33.67-44.13z"/><path fill="#fff" d="M175.38 42.72l.2 84.46 70.8.13-.1-24.8h-37.1V42.73z"/></g></svg>