<?xml version="1.0" encoding="UTF-8" standalone="no"?>
<svg
   xmlns:dc="http://purl.org/dc/elements/1.1/"
   xmlns:cc="http://creativecommons.org/ns#"
   xmlns:rdf="http://www.w3.org/1999/02/22-rdf-syntax-ns#"
   xmlns:svg="http://www.w3.org/2000/svg"
   xmlns="http://www.w3.org/2000/svg"
   xml:space="preserve"
   height="154.75642"
   width="1084.8257"
   version="1.1"
   id="svg2"><metadata
     id="metadata8"><rdf:RDF><cc:Work
         rdf:about=""><dc:format>image/svg+xml</dc:format><dc:type
           rdf:resource="http://purl.org/dc/dcmitype/StillImage" /><dc:title></dc:title></cc:Work></rdf:RDF></metadata><defs
     id="defs6"><clipPath
       id="clipPath18"
       clipPathUnits="userSpaceOnUse"><path
         id="path20"
         d="m 35.15,410.944 376.564,0 0,-386.821 -376.564,0 0,386.821 z" /></clipPath><clipPath
       id="clipPath32"
       clipPathUnits="userSpaceOnUse"><path
         id="path34"
         d="m 0,0 436.535,0 0,496.063 L 0,496.063 0,0 z" /></clipPath><clipPath
       id="clipPath74"
       clipPathUnits="userSpaceOnUse"><path
         id="path76"
         d="m 316.048,465.732 100.645,0 0,14.358 -100.645,0 0,-14.358 z" /></clipPath></defs><g
     transform="matrix(1.25,0,0,-1.25,330.11682,442.46524)"
     id="g12"><g
       style="fill:#808080;fill-opacity:1"
       transform="matrix(7.3054151,0,0,7.3054151,-197.7881,240.49302)"
       id="g46"><path
         id="path48"
         style="fill:#808080;fill-opacity:1;fill-rule:nonzero;stroke:none"
         d="m 0,0 0,1.385 5.855,0 0,3.478 -5.855,0 0,1.386 7.24,0 L 7.24,0 0,0 z" /></g><path
       id="path50"
       style="fill:#808080;fill-opacity:1;fill-rule:nonzero;stroke:none"
       d="m -197.7881,268.37705 35.12444,0 0,-10.118 -35.12444,0 0,10.118 z" /><g
       style="fill:#808080;fill-opacity:1"
       transform="matrix(7.3054151,0,0,7.3054151,-190.54551,344.51336)"
       id="g52"><path
         id="path54"
         style="fill:#808080;fill-opacity:1;fill-rule:nonzero;stroke:none"
         d="m 0,0 1.384,0 0,-5.558 3.48,0 0,4.567 6.249,0 0,-3.52 -1.385,0 0,2.134 -3.479,0 0,-4.566 -6.248,0 L 0,0 z" /></g><g
       style="fill:#808080;fill-opacity:1"
       transform="matrix(7.3054151,0,0,7.3054151,-172.78239,344.51336)"
       id="g56"><path
         id="path58"
         style="fill:#808080;fill-opacity:1;fill-rule:nonzero;stroke:none"
         d="m 0,0 1.384,0 0.001,-4.511 -1.384,0 L 0,0 z" /></g><g
       style="fill:#808080;fill-opacity:1"
       transform="matrix(7.3054151,0,0,7.3054151,-84.357653,240.49302)"
       id="g60"><path
         id="path62"
         style="fill:#808080;fill-opacity:1;fill-rule:nonzero;stroke:none"
         d="m 0,0 0,1.385 -5.855,0 0,3.478 5.855,0 0,1.386 -7.24,0 L -7.24,0 0,0 z" /></g><path
       id="path64"
       style="fill:#808080;fill-opacity:1;fill-rule:nonzero;stroke:none"
       d="m -84.356923,268.37705 -35.124437,0 0,-10.118 35.124437,0 0,10.118 z" /><g
       style="fill:#808080;fill-opacity:1"
       transform="matrix(7.3054151,0,0,7.3054151,-137.24959,319.50254)"
       id="g66"><path
         id="path68"
         style="fill:#808080;fill-opacity:1;fill-rule:nonzero;stroke:none"
         d="m 0,0 1.385,0 0,-2.134 3.48,0 0,5.557 1.384,0 0,-6.942 L 0,-3.519 0,0 z" /></g><g
       style="fill:#808080;fill-opacity:1"
       transform="matrix(7.3054151,0,0,7.3054151,-2506.6499,-3162.7426)"
       id="g70"><g
         style="fill:#808080;fill-opacity:1"
         clip-path="url(#clipPath74)"
         id="g72"><g
           style="fill:#808080;fill-opacity:1"
           transform="translate(338.8187,468.4541)"
           id="g78"><path
             id="path80"
             style="fill:#808080;fill-opacity:1;fill-rule:evenodd;stroke:none"
             d="m 0,0 -2.031,0 0.659,1.858 c 0.14,0.422 0.259,0.843 0.346,1.22 l 0.01,0 C -0.929,2.669 -0.821,2.312 -0.681,1.912 L 0,0 z m 2.431,-2.603 -2.604,7.292 -1.588,0 -2.549,-7.292 1.415,0 0.507,1.49 2.755,0 0.508,-1.49 1.556,0 z" /></g><g
           style="fill:#808080;fill-opacity:1"
           transform="translate(345.127,470.9933)"
           id="g82"><path
             id="path84"
             style="fill:#808080;fill-opacity:1;fill-rule:evenodd;stroke:none"
             d="m 0,0 c 0,-0.681 -0.519,-1.113 -1.362,-1.113 -0.215,0 -0.409,0.011 -0.507,0.022 l 0,2.107 c 0.14,0.021 0.346,0.032 0.551,0.032 C -0.432,1.048 0,0.702 0,0 m 1.955,-5.143 -1.75,2.453 c -0.183,0.248 -0.389,0.529 -0.594,0.799 1.102,0.173 1.858,0.951 1.858,2.032 0,1.49 -1.037,2.052 -2.646,2.052 -0.843,0 -1.524,-0.011 -2.097,-0.043 l 0,-7.293 1.405,0 0,3.014 0.054,0 2.031,-3.014 1.739,0 z" /></g><g
           style="fill:#808080;fill-opacity:1"
           transform="translate(352.0268,468.1088)"
           id="g86"><path
             id="path88"
             style="fill:#808080;fill-opacity:1;fill-rule:evenodd;stroke:none"
             d="m 0,0 c 0,2.28 -3.068,1.793 -3.068,3.1 0,0.519 0.411,0.886 1.221,0.886 0.442,0 0.896,-0.076 1.306,-0.194 l 0.077,1.231 c -0.433,0.076 -0.908,0.13 -1.319,0.13 -1.75,0 -2.776,-0.897 -2.776,-2.193 0,-2.398 3.057,-1.761 3.057,-3.155 0,-0.67 -0.55,-0.961 -1.264,-0.961 -0.529,0 -1.113,0.119 -1.523,0.259 l -0.086,-1.307 c 0.453,-0.119 0.972,-0.172 1.491,-0.172 C -1.091,-2.376 0,-1.372 0,0" /></g><g
           style="fill:#808080;fill-opacity:1"
           transform="translate(359.2178,465.8505)"
           id="g90"><path
             id="path92"
             style="fill:#808080;fill-opacity:1;fill-rule:evenodd;stroke:none"
             d="m 0,0 0,1.199 -2.56,0 0,1.978 2.43,0 0,1.144 -2.43,0 0,1.794 2.56,0 0,1.177 -3.965,0 L -3.965,0 0,0 z" /></g><g
           style="fill:#808080;fill-opacity:1"
           transform="translate(364.185,465.8505)"
           id="g94"><path
             id="path96"
             style="fill:#808080;fill-opacity:1;fill-rule:evenodd;stroke:none"
             d="m 0,0 0,1.232 -2.366,0 0,6.06 -1.404,0 L -3.77,0 0,0 z" /></g><g
           style="fill:#808080;fill-opacity:1"
           transform="translate(368.8484,465.8505)"
           id="g98"><path
             id="path100"
             style="fill:#808080;fill-opacity:1;fill-rule:evenodd;stroke:none"
             d="m 0,0 0,1.199 -2.56,0 0,1.978 2.431,0 0,1.144 -2.431,0 0,1.794 2.56,0 0,1.177 -3.964,0 L -3.964,0 0,0 z" /></g><g
           style="fill:#808080;fill-opacity:1"
           transform="translate(374.9503,466.0775)"
           id="g102"><path
             id="path104"
             style="fill:#808080;fill-opacity:1;fill-rule:evenodd;stroke:none"
             d="M 0,0 -0.162,1.253 C -0.54,1.08 -1.135,0.951 -1.577,0.951 c -1.47,0 -2.129,0.885 -2.129,2.474 0,1.415 0.67,2.441 2.031,2.441 0.497,0 0.994,-0.076 1.47,-0.215 l 0.15,1.274 c -0.474,0.13 -1.026,0.194 -1.544,0.194 -2.442,0 -3.652,-1.62 -3.652,-3.932 0,-1.815 0.822,-3.511 3.371,-3.511 0.681,0 1.34,0.13 1.88,0.324" /></g><g
           style="fill:#808080;fill-opacity:1"
           transform="translate(380.5434,471.9435)"
           id="g106"><path
             id="path108"
             style="fill:#808080;fill-opacity:1;fill-rule:evenodd;stroke:none"
             d="m 0,0 0,1.199 -5.186,0 0,-1.199 1.891,0 0,-6.093 1.405,0 L -1.89,0 0,0 z" /></g><g
           style="fill:#808080;fill-opacity:1"
           transform="translate(384.4614,470.9933)"
           id="g110"><path
             id="path112"
             style="fill:#808080;fill-opacity:1;fill-rule:evenodd;stroke:none"
             d="m 0,0 c 0,-0.681 -0.518,-1.113 -1.362,-1.113 -0.215,0 -0.409,0.011 -0.507,0.022 l 0,2.107 c 0.141,0.021 0.346,0.032 0.551,0.032 C -0.432,1.048 0,0.702 0,0 m 1.956,-5.143 -1.75,2.453 c -0.184,0.248 -0.389,0.529 -0.595,0.799 1.102,0.173 1.859,0.951 1.859,2.032 0,1.49 -1.038,2.052 -2.647,2.052 -0.843,0 -1.524,-0.011 -2.096,-0.043 l 0,-7.293 1.404,0 0,3.014 0.055,0 2.03,-3.014 1.74,0 z" /></g><g
           style="fill:#808080;fill-opacity:1"
           transform="translate(392.0208,469.4914)"
           id="g114"><path
             id="path116"
             style="fill:#808080;fill-opacity:1;fill-rule:evenodd;stroke:none"
             d="m 0,0 c 0,-1.75 -1.016,-2.485 -1.967,-2.485 -1.307,0 -1.912,1.005 -1.912,2.55 0,1.642 0.929,2.442 1.934,2.442 C -0.691,2.507 0,1.62 0,0 m 1.501,0.108 c 0,2.495 -1.372,3.663 -3.316,3.663 -1.955,0 -3.565,-1.448 -3.565,-3.857 0,-2.258 1.091,-3.673 3.317,-3.673 1.977,0 3.564,1.458 3.564,3.867" /></g><g
           style="fill:#808080;fill-opacity:1"
           transform="translate(400.5088,465.8505)"
           id="g118"><path
             id="path120"
             style="fill:#808080;fill-opacity:1;fill-rule:evenodd;stroke:none"
             d="m 0,0 0,7.292 -1.361,0 0,-2.269 c 0,-0.896 0.021,-2.193 0.076,-2.927 -0.27,0.551 -0.562,1.156 -0.897,1.718 l -2.031,3.478 -1.826,0 0,-7.292 1.362,0 0,2.603 c 0,0.876 -0.022,2.021 -0.065,2.647 0.216,-0.475 0.475,-1.015 0.789,-1.566 L -1.814,0 0,0 z" /></g><path
           id="path122"
           style="fill:#808080;fill-opacity:1;fill-rule:evenodd;stroke:none"
           d="m 403.468,473.143 -1.405,0 0,-7.292 1.405,0 0,7.292 z" /><g
           style="fill:#808080;fill-opacity:1"
           transform="translate(409.7169,466.0775)"
           id="g124"><path
             id="path126"
             style="fill:#808080;fill-opacity:1;fill-rule:evenodd;stroke:none"
             d="M 0,0 -0.162,1.253 C -0.54,1.08 -1.134,0.951 -1.577,0.951 c -1.469,0 -2.128,0.885 -2.128,2.474 0,1.415 0.67,2.441 2.03,2.441 0.498,0 0.994,-0.076 1.47,-0.215 l 0.151,1.274 c -0.475,0.13 -1.026,0.194 -1.544,0.194 -2.443,0 -3.652,-1.62 -3.652,-3.932 0,-1.815 0.821,-3.511 3.37,-3.511 0.681,0 1.34,0.13 1.88,0.324" /></g><g
           style="fill:#808080;fill-opacity:1"
           transform="translate(414.2625,468.4541)"
           id="g128"><path
             id="path130"
             style="fill:#808080;fill-opacity:1;fill-rule:evenodd;stroke:none"
             d="m 0,0 -2.031,0 0.659,1.858 c 0.14,0.422 0.258,0.843 0.345,1.22 l 0.011,0 C -0.929,2.669 -0.822,2.312 -0.682,1.912 L 0,0 z m 2.43,-2.603 -2.603,7.292 -1.589,0 -2.549,-7.292 1.416,0 0.507,1.49 2.755,0 0.508,-1.49 1.555,0 z" /></g></g></g></g></svg>