<?xml version="1.0" encoding="UTF-8" standalone="no"?>
<svg
   xmlns:dc="http://purl.org/dc/elements/1.1/"
   xmlns:cc="http://creativecommons.org/ns#"
   xmlns:rdf="http://www.w3.org/1999/02/22-rdf-syntax-ns#"
   xmlns:svg="http://www.w3.org/2000/svg"
   xmlns="http://www.w3.org/2000/svg"
   xml:space="preserve"
   style="enable-background:new 0 0 1920 1080;"
   viewBox="0 0 1920 1080"
   y="0px"
   x="0px"
   id="Layer_1"
   version="1.1"><metadata
     id="metadata31"><rdf:RDF><cc:Work
         rdf:about=""><dc:format>image/svg+xml</dc:format><dc:type
           rdf:resource="http://purl.org/dc/dcmitype/StillImage" /><dc:title></dc:title></cc:Work></rdf:RDF></metadata><defs
     id="defs29" /><style
     id="style3"
     type="text/css">
	.st0{fill:#FFFFFF;}
</style><g
     id="g5"><path
       style="fill:#808080"
       id="path7"
       d="M590,169c247.7,0,495.3,0,743,0c0,247.7,0,495.3,0,743c-247.7,0-495.3,0-743,0C590,664.3,590,416.7,590,169z M720.3,539.5   c1.4-1,2.6-1.8,3.8-2.6c11.3-7.2,18.2-17.4,20.4-30.6c0.6-3.3,0.8-6.6,1.1-9.9c1.5-16.1,0.3-31.9-4.8-47.4   c-5.1-15.5-15.4-26.2-30.5-32.3c-8.5-3.4-17.4-4-26.5-3.9c-18.1,0.1-36.3,0-54.2,0c-3.3,5.8-4.5,11.5-4.5,17.9   c0.2,74.2,0.1,148.3,0.1,222.5c0,2.7-0.1,5.3,0,8c0.2,4.7,1.5,6.1,6,6.1c22,0,44,0.1,66-0.5c6.2-0.2,12.7-1.7,18.3-4.2   c16.5-7.6,25.6-21.7,29.3-38.8c4.1-19,3.4-38.1-1.6-56.9c-2.6-9.8-8.2-17.3-16.4-23.1C724.8,542.3,722.6,541,720.3,539.5z    M800.8,637.2c11,0.5,21.2-0.7,31.5,0.8c1.6,10.8,3,20.9,4.5,31.1c14.2-0.2,27.4,0.5,40.8-1.5c0-3,0.2-5.7,0-8.3   c-0.4-4.5-1.1-8.9-1.6-13.4c-2.1-19.4-4.3-38.7-6.4-58.1c-3.6-33.3-7.1-66.6-10.6-99.8c-2.4-22.4-4.6-44.7-6.9-67.1   c-0.2-1.9-0.9-3.7-1.4-5.7c-2.7-0.4-4.8-0.9-6.9-0.9c-16-0.1-32-0.2-48-0.2c-2.7,0-5.4,0.7-8.2,1.1c-0.3,1.6-0.5,2.6-0.6,3.6   c-2.1,17.7-4.3,35.4-6.3,53.1c-4,35.6-7.7,71.2-11.7,106.8c-3.1,27.6-6.5,55.2-9.6,82.8c-0.3,2.5,0.3,5,0.5,7.7   c12.5,0,24.1,0,36.2,0C797.6,658.5,799.1,648.2,800.8,637.2z M1297.9,499.3c1.5-16.1,1.7-31.2-1.1-46.2   c-3.2-17.8-13.1-30.5-30.5-36.3c-10.3-3.4-21.1-4.6-32-3.8c-24.2,1.8-41.1,16.5-45.4,40.4c-1.4,7.7-1.7,15.6-1.8,23.4   c-0.2,44.2-0.2,88.3,0,132.5c0,10.9,1.7,21.6,6.5,31.6c6.6,14,17.1,23.1,32.5,26.2c9.9,2,19.8,2.3,29.8,1   c23.9-3.1,41.4-21.6,42.3-45.7c0.5-14.1,0.4-28.3,0.5-42.5c0-1.6-0.3-3.2-0.5-4.8c-13.1,0-25.8,0-39,0c-0.1,2.5-0.3,4.3-0.3,6   c0,9.3,0.1,18.7,0.1,28c0,2.5-0.3,5-0.9,7.4c-1.4,5.9-5.7,9.2-11.9,9.5c-5.9,0.2-10.5-2.7-12.2-8.3c-0.8-2.6-1.1-5.6-1.1-8.4   c-0.2-16.3-0.4-32.7-0.4-49c0.1-31.2,0.3-62.3,0.6-93.5c0.1-9.4,8.5-15,17.4-12c5.7,1.9,7.4,6.4,7.5,11.7   c0.2,9.2,0.1,18.3,0.2,27.5c0,1.7,0.3,3.5,0.5,5.1C1271.9,499.3,1284.7,499.3,1297.9,499.3z M1019.2,456.7c0.2,3.2,0.5,5.5,0.5,7.8   c0.2,43,0.5,86,0.6,129c0.1,22.7-0.2,45.3-0.2,68c0,2.5,0.8,5,1.3,7.4c14.2,0,27.4,0,41.2,0c0.5-2.3,1.1-4.4,1.2-6.4   c0.2-3.1,0-6.3,0-9.5c-0.1-63.7-0.2-127.3-0.3-191c0-1.7,0.2-3.5,0.3-5.3c6.2,0,11.9,0,17.5,0c5.7,0,11.5-0.1,17-0.2   c1.4-7.4,1-37.7-0.5-41.6c-2.2-0.2-4.6-0.7-7.1-0.8c-8.1-0.1-16.3-0.1-24.4,0c-25.5,0.2-51,0.4-76.5,0.6c-4.6,0-6.2,1.3-6.3,5.8   c-0.3,10.3-0.4,20.7-0.5,31c0,1.6,0.4,3.2,0.8,5.2C995.8,456.7,1007.2,456.7,1019.2,456.7z M897,414c-0.2,2.3-0.3,3.7-0.3,5.2   c0,20.2,0.2,40.3,0.1,60.5c-0.1,33.1-0.3,66.3-0.4,99.4c-0.1,26.6-0.2,53.3-0.2,79.9c0,3.1,0.5,6.1,0.7,9.2c32.4,0,64.1,0,96.4,0   c0-14.4,0-28.1,0-42.5c-17.3,0-34.5,0-52.2,0c0-2.3,0-4,0-5.6c0.1-9.7,0.2-19.3,0.2-29c0.1-23.5,0-47,0.1-70.4   c0.2-32.1,0.7-64.3,0.9-96.4c0-3.3-0.3-6.5-0.5-10.3C926.7,414,912.2,414,897,414z M1161.7,668.6c0.4-85.2,0.9-170.1,1.3-255.3   c-15.1,0-29.8,0-44.7,0c0,85.2,0,170.1,0,255.3C1132.7,668.6,1146.8,668.6,1161.7,668.6z" /><path
       id="path9"
       d="M720.3,539.5c2.3,1.5,4.4,2.8,6.5,4.2c8.2,5.8,13.9,13.3,16.4,23.1c5,18.8,5.7,37.9,1.6,56.9   c-3.7,17.2-12.7,31.3-29.3,38.8c-5.6,2.6-12.1,4.1-18.3,4.2c-22,0.6-44,0.5-66,0.5c-4.5,0-5.8-1.4-6-6.1c-0.1-2.7,0-5.3,0-8   c0-74.2,0.1-148.3-0.1-222.5c0-6.4,1.2-12.1,4.5-17.9c17.9,0,36.1,0.1,54.2,0c9.1,0,17.9,0.5,26.5,3.9   c15.1,6.1,25.4,16.7,30.5,32.3c5.1,15.4,6.3,31.3,4.8,47.4c-0.3,3.3-0.5,6.7-1.1,9.9c-2.2,13.2-9.1,23.4-20.4,30.6   C722.9,537.7,721.7,538.6,720.3,539.5z M671.4,626c5.3-0.3,10.3-0.1,15.1-0.9c6.3-1.1,10.4-5.8,10.7-12.1   c0.5-13.1,0.7-26.3,0.5-39.4c-0.1-6.5-2.7-12.4-10-13.9c-5.1-1-10.4-0.9-16.2-1.3C671.4,581.1,671.4,602.8,671.4,626z M671.7,518.8   c3.3-0.3,6.3-0.5,9.3-0.8c9.7-1,14.5-5.6,14.8-15.4c0.4-11.8,0.3-23.7,0.2-35.5c0-5.1-2.6-8.7-7.6-10.7c-5.3-2.1-10.6-2-16.7-1.4   C671.7,476.3,671.7,497.1,671.7,518.8z"
       class="st0" /><path
       id="path11"
       d="M800.8,637.2c-1.6,11-3.2,21.3-4.7,31.9c-12,0-23.6,0-36.2,0c-0.2-2.7-0.8-5.2-0.5-7.7   c3.1-27.6,6.5-55.2,9.6-82.8c4-35.6,7.7-71.2,11.7-106.8c2-17.7,4.2-35.4,6.3-53.1c0.1-1,0.3-1.9,0.6-3.6c2.7-0.4,5.4-1.1,8.2-1.1   c16,0,32,0.1,48,0.2c2.1,0,4.2,0.6,6.9,0.9c0.5,1.9,1.2,3.8,1.4,5.7c2.4,22.4,4.6,44.7,6.9,67.1c3.5,33.3,7.1,66.6,10.6,99.8   c2.1,19.4,4.2,38.7,6.4,58.1c0.5,4.5,1.2,8.9,1.6,13.4c0.2,2.6,0,5.3,0,8.3c-13.3,2-26.6,1.3-40.8,1.5c-1.5-10.2-3-20.3-4.5-31.1   C822,636.5,811.8,637.6,800.8,637.2z M828.2,599.3c-3.4-28.3-7-55.9-10.8-83.4c-0.4,0-0.8,0.1-1.1,0.1   c-3.7,27.6-7.4,55.2-11.2,83.3C812.9,599.3,820.2,599.3,828.2,599.3z"
       class="st0" /><path
       id="path13"
       d="M1297.9,499.3c-13.2,0-25.9,0-39.3,0c-0.2-1.7-0.4-3.4-0.5-5.1c-0.1-9.2,0-18.3-0.2-27.5   c-0.1-5.3-1.8-9.8-7.5-11.7c-8.8-3-17.3,2.6-17.4,12c-0.3,31.2-0.5,62.3-0.6,93.5c-0.1,16.3,0.2,32.7,0.4,49c0,2.8,0.3,5.7,1.1,8.4   c1.8,5.6,6.4,8.5,12.2,8.3c6.2-0.2,10.5-3.6,11.9-9.5c0.6-2.4,0.8-4.9,0.9-7.4c0.1-9.3-0.1-18.7-0.1-28c0-1.8,0.2-3.6,0.3-6   c13.1,0,25.8,0,39,0c0.2,1.5,0.5,3.1,0.5,4.8c-0.1,14.2,0,28.3-0.5,42.5c-0.9,24.1-18.4,42.7-42.3,45.7c-10,1.3-19.9,0.9-29.8-1   c-15.4-3.1-25.9-12.3-32.5-26.2c-4.7-10-6.4-20.7-6.5-31.6c-0.2-44.2-0.1-88.3,0-132.5c0-7.8,0.4-15.7,1.8-23.4   c4.3-23.9,21.2-38.6,45.4-40.4c11-0.8,21.7,0.4,32,3.8c17.4,5.7,27.3,18.4,30.5,36.3C1299.5,468,1299.3,483.2,1297.9,499.3z"
       class="st0" /><path
       id="path15"
       d="M1019.2,456.7c-12,0-23.4,0-35.3,0c-0.3-2.1-0.8-3.6-0.8-5.2c0.1-10.3,0.3-20.7,0.5-31   c0.1-4.4,1.7-5.8,6.3-5.8c25.5-0.2,51-0.4,76.5-0.6c8.1-0.1,16.3-0.1,24.4,0c2.4,0,4.9,0.5,7.1,0.8c1.5,3.9,1.9,34.2,0.5,41.6   c-5.5,0.1-11.3,0.2-17,0.2c-5.6,0-11.3,0-17.5,0c-0.1,1.8-0.3,3.5-0.3,5.3c0.1,63.7,0.2,127.3,0.3,191c0,3.2,0.2,6.3,0,9.5   c-0.1,2.1-0.8,4.1-1.2,6.4c-13.8,0-27,0-41.2,0c-0.4-2.4-1.3-4.9-1.3-7.4c0-22.7,0.3-45.3,0.2-68c-0.1-43-0.4-86-0.6-129   C1019.7,462.2,1019.4,459.9,1019.2,456.7z"
       class="st0" /><path
       id="path17"
       d="M897,414c15.2,0,29.7,0,44.9,0c0.2,3.7,0.5,7,0.5,10.3c-0.3,32.1-0.7,64.3-0.9,96.4c-0.2,23.5-0.1,47-0.1,70.4   c0,9.7-0.1,19.3-0.2,29c0,1.6,0,3.3,0,5.6c17.7,0,34.9,0,52.2,0c0,14.4,0,28.1,0,42.5c-32.3,0-64,0-96.4,0c-0.3-3-0.7-6.1-0.7-9.2   c0-26.6,0.1-53.3,0.2-79.9c0.1-33.1,0.4-66.3,0.4-99.4c0-20.2-0.1-40.3-0.1-60.5C896.7,417.7,896.9,416.2,897,414z"
       class="st0" /><path
       id="path19"
       d="M1161.7,668.6c-14.9,0-29,0-43.4,0c0-85.2,0-170.1,0-255.3c14.9,0,29.6,0,44.7,0   C1162.6,498.6,1162.2,583.4,1161.7,668.6z"
       class="st0" /><path
       style="fill:#808080"
       id="path21"
       d="M671.4,626c0-23.2,0-44.9,0-67.6c5.8,0.4,11.1,0.3,16.2,1.3c7.2,1.5,9.8,7.4,10,13.9c0.3,13.1,0,26.3-0.5,39.4   c-0.2,6.3-4.4,11-10.7,12.1C681.6,625.9,676.7,625.7,671.4,626z" /><path
       style="fill:#808080"
       id="path23"
       d="M671.7,518.8c0-21.7,0-42.6,0-63.7c6-0.6,11.4-0.7,16.7,1.4c4.9,2,7.5,5.5,7.6,10.7c0.1,11.8,0.2,23.7-0.2,35.5   c-0.3,9.8-5.1,14.4-14.8,15.4C678,518.4,675,518.5,671.7,518.8z" /><path
       style="fill:#808080"
       id="path25"
       d="M828.2,599.3c-8,0-15.3,0-23.2,0c3.8-28.2,7.5-55.8,11.2-83.3c0.4,0,0.8-0.1,1.1-0.1C821.2,543.4,824.8,571,828.2,599.3z" /></g></svg>