<?xml version="1.0" encoding="UTF-8" standalone="no"?>
<svg
   xmlns:dc="http://purl.org/dc/elements/1.1/"
   xmlns:cc="http://creativecommons.org/ns#"
   xmlns:rdf="http://www.w3.org/1999/02/22-rdf-syntax-ns#"
   xmlns:svg="http://www.w3.org/2000/svg"
   xmlns="http://www.w3.org/2000/svg"
   id="svg1879"
   height="177.16534"
   width="921.25983"
   version="1.0">
  <metadata
     id="metadata117">
    <rdf:RDF>
      <cc:Work
         rdf:about="">
        <dc:format>image/svg+xml</dc:format>
        <dc:type
           rdf:resource="http://purl.org/dc/dcmitype/StillImage" />
        <dc:title></dc:title>
      </cc:Work>
    </rdf:RDF>
  </metadata>
  <defs
     id="defs1881" />
  <g
     id="layer1">
    <g
       id="Ebene_x0020_1"
       style="fill-rule:evenodd"
       transform="matrix(3.543307e-5,0,0,3.543307e-5,3.330078e-6,-1.800462e-4)">
      <path
         id="_84496176"
         d="m 3996990,4612350 -3496990,0 0,-3497140 0,0 3496990,0 z"
         style="fill:#808080" />
      <path
         d="M 764760,4398770 2244130,2466350 3757430,4441470 2244130,3227340 764760,4398770 l 0,0 z m 0,-1205890 L 2244130,1260460 3757430,3235570 2244130,2021500 764760,3192880 l 0,0 z"
         style="fill:#ffffff;fill-opacity:1"
         id="_84826112" />
      <path
         d="m 8309570,4578130 729320,0 0,-3468110 -729320,0 0,3468110 0,0 z m 2085210,0 741480,0 0,-2790950 1040890,0 0,-677160 -2865120,0 0,677160 1082750,0 0,2790950 z m 6946870,11670 c 986530,0 1770160,-787310 1770160,-1760900 0,-945590 -797700,-1718880 -1755940,-1718880 -981920,0 -1779620,768630 -1779620,1746870 0,959570 792940,1732910 1765400,1732910 z m 0,-633580 c -623190,0 -1104520,-503100 -1104520,-1117950 0,-610300 500400,-1094720 1113930,-1094720 604130,0 1099860,493780 1099860,1090010 0,614910 -481470,1122660 -1109270,1122660 z m 7317750,621910 826730,4460 13870,-3477330 -756920,-2890 340,2273600 -1348340,-2270710 -866670,0 -1180,3472870 741130,0 9610,-2327510 1381430,2327510 z M 20264030,403050 c -175940,0 -321720,145890 -321720,321720 0,175830 145780,321720 321720,321720 175730,0 321670,-145890 321670,-321720 0,-175830 -145940,-321720 -321670,-321720 z m 1050150,-15390 c -175780,0 -321720,145880 -321720,321770 0,175830 145940,321670 321720,321670 175940,0 321870,-145840 321870,-321670 0,-175890 -145930,-321770 -321870,-321770 z m -8138840,2252810 c 0,0 732220,1180 732220,1180 523190,0 638920,-145930 638920,-460640 0,-334220 -115730,-438680 -664320,-438680 0,0 -706820,540 -706820,540 l 0,897600 z m 1463590,1937660 -875590,-1340840 -549960,-1420 350,1342260 -710600,0 c 0,0 0,-3465910 0,-3465910 0,0 859270,-1860 1441140,-2200 1159370,-690 1297900,471910 1297220,1147260 -350,508290 -221380,741920 -695010,926280 0,0 926190,1394570 926190,1394570 l -833740,0 z M 7902660,1926840 c -350350,-559470 -822460,-819570 -1482470,-816820 -979860,4160 -1774810,842550 -1730940,1821430 42010,934320 790690,1653600 1725940,1664820 672410,8190 1157710,-259070 1510410,-831670 0,0 -595550,-343290 -595550,-343290 -220140,379070 -558140,556520 -995250,522600 -568480,-44160 -973140,-520540 -973490,-1090740 -540,-570690 404660,-1046630 973490,-1092410 440540,-35390 782260,144220 1002800,527060 0,0 565060,-360980 565060,-360980 z m 11617500,2651290 2528650,0 0,-726130 -1831780,0 0,-680640 1647410,0 0,-705890 -1647410,0 -1870,-675400 1831730,0 0,-691380 -2528640,0 1910,3479440 z"
         style="fill:#808080;fill-opacity:1"
         id="_81305288" />
    </g>
  </g>
</svg>
