<?xml version="1.0" encoding="UTF-8" standalone="no"?>
<svg
   xmlns:dc="http://purl.org/dc/elements/1.1/"
   xmlns:cc="http://creativecommons.org/ns#"
   xmlns:rdf="http://www.w3.org/1999/02/22-rdf-syntax-ns#"
   xmlns:svg="http://www.w3.org/2000/svg"
   xmlns="http://www.w3.org/2000/svg"
   xml:space="preserve"
   enable-background="new 0 0 489.6 182.3"
   viewBox="0 0 489.6 182.3"
   y="0px"
   x="0px"
   id="Layer_1"
   version="1.1"><metadata
     id="metadata211"><rdf:RDF><cc:Work
         rdf:about=""><dc:format>image/svg+xml</dc:format><dc:type
           rdf:resource="http://purl.org/dc/dcmitype/StillImage" /><dc:title></dc:title></cc:Work></rdf:RDF></metadata><defs
     id="defs209" /><path
     style="fill:#808080"
     id="path205"
     d="M7,182.3c-3.8,0-7-3.3-7-6.9v-7.5c0-3.7,3.2-6.9,7-6.9H83c3.7,0,6.9,3.2,6.9,6.9v7.5c0,3.7-3.2,6.9-6.9,6.9H7z M18.9,129.7  c-3.7,0-6.8-3.1-6.8-6.9V8.9C12,5.2,15.3,2,19.1,2h7.6c3.7,0,6.8,3.2,6.8,6.9v99.6h38.3c3.7,0,6.8,3.2,6.8,6.9v7.5  c0,3.7-3.1,6.9-6.8,6.9H18.9z M162.7,129.7l-8.9-28.8h-36.5l-9,28.8H86.7L125,8.9c1.4-4.6,3.1-6.9,6.8-6.9h7.4  c3.7,0,5.3,2.3,6.9,6.9l38,120.8H162.7z M135.5,39.4l-11.8,40.2H147L135.5,39.4z M212.9,95.7c0,8.6,7,14.8,15.7,14.8h1.6  c7.8,0,13.9-5.2,15-12.4c1-6.1,5.5-6.5,7.4-6.5h7c3.8,0,6.9,3.2,6.9,6.8c0,16.3-14.9,33.3-36.3,33.3h-1.6c-20.3,0-37-15.6-37-36.1  V36c0-20.5,16.6-36,37-36h1.6c21.4,0,36.3,17,36.3,33.3c0,3.7-3.1,6.7-6.9,6.7h-7c-1.9,0-6.4-0.3-7.4-6.4c-1.1-7.2-7.2-12.4-15-12.4  h-1.6c-8.8,0-15.7,6.3-15.7,14.8V95.7z M283.3,8.9c0-3.7,3.1-6.9,6.8-6.9h9.6c3.1,0,5.7,2.1,7.7,6.9l23.5,53l23.4-53  c2.1-4.8,4.7-6.9,7.8-6.9h9.7c3.6,0,6.8,3.2,6.8,6.9v120.8h-21.1V48.8L331,108.3l-26.6-59.5v80.9h-21V8.9z M398,182.3  c-3.8,0-6.9-3.3-6.9-6.9v-7.5c0-3.7,3.1-6.9,6.9-6.9h84.7c3.7,0,6.8,3.2,6.8,6.9v7.5c0,3.7-3.1,6.9-6.8,6.9H398z M467.2,129.7  l-8.8-28.8h-36.6l-8.9,28.8h-21.6L429.5,8.9c1.5-4.6,3.1-6.9,6.8-6.9h7.4c3.7,0,5.3,2.3,6.9,6.9l38,120.8H467.2z M440,39.4  l-11.8,40.2h23.4L440,39.4z" /></svg>