<svg xmlns="http://www.w3.org/2000/svg" version="1" viewBox="0 72.237 150 54.748"><path fill="#009AA6" d="M97.243 81.875v10.538c0 .19-.155.348-.345.348h-.433c-.19 0-.346-.156-.346-.347V81.875c0-.104-.07-.173-.174-.173h-2.56c-.19 0-.347-.157-.347-.348v-.417c0-.19.155-.348.345-.348h6.574c.19 0 .345.156.345.347v.417c0 .19-.156.348-.346.348h-2.543c-.104 0-.174.07-.174.173m9.566 5.044c0-1.166-.865-2-2.11-2-1.246 0-2.11.834-2.11 1.912v5.582c0 .19-.157.348-.347.348h-.33c-.19 0-.345-.157-.345-.348v-11.6c0-.19.155-.347.346-.347h.33c.19 0 .345.156.345.348v3.147c0 .157.137.365.38.365.345 0 .83-.435 1.85-.435 1.815 0 3.01 1.392 3.01 3.026v5.495c0 .19-.156.348-.347.348h-.328c-.19 0-.347-.156-.347-.347V86.92m3.807.763c0 .104.07.174.173.174h4.67c.105 0 .174-.07.174-.174 0-1.774-1.073-2.765-2.492-2.765-1.54 0-2.525.99-2.525 2.765m.138 1.15c-.104 0-.173.068-.173.172 0 1.67.76 2.904 2.543 2.904 1.332 0 2.06-.818 2.318-1.635.07-.226.243-.295.4-.295h.345c.173 0 .33.104.293.347-.207 1.513-1.557 2.608-3.355 2.608-2.076 0-3.408-1.478-3.546-3.304-.05-.694-.05-1.738 0-2.434.14-1.826 1.47-3.304 3.546-3.304 1.938 0 3.46 1.565 3.46 3.48v1.112c0 .19-.156.348-.347.348h-5.483zM95.947 99.265c-.104 0-.173.07-.173.174v3.65c0 .105.07.175.173.175h1.643c1.09 0 1.99-.904 1.99-2 0-1.095-.9-2-1.99-2h-1.643m1.643-1.65c2.007 0 3.633 1.633 3.633 3.65 0 2.018-1.626 3.65-3.633 3.65h-1.643c-.104 0-.173.07-.173.176v4.348c0 .19-.156.348-.347.348h-.952c-.19 0-.346-.155-.346-.348V97.962c0-.19.155-.348.345-.348h3.115zm6.244 9.04c.07.923.796 1.74 1.99 1.74 1.193 0 1.92-.817 1.99-1.74.05-.712.05-1.72 0-2.434-.07-.92-.797-1.738-1.99-1.738s-1.92.818-1.99 1.74c-.053.712-.053 1.72 0 2.434m-1.556-2.435c.138-1.824 1.47-3.303 3.545-3.303 2.076 0 3.408 1.48 3.546 3.304.05.696.05 1.74 0 2.436-.14 1.826-1.47 3.304-3.547 3.304-2.076 0-3.408-1.48-3.545-3.304-.053-.695-.053-1.74 0-2.435m14.772-.346h-.865c-.19 0-.346-.156-.346-.348 0-.61-.468-1.13-1.61-1.13-1.072 0-1.52.54-1.52 1.043 0 .677.673.903 1.52 1.06 1.453.26 3.408.557 3.408 2.678 0 1.86-1.61 2.782-3.408 2.782-1.73 0-3.425-.87-3.425-2.782v-.226c0-.19.156-.35.347-.35h.864c.19 0 .346.158.346.35v.226c0 1.043 1.072 1.287 1.868 1.287.934 0 1.85-.244 1.85-1.287 0-.713-.847-.904-1.85-1.112-1.418-.296-3.13-.66-3.13-2.626 0-1.565 1.556-2.52 3.13-2.52 1.61 0 3.166.955 3.166 2.606 0 .192-.157.348-.346.348m6.78-2.696c.19 0 .346.156.346.348v.87c0 .19-.155.348-.346.348h-1.99c-.103 0-.172.07-.172.174v4.086c0 .766.328 1.27 1.384 1.27h.952c.19 0 .345.156.345.348v.818c0 .19-.156.347-.346.347h-.952c-1.8 0-2.94-.782-2.94-2.78v-4.088c0-.105-.07-.175-.173-.175h-1.212c-.19 0-.346-.156-.346-.348v-.87c0-.19.156-.348.346-.348h1.21c.105 0 .173-.07.173-.175V98.31c0-.19.157-.348.348-.348h.864c.19 0 .346.156.346.348v2.695c0 .104.07.174.173.174h1.99m4.394 4.78c-.882 0-1.298.47-1.298 1.2 0 .853.536 1.357 1.54 1.357 1.592 0 2.18-.644 2.18-1.826v-.556c0-.104-.07-.174-.173-.174h-2.25m-.934-2.556c0 .296-.243.296-.4.296h-.777c-.26 0-.346-.14-.346-.348 0-1.617 1.66-2.435 3.132-2.435 1.953 0 3.164.852 3.164 2.782v5.737c0 .19-.156.348-.346.348h-.588c-.104 0-.173-.034-.242-.12-.104-.14-.173-.366-.346-.366-.31 0-.744.66-2.024.66-2.128 0-3.148-1.305-3.148-2.782 0-1.443 1.038-2.644 2.855-2.644h2.11c.104 0 .173-.07.173-.174v-.66c0-.938-.64-1.39-1.608-1.39-.607 0-1.61.26-1.61 1.094m8.544 6.034c0 .19-.155.348-.346.348h-.865c-.19 0-.346-.156-.346-.348V97.84c0-.19.156-.348.346-.348h.865c.19 0 .346.156.346.348v11.598m-37.016 15.46c.035.104.14.104.173 0l2.786-9.964c.052-.208.173-.296.363-.296h1.193c.19 0 .346.157.346.35v11.476c0 .19-.156.348-.347.348h-.38c-.19 0-.346-.156-.346-.348v-10.016c0-.104-.12-.104-.14-.035l-2.922 10.103c-.07.21-.173.296-.363.296h-.554c-.19 0-.294-.087-.363-.296l-2.923-10.103c-.017-.07-.138-.07-.138.035v10.016c0 .19-.156.348-.346.348h-.38c-.19 0-.347-.156-.347-.348v-11.477c0-.19.157-.35.347-.35h1.195c.19 0 .31.09.362.297l2.784 9.964m7.04-6.433c0-.19.155-.348.346-.348h.328c.19 0 .346.156.346.348v5.494c0 1.46.95 2 2.197 2s2.197-.835 2.197-1.913v-5.582c0-.19.156-.348.346-.348h.33c.19 0 .345.156.345.348v8c0 .19-.155.347-.346.347h-.277c-.104 0-.173-.052-.242-.122-.104-.122-.208-.278-.416-.278-.5 0-.778.574-2.058.574-1.817 0-3.098-1.044-3.098-3.026v-5.495M119.8 120.9h-.328c-.19 0-.346-.105-.346-.366 0-.853-.76-1.617-1.972-1.617s-2.007.695-2.007 1.426c0 .956 1.073 1.147 1.92 1.304 1.453.26 3.407.73 3.407 2.644 0 1.46-1.315 2.696-3.32 2.696-1.73 0-3.34-1.044-3.34-2.782v-.227c0-.19.156-.348.346-.348h.33c.19 0 .345.156.345.347v.227c0 1.043 1.038 1.773 2.318 1.773 1.418 0 2.3-.748 2.3-1.687 0-1.095-1.33-1.443-2.387-1.6-1.52-.226-2.958-.748-2.958-2.348 0-1.356 1.47-2.4 3.044-2.4 1.557 0 2.992.975 2.992 2.592 0 .26-.154.365-.344.365m3.147.833c0 .104.07.174.173.174h4.67c.105 0 .174-.07.174-.174 0-1.773-1.072-2.765-2.49-2.765-1.54 0-2.527.992-2.527 2.765m.14 1.148c-.105 0-.174.07-.174.175 0 1.67.76 2.904 2.543 2.904 1.332 0 2.06-.818 2.318-1.636.07-.226.242-.296.398-.296h.346c.173 0 .33.105.294.35-.207 1.512-1.557 2.607-3.355 2.607-2.076 0-3.408-1.48-3.547-3.304-.05-.694-.05-1.738 0-2.434.14-1.825 1.47-3.304 3.547-3.304 1.938 0 3.46 1.565 3.46 3.478v1.113c0 .19-.157.348-.347.348h-5.484zm7.61-4.415c0-.19.155-.348.346-.348h.33c.19 0 .345.156.345.348v5.494c0 1.46.952 2 2.197 2s2.196-.835 2.196-1.913v-5.582c0-.19.157-.348.348-.348h.328c.19 0 .347.156.347.348v8c0 .19-.156.347-.347.347h-.276c-.104 0-.173-.052-.242-.122-.104-.122-.208-.278-.416-.278-.5 0-.778.574-2.058.574-1.817 0-3.097-1.044-3.097-3.026v-5.495m18.283 2.504c0-1.288-.76-2-1.903-2-1.073 0-2.006.868-2.006 2v5.494c0 .19-.155.348-.345.348h-.312c-.19 0-.346-.157-.346-.348v-5.495c0-.905-.778-2-2.006-2-1.072 0-1.902 1.043-1.902 1.912v5.582c0 .19-.156.348-.346.348h-.33c-.19 0-.345-.157-.345-.348v-8c0-.19.156-.347.346-.347h.277c.104 0 .173.052.242.12.104.123.225.28.433.28.536 0 .9-.574 1.938-.574 1.003 0 1.54.52 1.92.834.26.21.415.21.674 0 .38-.313 1.038-.834 2.284-.834 1.817 0 2.75 1.286 2.75 3.025v5.495c0 .19-.154.348-.345.348h-.33c-.188 0-.345-.156-.345-.347v-5.494M50.964 101.41c-2.985 2.364-5.623 4.44-8.597 4.487v.144l-.002-.145c-2.974-.05-5.612-2.124-8.597-4.488L0 72.237v54.72h84.73v-54.72l-33.766 29.175"/></svg>