<?xml version="1.0" encoding="UTF-8" standalone="no"?>
<svg
   xmlns:dc="http://purl.org/dc/elements/1.1/"
   xmlns:cc="http://creativecommons.org/ns#"
   xmlns:rdf="http://www.w3.org/1999/02/22-rdf-syntax-ns#"
   xmlns:svg="http://www.w3.org/2000/svg"
   xmlns="http://www.w3.org/2000/svg"
   id="svg254"
   preserveAspectRatio="xMidYMid meet"
   viewBox="0 0 1024.000000 496.000000"
   height="496.000000pt"
   width="1024.000000pt"
   version="1.0">
  <defs
     id="defs302" />
  <metadata
     id="metadata256">
Created by potrace 1.14, written by Peter Selinger 2001-2017
<rdf:RDF>
  <cc:Work
     rdf:about="">
    <dc:format>image/svg+xml</dc:format>
    <dc:type
       rdf:resource="http://purl.org/dc/dcmitype/StillImage" />
    <dc:title></dc:title>
  </cc:Work>
</rdf:RDF>
</metadata>
  <g
     style="fill:#808080"
     id="g258"
     stroke="none"
     fill="#000000"
     transform="translate(0.000000,496.000000) scale(0.100000,-0.100000)">
    <path
       style="fill:#808080"
       id="path260"
       d="M3558 4651 l-98 -95 0 -198 0 -198 390 0 390 0 0 -100 0 -100 -390 0 -390 0 0 -95 0 -95 490 0 490 0 0 290 0 290 -392 2 -393 3 -3 98 -3 97 396 0 395 0 0 95 c0 84 -2 95 -17 95 -10 1 -187 2 -393 3 l-375 2 -97 -94z" />
    <path
       style="fill:#808080"
       id="path262"
       d="M4738 4652 l-98 -96 0 -393 0 -393 485 0 485 0 0 95 0 95 -390 0 -390 0 0 295 0 295 390 0 390 0 0 95 0 95 -362 1 c-200 0 -374 2 -388 3 -20 3 -45 -16 -122 -92z" />
    <path
       style="fill:#808080"
       id="path264"
       d="M5814 4741 c-2 -2 -4 -46 -4 -98 l0 -93 95 0 95 0 0 98 0 97 -91 0 c-50 0 -93 -2 -95 -4z" />
    <path
       style="fill:#808080"
       id="path266"
       d="M6204 4741 c-2 -2 -4 -46 -4 -98 l0 -93 295 0 295 0 0 95 c0 84 -2 95 -17 95 -142 4 -566 4 -569 1z" />
    <path
       style="fill:#808080"
       id="path268"
       d="M5810 4060 l0 -290 95 0 95 0 0 290 0 290 -95 0 -95 0 0 -290z" />
    <path
       style="fill:#808080"
       id="path270"
       d="M6200 4255 l0 -95 295 0 295 0 0 95 0 95 -295 0 -295 0 0 -95z" />
    <path
       style="fill:#808080"
       id="path272"
       d="M6207 3953 c-4 -3 -7 -46 -7 -95 l0 -88 295 0 295 0 0 95 0 95 -288 0 c-159 0 -292 -3 -295 -7z" />
    <path
       style="fill:#808080"
       id="path274"
       d="M3460 3080 l0 -490 95 0 95 0 0 390 0 390 295 0 295 0 0 -390 0 -391 98 3 97 3 3 385 2 384 -102 103 -103 103 -387 0 -388 0 0 -490z" />
    <path
       style="fill:#808080"
       id="path276"
       d="M4737 3472 l-97 -97 0 -393 0 -392 485 0 485 0 0 95 0 95 -390 0 -390 0 0 295 0 295 390 0 390 0 0 100 0 100 -388 0 -387 0 -98 -98z" />
    <path
       style="fill:#808080"
       id="path278"
       d="M5817 3563 c-4 -3 -7 -180 -7 -392 l0 -386 98 -98 97 -97 393 0 392 0 0 95 0 95 -392 2 -393 3 -3 292 -2 293 392 2 393 3 0 95 0 95 -481 3 c-264 1 -484 -1 -487 -5z" />
    <path
       style="fill:#808080"
       id="path280"
       d="M6204 3167 c-2 -7 -4 -52 -2 -98 l3 -84 293 -3 293 -2 -3 97 -3 98 -288 3 c-238 3 -288 1 -293 -11z" />
    <path
       style="fill:#808080"
       id="path282"
       d="M3460 1900 l0 -490 95 0 95 0 0 390 0 390 295 0 295 0 0 -390 0 -391 98 3 97 3 2 385 3 385 -98 103 -98 102 -392 0 -392 0 0 -490z" />
    <path
       style="fill:#808080"
       id="path284"
       d="M4640 1994 l0 -395 94 -95 95 -94 390 0 391 0 0 490 0 490 -95 0 -95 0 -2 -392 -3 -393 -290 0 -290 0 -3 393 -2 392 -95 0 -95 0 0 -396z" />
    <path
       style="fill:#808080"
       id="path286"
       d="M5907 2292 l-97 -98 2 -194 3 -195 390 -5 390 -5 0 -95 0 -95 -392 -3 -393 -2 0 -95 0 -95 490 0 490 0 0 295 0 295 -395 0 -395 0 0 95 0 95 33 0 c17 0 194 1 392 3 l360 2 3 98 3 97 -393 0 -393 0 -98 -98z" />
    <path
       style="fill:#808080"
       id="path288"
       d="M3850 1705 l0 -295 95 0 95 0 0 295 0 295 -95 0 -95 0 0 -295z" />
    <path
       style="fill:#808080"
       id="path290"
       d="M3460 817 l0 -392 98 -98 98 -97 389 2 390 3 0 95 0 95 -390 2 -390 2 0 293 0 293 393 3 393 2 -3 93 -3 92 -487 3 -488 2 0 -393z" />
    <path
       style="fill:#808080"
       id="path292"
       d="M4636 1203 c-3 -4 -6 -178 -6 -387 l1 -381 102 -102 102 -103 387 0 388 0 0 490 0 490 -95 0 -95 0 -2 -391 -3 -391 -280 1 c-154 1 -286 1 -292 1 -10 0 -13 85 -13 390 l0 390 -93 0 c-52 0 -97 -3 -101 -7z" />
    <path
       style="fill:#808080"
       id="path294"
       d="M5810 720 l0 -490 95 0 95 0 2 393 3 392 295 0 295 0 2 -390 2 -390 95 -3 96 -3 0 393 0 393 -98 98 -97 97 -393 0 -392 0 0 -490z" />
    <path
       style="fill:#808080"
       id="path296"
       d="M3852 723 l3 -98 290 0 290 0 0 95 0 95 -293 3 -293 2 3 -97z" />
    <path
       style="fill:#808080"
       id="path298"
       d="M6205 807 c-3 -7 -4 -138 -3 -292 l3 -280 98 -3 97 -3 0 296 0 295 -95 0 c-68 0 -97 -4 -100 -13z" />
  </g>
</svg>
