<?xml version="1.0" encoding="UTF-8" standalone="no"?>
<svg
   xmlns:dc="http://purl.org/dc/elements/1.1/"
   xmlns:cc="http://creativecommons.org/ns#"
   xmlns:rdf="http://www.w3.org/1999/02/22-rdf-syntax-ns#"
   xmlns:svg="http://www.w3.org/2000/svg"
   xmlns="http://www.w3.org/2000/svg"
   id="svg304"
   version="1.1"
   viewBox="0 0 207 60"
   height="60px"
   width="207px">
  <metadata
     id="metadata318">
    <rdf:RDF>
      <cc:Work
         rdf:about="">
        <dc:format>image/svg+xml</dc:format>
        <dc:type
           rdf:resource="http://purl.org/dc/dcmitype/StillImage" />
        <dc:title>Combined Shape</dc:title>
      </cc:Work>
    </rdf:RDF>
  </metadata>
  <!-- Generator: Sketch 39 (31667) - http://www.bohemiancoding.com/sketch -->
  <title
     id="title306">Combined Shape</title>
  <desc
     id="desc308">Created with Sketch.</desc>
  <defs
     id="defs310" />
  <g
     style="fill:#808080"
     fill-rule="evenodd"
     fill="none"
     stroke-width="1"
     stroke="none"
     id="Symbols">
    <g
       style="fill:#808080"
       fill="#000000"
       transform="translate(-40.000000, -19.000000)"
       id="header-master">
      <g
         style="fill:#808080"
         id="header">
        <path
           style="fill:#808080"
           id="Combined-Shape"
           d="M107.702321,19.0990468 L107.702321,24.3766994 L115.038404,24.3766994 L115.038404,46.2081638 L120.483152,46.2081638 L120.483152,24.3766994 L127.824078,24.3766994 L127.824078,19.0990468 L107.702321,19.0990468 Z M98.7317651,36.8741129 C98.7317651,39.1747109 96.9582865,40.8505149 94.6576885,40.8505149 C92.3756567,40.8505149 90.5537445,39.1747109 90.5537445,36.8741129 L90.5593951,19.0989661 L85.1073814,19.0989661 L85.1073814,36.8741129 C85.1073814,42.3479217 89.2016387,46.3041431 94.6576885,46.3041431 C100.132305,46.3041431 104.18055,42.3479217 104.18055,36.8741129 L104.18055,19.0989661 L98.7317651,19.0989661 L98.7317651,36.8741129 Z M170.908629,32.6317294 C172.207457,31.8196587 173.499021,29.864554 173.499021,27.1732579 C173.499021,22.4130381 170.044895,19.0993697 165.352483,19.0993697 L155.353357,19.0993697 L155.353357,46.2076794 L165.455,46.2076794 C170.323389,46.2076794 173.607997,42.9440591 173.607997,38.0579118 C173.607997,35.6346153 172.218759,33.4462218 170.908629,32.6317294 Z M71.681495,19.0012916 C66.2246379,19.0012916 62.1578264,22.9558985 62.1578264,28.4313218 L62.1578264,36.8741129 C62.1578264,42.3479217 66.2246379,46.3041431 71.681495,46.3041431 C77.1569183,46.3041431 81.2100069,42.3479217 81.2100069,36.8741129 L81.2100069,28.4313218 C81.2100069,22.9558985 77.1569183,19.0012916 71.681495,19.0012916 Z M225.048077,46.2072758 L230.493633,46.2072758 L230.493633,19.0989661 L225.048077,19.0989661 L225.048077,46.2072758 Z M236.585536,32.5857175 L246.02606,19.0993697 L239.918578,19.0993697 L230.495005,32.5857175 L239.98477,46.2076794 L246.100325,46.2076794 L236.585536,32.5857175 Z M214.48139,35.3101099 L206.380863,19.0993697 L200.861043,19.0993697 L200.861043,46.2076794 L206.309827,46.2076794 L206.309827,29.8613251 L214.498342,46.2076794 L219.930175,46.2076794 L219.930175,19.0993697 L214.48139,19.0993697 L214.48139,35.3101099 Z M183.828706,19.0993697 L175.699927,46.2076794 L181.148711,46.2076794 L182.695359,40.7524368 L190.468152,40.7524368 L192.041438,46.2076794 L197.485379,46.2076794 L189.359828,19.0993697 L183.828706,19.0993697 Z M144.968054,29.8613251 L136.792455,29.8613251 L136.792455,19.0993697 L131.346899,19.0993697 L131.346899,46.2076794 L136.795684,46.2076794 L136.795684,35.3101099 L144.968054,35.3101099 L144.968054,46.2076794 L150.416032,46.2076794 L150.416032,19.0993697 L144.968054,19.0993697 L144.968054,29.8613251 Z M98.7325723,68.0363185 L90.5787686,51.739205 L85.1065742,51.739205 L85.1065742,78.9322736 L90.5545518,78.9322736 L90.5545518,62.5859193 L98.7325723,78.9322736 L104.18055,78.9322736 L104.18055,51.739205 L98.7325723,51.739205 L98.7325723,68.0363185 Z M63.3044122,78.8629328 L80.0632597,78.8613183 L80.0632597,73.414148 L68.7523897,73.414148 L68.7523897,67.9653632 L76.9021573,67.9653632 L76.9021573,62.5165784 L68.7523897,62.5165784 L68.7523897,57.0677936 L80.0632597,57.0677936 L80.0632597,51.740093 L63.3076411,51.740093 L63.3044122,78.8629328 Z M49.5342433,51.6914979 C44.0773862,51.6914979 40.0089602,55.6452976 40.0089602,61.1231425 L40.0089602,69.5659337 C40.0089602,75.0413569 44.0773862,79 49.5342433,79 C55.0137027,79 59.0684058,75.0413569 59.0684058,69.5659337 L59.0684058,67.9813463 L53.6204282,67.9813463 L53.6204282,69.5659337 C53.6204282,71.8689534 51.8348413,73.5447574 49.5342433,73.5447574 C47.2546331,73.5447574 45.4512872,71.8689534 45.4512872,69.5659337 L45.4512872,61.1231425 C45.4512872,58.8225445 47.2546331,57.145126 49.5342433,57.145126 C51.8348413,57.145126 53.6204282,58.8225445 53.6204282,61.1231425 L53.6204282,62.5430555 L59.0684058,62.5430555 L59.0684058,61.1231425 C59.0684058,55.6452976 55.0137027,51.6914979 49.5342433,51.6914979 Z M49.571295,19 C44.3243171,19 40,21.7494164 40,26.7840936 C40,36.8155082 53.6187331,33.7569237 53.6187331,38.5058423 C53.6187331,40.3850676 52.2585549,40.7919102 49.6415238,40.7919102 C46.9413482,40.7919102 45.4479776,40.3850676 45.4479776,38.0804335 L40,38.0804335 L40,38.4364208 C40,43.645459 44.1120163,46.2818636 49.5010662,46.2818636 C54.7472369,46.2818636 59.0699395,43.5397122 59.0699395,38.5421675 C59.0699395,28.1571874 45.4479776,31.6298795 45.4479776,26.7727924 C45.4479776,24.8951815 47.0551673,24.4205318 49.4284157,24.4205318 C51.8412184,24.4205318 53.6477932,24.8951815 53.6477932,27.1982012 L59.0699395,27.1982012 L59.0699395,26.8438284 C59.0699395,21.6331757 54.9595377,19 49.571295,19 Z M107.708214,57.0677936 L115.044297,57.0677936 L115.044297,78.8629328 L120.489045,78.8629328 L120.489045,57.0677936 L127.830778,57.0677936 L127.830778,51.7384785 L107.708214,51.7384785 L107.708214,57.0677936 Z M142.253187,51.7449363 L131.358846,51.7384785 L131.358846,78.8976436 L136.809245,78.8976436 L136.809245,68.0016885 L137.708497,68.0016885 L144.261569,78.8782701 L150.375509,78.8782701 L143.750594,67.8483152 C147.679369,67.1767021 150.394075,63.9938045 150.394075,59.8349691 L150.403762,59.8503064 C150.403762,55.0925083 146.946407,51.7449363 142.253187,51.7449363 Z M155.351985,78.8266883 L172.11164,78.8266883 L172.11164,73.3779035 L160.80077,73.3779035 L160.80077,67.9307332 L168.950537,67.9307332 L168.950537,62.4819484 L160.80077,62.4819484 L160.80077,57.0331636 L172.11164,57.0331636 L172.11164,51.7401737 L155.355214,51.7385592 L155.351985,78.8266883 Z M165.455,40.7588946 L160.800527,40.7588946 L160.800527,35.3165677 L165.256423,35.3165677 C167.012949,35.3165677 168.13661,36.2529514 168.163248,38.0675986 C168.163248,39.8095952 167.206684,40.7588946 165.455,40.7588946 Z M160.800527,24.4125403 L165.370242,24.4125403 C166.928998,24.4125403 168.078489,25.4708154 168.078489,27.1207881 C168.078489,28.8619776 166.970166,29.8548672 165.221712,29.8548672 L160.800527,29.8548672 L160.800527,24.4125403 Z M75.7628366,36.8741129 C75.7628366,39.1747109 73.9804786,40.8505149 71.681495,40.8505149 C69.4002704,40.8505149 67.5993461,39.1747109 67.5993461,36.8741129 L67.5993461,28.4313218 C67.5993461,26.1323382 69.4002704,24.4516908 71.681495,24.4516908 C73.9804786,24.4516908 75.7628366,26.1323382 75.7628366,28.4313218 L75.7628366,36.8741129 Z M184.238778,35.3101099 L186.578123,27.1199809 L188.927962,35.3101099 L184.238778,35.3101099 Z M142.112729,62.5480603 L136.802788,62.5480603 L136.802788,57.1073478 L142.262066,57.1073478 C143.823244,57.1073478 144.971121,58.1648156 144.971121,59.8139812 C144.971121,61.5559779 143.861991,62.5480603 142.112729,62.5480603 Z" />
      </g>
    </g>
  </g>
</svg>
