<svg version="1.1" xmlns="http://www.w3.org/2000/svg" xmlns:xlink="http://www.w3.org/1999/xlink" x="0px" y="0px" width="312px"
   height="210px" viewBox="0 0 312 210" enable-background="new 0 0 312 210" xml:space="preserve">
<g id="Layer_1" display="none">
  <g id="_x23_ffffffff" display="inline">
    <path fill="#FFFFFF" d="M96.58,83.11C86.31,69.62,75.6,56.44,65.63,42.73c11.85-0.05,23.7,0.04,35.56,0
      c4.73,7.07,9.27,14.26,13.9,21.4c4.33-6.35,8.35-12.89,12.62-19.28c0.71-1.03,1.65-2.38,3.13-2.03
      c11.29-0.03,22.58-0.12,33.86,0.44c-10.79,13.35-21.63,26.66-32.5,39.94c10.64,14.24,21.3,28.47,32.25,42.47
      c0.05,0.38,0.159,1.15,0.21,1.54c-11.75-0.41-23.6,0.7-35.29-0.64c-5.46-7.4-10.31-15.271-15.49-22.88
      c-5.45,7.41-10.15,15.35-15.47,22.85c-11.94,0.53-23.95,0.08-35.91,0.101C73.73,112.03,85.34,97.71,96.58,83.11z"/>
    <path fill="#FFFFFF" d="M175.58,127.18c-0.221-27.88-0.2-55.76-0.2-83.64c11.11,0.01,22.229,0.01,33.34,0.09
      c0.011,19.58,0.521,39.15,0.521,58.73c12.35,0.02,24.699,0.04,37.05,0.15c0.069,8.271,0.17,16.54,0.09,24.801
      C222.78,127.27,199.18,127.25,175.58,127.18z"/>
    <path fill="#FFFFFF" d="M49.52,170.71c-0.01-2.7-0.02-5.41-0.01-8.12c3.25-0.01,6.5,0.01,9.75,0.07c0.5,0.3,1.5,0.89,2,1.18
      c0.4,1.12,0.8,2.24,1.2,3.36c-0.66,1.069-1.24,2.21-2.09,3.159C56.81,171.09,53.13,170.66,49.52,170.71z"/>
  </g>
  <g id="_x23_151912ff" display="inline">
    <path fill="#808080" d="M44.57,23.79c11.14-0.04,22.28,0,33.43,0.04c5.01-0.12,10.03,0.02,15.03,0.33
      c57.75,0.1,115.51,0.11,173.26,0.35c0.04,41.01,0.271,82.01,0.271,123.01C210.71,147.49,154.86,147.24,99,147.189
      c-18.06-0.779-36.15-0.159-54.22-0.479C44.66,105.73,44.48,64.76,44.57,23.79 M96.58,83.11c-11.24,14.6-22.85,28.92-34.08,43.531
      c11.96-0.021,23.97,0.43,35.91-0.101c5.32-7.5,10.02-15.44,15.47-22.85c5.18,7.61,10.03,15.48,15.49,22.88
      c11.69,1.34,23.54,0.229,35.29,0.64c-0.051-0.39-0.16-1.16-0.21-1.54c-10.95-14-21.61-28.23-32.25-42.47
      c10.87-13.28,21.71-26.59,32.5-39.94c-11.28-0.56-22.57-0.47-33.86-0.44c-1.48-0.35-2.42,1-3.13,2.03
      c-4.27,6.39-8.29,12.93-12.62,19.28c-4.63-7.14-9.17-14.33-13.9-21.4c-11.86,0.04-23.71-0.05-35.56,0
      C75.6,56.44,86.31,69.62,96.58,83.11 M175.58,127.18c23.6,0.07,47.2,0.09,70.8,0.131c0.08-8.261-0.021-16.53-0.09-24.801
      c-12.351-0.11-24.7-0.13-37.05-0.15c0-19.58-0.51-39.15-0.521-58.73c-11.11-0.08-22.229-0.08-33.34-0.09
      C175.38,71.42,175.359,99.3,175.58,127.18z"/>
  </g>
</g>
<g id="Layer_2">
  <rect x="44.57" y="23.79" width="221.991" height="123.729" fill="#808080"/>
  <g>
    <path fill="#808080" d="M44.57,159.945h10.916c1.797,0,3.28,0.266,4.447,0.8c2.215,1.024,3.323,2.916,3.323,5.673
      c0,1.439-0.297,2.616-0.892,3.531c-0.594,0.916-1.425,1.65-2.493,2.207c0.938,0.382,1.643,0.882,2.117,1.504
      c0.474,0.621,0.738,1.63,0.792,3.025l0.114,3.22c0.033,0.915,0.109,1.597,0.229,2.043c0.197,0.764,0.545,1.254,1.046,1.472v0.539
      h-3.989c-0.109-0.206-0.196-0.474-0.262-0.8c-0.065-0.328-0.12-0.96-0.164-1.896l-0.196-4.007
      c-0.074-1.568-0.641-2.619-1.699-3.155c-0.604-0.293-1.551-0.44-2.844-0.44h-7.195v10.299H44.57V159.945z M55.136,170.946
      c1.484,0,2.658-0.305,3.521-0.916c0.864-0.61,1.296-1.71,1.296-3.302c0-1.711-0.604-2.877-1.812-3.499
      c-0.647-0.326-1.51-0.489-2.591-0.489h-7.727v8.206H55.136z"/>
    <path fill="#808080" d="M68.667,159.945h17.427v2.942H71.838v7.289h13.176v2.78H71.838v8.141h14.5v2.861H68.667V159.945z"/>
    <path fill="#808080" d="M107.672,161.693c1.66,1.602,2.58,3.422,2.764,5.46h-3.171c-0.354-1.547-1.057-2.773-2.111-3.677
      c-1.054-0.906-2.535-1.357-4.439-1.357c-2.323,0-4.199,0.831-5.627,2.494c-1.428,1.664-2.143,4.214-2.143,7.649
      c0,2.813,0.645,5.097,1.935,6.848c1.29,1.751,3.214,2.626,5.773,2.626c2.356,0,4.149-0.92,5.38-2.763
      c0.653-0.971,1.14-2.245,1.461-3.827h3.171c-0.28,2.53-1.207,4.649-2.78,6.36c-1.885,2.06-4.427,3.091-7.627,3.091
      c-2.758,0-5.074-0.845-6.949-2.537c-2.467-2.235-3.701-5.687-3.701-10.354c0-3.544,0.927-6.451,2.779-8.719
      c2.003-2.466,4.767-3.696,8.289-3.696C103.682,159.291,106.014,160.092,107.672,161.693z"/>
    <path fill="#808080" d="M134.647,163.377c1.592,2.125,2.387,4.844,2.387,8.157c0,3.586-0.91,6.568-2.73,8.943
      c-2.136,2.79-5.182,4.186-9.138,4.186c-3.695,0-6.599-1.222-8.713-3.662c-1.885-2.354-2.829-5.331-2.829-8.927
      c0-3.247,0.807-6.026,2.42-8.337c2.071-2.964,5.133-4.446,9.187-4.446C129.47,159.291,132.609,160.653,134.647,163.377z
       M131.778,178.684c1.281-2.055,1.921-4.419,1.921-7.093c0-2.824-0.738-5.099-2.215-6.821c-1.477-1.724-3.495-2.586-6.056-2.586
      c-2.485,0-4.512,0.854-6.082,2.561c-1.569,1.708-2.354,4.225-2.354,7.551c0,2.662,0.673,4.906,2.019,6.733
      c1.346,1.827,3.529,2.74,6.547,2.74C128.424,181.769,130.497,180.741,131.778,178.684z"/>
    <path fill="#808080" d="M141.301,159.945h10.916c1.798,0,3.28,0.266,4.446,0.8c2.216,1.024,3.322,2.916,3.322,5.673
      c0,1.439-0.297,2.616-0.89,3.531c-0.594,0.916-1.425,1.65-2.493,2.207c0.938,0.382,1.643,0.882,2.118,1.504
      c0.473,0.621,0.737,1.63,0.792,3.025l0.115,3.22c0.031,0.915,0.108,1.597,0.228,2.043c0.195,0.764,0.545,1.254,1.046,1.472v0.539
      h-3.988c-0.109-0.206-0.196-0.474-0.262-0.8c-0.065-0.328-0.119-0.96-0.163-1.896l-0.196-4.007
      c-0.075-1.568-0.641-2.619-1.7-3.155c-0.604-0.293-1.552-0.44-2.844-0.44h-7.195v10.299h-3.253V159.945z M151.867,170.946
      c1.484,0,2.657-0.305,3.522-0.916c0.864-0.61,1.296-1.71,1.296-3.302c0-1.711-0.605-2.877-1.813-3.499
      c-0.647-0.326-1.51-0.489-2.591-0.489h-7.727v8.206H151.867z"/>
    <path fill="#808080" d="M165.234,159.945h9.6c3.258,0,5.786,1.17,7.582,3.514c1.603,2.114,2.403,4.822,2.403,8.125
      c0,2.551-0.474,4.855-1.419,6.915c-1.668,3.64-4.534,5.46-8.6,5.46h-9.566V159.945z M174.196,181.18
      c1.075,0,1.96-0.113,2.653-0.344c1.233-0.424,2.247-1.242,3.035-2.451c0.631-0.969,1.082-2.212,1.359-3.727
      c0.161-0.905,0.24-1.744,0.24-2.52c0-2.974-0.579-5.285-1.733-6.932c-1.158-1.644-3.021-2.467-5.589-2.467h-5.641v18.439H174.196z
      "/>
    <path d="M190.001,159.945h3.287v24.014h-3.287V159.945z" fill="#808080"/>
    <path fill="#808080" d="M198.567,159.945h3.832l11.977,19.401v-19.401h3.105v24.014h-3.653l-12.153-19.38v19.38h-3.107V159.945z"/>
    <path fill="#808080" d="M238.733,160.631c2.353,1.253,3.792,3.449,4.317,6.588h-3.221c-0.383-1.754-1.18-3.032-2.385-3.834
      c-1.206-0.801-2.727-1.201-4.562-1.201c-2.178,0-4.012,0.835-5.499,2.501c-1.488,1.669-2.233,4.153-2.233,7.454
      c0,2.856,0.614,5.18,1.842,6.974c1.229,1.793,3.23,2.689,6.009,2.689c2.124,0,3.885-0.63,5.279-1.889
      c1.394-1.259,2.106-3.294,2.139-6.105h-7.521v-2.697h10.546v12.849h-2.093l-0.784-3.089c-1.085,1.208-2.044,2.05-2.88,2.517
      c-1.404,0.806-3.19,1.211-5.354,1.211c-2.8,0-5.205-0.921-7.221-2.764c-2.198-2.311-3.297-5.482-3.297-9.515
      c0-4.021,1.073-7.22,3.223-9.597c2.04-2.267,4.684-3.4,7.928-3.4C235.188,159.322,237.111,159.759,238.733,160.631z"/>
    <path fill="#808080" d="M250.915,176.211c0.073,1.362,0.382,2.467,0.929,3.317c1.038,1.593,2.871,2.388,5.495,2.388
      c1.176,0,2.247-0.174,3.212-0.523c1.869-0.676,2.804-1.885,2.804-3.63c0-1.308-0.396-2.239-1.187-2.795
      c-0.802-0.545-2.059-1.018-3.771-1.422l-3.15-0.736c-2.059-0.479-3.515-1.007-4.371-1.586c-1.479-1.002-2.218-2.501-2.218-4.495
      c0-2.158,0.728-3.929,2.181-5.313c1.452-1.383,3.511-2.075,6.172-2.075c2.449,0,4.532,0.607,6.244,1.822
      c1.714,1.215,2.57,3.158,2.57,5.828h-3.058c-0.157-1.286-0.491-2.272-1.003-2.96c-0.951-1.252-2.566-1.879-4.843-1.879
      c-1.839,0-3.16,0.402-3.967,1.209c-0.806,0.808-1.207,1.744-1.207,2.812c0,1.178,0.476,2.038,1.427,2.584
      c0.622,0.349,2.033,0.784,4.229,1.308l3.264,0.768c1.573,0.372,2.788,0.878,3.643,1.521c1.478,1.123,2.217,2.753,2.217,4.888
      c0,2.66-0.943,4.562-2.83,5.706c-1.887,1.145-4.078,1.718-6.574,1.718c-2.913,0-5.194-0.764-6.841-2.289
      c-1.648-1.515-2.457-3.569-2.424-6.163H250.915z"/>
  </g>
  <polygon fill="#FFFFFF" stroke="#808080" points="65.63,42.73 101.19,42.73 115.09,64.13 128.5,42.715 164.7,42.715 132.2,83.2 164.66,127.21 
    129.5,127.311 113.6,104.077 98.167,127.311 62.5,127.311 96.167,83.167   "/>
  <polygon fill="#FFFFFF" points="175.38,42.715 175.58,127.18 246.38,127.311 246.29,102.51 209.167,102.51 209.167,42.715  "/>
</g>
</svg>
